<?xml version="1.0" encoding="utf-8"?>
<!-- Generator: Adobe Illustrator 16.0.0, SVG Export Plug-In . SVG Version: 6.00 Build 0)  -->
<!DOCTYPE svg PUBLIC "-//W3C//DTD SVG 1.1//EN" "http://www.w3.org/Graphics/SVG/1.1/DTD/svg11.dtd">
<svg version="1.1" id="Capa_1" xmlns="http://www.w3.org/2000/svg" xmlns:xlink="http://www.w3.org/1999/xlink" x="0px" y="0px"
	 width="2000px" height="2000px" viewBox="0 0 2000 2000" enable-background="new 0 0 2000 2000" xml:space="preserve">
<path fill="#FDED00" d="M997.522,56.667c-522.427,0-945.971,423.527-945.971,945.988c0,522.427,423.544,945.971,945.971,945.971
	c522.444,0,945.971-423.544,945.971-945.971C1943.493,480.194,1519.966,56.667,997.522,56.667 M997.522,1884.503
	c-486.25,0-881.848-395.599-881.848-881.848c0-486.276,395.599-881.865,881.848-881.865s881.848,395.589,881.848,881.865
	C1879.37,1488.904,1483.771,1884.503,997.522,1884.503"/>
<path fill="#FDED00" d="M997.522,120.781c-486.25,0-881.848,395.591-881.848,881.865c0,486.259,395.599,881.857,881.848,881.857
	s881.848-395.599,881.848-881.857C1879.37,516.372,1483.771,120.781,997.522,120.781"/>
<path fill="#162342" d="M997.513,120.106c-486.248,0-881.848,395.599-881.848,881.865c0,486.249,395.601,881.848,881.848,881.848
	c486.275,0,881.874-395.599,881.874-881.848C1879.387,515.705,1483.788,120.106,997.513,120.106 M1456.834,1406.642l1.024-2.666
	c24.494-63.832,43.046-127.869,55.822-192.059h28.866c0.137,1.928,0.273,3.962,0.375,6.079c1.42,19.849,1.658,33.924,1.676,40.533
	l0.102,26.322h167.84l-0.034-26.457c-0.035-22.154-1.776-101.855-23.111-198.193c-33.051-149.196-98.113-266.756-188.218-340.025
	l-5.448-4.391c-10.505-38.671-23.076-77.292-37.869-115.828l-1.024-2.673l143.346-141.577
	c131.113,144.515,211.105,336.216,211.105,546.264c0,210.303-80.195,402.243-211.618,546.819L1456.834,1406.642z M1436.594,1040.934
	c10.18-31.336,22.357-60.263,36.381-86.379c14.043,26.117,26.221,55.043,36.4,86.379H1436.594z M1551.121,406.122l-141.311,139.561
	l-2.683-1.034c-37.699-14.74-75.464-27.354-113.3-38.004l1.623-5.628l-3.194-6.158l-2.938-1.616l0.018-0.118l-0.272-0.752
	c-0.786-3.092-1.725-7.378-1.862-10.881c-0.291-6.123-9.787-12.604-9.787-12.604l0.067-1.128l-0.751-1.938
	c-0.719-3.186-1.793-8.028-2.289-10.318c-0.444-2.203-2.51-4.44-4.083-5.936l-0.05-0.102l-0.717-0.615
	c-0.599-0.521-1.026-0.871-1.026-0.871l-2.085-1.75l-1.639-4.263c-2.373-7.388-5.056-17.021-4.424-20.745
	c1.128-6.389-13.068-4.374-13.068-4.374l-8.026-0.436l-3.554,0.923l-5.5-1.238l2.664-11.513l-1.076-18.559l-0.085-1.384
	l-0.085-0.102c-0.77-5.542-3.911-10.369-8.864-9.985c-5.432,0.437-12.777-4.15-12.777-4.15l-1.845-1.4l-3.16-2.725
	c-0.803-1.102-1.76-1.836-2.785-2.399l-0.511-0.437l-0.241,0.087c-3.023-1.291-6.593-0.804-9.974,0.315
	c-0.667,0.231-1.332,0.436-1.982,0.717c-2.084,0.847-3.995,1.854-5.5,2.716c-5.329,3.092-14.229,23.419-19.268,35.104
	c-5.056,11.682,0,18.84,0,18.84l1.196,5.791l-2.716,6.028l-0.632,4.357l-0.087,0.017c0,0-0.256,1.136-0.324,2.784l-0.102,0.888
	l0.102,0.18c0.206,3.673,1.966,9.112,9.207,12.717l0.035,0.052l1.315,0.665l2.493,1.325c0,0,16.262,19.661,33.94,20.326l5.653,2.417
	l6.56-0.385l1.11-0.059c1.725,0.213,5.141,2.084,7.771,13.144l4.169,17.482l3.997,4.4l7.516,19.814l-5.637,20.898l-4.833,4.407
	l-1.966,4.339l-0.717,1.58c-1.64,3.288-6.32,10.47-15.1,7.516c-11.223-3.759-19.455,3.757-21.317,9.411
	c-1.265,3.835,0.956,10.009,5.192,13.647c2.049,1.76,4.543,2.974,7.379,2.938c1.982,0,4.236,0.104,6.594,0.274
	c11.137,2.049,13.169,8.292,13.169,8.292l1.06,3.409l6.303,19.976c0,0,0.085,0.333,0.273,0.88l0.615,1.99l0.239,0.248
	c2.049,5.176,7.413,15.791,18.925,23.803c11.274,7.856,9.26-3.553,7.209-10.667l-0.018-0.385l-0.598-1.649
	c-0.223-0.682-0.41-1.289-0.58-1.767c-0.239-1.358-1.024-6.397,2.563-1.238c0,0,0.016,0,0.033,0.017
	c3.108,5.86,7.704,11.103,13.254,6.91c3.726-2.819,4.477-9.011,3.896-15.757l0.188-0.752l-0.547-2.313
	c-0.838-6.176-2.529-12.453-3.911-16.895l-4.972-21.265l1.18-10.659l1.23-1.725c0.102,0.017,0.203,0.052,0.324,0.085l0.939,0.821
	l9.803,28.054l4.954,3.255l11.206-9.027l8.506-12.521c23.846,7.61,47.691,16.091,71.469,25.452l1.793,0.7l0.7,1.76
	c15.748,40.131,29.038,80.323,39.833,120.61c-79.599,73.773-137.503,184.527-168.045,322.389
	c-21.351,96.338-23.11,176.039-23.144,198.193l-0.035,26.457h167.856l0.104-26.322c0-6.593,0.271-20.633,1.708-41.063
	c0.102-1.896,0.203-3.74,0.341-5.55h34.23c-12.436,58.382-30.029,116.697-52.849,174.79l-0.7,1.793l-1.793,0.684
	c-43.627,17.167-87.389,31.293-131.184,42.601l3.006-5.245l14.946-12.621c49.825-33.821,21.693-42.259,16.072-53.55
	c-5.602-11.325-34.811-20.31-34.811-20.31l-12.573-6.867l-18.326-16.603l-6.662-4.305l-6.439-10.386l-1.436-5.157l-0.512-16.808l0,0
	c-0.395-12.247-6.595-20.531-9.941-24.12l-19.779-19.54c0,0-10.283-10.18-17.748-27.16c-5.261-11.956-12.043-15.731-15.612-16.942
	l-0.324-0.376l-2.356-0.274c-0.923-0.153-1.982-0.272-3.246-0.357h-0.035c-9.907-0.634-20.188-5.211-27.772-9.378
	c-1.026-0.411-2.152-1.026-3.366-1.913c-0.05-0.035-0.118-0.052-0.153-0.085c-2.835-1.709-4.954-3.128-6.303-4.048
	c-13.29-7.927-27.278-12.368-33.805-14.161l-8.454-1.554l-7.226-3.828v-0.017l-3.023-1.589l-0.255,0.137
	c-7.244-2.134-10.967,4.407-11.036,4.527c-3.518,1.98-8.268,4.015-12.332,3.433c-4.852-0.7-6.917-4.73-7.771-7.446
	c-3.084-11.718,6.404-23.692,6.404-23.692l4.577-5.483c0.547-0.393,0.958-0.923,1.23-1.502l0.104-0.104l-0.035-0.066
	c1.744-3.86-1.109-11.274-2.067-16.176c-1.109-5.739-13.049-6.167-13.049-6.167l-7.397-1.896c-2.869-7.072-2.15-11.752-1.365-14.092
	l1.819-4.135l4.372-6.662c0,0,15.979-17.626,6.141-21.777l-2.066-2.016c-0.394-0.138-0.717-0.119-1.144-0.393
	c-9.069-5.415-15.246,3.108-15.246,3.108s-2.758,5.5-11.632,9.259l-0.068,0.068l-0.452,0.135c-1.819,0.735-3.802,1.419-6.142,1.949
	l-1.819,0.58l-0.769-0.256c-12.434,1.502-17.858-7.055-17.858-7.055l-0.665-3.674l-0.232-0.271l-2.356-14.537v-0.017l-1.769-10.761
	v-0.018l-0.597-3.638l0.196-0.632c0-4.348,1.221-11.138,6.541-28.108c3.34-10.752,7.329-15.653,10.65-17.841l0.436-0.75
	c0.513-0.104,0.981-0.172,1.485-0.291c2.921-1.178,4.989-0.376,4.989-0.376c5.32,0.078,10.248,1.947,15.116,5.739
	c2.827,2.221,8.114,6.337,13.604-0.085c2.085-2.435,4.374-2.972,8.19-1.871c7.754,2.169,15.1,4.21,21.506,8.566
	c1.502,1.017,3.262,1.864,5.483,2.666c8.199,2.938,10.009,6.08,7.993,13.972c-2.356,9.361,0.717,16.825,3.451,23.401
	c0.58,1.419,1.162,2.853,1.709,4.288c0.955,2.579,4.404,5.124,7.207,4.389c2.544-0.648,5.056-3.108,5.875-5.704
	c1.71-5.604,3.484-12.188,2.545-19.447c-0.75-5.995-1.041-12.666-0.887-20.395c0.153-7.575,4.629-13.571,11.973-16.056l-0.033-0.154
	l22.582-11.812v-0.019c4.338-2.271,8.813-9.581,9.889-11.384l4.373-7.558l0.427-5.611c0,0,0-0.163,0-0.385l0.17-1.869l0.582-0.982
	c0.444-1.102,1.145-2.384,2.255-3.724l0.581-0.915l5.26-4.074l12.776-15.62l8.49-4.928c5.654,0.922,9.924-1.58,12.571-3.835
	l4.168-4.39l0.017-0.017l0.258-0.265c1.861-1.956,13.887-13.588,33.239-14.518c-4.459,10.546,0.854,13.527,0.854,13.527
	s10.863,5.278,20.207-5.654c9.36-10.915,19.472-8.661,19.472-8.661s4.682-2.425,5.398-4.627c0-0.019,4.61-6.022-4.938-9.976
	c-9.53-3.955-19.677-10.752-15.44-22.88c5.363-9.796,7.84-13.657,11.803-14.007c4.544-0.333,15.577-1.486,15.577-1.486l15.202-0.821
	l3.86-2.229l7.175-0.487l5.739-1.119c0,0,8.098,1.171,9.019-7.66l0.222-0.333l-0.494-24.238l-5.603-11.897
	c0,0-4.1-12.853-6.337-13.699c-2.238-0.854-4.954-9.753-4.954-9.753l-3.04-10.709l-4.527-50.192c0,0,2.237-12.41-4.783-11.343
	c-7.003,1.067-8.181,5.517-8.181,5.517l-2.375,3.827l-5.67,5.056c-8.029,6.91-10.557,0.068-11.344-3.553l-0.289-1.956l-5.552-35.81
	l-4.064-7.132l-3.622-10.215l-1.023-2.938l-0.138-0.085c-4.306-8.822-17.39-10.582-20.224-12.162
	c-3.127-1.767-2.188-6.977-8.951-7.166c-4.715-0.128-6.646,2.844-7.396,4.663h-0.019l-3.142,7.021l0.068,5.313l-3.28,18.474
	c-0.309,1.784-3.485,9.334-5.227,11.546c-1.776,2.203-2.152,6.593-2.152,6.593l-0.138,0.75c-0.017,1.871-0.135,3.792-0.442,5.731
	c-1.521,9.044-0.444,12.931-0.12,13.879l0.12,0.221v0.019l0.785,2.049l-0.238,7.764c-0.206,16.219-18.978,26.834-18.978,26.834
	l-0.12,0.188c-5.432,3.783-7.088,8.746-7.516,11.479l-0.033,0.033v0.121c-0.173,1.135-0.173,1.871-0.173,1.871l-1.332,14.253
	c-0.442,4.885-3.416,7.354-6.491,10.643c-2.032,2.202-3.654,0.435-4.662-2.631l-1.315-8.831c-0.479-6.749-1.058-17.125-1.058-17.125
	l1.194-8.583l-0.033-0.095c0.615-8.831-12.077-20.796-12.095-20.813l-28.729-33.369l-10.626-5.985l-2.493-3.478
	c6.39-7.362,2.221-18.771,2.221-18.771c-4.544-11.769-1.981-23.469,2.511-33.128c0.769-1.658,1.589-3.255,2.443-4.774
	c6.165-10.934,13.938-18.26,13.938-18.26l37.543-29.927c7.142-6.993,17.252-19.292,18.005-49.783l-0.821-3.253l-0.256-0.35
	c0.563-10.231,1.691-27.843,3.023-29.663c1.862-2.588-0.393-17.721-7.516-11.315c-3.536,3.185-5.637,1.997-6.9-0.019l-1.606-4.876
	l-2.477-7.456l-0.854-5.243l3.365-17.177l-0.444-24.16l-0.495-1.436l-0.395-1.152c-0.613-2.093-1.57-6.825,0.395-11.684
	c2.647-6.577,10.504-12.502,10.504-12.502l-0.033-0.035c1.571-0.717,3.279-1.699,5.089-2.998l1.282-0.641l0.769-0.4
	c1.4-0.804,4.646-3.22,9.395-9.848h0.017c2.034-2.451,3.536-4.672,4.731-6.739l0.444-0.597l0.035-0.154
	c8.881-16.373-6.56-21.335-6.56-21.335s-14.759-11.684-24.118-2.664c-9.36,9.01-9.43,22.667-9.43,22.667l-2.221,14.92
	l-18.823,45.375l-2.34,11.317l1.691,16.371l-2.493-0.495l-7.227,2.169l-7.02,4.767l-7.807,3.246l-2.117,2.451l0.256,3.416
	l1.348,2.569c0.189,1.819,0.154,5.63-6.609,6.782l-13.955-1.102c-2.512-0.956-4.662-2.435-6.593-4.039l-5.159-5.33
	c-1.469-1.931-2.596-3.767-3.451-5.304l-4.081-8.311c0,0,1.332-10.078-12.162-10.352c-7.038-0.145-10.316,2.742-11.89,5.543
	l-0.289,0.248l-0.137,0.641c-1.008,2.229-1.043,4.168-1.043,4.168l-1.076,4.339c-1.178,4.791-4.149,4.261-6.328,3.125l-1.98-1.29
	c-0.281-0.248-0.487-0.418-0.487-0.418l-0.102,0.017l-9.857-6.473l-3.792-0.019l-6.558-2.782c-4.655-1.992-3.271-6.108-0.265-12.505
	c2.998-6.406-19.114-18.66-19.114-18.66l-6.056-4.357l-8.694-10.965c-5.765-7.276-11.383-8.455-11.383-8.455
	c-5.595-1.136-10.165-7.293-13.153-13.692c-2.99-6.404-7.115-1.519-8.627-6.404c-0.923-3.075-5.995-5.261-10.837-6.678
	c-2.87-0.837-5.688-1.419-7.507-1.752c-0.667-0.135-1.171-0.17-1.734-0.256c-3.588-0.511-5.663-0.281-9.865,0.256
	c-4.859,0.615-21.019,5.526-21.019,5.526l-13.716,3.238c-10.078,2.366-22.429-6.927-30.072-14.007l-7.182-7.329
	c0,0-7.627-7.771-12.614-18.173c-5.005-10.429-46.035-20.114-46.035-20.114c-1.58-12.366-23.248-24.963-23.248-24.963l-2.536-3.144
	l-12.171-2.186l-1.28-0.231l-0.385,0.137c-10.761-0.871-37.569,5.841-46.4,19.055c-9.276,13.834-14.887,8.462-24.615,14.39
	c-9.71,5.926,2.699,26.304,2.716,26.323l12.171,29.388l0.298,3.057l-1.299,1.136l-20.129-12.836l-0.213,0.085
	c-13.888-6.61-20.181,11.145-20.181,11.145c-3.622,22.795,8.223,28.979,14.672,30.68l0.017,0.017l0.111,0.017
	c2.237,0.563,3.809,0.599,3.809,0.599l15.057,2.434c1.017,10.82-7.029,15.843-7.029,15.843l-17.278,3.816
	c-12.819,2.811-14.852,11.487-16.107,29.483c-1.28,17.986,9.131,19.576,9.131,19.576s1.957,1.571,3.374,3.288
	c0.017,0.965-0.301,1.836-0.863,4.987c-0.691,3.937,3.569,6.543,5.44,7.482c-2.425,1.58-5.031,2.87-7.901,3.681
	c-4.022,1.11-8.942,3.21-11.162,9.565c-0.667,1.904,0.137,3.988,1.853,4.774c5.408,2.519,10.728,1.973,16.202-1.716
	c3.844-2.588,7.695-4.253,11.769-5.09c2.571-0.521,5.373-1.786,7.849-3.553c6.25-4.44,11.462-7.064,16.952-8.549
	c7.047-1.904,11.317-7.062,11.701-14.151c0.085-1.623,0.667-3.023,3.305-4.876c2.4-1.701,4.535-3.288,6.458-4.826l0.034,0.033
	c0,0,7.61-6.875,5.491-1.802c-0.298,0.719-0.315,1.188-0.187,1.521c-0.026,0.036-0.043,0.069-0.043,0.069
	c-4.663,6.524-2.741,10.846-1.188,12.836c3.785,4.835,9.181,1.965,11.514,0.752l0.436-0.223c3.321-1.734,6.926-3.348,10.846-3.536
	c6.482-0.282,8.498-6.175,9.352-8.694c0.949-2.768,2.921-4.159,4.485-4.338c1.306-0.137,2.408,0.563,3.142,2.016
	c2.938,5.824,6.688,10.163,10.778,14.553l3.042,14.34c-52.858,12.597-105.614,29.14-158.224,49.705l-2.673,1.034L445.16,404.969
	c145.217-134.456,339.327-216.77,552.353-216.77C1211.172,188.199,1405.796,271.001,1551.121,406.122 M989.169,1286.184l2.732,13.17
	c-5.618,56.711,25.331,83.306,25.331,83.306l10.045,12.571l2.613,10.591l-20.292,58.485c-4.023,0.033-8.028,0.137-12.051,0.137
	c-128.544,0-257.106-25.075-384.754-75.26l-1.784-0.684l-0.7-1.793c-13.503-34.366-25.118-68.77-35-103.256
	c65.576-9.6,126.793-41.438,172.375-90.753l16.739-18.121l-91.811-97.296l-24.52-26.013
	c-19.746,34.435-56.967,58.912-100.693,63.113c-4.554,0.53-9.165,0.82-13.82,0.82c-66.325,0-120.285-53.977-120.285-120.294
	c0-66.342,53.96-120.302,120.285-120.302c1.64,0,3.272,0.215,4.895,0.282c47.93,1.554,89.173,27.228,110.088,64.473l24.418-26.218
	l91.342-98.056l-16.638-18.002c-44.668-48.29-104.349-79.897-168.402-90.181c8.992-29.925,19.292-59.827,31.027-89.701l0.7-1.76
	l1.784-0.7c57.479-22.599,115.128-40.055,172.904-52.474l15.159,13.47l-5.406,26.022l1.145,1.701
	c2.955,4.303,1.171,7.012,0.605,17.362c-0.554,10.361,4.322,17.321,6.406,23.966s1.084,15.585-0.786,25.185
	c-1.871,9.609,13.759,30.02,13.759,30.02l2.682,4.724l0.204,4.997l-3.688,13.545c-0.019,0.033-19.814,57.665-19.568,72.739
	c0.173,10.711,1.325,17.877,2.555,24.454v0.265l2.025,10.896l3.373,21.497c0,0,1.212,9.148,2.612,17.108
	c0.188,0.871,0.607,2.134,1.691,2.955c0.104,0.085,0.12,0.153,0.18,0.213c9.548,6.593,13.101,23.299,13.101,23.299
	c1.956,6.712,4.041,13.922,4.843,17.063c1.7,6.628,3.759,9.498,4.142,12.001c0.367,2.5,3.169,11.042-1.136,12.349
	c-4.09,1.247-5.978,0.684-4.842,4.09c1.119,3.399,3.075,6.475,7.063,10.761c3.988,4.305,5.876,6.278,5.704,9.848
	c-0.196,3.586-4.535,11.632-2.638,15.218c1.888,3.579,7.712,12.521,7.899,16.458c0.196,3.955,4.938,10.036,9.446,8.251
	c4.535-1.793,3.032-5.91,2.647-9.498c-0.375-3.577-4.15-14.672-4.15-14.672s-0.752-10.385-0.939-15.57
	c-0.197-5.193-3.399-14.861-3.399-14.861s-1.308-2.151-1.119-4.833c0.196-2.689-0.189-12.171-2.451-20.044
	c-2.254-7.884-3.392-7.345-2.443-11.104c0.939-3.757,6.747-8.377,6.747-8.377s10.728,2.784,9.779,6.361
	c-0.948,3.588,1.871,42.422,6.21,50.485c4.338,8.043,6.404,9.667,6.404,10.385c0,0.717-3.399,4.833-2.451,6.96
	c0.948,2.169,12.247,22.743,13.938,29.551c1.7,6.797,5.474,18.293,1.332,29.055c-4.15,10.726-1.699,15.731,4.707,24.87
	c6.396,9.121,13.22,16.107,13.22,16.107s15.092,14.16,22.062,18.635c0.572,0.393,1.204,0.82,1.656,1.043
	c5.841,2.869,13.382,14.501,22.616,12.008c9.224-2.512,15.62-4.476,18.84-0.906c3.203,3.587,8.464,9.686,8.464,9.686l7.311,7.636
	l13.52,17.646l7.004,16.978c0,0,5.611,19.779,16.697,22.069c4.8,0.956,10.044-2.392,14.449-6.475l0.65,3.792
	c0,0.017,0.409,1.862,0.785,4.767l0.308,1.741l-0.033,0.717c0.854,8.302,0.854,21.762-6.099,29.688l-0.291,0.547l-1.639,1.365
	l-6.321,5.365l-22.727,18.788C997.513,1242.628,981.663,1261.092,989.169,1286.184 M396.009,454.435l142.244,142.849l-1.015,2.673
	c-13.401,34.931-25,69.93-34.897,104.982c-146.173,15.637-260.429,139.688-260.429,289.968
	c0,148.872,112.155,271.975,256.407,289.466c10.7,39.937,23.647,79.803,38.919,119.602l1.015,2.666L395.94,1549.405
	c-131.764-144.644-212.181-336.823-212.181-547.434C183.759,791.309,264.219,599.104,396.009,454.435 M445.075,1598.89
	l140.211-140.663l2.673,1.058c129.278,50.527,260.684,77.241,390.945,79.563l-7.492,12.061l-14.023,36.145
	c-0.017,0.033-2.971,9.803-1.921,18.106l0.239,3.518l0.265,0.513l-0.913,1.28l-2.555,1.367l-4.329,4.015
	c0,0-11.445,10.692-12.077,30.198l-0.187,2.289l-1.803,1.538l-3.255,5.909c0,0-18.977,24.409-14.868,55.292
	c4.133,30.9,21.915,55.377,36.98,55.77c11.854,0.274,19.729,0.718,18.542-7.225l0.017-0.019l-0.059-0.135
	c-0.324-2.152-1.188-4.731-2.922-8.234l-9.266-25.996l-0.069-3.281l4.228-14.348l5.902-9.531l14.861-15.611
	c0,0,16.953-4.168,14.714-14.35c-2.236-10.146-15.568-13.186,4.911-31.257l7.277-6.714l10.676-10.316l13.699-5.638
	c0,0,2.562-7.908,19.779-6.746c17.219,1.161,19.61-7.516,30.405-25.417l17.867-6.936l39.627-36.878l6.115-10.146
	c86.244-12.451,172.52-35.442,257.857-68.786l2.683-1.058l140.765,140.099c-145.274,134.839-339.691,217.409-553.063,217.409
	C784.451,1815.734,590.282,1733.387,445.075,1598.89"/>
<path fill="#162342" d="M937.165,310.817c2.742,3.622,4.159,7.234,4.459,11.402c0.085,1.254,0.315,2.569,0.717,3.903
	c1.187,4.124,3.101,5.346,6.858,4.389c0.735-0.196,1.469-0.426,2.205-0.648c1.647-0.495,3.184-0.965,4.706-1.067
	c4.509-0.317,7.26-2.673,8.66-7.457c0.4-1.325,1.032-2.425,1.623-3.579c2.434-2.818,5.772-6.423,9.358-3.553
	c3.775,3.059,1.204,9.463,1.204,9.463l0.036,0.019c-1.367,2.801-0.786,5.124,1.119,8.848c0.949,1.835,1.914,3.655,2.903,5.542
	l0.418,0.769c0.478,0.913,0.461,2.349-0.255,3.049l-1.683,1.604c-1.973,1.923-2.99,3.818-3.134,5.774
	c-0.104,1.921,0.596,1.597,2.246,3.605c0.735,0.896,2.272,2.5,4.296,3.151c2.365,0.75,4.767,0.769,7.054,1.358
	c0.939,0.247,1.835,0.53,2.742,0.776c3.032,1.008,14.622,5.296,12.332,10.574c-1.306,3.014-4.176,3.433-6.729,3.118
	c-1.213-0.539-2.417-1-3.656-1.223c-0.315-0.05-0.75-0.111-1.084-0.18c-0.017,0-0.111-0.05-0.111-0.05v0.034
	c-3.323-0.589-7.345-1.169-11.367-0.871c-2.237,0.171-4.125-0.529-5.228,1.221c-1.067,1.701-1.365,3.903-0.861,6.193
	c1.313,5.824,3.783,12.803,11.196,15.253c5.688,1.869,6.071,2.955,6.175,9.617c0.118,6.602,2.065,9.642,7.156,11.282
	c8.012,2.486,16.202,2.716,24.588,0.717l4.886-1.4c2.408-0.819,4.901-1.853,7.378-3.057c1.642-0.786,2.273-0.923,2.683-0.939h0.171
	c0.222,0,0.444,0.05,0.667,0.135c0.393,0.172,0.956,0.556,2.134,1.939c0.615,0.769,1.23,1.682,1.88,2.673l2.22,3.185
	c4.374,4.954,10.283,10.165,18.738,7.773c2.699-0.761,4.185-1.854,4.835-3.553c0.87-2.169,0.033-4.552-0.923-6.593
	c-0.188-0.402-0.376-0.769-0.582-1.154l-0.478-0.913c-0.854-1.853-0.341-3.007,0.206-3.792c0.887-1.315,1.845-1.666,3.245-1.136
	c1.093,0.383,2.187,0.625,3.142,0.821l1.266,0.298c0.479,0.119,0.989-0.144,1.332-0.648c3.073-5.039,1.23-8.729-0.991-11.651
	c-0.905-1.221-1.878-2.399-2.836-3.586c-1.793-2.169-3.519-4.253-4.954-6.524c-4.833-7.645-5.618-14.007-2.51-20.626
	c1.999-4.262,1.895-8.933,1.828-12.691c-0.137-7.421,0.066-14.75,0.308-22.232c0.118-3.57,1.47-6.106,4.235-7.942
	c2.186-1.469,4.27-3.937,5.568-6.628c1.024-2.101,1.213-4.5,0.529-6.754c-0.752-2.427-2.408-4.357-4.577-5.261
	c-2.084-0.88-3.979-0.804-5.688,0.204c-1.229,0.769-2.955,2.453-3.859,6.108l-0.428,1.647c-0.272,1.043-1.213,1.71-2.17,1.556
	l-0.854-0.137c-6.388-1.076-8.232,0.469-9.325,7.43c-0.582,3.655-0.958,7.362-1.334,10.965c-0.103,1.135-1.024,1.956-2.082,1.939
	c-1.043-0.052-1.862-1-1.897-2.153c-0.137-5.474-2.032-9.479-5.739-12.256c-0.494-0.367-1.145-0.23-1.57,0.333
	c-0.394,0.521-0.753,1.008-1.077,1.469c-0.752,0.975-1.331,1.751-1.861,2.358c-1.266,1.365-2.545,1.938-3.639,1.597
	c-0.99-0.265-1.742-1.384-2.066-3.22c-1.401-7.491-5.484-11.565-12.146-12.103c-1.008-0.094-1.81-1-1.827-2.136
	c-0.153-2.569-0.291-5.056-0.82-7.421c-0.291-1.306-0.871-2.136-1.555-2.794c-0.444-0.35-1.57-0.861-3.799-0.733
	c0,0-0.052-0.035-0.087-0.035c-7.874-1.666-3.364-9.309-3.364-9.309l-0.102-0.017c0.648-1.017,1.031-1.963,1.135-2.486
	c0-0.4-0.068-0.802-0.085-1.204c-0.052-1.768-0.333-3.485-1-5.124l-0.452-1.119c-0.419-0.999-0.999-2.101-1.469-3.168
	c-0.632-1.469-1.172-2.938-1.974-4.338c-3.151-5.509-7.071-8.097-11.982-7.909h-0.035c-3.167,0.128-6.021-1.504-7.421-4.262
	c-3.988-7.805-9.462-11.315-17.979-10.88c0.019,0.033-0.4-0.017-0.613-0.069c-0.47-0.145-0.702-0.213-0.906-0.265
	c-4.168-0.717-7.038-0.033-8.677,2.084c-1.521,1.99-1.836,5.072-0.932,9.147l0.111,0.956c0.717,5.654-0.367,9.813-3.185,13.068
	c-0.333,0.4-0.599,0.845-0.983,1.204c-1.032,0.982-2.059,2.084-2.52,3.484c-1.392,4.251-3.792,7.712-6.345,11.265
	c-0.231,0.315-0.402,0.613-0.631,0.93c-1.342,1.871-2.605,3.69-3.775,5.594c-0.18,0.265-0.384,0.521-0.547,0.802
	c-2.844,4.791-3.972,7.525-2.903,10.795C934.577,306.982,935.561,308.665,937.165,310.817"/>
<path fill="#D53541" d="M646.838,1095.012c-28.79,32.559-69.768,51.107-113.258,51.107c-83.398,0-151.228-67.812-151.228-151.219
	c0-83.382,67.83-151.228,151.228-151.228c43.746,0,84.903,18.764,113.709,51.653l74.816-80.29
	c-49.135-51.44-117.594-80.862-188.525-80.862c-143.755,0-260.717,116.962-260.717,260.727c0,143.771,116.962,260.71,260.717,260.71
	c70.931,0,139.391-29.381,188.499-80.829L646.838,1095.012z"/>
<path fill="#D53541" d="M1572.268,1197.567c0.65,5.519,1.162,11.581,1.538,18.312c1.194,16.945,1.571,30.027,1.691,38.023h106.057
	c-0.272-26.272-2.972-99.447-22.377-187.006c-31.515-142.329-92.887-253.902-177.404-322.638l-8.813-7.071l-8.779,7.089
	c-84.518,68.717-145.875,180.291-177.406,322.603c-19.403,87.678-22.086,160.785-22.377,187.022h106.059
	c0.119-8.063,0.53-21.182,1.725-38.16c0.359-6.609,0.854-12.656,1.538-18.397l1.673-16.347h195.205L1572.268,1197.567z
	 M1395.325,1071.885l3.092-11.239c13.458-48.946,31.361-93.118,53.225-131.406h-0.153l21.471-35.255l21.641,35.255h-0.289
	c21.88,38.271,39.764,82.433,53.241,131.406l3.075,11.239H1395.325z"/>
</svg>
