<?xml version="1.0" encoding="utf-8"?>
<!-- Generator: Adobe Illustrator 16.0.0, SVG Export Plug-In . SVG Version: 6.00 Build 0)  -->
<!DOCTYPE svg PUBLIC "-//W3C//DTD SVG 1.1//EN" "http://www.w3.org/Graphics/SVG/1.1/DTD/svg11.dtd">
<svg version="1.1" id="Capa_1" xmlns="http://www.w3.org/2000/svg" xmlns:xlink="http://www.w3.org/1999/xlink" x="0px" y="0px"
	 width="2000px" height="2000px" viewBox="0 0 2000 2000" enable-background="new 0 0 2000 2000" xml:space="preserve">
<path fill="#FFFFFF" d="M1832.293,521.249c-5.747-5.762-13.605-8.898-21.793-8.607c-10.403,0.322-20.791,0.502-31.06,0.502
	c-358.381,0.216-630.038-212.465-745.891-446.238c-3.622-8.307-10.956-14.714-20.185-16.892c-0.914-0.217-1.819-0.367-2.709-0.509
	h-0.105c-0.277-0.044-0.539-0.09-0.83-0.104c-0.074-0.03-0.188-0.03-0.293-0.045c-0.217-0.015-0.426-0.029-0.628-0.067
	c-0.12,0-0.232,0-0.337,0c-0.218-0.029-0.441-0.029-0.658-0.029c-0.105-0.015-0.188-0.015-0.293-0.015
	c-0.322-0.015-0.627-0.015-0.949-0.015s-0.645,0-0.952,0.015c-0.089,0-0.163,0-0.306,0.015c-0.18,0-0.411,0-0.644,0.029
	c-0.089,0-0.21,0-0.337,0c-0.202,0.038-0.428,0.053-0.63,0.067c-0.118,0.016-0.194,0.016-0.319,0.045
	c-0.263,0.015-0.518,0.06-0.794,0.104h-0.127c-0.892,0.142-1.774,0.292-2.695,0.509c-9.228,2.178-16.57,8.585-20.17,16.892
	C863.669,300.664,591.99,513.36,233.728,513.144c-10.282,0-20.708-0.18-31.133-0.502c-8.195-0.246-15.986,2.845-21.764,8.645
	c-5.792,5.808-8.838,13.621-8.517,21.809c24.076,666.688,358.196,1105.073,817.97,1387.163c1.579,1.033,3.248,1.887,5.029,2.635
	c3.615,1.512,7.418,2.23,11.219,2.23c5.748,0,11.406-1.661,16.278-4.865c459.784-282.059,794.036-720.475,818.001-1387.163
	C1841.14,534.907,1838.086,527.049,1832.293,521.249"/>
<path fill-rule="evenodd" clip-rule="evenodd" fill="#BE0411" d="M1006.569,76.868C882.574,328.205,587.716,554.299,200.102,541.149
	c24.42,658.666,351.535,1086.752,806.468,1366.357V76.868z"/>
<path fill-rule="evenodd" fill="#000000" clip-rule="evenodd" d="M1006.51,76.868c123.973,251.337,418.814,477.431,806.52,464.281
	c-24.414,658.666-351.557,1086.752-806.52,1366.357V76.868z"/>
<path fill-rule="evenodd" clip-rule="evenodd" fill="#FFFFFF" d="M1307.975,1006.299c-57.387-192.573-67.955-292.71-73.149-496.501
	c-80.273-49.409-157.271-115.089-228.315-199.771v-0.644c-0.105,0.12-0.181,0.225-0.308,0.367c-0.089-0.143-0.179-0.247-0.291-0.367
	v0.644c-71.13,84.682-148.012,150.362-228.348,199.771c-5.192,203.791-15.752,303.928-73.036,496.501
	c-40.31,104.814-87.228,214.32-143.215,310.7c82.415,133.112,167.465,226.063,317.279,352.065v-625.848h127.918h0.553h126.818
	v625.848c149.637-126.002,234.715-218.953,317.188-352.065C1395,1220.619,1348.149,1111.113,1307.975,1006.299 M1133.881,950.893
	h-126.818h-0.553H878.592V569.236c44.014-28.431,86.846-63.158,128.18-102.786c41.492,39.627,82.939,74.354,127.109,102.786V950.893
	z"/>
</svg>
