<?xml version="1.0" encoding="utf-8"?>
<!-- Generator: Adobe Illustrator 16.0.0, SVG Export Plug-In . SVG Version: 6.00 Build 0)  -->
<!DOCTYPE svg PUBLIC "-//W3C//DTD SVG 1.1//EN" "http://www.w3.org/Graphics/SVG/1.1/DTD/svg11.dtd">
<svg version="1.1" id="Capa_1" xmlns="http://www.w3.org/2000/svg" xmlns:xlink="http://www.w3.org/1999/xlink" x="0px" y="0px"
	 width="2000px" height="2000px" viewBox="0 0 2000 2000" enable-background="new 0 0 2000 2000" xml:space="preserve">
<g>
	<rect x="1753.5" y="1382.5" fill="#1B1464" width="66" height="62"/>
	<rect x="192.5" y="1382.5" fill="#1B1464" width="67" height="62"/>
	<path fill="#FFFFFF" d="M467.204,540.879c-63.697,99.825-100.605,218.37-100.605,345.514
		c0,355.497,288.412,643.629,644.187,643.629c355.77,0,644.182-288.132,644.182-643.629c0-124.657-35.481-241.049-96.898-339.637
		l-72.203,45.682l-159.693-150.779l-214.816-92.411l-151.592-9.728l-122.405,23.507l-105.382,58.366l-117.542,77.01l-55.124,83.494
		l-25.939-2.431L467.204,540.879z"/>
	<polygon fill="#C1272D" points="1518.292,1135.5 1465.5,1135.5 1465.5,644.5 1511.808,644.5 1544.231,891.078 	"/>
	<rect x="1289.5" y="1107.5" fill="#C1272D" width="42" height="63"/>
	<polygon fill="#C1272D" points="1182.5,384.916 1182.5,857.5 1207.073,857.5 1266.994,897.5 1284.5,897.5 1284.5,935.5 
		1273.5,935.5 1273.5,1033.5 1328.5,1033.5 1328.5,939.392 1328.5,929.662 1328.5,890.752 1328.5,858.328 1328.5,851.841 
		1328.5,809.688 1328.5,449.766 	"/>
	<path fill="#C1272D" d="M1042.5,356.5h-11.096l1.318-7.691l-21.888-9.309h-26.751l-87.548,24.331L652.535,476.512l-94.034,110.248
		l-81.875,186.042c0,0-2.304,207.323,16.339,289.194C511.612,1143.873,615.5,1247.43,615.5,1247.43v-61.605l20.544-15.626
		l12.503-11.125l20.233-0.814l9.307,10.69l18.221,15.551h29.184l3.892-69.461l-39.883-10.278v-69.312l59.744-5.268l-0.324-81.877
		l-30.766-45.395l18.261-5.673c159.695-64.042,236.107-189.69,236.107-189.69l-9.621-17.833l-5.621-16.212l3.612-20.266
		l3.608-12.159V621.62v-28.372l17.506-25.535l18.083-10.133l-2.989-0.755l45.4,19.399V356.5z"/>
	<g>
		<rect x="1059.5" y="1061.5" fill="#1B1464" width="9" height="29"/>
		<rect x="881.5" y="1061.5" fill="#1B1464" width="14" height="29"/>
		<rect x="1114.5" y="1061.5" fill="#1B1464" width="14" height="29"/>
		<rect x="999.5" y="1061.5" fill="#1B1464" width="11" height="29"/>
		<rect x="1174.5" y="1061.5" fill="#1B1464" width="12" height="29"/>
		<rect x="941.5" y="1061.5" fill="#1B1464" width="9" height="29"/>
		<rect x="823.5" y="1061.5" fill="#1B1464" width="12" height="29"/>
		<rect x="1232.5" y="1061.5" fill="#1B1464" width="11" height="29"/>
		<rect x="708.5" y="1061.5" fill="#1B1464" width="9" height="29"/>
		<rect x="766.5" y="1061.5" fill="#1B1464" width="11" height="29"/>
		<rect x="1292.5" y="1061.5" fill="#1B1464" width="9" height="29"/>
		<path fill="#1B1464" d="M996.5,1363.5h14.319h1.681v90.915c25-0.38,47-1.772,59-4.122V1315.55l-21.539-19.05H1010.5v-37.688
			l19-11.811v-15.252l10.43-34.249h-7.419l-21.691-22.108l-21.685,22.108h-7.42l-1.215,34.249v15.252l19,11.811v37.688h-27.809
			l-33.191,19.05v134.743c12,2.35,34,3.742,58,4.122V1363.5z"/>
		<path fill="#1B1464" d="M864.418,1005.229c13.173,0,23.853-10.682,23.853-23.856c0-13.168-10.68-23.851-23.853-23.851
			s-23.851,10.683-23.851,23.851C840.567,994.547,851.245,1005.229,864.418,1005.229z"/>
		<path fill="#1B1464" d="M1157.247,1005.229c13.171,0,23.849-10.682,23.849-23.856c0-13.168-10.678-23.851-23.849-23.851
			c-13.175,0-23.857,10.683-23.857,23.851C1133.39,994.547,1144.072,1005.229,1157.247,1005.229z"/>
		<path fill="#1B1464" d="M1010.819,1005.229c13.168,0,23.852-10.682,23.852-23.856c0-13.168-10.684-23.851-23.852-23.851
			c-13.167,0-23.844,10.683-23.844,23.851C986.976,994.547,997.652,1005.229,1010.819,1005.229z"/>
		<path fill="#1B1464" d="M1695.634,464.21l-2.538-4.049l-202.106,121.833c-100.939-158.854-278.457-264.479-480.173-264.479
			c-199.013,0-374.425,102.801-476.018,258.077L335.995,458.691l-2.515,3.99c-79.768,126.585-121.93,272.832-121.93,422.931
			c0,213.11,83.48,413.459,235.063,564.142c151.576,150.677,353.106,233.654,567.463,233.654
			c214.36,0,415.891-82.978,567.463-233.654c151.588-150.683,235.067-351.031,235.067-564.142
			C1816.606,736.149,1774.777,590.43,1695.634,464.21z M1010.819,362.93c288.419,0,523.091,234.688,523.091,523.143
			c0,129.25-47.199,249.476-125.173,340.83l10.77-56.402h-28.575c-4.242-2-8.433-4.517-9.555-6.386l-5.422-12.614h-32.37
			l-5.382,12.614c-1.218,1.974-5.549,4.386-9.565,6.386H1294.5v-48h40v-94h-59v-75.443l23.296-30.886l15.551-21.433l-22.446-7.736
			c-1.803-0.866-169.236-78.503-233.67-182.503h9.27v-70h-8v-27.533c0-3.962,2.44-8.169,2.44-12.365
			c0-28.749-22.865-52.165-51.608-52.165c-28.737,0-56.686,23.416-56.686,52.165c0,4.195-3.146,8.402-3.146,12.365V640.5h-7v70
			h19.924c-64.427,104-232.627,181.637-234.43,182.503l-23.211,9.261l10.753,20.672l16.964,30.122v75.443h-58v94h41v48h-23.472
			c-4.019-2-8.349-4.412-9.566-6.386l-5.381-12.614h-32.376l-5.417,12.614c-1.125,1.869-5.317,4.386-9.556,6.386h-28.578
			l10.77,56.402c-77.971-91.354-125.174-210.67-125.174-339.913C487.75,598.53,722.419,362.93,1010.819,362.93z M732.453,911.718
			c0,0,214.209-94.218,264.63-226.218H964.5v-22h11v-28h24.613c-12.298-3-21.332-18.333-21.332-31.786
			c0-16.566,15.538-31.518,32.038-31.518c16.502,0,32.045,15.732,32.045,32.294c0,13.456-9.031,28.01-21.339,31.01h12.975v28h11v22
			h-20.942c50.445,132,257.315,226.218,257.315,226.218l-27.373,34.718v82.064h-502v-82.064L732.453,911.718z M1309.5,1052.5v52
			h-615v-52H1309.5z M529.539,583.782c-55.212,87.619-90.847,191.273-90.847,302.283c0,168.914,72.808,320.833,187.808,425.06
			V1294.5h19v-38.12l-19-11.854v-15.31l2.33-33.716h7.399c0,0,19.871-11,24.637-25h2.057c4.753,14,24.568,25,24.568,25h0.896h7.446
			l-12.333,33.716v15.31l-13,11.854v33.856l32,23.816v51.826c8,5.467,14,10.696,20,15.718v-68.256l17-23.104V1122.5h531v167.736
			l14,23.104v68.237c10-5.021,16-10.253,23-15.72v-51.806l32-23.816v-33.856l-13-11.854v-15.31l-0.671-33.716h7.448h0.893
			c0,0,19.815-11,24.564-25h2.063c4.766,14,24.632,25,24.632,25h7.406l-9.335,33.716v15.31l-19,11.854v38.12h19v16.599
			c115-104.219,193.638-256.131,193.638-425.034c0-108.288-29.342-209.588-82.091-295.819l132.582-79.596
			c66.891,109.477,105.727,238.115,105.727,375.742c0,398.902-323.499,722.222-722.708,722.222
			c-399.218,0-722.779-323.319-722.779-722.222c0-139.765,39.8-270.255,108.621-380.825L529.539,583.782z M1014.076,1673.678
			c-437.15,0-792.799-353.524-792.799-788.065c0-146.687,40.758-289.64,117.931-413.746l12.99,7.638
			c-73.32,118.214-115.661,257.616-115.661,406.889c0,427.271,346.642,773.574,774.248,773.574
			c427.601,0,774.243-346.304,774.243-773.574c0-147.336-41.257-285.051-112.838-402.273l17.729-10.685
			c76.535,123.732,116.961,266.139,116.961,412.178C1806.88,1320.153,1451.227,1673.678,1014.076,1673.678z"/>
	</g>
	<path fill="#1B1464" d="M555.658,468.794c0.446,0.761,1.046,1.525,1.794,2.287c2.246,2.293,4.583,3.004,7.015,2.117
		c1.059-0.138,2.126-0.735,3.194-1.784l-31.413,30.775c1.227-1.5,2.072-2.929,2.538-4.29c0.47-1.355,0.676-2.978,0.62-4.873
		c-0.058-1.886-0.755-3.98-2.094-6.26l-45.767-74.702l-1.123-1.149c-1.197-1.219-2.439-1.95-3.723-2.193
		c-1.287-0.238-2.381-0.21-3.293,0.079c-1.216,0.292-2.277,0.884-3.195,1.781c1.222-1.195,2.067-2.625,2.54-4.286
		c0.468-1.355,0.635-2.939,0.501-4.761c-0.131-1.815-0.868-3.867-2.203-6.151l-24.329-40.43c-0.299-0.608-0.894-1.372-1.792-2.288
		c-1.197-1.222-2.438-1.953-3.722-2.196c-1.286-0.238-2.382-0.209-3.294,0.079c-1.215,0.293-2.278,0.887-3.196,1.785l35.544-34.819
		c-1.071,1.049-1.688,2.101-1.849,3.156c-0.784,2.569-0.125,4.917,1.97,7.058c0.899,0.916,1.649,1.53,2.251,1.84l39.469,25.149
		c2.099,1.538,4.134,2.318,6.103,2.333c1.968,0.024,3.634-0.19,5-0.63c1.667-0.432,3.114-1.251,4.339-2.453
		c-1.072,1.05-1.69,2.105-1.85,3.159c-0.784,2.567-0.125,4.92,1.972,7.058c0.899,0.918,1.647,1.531,2.252,1.84l72.837,46.828
		c2.102,1.54,4.139,2.319,6.105,2.335c1.97,0.023,3.636-0.191,5.002-0.631c1.669-0.435,3.112-1.254,4.338-2.452l-31.414,30.778
		c0.917-0.9,1.455-1.876,1.619-2.937c0.311-0.9,0.396-1.96,0.258-3.174c-0.138-1.208-0.805-2.428-2.004-3.653
		c-0.9-0.916-1.726-1.604-2.475-2.07l-18.941-12.451l-31.415,30.775L555.658,468.794z M529.983,426.987l23.16-22.689l-60.668-38.531
		L529.983,426.987z"/>
	<path fill="#1B1464" d="M589.307,262.325c-0.711,1.537-1.066,2.931-1.076,4.177c-0.086,1.541,0.311,3.052,1.179,4.522
		l-20.727-35.104c0.545,0.921,1.402,1.534,2.574,1.832c0.991,0.414,2.216,0.498,3.686,0.249c1.471-0.247,3.312-1.026,5.524-2.33
		l63.302-37.373c3.873-2.284,5.96-4.638,6.274-7.058c0.298-1.164,0.18-2.217-0.367-3.141l20.727,35.107
		c-0.868-1.474-2.003-2.547-3.391-3.22c-1.095-0.594-2.537-0.924-4.313-0.994c-1.783-0.065-3.685,0.5-5.711,1.696l-20.729,12.24
		l16.154,27.365c1.271,1.738,2.626,2.869,4.05,3.389c1.427,0.524,2.708,0.699,3.85,0.524c1.435-0.103,2.794-0.534,4.083-1.296
		c-1.181,0.95-2.16,2.022-2.941,3.227c-0.704,0.918-1.169,2.125-1.402,3.625c-0.23,1.508,0.049,3.14,0.847,4.907l43.902,74.359
		c1.307,2.213,2.728,3.671,4.262,4.38c1.538,0.712,2.927,1.068,4.178,1.076c1.543,0.083,3.14-0.364,4.798-1.342l-37.871,22.355
		c1.473-0.868,2.548-1.996,3.219-3.389c0.593-1.096,0.955-2.485,1.074-4.176c0.125-1.686-0.47-3.638-1.774-5.85l-42.759-72.425
		c-1.197-2.022-2.638-3.41-4.319-4.158c-1.685-0.741-3.15-1.123-4.398-1.133c-1.537-0.082-3.05,0.309-4.523,1.18
		c1.473-0.871,2.548-2.002,3.219-3.394c0.593-1.093,0.998-2.51,1.214-4.252c0.213-1.74-0.332-3.722-1.639-5.933l-15.34-25.984
		l-20.455,12.078C591.477,259.367,590.015,260.789,589.307,262.325z"/>
	<path fill="#1B1464" d="M787.755,321.505c0.827-0.937,1.554-2.175,2.192-3.724c0.631-1.546,0.561-3.544-0.214-5.993l-25.463-80.493
		c-0.711-2.243-1.802-3.921-3.273-5.027c-1.474-1.102-2.815-1.8-4.029-2.094c-1.48-0.423-3.039-0.384-4.67,0.134
		c1.631-0.518,2.932-1.374,3.898-2.58c0.825-0.935,1.553-2.175,2.189-3.725c0.63-1.544,0.561-3.543-0.213-5.993l-13.847-43.766
		c-0.707-2.246-1.8-3.918-3.271-5.027c-1.475-1.103-2.815-1.801-4.029-2.091c-1.48-0.426-3.04-0.384-4.671,0.134l42.238-13.363
		c-1.636,0.517-2.932,1.379-3.898,2.581c-0.832,0.934-1.471,2.264-1.941,3.98c-0.464,1.719-0.344,3.701,0.368,5.943l13.439,43.56
		c0.773,2.446,1.832,4.192,3.169,5.226c1.338,1.039,2.609,1.698,3.826,1.989c1.485,0.429,3.145,0.353,4.979-0.228
		c-1.834,0.581-3.238,1.474-4.205,2.675c-0.828,0.938-1.487,2.214-1.987,3.828c-0.496,1.618-0.36,3.648,0.415,6.099l20.717,65.497
		l53.563-16.942c2.245-0.709,3.935-1.75,5.075-3.122c1.13-1.369,1.85-2.66,2.138-3.874c0.429-1.483,0.386-3.038-0.128-4.674
		l12.294,38.87c-0.327-1.023-1.026-1.813-2.097-2.369c-0.87-0.622-2.121-1.013-3.738-1.172c-1.625-0.159-3.557,0.115-5.799,0.824
		l-86.922,27.494C785.488,323.567,786.79,322.709,787.755,321.505z"/>
	<path fill="#1B1464" d="M918.884,125.332c-0.157-2.345-0.771-4.237-1.83-5.669c-1.061-1.426-2.151-2.429-3.259-2.996
		c-1.339-0.765-2.866-1.094-4.572-0.979l91.603-6.171c2.562-0.172,4.514-0.573,5.872-1.198c1.35-0.626,2.319-1.39,2.9-2.288
		c0.795-0.905,1.162-1.895,1.088-2.968l2.525,37.473c-0.071-1.068-0.568-1.997-1.474-2.795c-0.701-0.809-1.764-1.492-3.197-2.039
		c-1.434-0.547-3.429-0.734-5.987-0.563l-57.014,3.839l2.547,37.797l45.16-3.043c4.485-0.304,7.405-1.463,8.777-3.488
		c0.79-0.905,1.154-1.897,1.084-2.968l2.502,37.153c-0.069-1.065-0.565-2-1.477-2.795c-0.683-0.6-1.796-1.167-3.329-1.707
		c-1.542-0.539-3.485-0.729-5.836-0.573l-45.155,3.042l3.773,56.05l58.612-3.946c4.485-0.303,7.406-1.465,8.772-3.488
		c0.793-0.908,1.162-1.897,1.091-2.967l2.521,37.475c-0.07-1.073-0.571-2.005-1.477-2.801c-0.696-0.812-1.818-1.486-3.35-2.025
		c-1.539-0.539-3.483-0.73-5.833-0.57l-93.202,6.278c1.71-0.118,3.175-0.642,4.398-1.583c1.023-0.712,1.972-1.793,2.838-3.251
		c0.865-1.449,1.215-3.459,1.04-6.021l-5.691-84.552c-0.175-2.565-0.788-4.504-1.84-5.831c-1.056-1.322-2.143-2.269-3.251-2.836
		c-1.335-0.768-2.861-1.097-4.568-0.981c1.707-0.115,3.173-0.639,4.399-1.584c1.022-0.712,1.968-1.79,2.837-3.245
		c0.867-1.453,1.211-3.462,1.042-6.024L918.884,125.332z"/>
	<path fill="#1B1464" d="M1090.692,140.834c-1.531,0.729-2.691,1.571-3.494,2.523c-1.06,1.128-1.72,2.544-1.988,4.229l6.528-40.242
		c-0.17,1.061,0.095,2.078,0.801,3.055c0.498,0.949,1.382,1.801,2.675,2.549c1.284,0.753,3.198,1.332,5.731,1.743l72.563,11.771
		c4.441,0.72,7.551,0.251,9.335-1.41c0.985-0.707,1.567-1.588,1.738-2.648l-6.53,40.244c0.271-1.688,0.091-3.24-0.552-4.643
		c-0.46-1.157-1.353-2.335-2.678-3.525c-1.323-1.19-3.15-1.973-5.472-2.35l-23.769-3.857l-5.086,31.372
		c-0.142,2.148,0.186,3.883,0.945,5.195c0.761,1.318,1.634,2.271,2.628,2.865c1.163,0.838,2.482,1.38,3.964,1.62
		c-1.513-0.028-2.949,0.171-4.325,0.6c-1.126,0.251-2.262,0.881-3.395,1.884c-1.141,1.011-1.977,2.447-2.491,4.313l-13.823,85.24
		c-0.412,2.534-0.26,4.567,0.477,6.092c0.727,1.531,1.562,2.693,2.518,3.499c1.128,1.055,2.647,1.728,4.548,2.039l-43.407-7.042
		c1.685,0.271,3.237,0.091,4.637-0.55c1.159-0.462,2.329-1.298,3.501-2.522c1.173-1.214,1.963-3.093,2.377-5.629l13.461-83.021
		c0.375-2.32,0.16-4.307-0.656-5.955c-0.817-1.649-1.704-2.879-2.654-3.686c-1.133-1.047-2.537-1.714-4.23-1.989
		c1.693,0.275,3.236,0.095,4.645-0.544c1.152-0.463,2.374-1.293,3.651-2.497c1.282-1.201,2.127-3.072,2.532-5.608l4.834-29.784
		l-23.445-3.802C1094.25,139.947,1092.217,140.107,1090.692,140.834z"/>
	<path fill="#1B1464" d="M1260.502,161.885c0.798-2.21,0.994-4.187,0.594-5.924c-0.398-1.733-0.994-3.088-1.78-4.054
		c-0.918-1.238-2.184-2.151-3.793-2.732l41.373,14.903c-1.614-0.583-3.166-0.686-4.658-0.316c-1.229,0.241-2.548,0.908-3.959,1.986
		c-1.414,1.086-2.522,2.735-3.313,4.946l-15.876,44.099c-0.6,2.287-0.68,4.083-0.235,5.375c0.444,1.298,1.06,2.429,1.852,3.397
		c0.712,1.169,1.874,2.041,3.489,2.622c-1.615-0.581-3.028-0.754-4.251-0.51c-2.98,0.068-5.263,1.977-6.838,5.727l-29.147,80.945
		c-0.866,2.416-1.089,4.443-0.651,6.074c0.429,1.641,1.047,2.937,1.837,3.904c0.919,1.24,2.181,2.149,3.795,2.729l-41.38-14.898
		c1.607,0.581,3.166,0.688,4.658,0.316c1.229-0.243,2.528-0.85,3.907-1.836c1.377-0.981,2.502-2.68,3.37-5.099l28.304-79.545
		c0.797-2.212,0.994-4.184,0.593-5.922c-0.396-1.735-0.991-3.088-1.779-4.057c-0.924-1.235-2.186-2.148-3.795-2.729
		c1.609,0.581,3.162,0.688,4.664,0.314c1.223-0.241,2.525-0.849,3.902-1.835c1.379-0.981,2.501-2.685,3.367-5.098L1260.502,161.885z
		"/>
	<path fill="#1B1464" d="M1339.342,260.227c-0.064-1.78-0.394-3.222-0.982-4.318c-0.665-1.39-1.731-2.528-3.206-3.399
		c1.475,0.872,2.978,1.271,4.518,1.188c1.248-0.002,2.614-0.314,4.099-0.924c1.48-0.615,2.887-2.025,4.199-4.232l16.332-26.886
		c3.343-5.227,6.99-8.54,10.937-9.931c3.939-1.396,7.72-2.008,11.362-1.84c4.293,0.309,8.427,1.521,12.398,3.629l44.169,26.225
		c3.862,2.295,6.927,2.996,9.201,2.104c1.167-0.298,2.028-0.905,2.577-1.829l-20.811,35.057c0.875-1.471,1.268-2.98,1.191-4.52
		c-0.013-1.248-0.387-2.713-1.123-4.398c-0.746-1.686-2.127-3.13-4.147-4.334l-36.991-21.962c-1.952-0.908-3.621-1.343-5.014-1.298
		c-1.403,0.044-2.496,0.324-3.303,0.843c-0.986,0.408-1.811,1.161-2.461,2.267l-11.805,19.873c-1.313,2.209-1.907,4.158-1.787,5.847
		c0.115,1.688,0.469,3.077,1.064,4.179c0.666,1.39,1.73,2.523,3.203,3.396c-1.473-0.874-2.979-1.269-4.514-1.19
		c-1.256,0.002-2.644,0.361-4.179,1.064c-1.542,0.707-2.965,2.16-4.276,4.369l-31.799,53.549c-0.652,1.101-0.924,2.19-0.809,3.25
		c-0.071,0.958,0.215,2.055,0.84,3.3c0.629,1.249,1.861,2.413,3.703,3.508l36.985,21.961c2.021,1.201,3.921,1.772,5.711,1.709
		c1.771-0.065,3.214-0.387,4.317-0.984c1.388-0.667,2.521-1.732,3.392-3.206l-20.815,35.055c0.55-0.924,0.673-1.973,0.375-3.14
		c-0.116-1.068-0.659-2.256-1.615-3.573c-0.963-1.315-2.453-2.574-4.473-3.778l-44.164-26.225c-3.94-2.583-7.076-5.691-9.399-9.313
		c-1.888-3.109-3.211-6.757-3.958-10.938c-0.756-4.18,0.354-8.992,3.343-14.438l36.011-60.007
		C1338.833,263.905,1339.403,262.006,1339.342,260.227z"/>
	<path fill="#1B1464" d="M1471.372,356.895c1.655-1.673,2.625-3.42,2.915-5.239c0.286-1.816,0.278-3.332-0.025-4.541
		c-0.316-1.507-1.084-2.868-2.298-4.07c1.214,1.202,2.583,1.953,4.096,2.243c1.214,0.293,2.687,0.322,4.428,0.084
		c1.743-0.238,3.515-1.272,5.314-3.102l21.87-22.165c4.508-4.269,8.847-6.605,13.004-7.009c4.16-0.408,7.979-0.089,11.471,0.942
		c4.098,1.334,7.814,3.506,11.164,6.506l29.937,29.538c3.046,3.311,5.27,7,6.657,11.078c1.084,3.476,1.412,7.254,0.988,11.345
		c-0.432,4.088-2.674,8.489-6.723,13.21l-21.643,22.388c-1.806,1.83-2.851,3.577-3.143,5.245c-0.293,1.667-0.282,3.099,0.023,4.313
		c0.316,1.513,1.078,2.866,2.299,4.069c-1.221-1.203-2.584-1.947-4.095-2.242c-1.217-0.296-2.692-0.243-4.427,0.147
		c-1.74,0.387-3.439,1.42-5.088,3.096l-49.377,49.589c-4.669,4.12-9.115,6.419-13.352,6.901c-4.238,0.481-8.016,0.131-11.353-1.06
		c-4.093-1.335-7.746-3.58-10.939-6.736l-29.479-29.085c-3.198-3.156-5.491-6.769-6.884-10.847
		c-1.234-3.317-1.68-7.139-1.323-11.454c0.348-4.315,2.622-8.759,6.833-13.326L1471.372,356.895z M1531.214,344.692
		c-1.672-1.35-3.161-2.214-4.444-2.581c-1.285-0.371-2.383-0.4-3.286-0.095c-1.059,0.163-2.041,0.696-2.938,1.609l-16.46,16.684
		c-1.806,1.827-2.855,3.572-3.142,5.239c-0.3,1.669-0.284,3.104,0.027,4.313c0.316,1.512,1.076,2.865,2.295,4.071
		c-1.219-1.206-2.591-1.947-4.101-2.242c-1.212-0.297-2.649-0.286-4.315,0.028c-1.665,0.317-3.316,1.312-4.972,2.985l-43.74,44.33
		c-0.897,0.916-1.427,1.905-1.565,2.962c-0.304,0.908-0.293,2.044,0.018,3.407c0.312,1.358,1.229,2.787,2.756,4.292l18.055,17.812
		c1.521,1.502,2.959,2.402,4.325,2.692c1.363,0.294,2.498,0.286,3.41-0.021c1.055-0.157,2.037-0.694,2.937-1.61l43.295-43.874
		c1.804-1.829,2.841-3.572,3.141-5.242c0.29-1.665,0.277-3.104-0.031-4.313c-0.312-1.51-1.078-2.869-2.294-4.07
		c1.216,1.201,2.585,1.95,4.098,2.243c1.217,0.292,2.646,0.284,4.313-0.032c1.658-0.311,3.394-1.382,5.199-3.211l16.681-16.91
		c0.908-0.914,1.426-1.9,1.573-2.963c0.289-0.908,0.243-2.007-0.137-3.286c-0.391-1.288-1.271-2.756-2.641-4.413L1531.214,344.692z"
		/>
	<polygon fill="#1B1464" points="977.5,59.851 977.5,80.117 922.5,101.194 922.5,82.28 	"/>
	<path fill="#1B1464" d="M329.377,1490.241c-0.265-2.128,0.101-4.225,1.109-6.295c0.997-2.076,2.046-4.093,3.152-6.073
		c1.289-2.185,2.782-4.169,4.474-5.972l20-21.324c5.642-5.623,11.127-8.764,16.45-9.418c5.319-0.656,10.229-0.372,14.74,0.838
		c5.293,1.583,10.139,4.249,14.53,7.984l48.361,45.352c4.207,3.947,7.852,5.675,10.947,5.188c1.546-0.053,2.794-0.575,3.737-1.583
		l-32.96,35.148c0.938-1.002,1.378-2.279,1.334-3.831c0.146-1.356-0.197-3.002-1.03-4.915c-0.842-1.921-2.362-3.915-4.563-5.973
		l-40.55-38.037c-2.195-1.672-4.171-2.68-5.923-3.007c-1.765-0.337-3.219-0.286-4.368,0.14c-1.353,0.239-2.591,0.962-3.716,2.15
		l-8.168,8.717c-0.367,0.793-0.869,1.728-1.514,2.811c-0.646,1.092-0.848,2.51-0.593,4.242l4.578,24.626
		c0.299,3.292,1.246,5.687,2.853,7.187c1.599,1.5,3.086,2.532,4.466,3.062c1.767,0.522,3.816,0.759,6.142,0.675
		c-2.117,0.66-3.938,1.589-5.446,2.797c-1.33,1.016-2.445,2.513-3.352,4.481c-0.914,1.976-1.024,4.604-0.33,7.88l6.901,42.602
		c0.684,3.281,0.004,6.218-2.049,8.8c-2.057,2.591-3.74,4.599-5.052,5.991l-37.182,39.651c-5.853,5.437-11.381,8.527-16.603,9.272
		c-5.218,0.759-10.083,0.525-14.586-0.696c-5.297-1.577-10.142-4.229-14.532-7.987l-51.365-48.168
		c-2.403-2.247-4.487-3.64-6.253-4.163c-1.767-0.522-3.321-0.669-4.675-0.434c-1.548,0.044-2.795,0.575-3.735,1.575l35.775-38.143
		c-1.504,1.602-2.417,3.367-2.742,5.325c-0.339,1.572-0.329,3.363,0.029,5.389c0.353,2.033,1.734,4.174,4.137,6.43l43.555,40.841
		c2.001,1.881,3.88,2.982,5.642,3.32c1.756,0.327,3.21,0.277,4.368-0.146c1.346-0.228,2.59-0.959,3.718-2.154l20.843-22.229
		c2.254-2.402,3.635-4.688,4.153-6.836c0.509-2.153,0.751-3.613,0.73-4.391l-5.719-33.028c-1.233-1.909-2.492-3.277-3.774-4.104
		c-1.294-0.836-2.526-1.428-3.698-1.775c-1.366-0.152-2.832-0.209-4.375-0.157c1.536-0.439,2.874-1.064,4.015-1.876
		c1.138-0.816,2.173-1.818,3.108-3.012c0.929-1.193,1.654-2.871,2.172-5.024L329.377,1490.241z"/>
	<path fill="#1B1464" d="M445.95,1749.593c-0.816,0.793-1.582,1.771-2.303,2.939c-2.166,3.502-2.333,6.631-0.48,9.385
		c0.496,1.28,1.563,2.418,3.2,3.441l-47.973-29.697c2.244,1.072,4.287,1.686,6.12,1.854c1.836,0.168,3.917-0.075,6.26-0.729
		c2.339-0.649,4.728-2.164,7.161-4.528l79.008-79.922l1.082-1.753c1.155-1.863,1.682-3.635,1.594-5.311
		c-0.101-1.677-0.471-3.03-1.111-4.074c-0.737-1.426-1.799-2.564-3.201-3.434c1.866,1.154,3.904,1.772,6.119,1.851
		c1.836,0.165,3.858-0.11,6.085-0.837c2.22-0.723,4.554-2.268,6.985-4.636l42.898-42.706c0.665-0.555,1.431-1.53,2.298-2.938
		c1.157-1.859,1.682-3.633,1.591-5.305c-0.098-1.673-0.469-3.036-1.107-4.079c-0.737-1.419-1.801-2.565-3.202-3.432l54.274,33.589
		c-1.636-1.013-3.138-1.458-4.5-1.338c-3.437-0.188-6.162,1.355-8.186,4.625c-0.867,1.4-1.402,2.523-1.599,3.37l-19.22,56.878
		c-1.267,3.083-1.615,5.856-1.031,8.314c0.571,2.462,1.349,4.472,2.317,6.034c1.051,1.945,2.515,3.496,4.385,4.656
		c-1.634-1.019-3.138-1.459-4.501-1.335c-3.438-0.197-6.167,1.345-8.186,4.621c-0.868,1.396-1.404,2.521-1.602,3.362
		l-35.986,105.098c-1.268,3.091-1.615,5.865-1.035,8.322c0.577,2.455,1.355,4.465,2.322,6.035c1.049,1.944,2.515,3.497,4.386,4.647
		l-47.974-29.688c1.399,0.866,2.782,1.241,4.15,1.12c1.219,0.104,2.565-0.115,4.038-0.653c1.464-0.544,2.774-1.741,3.933-3.617
		c0.866-1.402,1.469-2.638,1.816-3.717l9.702-27.415l-47.972-29.689L445.95,1749.593z M490.146,1704.789l35.367,21.891
		l29.383-87.389L490.146,1704.789z"/>
	<path fill="#1B1464" d="M716.202,1674.743c0.872-2.887,0.994-5.426,0.367-7.631c-0.63-2.19-1.48-3.89-2.555-5.072
		c-1.264-1.521-2.945-2.604-5.044-3.236l67.811,20.448c-1.317-0.397-2.659-0.228-4.023,0.506c-1.025,0.555-1.952,1.71-2.766,3.467
		c-0.82,1.759-1.009,4.287-0.563,7.574l4.4,120.903l33.053-109.611c0.874-2.89,0.994-5.429,0.369-7.627
		c-0.63-2.197-1.481-3.888-2.559-5.071c-1.259-1.528-2.942-2.611-5.041-3.244l53.619,16.17c-2.108-0.634-4.104-0.66-5.996-0.09
		c-1.557,0.394-3.199,1.334-4.934,2.819c-1.74,1.48-3.044,3.665-3.916,6.561l-16.491,56.104c-0.95,3.146-1.072,5.695-0.365,7.632
		c0.708,1.931,1.594,3.489,2.677,4.679c1.257,1.526,2.937,2.604,5.042,3.238c-2.105-0.635-4.101-0.661-5.995-0.09
		c-1.557,0.393-3.198,1.335-4.935,2.812c-1.74,1.489-3.043,3.678-3.913,6.56l-31.785,103.973c-0.955,3.153-1.097,5.771-0.426,7.827
		c0.665,2.07,1.534,3.69,2.616,4.875c1.257,1.526,2.937,2.605,5.042,3.243l-57.956-17.479c2.102,0.634,3.964,0.629,5.603-0.03
		c1.549-0.393,2.911-1.344,4.085-2.855c1.167-1.51,1.704-3.996,1.608-7.475l-5.476-167.245l-45.779,151.792
		c-0.949,3.156-1.357,5.679-1.214,7.595c0.138,1.905,0.617,3.405,1.434,4.515c0.729,1.369,1.754,2.248,3.074,2.647l-49.68-14.984
		c2.102,0.633,4.101,0.665,5.998,0.089c1.55-0.392,3.177-1.259,4.875-2.617c1.697-1.348,3.023-3.603,3.974-6.753l30.878-103.816
		c0.869-2.886,0.993-5.431,0.366-7.632c-0.63-2.189-1.482-3.889-2.557-5.07c-1.263-1.521-2.944-2.606-5.046-3.241
		c2.102,0.635,4.101,0.666,5.996,0.088c1.55-0.394,3.176-1.259,4.876-2.614c1.697-1.351,3.023-3.604,3.973-6.761L716.202,1674.743z"
		/>
	<path fill="#1B1464" d="M1102.521,1933.85c1.271-0.976,2.49-2.353,3.676-4.144c1.181-1.792,1.586-4.325,1.216-7.599
		l-12.095-107.627c-0.34-3-1.298-5.374-2.876-7.128c-1.583-1.762-3.094-2.97-4.551-3.643c-1.758-0.9-3.731-1.235-5.917-0.986
		c2.186-0.249,4.034-1.003,5.548-2.279c1.269-0.977,2.496-2.358,3.68-4.148c1.177-1.787,1.583-4.32,1.216-7.594l-6.578-58.519
		c-0.338-2.997-1.295-5.378-2.871-7.14c-1.583-1.747-3.104-2.961-4.557-3.627c-1.752-0.905-3.734-1.24-5.911-0.997l56.472-6.343
		c-2.186,0.24-4.028,1.007-5.548,2.273c-1.27,0.976-2.405,2.486-3.418,4.527c-1.018,2.055-1.358,4.577-1.021,7.574l6.123,58.165
		c0.372,3.266,1.268,5.725,2.691,7.358c1.432,1.642,2.87,2.785,4.329,3.449c1.758,0.913,3.867,1.225,6.316,0.949
		c-2.449,0.275-4.436,1.061-5.951,2.327c-1.273,0.968-2.42,2.413-3.45,4.323c-1.027,1.915-1.36,4.505-0.991,7.78l9.849,87.572
		l71.61-8.051c3.002-0.332,5.382-1.229,7.163-2.671c1.767-1.445,2.986-2.882,3.653-4.345c0.905-1.762,1.24-3.729,0.991-5.914
		l5.844,51.973c-0.154-1.366-0.84-2.538-2.052-3.499c-0.942-1.002-2.415-1.8-4.414-2.407c-2.006-0.603-4.507-0.735-7.506-0.4
		l-116.221,13.066C1099.152,1935.888,1101.008,1935.127,1102.521,1933.85z"/>
	<path fill="#1B1464" d="M1295.938,1763.634c2.041-0.804,3.627-2.021,4.757-3.648c0.971-1.271,1.709-2.954,2.205-5.076
		c0.492-2.11,0.132-4.7-1.076-7.768l-20.952-54.153c-1.109-2.813-2.662-4.852-4.645-6.137c-1.979-1.28-3.758-2.061-5.339-2.318
		c-1.929-0.411-3.923-0.22-5.967,0.585l48.642-19.211c-1.28,0.503-2.224,1.469-2.842,2.89c-1.591,2.695-1.323,6.727,0.79,12.083
		l21.334,54.006c1.211,3.066,2.689,5.14,4.449,6.216c1.752,1.077,3.415,1.749,4.998,2.007c1.937,0.42,3.92,0.223,5.966-0.581
		c-2.046,0.804-3.624,2.025-4.757,3.648c-0.979,1.271-1.68,3.025-2.125,5.268c-0.441,2.24-0.112,4.769,1,7.574l29.349,74.301
		c0.607,1.531,1.494,2.659,2.665,3.373c0.913,0.824,2.25,1.408,4.011,1.74c1.754,0.343,3.91,0.011,6.465-1.002l30.257-11.954
		c2.55-1.008,4.355-2.233,5.404-3.686c1.056-1.449,1.633-2.783,1.74-4.009c0.363-1.324,0.24-2.755-0.364-4.286l-29.438-73.382
		c-1.2-3.063-2.708-5.193-4.519-6.41c-1.799-1.196-3.496-1.937-5.075-2.195c-1.934-0.411-3.925-0.223-5.966,0.586
		c2.041-0.809,3.63-2.025,4.757-3.65c0.973-1.267,1.709-2.96,2.199-5.074c0.494-2.109,0.137-4.705-1.076-7.765l-21.103-54.54
		c-1.103-2.81-2.398-4.952-3.868-6.441c-1.475-1.481-2.745-2.457-3.813-2.92c-1.423-0.615-2.776-0.673-4.057-0.17l48.647-19.223
		c-2.05,0.812-3.63,2.033-4.758,3.653c-0.979,1.275-1.683,3.029-2.127,5.271c-0.442,2.242-0.107,4.768,1.002,7.568l21.859,56.459
		c2.58,4.291,5.657,6.472,9.22,6.533c1.578,0.26,3.386-0.01,5.435-0.816c-1.688,0.964-3.14,2.131-4.374,3.497
		c-0.978,1.279-1.78,2.773-2.427,4.504c-0.644,1.735-0.597,3.926,0.164,6.578l33.593,85.029c2.404,7.612,2.841,13.927,1.29,18.967
		c-1.547,5.041-3.837,9.343-6.865,12.895c-3.684,4.117-8.154,7.361-13.42,9.734l-0.384,0.145l-49.405,19.524l-0.38,0.155
		c-5.465,1.858-10.95,2.544-16.455,2.063c-4.636-0.526-9.31-2.079-14.008-4.648c-4.712-2.564-8.651-7.5-11.831-14.807
		l-33.217-82.956c-1.106-2.813-2.588-4.886-4.446-6.22c-1.852-1.329-3.575-2.127-5.153-2.387
		C1299.975,1762.643,1297.979,1762.83,1295.938,1763.634z"/>
	<path fill="#1B1464" d="M1475.316,1588.867c-1.691-2.502-3.591-4.2-5.691-5.098c-2.097-0.898-3.955-1.304-5.549-1.215
		c-1.978,0.016-3.881,0.639-5.697,1.874l46.708-31.649c-1.824,1.234-3.102,2.771-3.85,4.592c-0.678,1.467-0.981,3.323-0.929,5.605
		c0.059,2.293,0.929,4.68,2.622,7.182l33.723,49.772c1.923,2.354,3.721,3.778,5.4,4.299c1.677,0.527,3.318,0.741,4.912,0.647
		c1.757,0.146,3.541-0.406,5.354-1.634c-1.813,1.228-3.059,2.569-3.734,4.023c-2.186,3.14-1.926,6.95,0.77,11.414l61.905,91.369
		c1.847,2.725,3.783,4.482,5.809,5.269c2.026,0.788,3.832,1.136,5.434,1.046c1.979-0.014,3.876-0.638,5.694-1.873l-46.705,31.645
		c1.816-1.235,3.104-2.762,3.847-4.599c0.675-1.449,1.028-3.255,1.047-5.436c0.024-2.164-0.89-4.613-2.737-7.345l-61.097-89.428
		c-1.687-2.502-3.582-4.198-5.684-5.098c-2.101-0.893-3.951-1.307-5.548-1.218c-1.98,0.019-3.884,0.642-5.7,1.869
		c1.816-1.228,3.104-2.762,3.851-4.596c0.67-1.452,1.02-3.264,1.041-5.436c0.026-2.164-0.89-4.618-2.737-7.346L1475.316,1588.867z"
		/>
	<path fill="#1B1464" d="M1632.863,1559.07c-2.134,0.201-4.219-0.217-6.265-1.288c-2.047-1.058-4.033-2.158-5.984-3.323
		c-2.147-1.343-4.087-2.894-5.839-4.629l-20.761-20.588c-5.459-5.803-8.445-11.374-8.95-16.716
		c-0.508-5.33-0.087-10.231,1.253-14.703c1.724-5.25,4.521-10.014,8.386-14.308l46.689-47.067c4.053-4.098,5.885-7.693,5.488-10.797
		c-0.009-1.552-0.498-2.813-1.474-3.782l34.206,33.935c-0.969-0.971-2.235-1.447-3.787-1.447c-1.355-0.183-3.018,0.115-4.948,0.893
		c-1.944,0.793-3.97,2.26-6.095,4.397l-39.156,39.469c-1.732,2.146-2.797,4.096-3.177,5.839c-0.38,1.752-0.375,3.203,0.019,4.369
		c0.201,1.36,0.887,2.607,2.057,3.774l8.473,8.41c0.779,0.385,1.705,0.919,2.775,1.59c1.063,0.678,2.475,0.917,4.224,0.708
		l24.733-3.881c3.305-0.209,5.724-1.091,7.272-2.652c1.549-1.559,2.611-3.016,3.19-4.376c0.572-1.757,0.852-3.796,0.844-6.127
		c0.594,2.136,1.473,3.983,2.645,5.524c0.977,1.355,2.436,2.512,4.381,3.479c1.944,0.96,4.566,1.151,7.866,0.549l42.782-5.713
		c3.297-0.589,6.211,0.171,8.743,2.298c2.528,2.127,4.483,3.871,5.844,5.221l38.593,38.276c5.271,6.003,8.204,11.616,8.807,16.858
		c0.604,5.239,0.235,10.096-1.109,14.561c-1.721,5.25-4.513,10.018-8.386,14.299l-49.59,50c-2.317,2.335-3.759,4.385-4.338,6.129
		c-0.573,1.757-0.767,3.301-0.567,4.662c0.005,1.552,0.496,2.813,1.473,3.783l-37.132-36.828c1.564,1.552,3.311,2.507,5.255,2.889
		c1.557,0.385,3.35,0.422,5.387,0.125c2.041-0.306,4.223-1.618,6.536-3.964l42.05-42.388c1.934-1.948,3.088-3.794,3.467-5.548
		c0.383-1.748,0.375-3.198-0.014-4.369c-0.195-1.356-0.881-2.618-2.054-3.779l-21.632-21.457c-2.34-2.323-4.58-3.764-6.714-4.339
		c-2.145-0.57-3.597-0.855-4.371-0.855l-33.181,4.795c-1.938,1.179-3.34,2.395-4.209,3.654c-0.871,1.267-1.494,2.487-1.877,3.646
		c-0.19,1.363-0.279,2.825-0.273,4.371c-0.391-1.552-0.981-2.907-1.765-4.072c-0.78-1.151-1.755-2.225-2.923-3.189
		c-1.17-0.959-2.823-1.73-4.964-2.307L1632.863,1559.07z"/>
</g>
</svg>
