<?xml version="1.0" encoding="utf-8"?>
<!-- Generator: Adobe Illustrator 16.0.0, SVG Export Plug-In . SVG Version: 6.00 Build 0)  -->
<!DOCTYPE svg PUBLIC "-//W3C//DTD SVG 1.1//EN" "http://www.w3.org/Graphics/SVG/1.1/DTD/svg11.dtd">
<svg version="1.1" id="Capa_1" xmlns="http://www.w3.org/2000/svg" xmlns:xlink="http://www.w3.org/1999/xlink" x="0px" y="0px"
	 width="2000px" height="2000px" viewBox="0 0 2000 2000" enable-background="new 0 0 2000 2000" xml:space="preserve">
<path fill="#FFFFFF" d="M1008.849,1900.253c-381.543,0-691.965-310.373-691.965-691.885c0-190.426,80.034-374.545,219.588-505.127
	l15.009-14.051l-9.71-18.129c-33.923-63.386-36.366-108.542-36.304-120.872l0.045-8.657c0.844-45.264,18.392-80.241,32.974-101.551
	c14.517-21.103,28.36-33.249,33.632-37.481c26.872-22.163,61.643-33.763,100.834-33.763c53.624,0.268,99.623,19.681,112.455,25.627
	c34.229,15.311,61.024,18.99,77.513,19.405l19.817,0.484l6.254-18.813c6.808-20.519,19.083-39.148,35.491-53.86l85.35-76.583
	l-128.954,36.106l2.646-17.7l3.933-20.972c6.345-33.372,28.913-63.078,65.237-85.779c6.007-3.78,12.337-7.313,18.788-10.555
	l14.735-7.414V84.357l27.763,3.611c15.994,2.074,30.791,6.938,43.929,14.458c6.65,3.803,13.028,8.366,18.959,13.59
	c3.503,3.081,5.992,6.154,9.863,12.146c7.575,13.943,7.284,28.117,7.021,40.624c-0.047,2.089-0.215,4.11-0.382,6.123
	c-0.295,3.803-0.571,7.598-0.539,11.485l0.092,18.645l20.498,7.421c3.408,1.213,6.621,2.343,8.248,3.434
	c15.688,10.647,27.777,24.514,34.894,40.04c2.766,6.337,4.729,12.744,5.931,19.206c1.212,6.153,1.874,11.6,2.104,16.993l0.032,2.443
	c0,2.842-0.291,5.569-0.553,7.82l-0.815,5.9c-0.276,2.105-0.724,4.463-1.259,6.983c-1.091,4.985-2.412,9.365-4.027,13.267
	c-3.133,7.798-7.451,15.288-12.829,22.371c-4.085,5.393-8.295,9.488-13.613,13.275l-46.799,33.31l55.617,14.381
	c4.98,1.291,10.402,1.951,16.117,1.951c9.82,0,19.054-1.89,26.458-3.388c18.5-3.741,34.785-9.087,48.814-15.964l9.463-4.156
	c8.328-3.396,16.565-6.307,24.831-8.826c27.378-8.482,53.635-12.76,78.156-12.76c39.072,0,73.533,11.315,99.933,32.726l4.101,3.38
	c2.582,2.158,5.286,4.724,8.251,7.713c8.251,8.304,15.826,17.522,22.524,27.387c13.749,20.058,30.528,52.784,32.74,95.552
	l0.262,5.392l0.153,0.27v8.988c-0.062,12.79-2.813,58.299-36.306,120.855l-9.726,18.131l15.026,14.027
	c139.585,130.604,219.648,314.754,219.648,505.211C1700.797,1589.88,1390.393,1900.253,1008.849,1900.253"/>
<path fill="#FFFFFF" d="M1012.982,114.84c11.584,1.783,22.2,5.416,31.635,10.817c5.101,2.904,9.986,6.414,14.549,10.424
	c1.077,0.945,2.059,1.952,4.719,6.016c3.518,6.967,3.318,16.293,3.104,26.157c-0.033,1.56-0.171,3.074-0.31,4.602
	c-0.276,3.696-0.629,8.32-0.614,13.667l0.186,34.616l-151.723,42.697c7.418-30.79,32.34-51.985,52.314-64.476
	c5.348-3.333,10.955-6.499,16.685-9.372l29.456-14.827v-32.971V114.84 M1087.297,231.471l14.029,5.086l3.227,1.144
	c1.121,0.392,2.241,0.761,3.333,1.184c11.05,7.805,19.454,17.507,24.23,27.956c1.889,4.278,3.242,8.672,4.042,13.059l0.076,0.438
	l0.077,0.416c0.877,4.386,1.382,8.474,1.535,11.999l0.015,0.285v0.314v0.914c0,1.537-0.152,3.127-0.382,4.956l-0.263,2.174
	l-0.414,2.942c-0.229,1.652-0.553,3.411-0.939,5.17c-0.734,3.449-1.626,6.422-2.717,9.096c-2.245,5.508-5.349,10.939-9.281,16.094
	c-2.488,3.258-4.763,5.478-7.837,7.682l-93.646,66.613l111.254,28.793c7.175,1.851,14.859,2.796,22.83,2.796
	c12.477,0,23.602-2.251,32.191-3.995c20.309-4.102,38.762-10.194,54.756-18.03l1.859-0.822l0.338-0.184l2.445-1.037l3.547-1.544
	c7.27-2.942,14.75-5.6,22.463-7.943c24.675-7.652,48.275-11.531,70.433-11.531c32.556,0,61.181,9.265,82.781,26.773l0.877,0.691
	l0.382,0.299l0.324,0.285l0.8,0.645l1.55,1.306c0.925,0.776,2.966,2.582,6.302,5.946c7.08,7.129,13.597,15.057,19.512,23.762
	c11.723,17.1,26.104,45.132,27.993,81.684l0.371,7.067v3.833v0.822l0.015,0.569l-0.015,0.605v0.615
	c-0.033,7.744-1.739,49.358-33.145,107.965l-19.402,36.246l30.022,28.085c134.208,125.565,211.167,302.593,211.167,485.675
	c0,366.761-298.391,665.137-665.185,665.137c-366.793,0-665.2-298.376-665.2-665.137c0-183.052,76.944-360.048,211.106-485.599
	l30.023-28.102l-19.406-36.245c-31.773-59.329-33.188-100.444-33.141-108.372v-2.12v-0.929l0.029-4.687
	c0.739-38.941,15.797-68.933,28.211-87.101c12.919-18.783,24.98-29.107,28.96-32.304c21.724-17.93,50.611-27.418,83.6-27.418
	c49.24,0.254,92.877,19.321,101.772,23.438c37.966,16.978,68.509,21.103,87.468,21.587l39.642,0.976l12.476-37.65
	c5.344-16.094,15.011-30.744,27.945-42.352L1087.297,231.471 M959.467,53.905v42.644v45.64c-6.545,3.288-13.629,7.19-20.956,11.769
	c-42.822,26.78-69.556,62.587-77.36,103.571l-4.085,21.918l-8.79,58.622l55.756-15.686l2.583-0.73
	c-19.574,17.546-34.585,39.947-43.022,65.36c-12.596-0.314-36.059-3.119-66.94-16.931c-14.411-6.668-64.655-27.802-123.344-28.094
	h-0.356c-45.507,0-86.161,13.712-117.595,39.655c-6.425,5.163-22.448,19.243-38.966,43.235
	c-16.778,24.576-36.659,64.384-37.626,116.43l-0.048,5.271v1.353v2.12c-0.091,14.997,2.889,65.306,39.486,133.64
	c-140.26,131.257-228.067,317.889-228.067,524.678c0,396.262,322.422,718.651,718.714,718.651
	c396.293,0,718.696-322.39,718.696-718.651c0-206.82-87.838-393.497-228.114-524.739c35.892-67.027,39.409-116.9,39.472-133.071
	c0.014-0.96,0.014-1.859,0-2.774v-4.263v-8.48l-0.444-0.922c-2.521-48.713-21.419-86.017-37.321-109.195
	c-7.574-11.17-16.241-21.725-25.657-31.197c-3.627-3.665-6.96-6.761-9.834-9.188c-0.706-0.614-1.382-1.175-1.997-1.682
	c-0.862-0.769-1.735-1.475-2.674-2.167c-31.234-25.336-71.459-38.703-116.476-38.703h-0.31c-27.178,0-56.142,4.686-85.964,13.92
	c-8.939,2.72-17.991,5.93-26.733,9.472l-0.535,0.223l-0.539,0.23c-1.291,0.568-2.474,1.076-3.475,1.498
	c-1.396,0.599-2.611,1.114-3.608,1.575l-0.706,0.33l-0.4,0.184c-0.567,0.238-1.339,0.583-2.26,1.038
	c-13.057,6.392-27.701,10.793-41.927,13.674c-6.716,1.367-14.291,2.941-21.575,2.941c-3.256,0-6.406-0.314-9.415-1.098
	c7.574-5.386,13.705-11.378,19.402-18.883c6.854-9.019,12.294-18.514,16.304-28.431c2.183-5.332,3.961-11.201,5.406-17.776
	c0.676-3.143,1.215-6.108,1.615-8.874c0.186-1.321,0.338-2.52,0.506-3.726l0.262-2.036l0.029-0.361l0.062-0.361
	c0.371-3.111,0.738-6.891,0.738-11.262l-0.015-1.352v-0.791l-0.032-1.13c-0.291-6.799-1.12-13.567-2.532-20.672
	c-1.539-8.481-4.119-16.885-7.67-24.968l-0.119-0.284l-0.124-0.285c-9.157-19.966-24.46-37.635-44.252-51.071
	c-5.269-3.557-11.108-5.3-17.053-7.459c-0.029-5.723,0.8-11.154,0.921-16.862c0.294-14.258,0.709-33.763-9.787-53.214l-0.706-1.306
	l-0.801-1.237c-4.409-6.814-8.48-12.261-14.673-17.714c-7.203-6.331-15.025-11.962-23.354-16.724
	c-16.514-9.457-34.905-15.311-53.759-17.762l-15.67-2.051L959.467,53.905z"/>
<path fill="#002C55" d="M1153.902,292.575c-0.229-5.186-0.906-10.255-1.902-15.257c-1.03-5.823-2.813-11.546-5.182-16.932
	c-6.727-14.673-18.02-26.711-31.22-35.676c-17.391-11.753-33.894-15.895-34.753-16.071c1.289-4.84,2.089-10.194,2.089-16.156
	v-16.663c0-14.158,1.798-28.899-5.191-41.845l-4.195-6.483c-0.447-0.568-0.8-1.152-1.383-1.744
	c-10.049-12.168-28.425-23.116-59.583-27.171l-15.655-2.036v70c-9.067,3.441-23.354,9.695-38.595,19.197
	c-24.816,15.526-53.086,40.555-60.37,78.789l-4.071,21.794l59.537-16.747c-5.516,19.498-6.804,36.19-6.804,47.36
	c0,8.904,0.797,14.236,0.92,14.896l2.765,17.938l16.594-7.506c3.409-1.667,12.29-3.964,19.389-5.209
	c3.656-0.691,6.978-1.213,9.313-1.567c1.259-0.223,2.212-0.322,2.856-0.43c0.353-0.014,0.567-0.076,0.738-0.138l2.551-0.253
	l8.881,1.037c13.072,1.429,25.151,4.294,33.97,6.814c4.315,1.305,7.695,2.404,10.141,3.272c2.212,0.676,2.611,1.021,3.718,1.352
	c0.124,0.062,0.2,0.092,0.339,0.107l2.455,1.007l6.502,5.07l0.459,0.331c0.785,0.63,2.706,2.251,5.224,4.502
	c3.504,3.188,7.946,7.536,11.679,12.115l7.236,9.073l10.77-5.931c0,0,0.31-0.514,0.524-0.514c0.353-0.193,0.753-0.416,1.35-0.73
	c1.954-1.237,3.951-2.419,5.792-3.772c9.805-6.653,18.715-14.742,25.984-24.168c4.548-5.992,8.387-12.538,11.246-19.605
	c1.535-3.741,2.656-7.659,3.532-11.715c0.448-2.051,0.845-4.172,1.153-6.261c0.262-1.844,0.477-3.641,0.721-5.462
	c0.262-2.251,0.491-4.501,0.491-6.922C1153.917,293.666,1153.902,293.128,1153.902,292.575"/>
<path fill="#B1B2B1" d="M961.202,329.704c11.584-5.254,36.568-8.466,36.568-8.466c11.97-48.505,35.905-76.337,35.905-76.337
	l-64.407,20.043C956.979,301.525,961.202,329.704,961.202,329.704"/>
<path fill="#B1B2B1" d="M1012.119,322.044c28.332,3.019,51.38,12.237,51.38,12.237c26.458-43.627,76.04-44.633,76.04-44.633
	c-1.754-52.438-61.996-67.572-61.996-67.572C1024.504,262.553,1012.119,322.044,1012.119,322.044"/>
<path fill="#B1B2B1" d="M1076.065,342.325c0,0,11.079,8.42,19.836,19.359c0,0,41.148-22.815,43.313-58.769
	C1139.215,302.915,1100.802,302.915,1076.065,342.325"/>
<path fill="#FFFFFF" d="M1069.152,192.092v-39.724c0,0,0.739-32.327-58.291-40.04v63.985c0,0-87.333,26.073-99.27,90.75
	l132.225-37.297C1043.816,229.766,1069.152,223.689,1069.152,192.092"/>
<path fill="#002C55" d="M1106.627,433.482c0,53.99-43.758,97.762-97.778,97.762c-53.991,0-97.777-43.772-97.777-97.762
	c0-54.029,43.786-97.833,97.777-97.833C1062.869,335.649,1106.627,379.453,1106.627,433.482"/>
<path fill="#002C55" d="M893.338,434.434c0-63.301,51.671-114.587,115.511-114.633c63.731,0.045,115.508,51.332,115.508,114.633
	c0,63.24-51.776,114.518-115.508,114.518C945.009,548.952,893.338,497.674,893.338,434.434 M925.911,434.434
	c0.091,45.326,37.15,82.092,82.938,82.185c45.784-0.093,82.752-36.859,82.858-82.185c-0.106-45.44-37.074-82.129-82.858-82.222
	C963.062,352.305,926.002,388.994,925.911,434.434"/>
<path fill="#B1132F" d="M620.913,1027.498l-0.123,0.322v360.817h1.368l-1.245,0.553c21.051,45.171,49.735,86.146,84.488,121.024
	l2.335,2.367V904.106l-2.335,2.391C670.648,941.428,641.964,982.289,620.913,1027.498 M793.086,1577.927l0.677,0.384
	c26.487,15.472,54.727,28.179,84.535,37.72l1.768,0.567V873.917h-86.98V1577.927z M965.321,1634.174l1.273,0.107
	c13.938,1.322,27.949,2.121,42.254,2.121c14.24,0,28.379-0.799,42.222-2.121l1.227-0.107V873.917h-86.976V1634.174z
	 M1137.632,1616.598l1.83-0.567c29.714-9.541,57.954-22.248,84.474-37.659l0.673-0.444v-704.01h-86.977V1616.598z
	 M1396.828,1027.498c-21.109-45.209-49.888-86.07-84.535-121.001l-2.364-2.359v608.366l2.364-2.289
	c34.647-34.878,63.426-75.854,84.535-121.024l0.076-361.37L1396.828,1027.498z"/>
<path fill="#002C55" d="M1163.26,640.248l-2.383,0.99l-152.028,59.2l-154.473-60.189H716.417l21.957,23.345
	c0,0,0.215,0.155,0.877,0.977c5.006,5.738,26.934,34.378,26.811,72.873v372.717c0,20.403,4.962,39.776,12.996,57.753
	c18.916,42.146,54.897,77.236,92.71,105.415c30.881,23.032,62.963,41.376,88.376,54.39c23.431,12.047,37.751,18.101,43.71,20.451
	l4.995,1.904l5.054-1.904c5.869-2.351,20.142-8.404,43.619-20.451c25.413-13.014,57.524-31.357,88.391-54.39
	c37.784-28.179,73.781-63.27,92.787-105.415c7.942-17.977,12.919-37.35,12.919-57.753V737.442c0-22.055,6.979-40.716,14.105-53.883
	c3.519-6.576,7.099-11.739,9.696-15.202c1.244-1.699,2.273-2.989,2.994-3.788c0.677-0.822,0.968-0.977,0.968-0.977l21.88-23.345
	H1163.26z"/>
<path fill="#002C55" d="M1008.001,1352.239l-5.039-1.967c-6.035-2.336-20.355-8.48-43.895-20.496
	c-25.442-13.091-57.707-31.481-88.711-54.573c-37.907-28.396-74.195-63.701-93.434-106.354
	c-8.095-18.191-13.134-37.903-13.134-58.69V737.635c-0.032-0.331,0-0.6,0-0.631c0.044-37.305-21.433-65.405-26.29-70.96
	c-0.677-0.799-0.768-0.83-0.83-0.899l-25.533-27.163h143.671l153.996,60.021l151.184-58.938l2.474-0.913l0.339-0.169h143.751
	l-25.628,27.232c0,0-0.015,0.031-0.786,0.83c-0.629,0.792-1.721,2.059-2.903,3.696c-2.564,3.404-6.083,8.496-9.539,14.902
	c-6.837,12.852-13.738,30.959-13.858,52.362l0.044,0.093v373.063c0,20.787-5.054,40.499-13.091,58.69
	c-19.326,42.652-55.604,77.958-93.492,106.354c-31.034,23.092-63.207,41.482-88.711,54.573
	c-23.539,12.016-37.889,18.16-43.914,20.496l-5.868,2.336L1008.001,1352.239z M740.004,661.941c0.044,0.062,0.291,0.316,0.95,1.084
	c5.21,6.092,27.334,34.785,27.41,73.979v0.438v372.717c0,20.064,4.843,39.055,12.737,56.755
	c18.701,41.621,54.407,76.483,91.986,104.554c30.747,22.908,62.749,41.178,88.114,54.221c23.416,11.954,37.66,18.069,43.39,20.313
	l4.21,1.583l4.21-1.583c5.807-2.243,20.064-8.358,43.48-20.313c25.413-13.043,57.262-31.313,88.085-54.221
	c37.595-28.07,73.257-62.933,91.972-104.554c7.881-17.729,12.796-36.69,12.796-56.755V737.442v-0.093v-0.015
	c0-22.47,7.069-41.476,14.276-54.897c3.656-6.653,7.298-11.923,9.906-15.403c1.248-1.79,2.445-3.127,3.137-4.009
	c0.662-0.768,0.968-1.022,0.968-1.068l18.253-19.352H1163.66l-1.998,0.753l-152.86,59.553l-154.826-60.306h-132.21L740.004,661.941z
	 M1163.26,642.606v-2.281V642.606z"/>
<path fill="#002C55" d="M1008.849,761.788c-246.615,0-446.58,199.936-446.58,446.581c0,246.565,199.965,446.548,446.58,446.548
	c246.597,0,446.596-199.982,446.596-446.548C1455.444,961.724,1255.445,761.788,1008.849,761.788 M1008.849,1626.954
	c-231.174,0-418.555-187.461-418.555-418.586c0-231.142,187.381-418.571,418.555-418.571c231.109,0,418.541,187.43,418.541,418.571
	C1427.39,1439.493,1239.958,1626.954,1008.849,1626.954 M1008.849,527.081c-376.213,0-681.24,305.021-681.24,681.288
	c0,376.211,305.027,681.192,681.24,681.192c376.243,0,681.241-304.981,681.241-681.192
	C1690.09,832.102,1385.092,527.081,1008.849,527.081 M1008.849,1859.661c-359.71,0-651.311-291.583-651.311-651.293
	c0-359.734,291.601-651.311,651.311-651.311s651.294,291.577,651.294,651.311
	C1660.143,1568.078,1368.559,1859.661,1008.849,1859.661 M1008.849,572.129c-351.367,0-636.177,284.878-636.177,636.239
	c0,351.351,284.81,636.144,636.177,636.144c351.335,0,636.192-284.793,636.192-636.144
	C1645.041,857.008,1360.184,572.129,1008.849,572.129 M1008.849,1670.757c-255.401,0-462.406-207.004-462.406-462.389
	c0-255.373,207.005-462.438,462.406-462.438c255.325,0,462.342,207.065,462.342,462.438
	C1471.19,1463.753,1264.174,1670.757,1008.849,1670.757"/>
<path fill="#002C55" d="M1165.963,1084.839c0,113.511-157.114,153.429-157.114,153.429s-157.117-39.918-157.117-153.429V722.854
	h314.231V1084.839z"/>
<path fill="#F4C53D" d="M1152.996,956.931c0,0-16.561,6.338-8.805,23.538c0,0-8.805,14.043-4.977,37.996
	c0,0,4.609,29.575-7.575,45.354c0,0-11.675,1.43-26.796-35.521c3.81,3.165,8.267,0,8.267,0c-0.845-6.3,6.517-5.606,6.517-5.606
	c-2.074-6.407,4.176-6.669,4.176-6.669c-4.671-8.857,1.063-8.857,1.063-8.857l-2.521-5.646c-2.379-5.869,2.521-7.313,2.521-7.313
	s2.074-15.864-8.438-20.743c-10.707-4.954-11.584-15.164-11.584-15.164l-49.349,19.051l4.177,11.201c0,0,16.612-15.088,19.516,1.061
	c0,0,0.996,14.013-15.855,6.369l-1.092,6.683c0,0,14.734,6.308,8.467,15.803c0,0-19.346,8.419-44.038-40.5h-4.191v20.78
	c0,0,9.096,1.752,17.668,10.578l16.379,20.021l11.017,1.444c0,0-11.278,9.448-19.377,2.779l-21.83-23.921h-3.441v16.563
	c0,0,13.996-1.122,30.91,25.657h14.674c0,0-0.936,17.271,21.156,28.209l-25.289,16.471c0,0-7.819,6.686-14.735,0.662l-22.539-17.548
	h-4.592v8.452l37.194,24.982c0,0,9.604,2.073,20.912-10.557c0,0,9.401-7.375,24.569-7.375c0,0-2.474,9.496,9.787,17.224
	c0,0-2.045,8.097-3.074,16.855c0,0,0,7.742-15.841,8.389c0,0-9.249-1.321-12.323,7.437h26.414l28.76-29.561
	c0,0,2.184-7.683-4.577-13.629c0,0,10.632-10.54,5.684-28.162c0,0,15.041-20.389,4.209-57.432c0,0-6.406-20.005,6.363-34.387
	C1150.555,981.896,1159.266,971.718,1152.996,956.931 M946.991,1018.464c-6.298-9.495,8.419-15.803,8.419-15.803l-1.029-6.683
	c-16.9,7.644-15.855-6.369-15.855-6.369c2.827-16.148,19.482-1.061,19.482-1.061l4.195-11.201l-49.32-19.051
	c0,0-1,10.21-11.679,15.164c-10.479,4.879-8.31,20.743-8.31,20.743s4.839,1.445,2.427,7.313l-2.427,5.646c0,0,5.653,0,0.997,8.857
	c0,0,6.225,0.262,4.228,6.669c0,0,7.375-0.693,6.45,5.606c0,0,4.472,3.165,8.313,0c-15.149,36.951-26.767,35.521-26.767,35.521
	c-12.243-15.779-7.666-45.354-7.666-45.354c3.842-23.952-4.962-37.996-4.962-37.996c7.684-17.2-8.819-23.538-8.819-23.538
	c-6.236,14.788,2.474,24.965,2.474,24.965c12.705,14.382,6.345,34.387,6.345,34.387c-10.769,37.043,4.166,57.432,4.166,57.432
	c-4.857,17.622,5.745,28.162,5.745,28.162c-6.76,5.946-4.624,13.629-4.624,13.629l28.808,29.561h26.333
	c-2.98-8.758-12.337-7.437-12.337-7.437c-15.75-0.646-15.75-8.389-15.75-8.389c-1.059-8.759-3.104-16.855-3.104-16.855
	c12.279-7.728,9.791-17.224,9.791-17.224c15.179,0,24.612,7.375,24.612,7.375c11.231,12.63,20.88,10.557,20.88,10.557l37.198-24.982
	v-8.452h-4.657l-22.478,17.548c-6.975,6.023-14.782-0.662-14.782-0.662l-25.18-16.471c22.063-10.938,21.065-28.209,21.065-28.209
	h14.75c16.871-26.779,30.896-25.657,30.896-25.657v-16.563h-3.485l-21.79,23.921c-8.095,6.669-19.374-2.779-19.374-2.779
	l10.925-1.444l16.5-20.021c8.495-8.826,17.609-10.578,17.609-10.578v-20.78h-4.257
	C966.38,1026.883,946.991,1018.464,946.991,1018.464"/>
<path fill="#6EAD3B" d="M1008.849,769.916c-62.225,0-112.651,36.228-112.651,81.055c0,44.694,50.426,81.115,112.651,81.115
	c62.239,0,112.59-36.421,112.59-81.115C1121.438,806.143,1071.088,769.916,1008.849,769.916"/>
<path fill="#002C55" d="M824.597,639.149l30.375-16.249c10.464-5.57,21.295-7.52,30.929-7.973l1.645-8.452
	c7.051-31.542,31.515-48.758,39.563-53.997c-0.812-2.796-1.197-5.525-1.197-8.021c1.583-20.413,15.317-26.765,15.979-28.194
	l9.034-6.246l9.172,6.054c17.161,11.577,36.997,15.118,45.278,15.94c1.706,0.184,2.765,0.26,3.303,0.26c0.4,0,1.459,0,3.643-0.26
	c2.703-0.285,6.777-0.869,11.602-1.921c9.648-2.159,22.216-6.345,33.633-14.02l9.157-6.054l9.048,6.246
	c0.645,1.367,14.488,7.781,15.947,28.194c0,2.496-0.307,5.225-1.088,8.021c8.08,5.285,32.431,22.456,39.515,53.997l-15.809,3.142
	l15.809-3.142l1.706,8.452c9.587,0.453,20.389,2.403,30.943,7.973l30.328,16.249l-184.263,74.471L824.597,639.149z
	 M1008.849,678.926l3.657-1.482c-1.397,0.117-2.213,0.193-2.369,0.224l-1.335,0.093l-1.321-0.093
	c-0.123-0.031-0.905-0.107-2.227-0.224L1008.849,678.926z M1094.475,601.721c-4.81-8.397-12.461-15.633-17.608-19.666
	c-18.683,5.885-41.745,20.973-52.009,28.609c-3.871,2.827-5.916,4.579-5.916,4.579l-10.093,8.021l-10.034-8.021
	c0,0-2.103-1.752-6.039-4.579c-3.824-2.851-9.431-6.77-15.899-10.824c-10.787-6.8-24.34-14.02-36.015-17.785
	c-1.983,1.59-4.472,3.672-6.913,6.077c-3.951,3.771-7.822,8.496-10.678,13.651c5.883,2.896,13.487,6.376,22.063,9.873
	c19.697,8.111,44.954,15.824,63.516,15.717C1035.627,627.687,1075.254,611.224,1094.475,601.721 M1008.849,548.408l0.339-16.079
	L1008.849,548.408z"/>
<path fill="#B1B2B1" d="M1008.849,361.253l0.721,0.715c0,0,45.063,38.718,94.169,40.869c0,0-19.56-64.063-94.89-64.063
	c-75.333,0-94.969,64.063-94.969,64.063c49.152-2.151,94.26-40.869,94.26-40.869L1008.849,361.253z M1008.849,478.845
	c54.817-26.112,95.704-16.908,95.704-16.908c6.989-13.375,4.21-38.733,4.21-38.733c-61.29-4.202-99.914-39.318-99.914-39.318
	s-38.703,35.116-99.96,39.318c0,0-2.813,25.358,4.3,38.733C913.188,461.937,953.966,452.733,1008.849,478.845 M1096.979,476.218
	c0,0-57.416-2.282-88.13,26.888c-30.667-29.17-88.238-26.888-88.238-26.888s18.73,43.366,88.238,56.056
	C1078.296,519.584,1096.979,476.218,1096.979,476.218 M1008.849,548.399c0,0-30.299-0.644-57.695-18.905
	c0,0-11.951,8.396-8.419,18.905c0,0,41.498,14.167,66.114,32.335c24.565-18.167,66.129-32.335,66.129-32.335
	c3.533-10.509-8.423-18.905-8.423-18.905C1039.115,547.755,1008.849,548.399,1008.849,548.399 M1114.325,609.618
	c-5.563-28.062-34.494-45.009-34.494-45.009c-32.358,7.013-70.982,38.027-70.982,38.027s-38.703-31.014-71-38.027
	c0,0-28.96,16.947-34.509,45.009c0,0,60.489,33.841,105.509,33.841C1053.865,643.459,1114.325,609.618,1114.325,609.618
	 M1102.446,634.325c-47.813,23.545-93.598,27.309-93.598,27.309s-45.787-3.764-93.601-27.309c0,0-30.144-9.243-52.653,2.796
	l146.254,59.16l146.255-59.16C1132.607,625.082,1102.446,634.325,1102.446,634.325"/>
<path fill="#AA5424" d="M1018.941,1096.545V936.733h-20.188v159.812c0,23.139-23.277,66.083-23.277,66.083
	c11.708,8.189,23.172,11.2,33.373,11.539c10.155-0.339,21.634-3.35,33.323-11.539
	C1042.172,1162.628,1018.941,1119.684,1018.941,1096.545"/>
<path fill="#F4C53D" d="M1165.857,654.121l-157.009,61.149l-156.961-61.149h-103.45c0,0,31.453,33.348,31.453,83.321v372.717
	c0,18.236,4.3,35.536,11.722,52.054c17.362,38.75,51.685,72.658,88.373,100.053c30.056,22.431,61.538,40.408,86.441,53.207
	c23.14,11.846,37.165,17.729,42.422,19.836c5.269-2.106,19.283-7.99,42.375-19.836c24.966-12.799,56.447-30.776,86.499-53.207
	c36.659-27.395,71.092-61.303,88.286-100.053c7.437-16.518,11.86-33.817,11.86-52.054V737.442c0-49.974,31.449-83.321,31.449-83.321
	H1165.857z M1165.963,1084.839c0,113.511-157.114,153.429-157.114,153.429s-157.117-39.918-157.117-153.429V722.854h314.231
	V1084.839z"/>
<path fill="#B1132F" d="M1226.176,894.313h-15.655l-8.313,13.391l-8.328-13.391h-16.208l16.518,22.785l-17.256,23.485h15.917
	l8.743-13.996l8.775,13.996h16.332l-17.1-23.723L1226.176,894.313z M1032.723,1255.243h-15.761l-8.113,13.414l-8.099-13.414h-15.731
	l16.518,22.541l-17.18,23.737h16.394l8.099-13.383l8.113,13.383h16.376l-17.176-23.737L1032.723,1255.243z M1192.85,716.431
	l8.743-14.027l8.775,14.027h16.332l-17.1-23.676l16.575-22.579h-15.655l-8.313,13.376l-8.328-13.376h-16.208l16.518,22.832
	l-17.256,23.423H1192.85z M1215.593,1118.425h-15.598l-8.28,13.398l-8.434-13.398h-16.104l16.38,22.646l-17.026,23.568h15.764
	l8.896-13.95l8.623,13.95h16.423l-17.162-23.692L1215.593,1118.425z M807.297,716.431l8.728-14.027l8.805,14.027h15.932
	l-17.238-23.423l16.518-22.832h-16.212l-8.31,13.376l-8.313-13.376h-15.731l16.562,22.579l-17.085,23.676H807.297z
	 M850.396,1118.425h-15.95l-8.481,13.398l-8.31-13.398H802.12l16.518,22.522l-17.224,23.692h16.456l8.604-13.95l9.001,13.95h15.688
	l-17.052-23.568L850.396,1118.425z M816.025,926.586l8.805,13.996h15.932l-17.238-23.485l16.518-22.785h-16.212l-8.31,13.391
	l-8.313-13.391h-15.731l16.562,22.546l-17.085,23.723h16.347L816.025,926.586z"/>
<path fill="#002C55" d="M1501.428,547.784v-4.263l-0.152-0.346c-0.463-41.883-15.765-74.81-31.02-97.057
	c-7.699-11.331-15.379-19.966-21.357-25.988c-2.95-2.973-5.453-5.301-7.359-6.906c-0.921-0.792-1.659-1.421-2.227-1.859
	c-0.601-0.539-0.554-0.539-1.03-0.838c-28.702-23.707-63.011-31.121-94.001-31.067c-28.775,0-55.266,6.13-74.963,12.238
	c-9.878,3.003-17.991,6.077-23.75,8.396c-2.875,1.275-5.195,2.22-6.778,2.935c-1.412,0.707-1.921,0.83-2.688,1.251
	c-38.81,17.386-68.723,20.266-84.873,20.266c-1.551,0-3.104-0.077-4.486-0.092l-20.232-0.584l3.934,19.828
	c3.223,15.902,12.075,26.304,18.268,31.827c-16.318,19.966-18.469,44.303-18.577,60.067l0.047,5.161l0.153,25.644l23.016-11.3
	c1.997-0.96,4.7-2.312,7.698-3.849c-0.171,2.135-0.171,4.133-0.171,6.068c-0.105,14.051,3.642,24.498,7.76,31.182l9.387,15.357
	l14.183-11.007c3.026-2.297,8.356-6.531,13.996-10.955c9.435,30.066,32.249,47.229,52.194,54.926
	c17.605,7.077,33.785,8.619,41.222,8.95c1.936,3.48,2.841,7.52,2.841,12.461c0.139,9.349-3.838,21.288-7.989,30.038l-13.148,28.286
	l30.634-5.694c13-2.313,25.413-8.042,34.142-18.475c13.043-15.555,14.563-33.618,14.597-45.264c0-3.363-0.109-6.276-0.277-8.526
	c37.856-27.473,43.404-62.556,42.99-76.323v-0.484l-0.2-4.471v-0.515v-0.315v-3.287c0.2-22.579-9.696-40.363-21.757-51.763
	c-12.061-11.554-25.951-17.761-36.459-21.464l-27.672-9.641l6.76,28.508c0.814,3.695,1.291,6.983,1.291,9.472
	c0,4.763-1,8.712-2.721,12.238c-2.518,5.522-6.728,9.341-10.846,11.877c-2.045,1.29-3.948,2.126-5.254,2.703
	c-0.662,0.255-1.215,0.4-1.43,0.522h-0.109c-3.07,0.691-6.021,0.915-8.725,0.915c-9.496-0.045-15.379-3.365-20.65-8.359
	c-5.072-4.894-8.543-11.938-9.726-16.308l-0.186-0.584l-0.138-0.568c-1.965-5.209-2.656-9.711-2.656-13.875
	c0-10.67,4.915-20.028,12.705-28.339c7.604-8.021,17.853-14.266,25.198-17.308c11.122-3.803,21.323-5.154,30.714-5.154
	c17.282,0,31.835,4.878,42.375,10.102c5.221,2.581,9.448,5.193,12.199,7.16c2.779,1.913,4.114,3.172,4.194,3.126
	c32.141,29.231,41.112,61.027,41.269,90.857c0.015,22.41-5.563,43.374-11.325,58.654c-2.813,7.697-5.716,13.896-7.913,18.153
	c-0.997,2.174-1.889,3.795-2.518,4.894c-0.31,0.567-0.554,0.975-0.662,1.213l-0.105,0.131l-86.795,138.586l-0.186,0.415
	c-58.598,103.994-76.56,175.708-76.56,225.641c-0.247,49.289,18.239,76.775,30.176,88.222l14.841,14.473l10.34-17.791
	c11.293-19.497,13.138-41.576,13.262-58.446c0-7.329-0.354-13.705-0.893-18.253c0-0.215-0.047-0.415-0.047-0.615
	c13.091-4.162,20.483-15.908,23.049-24.174c2.379-6.938,3.165-13.259,3.532-17.662c9.481-4.188,16.041-12.461,19.054-20.096
	c3.747-9.026,4.438-17.762,4.516-24.967c-0.077-4.61-0.354-8.559-0.721-11.408c-0.156-1.475-0.354-2.674-0.51-3.542v-0.214
	l-0.276-1.545c-1.841-9.188-2.579-18.269-2.579-26.603c0-20.973,4.639-39.211,9.558-52.254c2.488-6.538,4.915-11.777,6.76-15.35
	c0.968-1.843,1.765-3.196,2.303-4.141c0.262-0.5,0.415-0.853,0.567-1.006v-0.047l0.2-0.329l71.968-116.408
	c47.738-74.864,50.871-130.022,50.809-142.951c0.047-0.646,0-1.229,0-1.621V547.784z M887.04,443.699l4.01-19.905l-20.327,0.661
	c-1.335,0.092-2.841,0.092-4.471,0.092c-16.07,0-46.122-2.88-85.15-20.374c-6.807-3.165-53.191-24.452-107.889-24.713
	c-31.066-0.054-65.466,7.421-94.212,31.259c-3.719,2.942-17.3,14.396-31.758,35.399c-15.426,22.578-31.022,56.226-31.022,98.9v1.399
	l-0.045,0.152v1.361v0.107v2.012c-0.062,13.138,3.194,68.171,50.87,142.981l71.63,115.848l13.749-8.466l-13.658,8.557
	c0.247,0.331,19.606,31.498,19.468,73.413c0,8.419-0.753,17.415-2.598,26.496l-0.291,1.559v0.515
	c-0.386,2.436-1.106,7.942-1.106,14.742c0.029,7.144,0.677,15.941,4.424,24.997c2.95,7.606,9.648,15.85,19.268,20.067
	c0.305,4.479,1.15,10.754,3.423,17.662c2.474,8.266,9.943,20.012,22.986,24.174c-0.443,4.641-0.814,10.972-0.92,18.868
	c0.138,16.809,1.917,38.842,12.996,58.354l10.373,17.884l14.826-14.38c12.031-11.524,30.561-38.995,30.404-88.314
	c0-49.934-17.896-121.647-76.545-225.641l-0.153-0.331l-87.208-139.192v-0.017c-2.889-4.877-22.354-41.49-22.11-82.506
	c0.138-29.875,9.066-61.625,41.24-90.857l-0.324-0.883l0.524,0.745c2.641-2.312,26.304-20.503,58.506-20.25
	c9.372,0,19.621,1.352,30.729,5.154c7.345,2.965,17.623,9.288,25.274,17.308c7.837,8.312,12.767,17.654,12.767,28.339
	c0,4.041-0.797,8.665-2.641,14.143l-0.186,0.376l-0.043,0.392c-1.277,4.472-4.843,11.53-9.896,16.424
	c-5.253,4.994-11.293,8.313-20.741,8.436c-2.66,0-5.61-0.3-9.049-1.052c-2.598-0.884-13.323-5.885-17.256-14.935
	c-1.707-3.519-2.627-7.536-2.627-12.346c0-2.773,0.338-5.969,1.153-9.602l6.359-28.363l-27.363,9.626
	c-10.416,3.703-24.216,9.91-36.338,21.464c-12.042,11.4-21.954,29.184-21.786,51.616v4.264l-0.168,4.378v0.262v0.315
	c-0.338,13.736,5.207,48.851,43.081,76.323c-0.291,2.265-0.4,5.163-0.4,8.526c0.109,11.646,1.63,29.708,14.644,45.34
	c8.696,10.326,21.142,16.086,34.232,18.446l30.834,5.554l-13.367-28.309c-4.195-8.696-8.219-20.573-8.113-29.921
	c0-4.941,0.968-9.064,2.874-12.461c7.346-0.331,23.507-1.79,41.269-8.95c19.897-7.697,42.852-24.875,52.209-54.926
	c5.606,4.393,10.94,8.619,13.796,10.824l14.135,11.155l9.496-15.326c4.209-6.731,7.913-17.224,7.866-31.229
	c0-1.936-0.062-3.933-0.2-6.068c3.045,1.521,5.749,2.812,7.713,3.802l22.524,11.155L887.546,536
	c-0.167-16.17-2.441-40.476-18.682-60.366C875.194,470.08,883.522,459.947,887.04,443.699"/>
<path fill="#F4C53D" d="M1182.495,522.611l-3.427,17.038c-1.564,6.776-2.136,12.616-2.136,17.676
	c0,11.393,2.845,18.508,5.457,22.755c8.048-6.214,34.353-27.018,34.353-27.018l2.397,14.035
	c11.185,62.556,81.432,62.68,84.487,62.68l4.071-0.155l2.521,3.289c6.13,7.328,8.39,16.363,8.39,25.312
	c0,13.376-4.977,26.934-9.525,36.821c10.461-1.967,18.941-6.169,24.781-13.043c8.942-10.587,10.787-25.068,10.787-34.886
	c0-6.261-0.725-10.571-0.725-10.664l-0.968-5.368l4.472-3.082c36.291-24.682,39.857-54.798,39.857-65.712l-0.139-4.202v-0.762v-0.83
	v-3.433c0-35.822-29.179-51.509-47.37-57.894c1.015,4.594,1.659,8.965,1.659,13.152c0,6.982-1.474,13.451-4.224,19.19
	c-8.528,18.067-27.287,23.538-28.073,23.73c-36.459,8.181-54.265-19.068-58.736-34.978c-2.521-6.83-3.612-13.291-3.612-19.382
	c0-31.858,29.761-53.146,48.323-60.681l0.4-0.193h0.167c59.907-20.357,103.509,16.839,105.4,18.476
	c35.797,32.28,46.569,69.63,46.569,102.84c0,50.019-24.536,90.941-24.889,91.557L1336,787.299
	c-57.725,102.473-74.424,171.744-74.424,217.698c0,45.454,16.332,67.857,25.428,76.798c8.881-15.088,11.017-35,11.017-50.348
	c0-13.383-1.535-23.37-1.535-23.568l-1.521-9.127l9.124-0.722c18.915-1.354,19.698-27.742,19.698-31.92l-0.215-7.191l6.436-1.767
	c14.43-3.787,17.238-19.65,17.238-31.451c0-7.506-1.149-13.467-1.149-13.575c-2.06-10.356-2.983-20.372-2.983-29.737
	c0-46.793,21.021-80.349,22.08-81.97l71.688-116.045c51.427-80.726,48.49-135.791,48.49-136.451l-0.215-0.224v-0.407
	c1.03-78.965-56.142-123.69-56.8-124.105c-71.139-59.214-184.172-4.94-185.373-4.325c-45.354,20.357-80.049,22.248-96.763,21.709
	c3.671,18.269,17.392,26.212,18.006,26.62l10.002,5.638l-8.372,7.943c-16.532,15.511-19.636,39.064-19.636,54.828v5.016
	C1155.67,536.062,1182.495,522.611,1182.495,522.611"/>
<path fill="#F4C53D" d="M652.424,800.413c1.015,1.645,21.971,35.184,21.971,81.977c0,9.372-0.873,19.381-2.965,29.745
	c0,0.1-1.092,6.061-1.092,13.567c0,11.8,2.769,27.656,17.256,31.451l6.392,1.775l-0.138,7.175c0,4.186,0.782,30.583,19.603,31.935
	l9.157,0.715l-1.411,9.11c-0.109,0.215-1.645,10.202-1.645,23.6c0,15.318,2.074,35.245,10.816,50.333
	c9.187-8.94,25.566-31.344,25.566-76.798c0-45.962-16.685-115.232-74.471-217.706l-86.608-138.402
	c-0.462-0.629-24.97-41.529-24.97-91.564c0-33.21,10.759-70.56,46.617-102.833c1.83-1.651,45.449-38.841,105.323-18.484h0.244
	l0.233,0.185c18.821,7.537,48.567,28.839,48.567,60.682c0,6.107-1.215,12.56-3.598,19.39c-4.53,15.902-22.325,43.151-58.875,34.985
	c-0.844-0.2-19.512-5.678-28.04-23.723c-2.812-5.745-4.18-12.222-4.18-19.213c0-4.179,0.523-8.557,1.506-13.151
	c-18.115,6.392-47.29,22.079-47.29,57.901l0.044,3.425l0.138,0.837l-0.182,0.753l-0.138,4.202c0,10.917,3.547,41.031,39.825,65.714
	l4.485,3.089l-0.844,5.361c0,0.1-0.83,4.41-0.83,10.671c0,9.818,1.765,24.291,10.831,34.876
	c5.807,6.876,14.273,11.079,24.904,13.045c-4.729-9.88-9.678-23.438-9.678-36.813c0-8.958,2.336-17.984,8.419-25.297l2.565-3.287
	l4.104,0.138c2.827,0,73.194-0.124,84.378-62.68l2.431-14.035c0,0,26.363,20.794,34.276,27.025
	c2.674-4.248,5.487-11.37,5.487-22.763c0-5.046-0.568-10.9-1.998-17.684l-3.642-17.04c0,0,27.011,13.467,36.321,18.015l0.153-5.016
	c0-15.771-3.147-39.317-19.756-54.835l-8.39-7.928l9.987-5.646c0.753-0.408,14.302-8.344,18.006-26.62
	c-16.656,0.53-51.361-1.352-96.749-21.716c-1.168-0.608-114.281-54.874-185.354,4.332c-0.6,0.408-57.91,45.148-56.818,124.098v0.429
	l-0.047,0.2c0,0.677-3.057,55.727,48.323,136.451L652.424,800.413z"/>
<path fill="#FFFFFF" d="M566.325,929.243c4.686-1.759,8.648-5.017,11.799-9.734c2.718-3.948,4.271-7.866,4.715-11.722
	c0.448-3.902,0-7.552-1.226-11.155c-1.277-3.542-3.26-6.86-5.901-9.956c-2.642-3.104-5.73-5.761-9.22-8.211
	c-3.794-2.582-7.666-4.548-11.693-6.03c-4.024-1.383-7.91-2.074-11.737-1.921c-3.671,0.115-7.344,1.075-10.786,2.958
	c-3.458,1.812-6.452,4.725-9.217,8.781c-2.03,2.927-3.289,5.837-3.856,8.765c-0.615,2.927-0.615,5.808,0,8.635
	c0.567,2.834,1.721,5.477,3.425,8.042c1.797,2.566,3.979,4.862,6.562,6.938l-6.025,8.888c-7.851-6.624-12.428-13.958-13.72-22.103
	c-1.306-8.09,0.938-16.408,6.714-24.951c3.52-5.225,7.482-9.126,11.924-11.784c4.362-2.643,9.048-4.188,13.873-4.609
	c4.839-0.477,9.834,0.122,14.902,1.713c5.181,1.635,10.173,4.086,15.026,7.42c4.905,3.327,8.958,7.036,12.279,11.346
	c3.38,4.312,5.73,8.812,7.113,13.646c1.368,4.824,1.597,9.817,0.797,15.04c-0.859,5.201-3.057,10.378-6.527,15.481
	c-2.368,3.487-5.071,6.491-8.16,9.01c-3.057,2.428-6.284,4.31-9.74,5.494c-3.503,1.197-7.16,1.728-10.987,1.497
	c-3.762-0.269-7.651-1.29-11.508-3.21l6.025-8.889C556.615,930.802,561.668,930.995,566.325,929.243"/>
<path fill="#FFFFFF" d="M556.615,942.572c-4.119-0.27-8.19-1.414-12.276-3.435l-1.968-0.968l8.08-11.87l1.463,0.555
	c2.765,1.166,5.406,1.773,7.895,1.773c2.044,0,3.98-0.422,5.869-1.113c4.304-1.652,7.869-4.595,10.926-9.05
	c2.579-3.787,4.009-7.391,4.395-10.931c0.12-0.846,0.167-1.775,0.167-2.644c0-2.627-0.505-5.163-1.382-7.644
	c-1.153-3.304-2.951-6.438-5.486-9.349c-2.532-2.943-5.56-5.556-8.863-7.868c-3.704-2.451-7.437-4.417-11.231-5.769
	c-3.537-1.323-6.898-1.952-10.22-1.952c-0.306,0-0.553,0-0.782,0.031c-3.549,0.093-6.836,1.006-10.016,2.765
	c-3.151,1.651-6.009,4.356-8.652,8.151c-1.812,2.75-3.027,5.478-3.547,8.104c-0.262,1.352-0.448,2.689-0.448,3.95
	c0,1.32,0.186,2.612,0.448,3.947c0.629,2.581,1.626,5.048,3.256,7.429c1.628,2.343,3.657,4.495,6.116,6.445l1.366,1.053
	l-8.188,12.113l-1.553-1.382c-8.112-6.813-12.967-14.566-14.411-23.176c-0.246-1.583-0.339-3.258-0.339-4.886
	c0-7.083,2.505-14.32,7.422-21.48c3.594-5.346,7.758-9.487,12.399-12.237c4.686-2.82,9.602-4.502,14.717-4.955
	c1.077-0.115,2.212-0.162,3.304-0.162c4.104,0,8.161,0.662,12.385,1.998c5.301,1.651,10.478,4.25,15.488,7.644
	c4.977,3.389,9.249,7.322,12.628,11.708c3.565,4.486,6.007,9.25,7.484,14.335c0.873,3.112,1.35,6.338,1.35,9.641
	c0,2.067-0.214,4.081-0.477,6.216c-0.935,5.446-3.223,10.907-6.803,16.225c-2.475,3.633-5.315,6.743-8.59,9.387
	c-3.133,2.566-6.655,4.533-10.326,5.854c-3.104,1.037-6.36,1.606-9.754,1.606C557.812,942.634,557.167,942.603,556.615,942.572
	 M556.829,938.861c0.539,0,1.077,0.045,1.63,0.045c3.009,0,5.836-0.46,8.51-1.436c3.257-1.129,6.378-2.874,9.267-5.201
	c2.947-2.412,5.498-5.208,7.757-8.566c3.351-4.939,5.392-9.894,6.226-14.726c0.276-1.914,0.458-3.85,0.458-5.632
	c0-2.941-0.367-5.854-1.197-8.681c-1.306-4.532-3.489-8.843-6.778-12.936c-3.224-4.133-7.189-7.813-11.861-10.995
	c-4.729-3.302-9.554-5.63-14.487-7.144c-3.918-1.245-7.589-1.859-11.278-1.859c-0.953,0-1.998,0.069-2.994,0.162
	c-4.534,0.437-8.881,1.835-13.138,4.402c-4.071,2.472-7.852,6.138-11.277,11.238c-4.564,6.636-6.746,13.105-6.746,19.321
	c0,1.444,0.107,2.873,0.322,4.293c1.215,7.06,4.934,13.59,11.569,19.536l3.888-5.738c-2.167-1.905-4.071-3.949-5.576-6.245
	c-1.845-2.674-3.136-5.64-3.751-8.659c-0.353-1.574-0.506-3.188-0.506-4.731c0-1.559,0.153-3.12,0.506-4.672
	c0.6-3.211,2.044-6.376,4.133-9.472c2.813-4.186,6.116-7.336,9.896-9.365c3.686-1.905,7.621-3.034,11.537-3.142
	c0.462-0.022,0.862-0.022,1.044-0.022c3.751,0,7.575,0.699,11.479,2.096c4.104,1.506,8.175,3.573,12.013,6.247
	c3.689,2.481,6.854,5.301,9.605,8.495c2.812,3.196,4.886,6.746,6.269,10.54c0.935,2.836,1.55,5.754,1.55,8.874
	c0,0.992-0.105,2.043-0.167,3.118c-0.477,4.195-2.227,8.382-5.053,12.568c-3.336,4.94-7.622,8.466-12.709,10.418l-0.644-1.752
	l0.644,1.752c-2.303,0.844-4.7,1.275-7.16,1.275c-2.536,0-5.253-0.431-7.895-1.423l-3.966,5.854
	C550.946,937.948,553.864,938.654,556.829,938.861"/>
<polygon fill="#FFFFFF" points="556.276,969.559 492.1,937.479 472.938,975.658 464.843,971.633 488.827,923.773 561.101,959.941 
	"/>
<path fill="#FFFFFF" d="M472.125,977.348l-9.787-4.893l25.673-51.225l75.548,37.905l-0.815,1.681l-4.839,9.55l-0.786,1.681
	l-64.208-32.125l-19.159,38.265L472.125,977.348z M467.285,970.758l4.841,2.427l19.159-38.218l64.177,32.159l3.136-6.309
	l-68.941-34.538L467.285,970.758z M556.276,969.583l0.844-1.637L556.276,969.583z"/>
<path fill="#FFFFFF" d="M447.911,1034.949c-3.042-6.93-2.813-15.164,0.584-24.782c3.518-9.832,8.559-16.616,15.226-20.481
	c6.545-3.854,14.98-3.933,25.105-0.314l48.658,17.302l-3.595,10.178l-48.629-17.4c-6.807-2.405-12.659-2.436-17.5-0.062
	c-4.793,2.359-8.374,6.983-10.846,13.82c-2.307,6.423-2.307,12.016,0,16.594c2.32,4.672,6.898,8.235,13.689,10.586l48.674,17.347
	l-3.689,10.125l-48.596-17.285C457.283,1047.072,450.938,1041.88,447.911,1034.949"/>
<path fill="#FFFFFF" d="M466.41,1052.281c-10.018-3.61-16.963-9.111-20.188-16.579l1.69-0.768l1.721-0.753
	c2.703,6.345,8.543,11.231,18.067,14.611l46.832,16.718l2.335-6.654l-46.832-16.73c-7.175-2.491-12.168-6.3-14.78-11.478
	c-1.366-2.581-1.89-5.424-1.89-8.482c0-3.027,0.524-6.252,1.783-9.68c2.582-7.074,6.483-12.145,11.815-14.756
	c2.612-1.306,5.516-1.967,8.711-1.967c3.151,0,6.576,0.661,10.187,1.967l46.875,16.694l2.35-6.623l-46.86-16.678
	c-4.824-1.729-9.079-2.565-12.936-2.565c-4.057,0-7.575,0.93-10.647,2.758c-6.178,3.564-10.986,9.909-14.396,19.497
	c-1.798,4.855-2.644,9.356-2.644,13.506c0,3.61,0.66,6.898,2.028,9.863l-1.721,0.753l-1.69,0.768
	c-1.552-3.519-2.291-7.282-2.291-11.384c0-4.596,0.939-9.572,2.86-14.766c3.518-10.095,8.896-17.286,15.963-21.448
	c3.702-2.221,7.973-3.258,12.537-3.258c4.393,0,9.096,0.93,14.166,2.734l50.364,17.983l-0.615,1.79l-4.257,11.847l-50.364-17.977
	c-3.271-1.197-6.283-1.767-8.91-1.767c-2.612,0-4.948,0.491-7.051,1.575c-4.242,2.098-7.575,6.214-9.972,12.79
	c-1.092,3.073-1.598,5.809-1.598,8.343c0,2.505,0.444,4.733,1.488,6.822c2.092,4.042,6.163,7.359,12.708,9.664l50.364,18.008
	l-0.629,1.705l-4.211,11.892L466.41,1052.281z"/>
<path fill="#FFFFFF" d="M506.511,1110.159c-0.26,1.721-0.691,3.532-1.044,5.438c-0.493,1.998-0.953,3.934-1.522,5.823
	c-0.583,1.874-1.183,3.609-1.859,5.223c-0.735,1.583-1.55,2.905-2.58,3.934c-1.968,2.321-4.563,4.073-7.651,5.331
	c-3.089,1.323-6.683,1.568-10.616,0.769c-4.211-0.769-7.729-2.52-10.373-5.161c-2.672-2.612-4.362-5.961-5.177-10.049l-0.153-0.046
	c-2.014,4.67-4.995,8.005-8.912,9.895c-3.84,1.981-8.297,2.412-13.152,1.521c-2.887-0.553-5.608-1.645-8.143-3.258
	c-2.581-1.552-4.671-3.563-6.423-5.961c-1.705-2.489-2.889-5.315-3.595-8.574c-0.706-3.256-0.706-6.851,0.062-10.785l7.437-38.349
	l79.311,15.487L506.511,1110.159z M434.544,1104.658c-0.906,4.671-0.4,8.573,1.583,11.708c2.028,3.103,5.27,5.101,9.71,5.93
	c2.581,0.522,4.855,0.477,6.698-0.169c1.921-0.629,3.473-1.645,4.841-3.027c1.337-1.382,2.443-3.087,3.164-5.084
	c0.8-2.014,1.444-4.133,1.83-6.3l4.748-24.138l-27.487-5.408L434.544,1104.658z M471.849,1106.424
	c-1.122,5.947-0.875,10.526,0.691,13.567c1.614,3.042,4.502,4.948,8.697,5.777c2.889,0.554,5.115,0.554,6.96-0.062
	c1.735-0.522,3.271-1.476,4.472-2.903c1.197-1.383,2.165-3.12,2.765-5.086c0.675-1.967,1.29-4.057,1.645-6.422l4.117-21.049
	l-25.213-4.934L471.849,1106.424z"/>
<path fill="#FFFFFF" d="M480.852,1138.521c-4.517-0.892-8.373-2.766-11.276-5.686c-1.905-1.904-3.458-4.194-4.488-6.729
	c-1.902,3.041-4.5,5.346-7.618,6.882c-2.86,1.444-6.04,2.121-9.389,2.121c-1.566,0-3.287-0.184-4.979-0.491
	c-3.056-0.601-6.006-1.769-8.743-3.411c-2.732-1.769-5.084-3.918-6.943-6.576c-1.828-2.674-3.182-5.731-3.964-9.22
	c-0.338-1.704-0.539-3.501-0.539-5.284c0-2.028,0.2-4.118,0.646-6.237l7.806-40.132l82.938,16.163l-5.948,30.573
	c-0.229,1.707-0.737,3.597-1.121,5.563c-0.4,1.967-0.968,3.933-1.506,5.868c-0.537,1.967-1.23,3.78-1.905,5.456
	c-0.798,1.766-1.737,3.225-2.843,4.485c-2.227,2.443-5.101,4.379-8.48,5.762c-2.12,0.892-4.486,1.382-7.006,1.382
	C484.002,1139.012,482.449,1138.798,480.852,1138.521 M465.856,1119.576l1.366,0.322l0.324,1.229c0.706,3.733,2.197,6.7,4.595,9.065
	c2.365,2.397,5.53,3.933,9.387,4.671c1.414,0.246,2.765,0.415,3.964,0.415c2.074,0,3.964-0.353,5.67-1.061
	c2.889-1.137,5.163-2.796,7.022-4.9c0.813-0.877,1.535-1.967,2.195-3.428c0.631-1.474,1.23-3.194,1.767-5.008
	c0.6-1.813,1.015-3.688,1.461-5.592c0.415-1.967,0.751-3.812,1.122-5.425l5.207-26.994l-75.621-14.812l-7.176,36.552
	c-0.339,1.95-0.553,3.719-0.553,5.516c0,1.521,0.214,3.011,0.522,4.517c0.706,2.966,1.783,5.64,3.318,7.836
	c1.615,2.259,3.518,4.118,5.87,5.546c2.351,1.413,4.808,2.474,7.482,2.965c1.521,0.308,3.013,0.432,4.302,0.432
	c2.858,0,5.361-0.569,7.713-1.752c3.535-1.69,6.146-4.609,8.004-8.972l0.584-1.385L465.856,1119.576z M480.899,1127.566
	c-4.564-0.815-8.144-3.149-10.034-6.745c-1.121-2.089-1.583-4.67-1.583-7.683c0-2.088,0.293-4.486,0.829-7.129l4.396-22.861
	l28.854,5.576l-4.426,22.924c-0.507,2.412-1.061,4.563-1.735,6.668c-0.708,2.166-1.767,4.104-3.149,5.639
	c-1.399,1.659-3.198,2.858-5.348,3.519c-1.137,0.354-2.351,0.507-3.642,0.507C483.711,1127.98,482.343,1127.857,480.899,1127.566
	 M472.971,1113.139c0,2.612,0.398,4.564,1.197,5.961c1.321,2.52,3.566,4.057,7.408,4.794c1.35,0.338,2.427,0.386,3.485,0.386
	c1,0,1.859-0.048,2.505-0.324c1.566-0.46,2.734-1.259,3.718-2.336c1.03-1.228,1.783-2.657,2.396-4.424
	c0.677-1.904,1.153-4.057,1.615-6.254l3.702-19.25l-21.511-4.195l-3.809,19.283C473.262,1109.175,472.971,1111.355,472.971,1113.139
	 M445.484,1124.109c-4.795-0.891-8.619-3.15-10.85-6.73c-1.643-2.52-2.441-5.408-2.441-8.603c0-1.415,0.184-2.936,0.491-4.519
	l5.53-28.207l31.067,6.021l-5.024,25.967c-0.475,2.319-1.151,4.578-2.041,6.669c-0.877,2.212-2.03,4.055-3.489,5.623
	c-1.521,1.628-3.411,2.826-5.639,3.563c-1.197,0.386-2.596,0.584-4.041,0.584C447.942,1124.478,446.791,1124.417,445.484,1124.109
	 M436.372,1105.027c-0.336,1.396-0.46,2.596-0.46,3.749c0,2.61,0.599,4.67,1.812,6.515c1.707,2.703,4.364,4.409,8.419,5.191
	c1.108,0.217,2.06,0.308,2.905,0.308c1.168,0,2.043-0.122,2.965-0.46c1.552-0.522,2.889-1.368,3.995-2.52
	c1.168-1.23,2.076-2.72,2.827-4.486c0.753-1.906,1.352-3.935,1.752-5.963l4.378-22.339l-23.861-4.641L436.372,1105.027l-1.828-0.369
	L436.372,1105.027z"/>
<path fill="#FFFFFF" d="M496.94,1210.38c0.229,12.431-2.767,22.109-8.99,28.932c-6.298,6.884-15.841,10.34-28.822,10.478
	c-6.822,0.185-12.831-0.49-18.101-1.982c-5.253-1.366-9.739-3.609-13.353-6.729c-3.656-3.118-6.45-7.13-8.388-11.969
	c-1.952-4.902-2.996-10.694-3.149-17.423l-0.446-27.688l80.831-1.337L496.94,1210.38z M425.172,1212.439
	c0.047,1.213,0.169,2.75,0.415,4.563c0.186,1.782,0.677,3.703,1.413,5.731c0.813,2.043,1.814,4.024,3.226,6.007
	c1.43,1.983,3.304,3.749,5.672,5.239c2.317,1.583,5.283,2.813,8.786,3.842c3.566,0.906,7.806,1.335,12.785,1.29
	c4.87-0.093,9.157-0.599,12.936-1.645c3.764-0.999,7.006-2.612,9.68-4.808c2.627-2.167,4.61-4.963,5.978-8.404
	c1.306-3.428,1.95-7.621,1.889-12.568l-0.291-18.099l-62.749,0.982L425.172,1212.439z"/>
<path fill="#FFFFFF" d="M457.669,1251.725c-6.331,0-12.108-0.722-17.133-2.073c-5.516-1.49-10.187-3.888-14.12-7.206
	c-3.794-3.289-6.807-7.591-8.866-12.706c-2.058-5.117-3.132-11.124-3.256-18.053l-0.477-29.516l84.506-1.383l0.475,29.516
	l-1.857,0.076l-1.815,0.046l-0.429-25.857l-77.067,1.214l0.415,25.858c0.107,6.515,1.122,12.121,2.949,16.762
	c1.859,4.609,4.488,8.328,7.898,11.247c3.333,2.918,7.561,5.039,12.599,6.422c4.653,1.229,10.109,1.876,16.18,1.876h1.366
	c12.721-0.186,21.726-3.628,27.532-9.865c5.608-6.253,8.557-14.995,8.557-26.596v-1.061l1.815-0.046h1.857v1.106
	c0,12.215-3.104,22.048-9.556,29.008c-6.638,7.329-16.856,10.939-30.114,11.23H457.669z M456.253,1240.939
	c-4.562,0-8.528-0.46-12.03-1.383c-3.64-1.029-6.776-2.305-9.355-3.994c-2.551-1.721-4.595-3.611-6.116-5.777
	c-1.475-2.089-2.643-4.241-3.442-6.377c-0.86-2.149-1.321-4.224-1.551-6.252c-0.246-1.797-0.339-3.351-0.398-4.672l1.797-0.03
	l1.936-0.031c0,1.137,0.029,2.551,0.338,4.333c0.184,1.598,0.599,3.38,1.321,5.301c0.691,1.874,1.659,3.702,2.979,5.547
	c1.245,1.813,2.965,3.411,5.134,4.886c2.15,1.353,4.884,2.565,8.357,3.504c2.996,0.799,6.668,1.244,11.031,1.244h1.215
	c4.731-0.093,8.819-0.601,12.428-1.567c3.627-0.906,6.531-2.443,8.958-4.425c2.383-1.997,4.257-4.502,5.47-7.637
	c1.092-2.996,1.737-6.714,1.737-11.124v-0.798l-0.276-16.287l-58.985,0.968l0.293,16.056l-1.936,0.031l-1.797,0.03l-0.355-19.697
	l66.375-1.137l0.384,20.129v0.705c0,4.763-0.615,8.988-2.043,12.414c-1.368,3.704-3.611,6.762-6.483,9.22
	c-2.889,2.35-6.331,4.057-10.373,5.162c-3.979,1.061-8.481,1.628-13.396,1.659C457.054,1240.908,456.606,1240.939,456.253,1240.939"
	/>
<polygon fill="#FFFFFF" points="506.265,1311.492 497.322,1312.723 491.008,1268.136 465.58,1271.73 471.465,1313.29 
	462.508,1314.596 456.623,1272.96 428.921,1276.983 435.297,1321.817 426.264,1323.139 418.458,1267.552 498.428,1256.211 "/>
<path fill="#FFFFFF" d="M416.291,1265.983l83.705-11.892l8.143,57.124l-1.874,0.276l1.874-0.276l0.247,1.845l-1.875,0.245
	l-10.755,1.507l-6.361-44.572l-21.724,3.104l5.916,41.56l-1.875,0.245l-10.816,1.492l-5.899-41.562l-23.983,3.411l6.375,44.941
	l-1.843,0.2l-10.833,1.565L416.291,1265.983z M420.563,1269.117l7.298,51.902l5.316-0.77l-6.391-44.895l31.389-4.472l5.885,41.531
	l5.299-0.708l-5.883-41.574l29.022-4.118l6.392,44.587l5.301-0.706l-7.329-51.595L420.563,1269.117z"/>
<path fill="#FFFFFF" d="M518.34,1356.296c2.197,7.851,1.892,14.38-0.968,19.573c-2.841,5.102-7.99,8.743-15.226,10.816
	c-7.251,2.028-13.489,1.645-18.744-1.229c-5.254-2.903-8.896-8.25-11.017-16.132l-6.713-23.724l-31.772,8.974l-2.937-10.294
	l77.761-22.048L518.34,1356.296z M480.099,1363.363c1.63,5.93,4.027,9.879,7.269,11.892c3.271,1.997,7.159,2.397,11.83,1.105
	c4.717-1.32,7.806-3.702,9.479-7.082c1.674-3.427,1.674-8.065-0.047-13.936l-5.683-20.311l-28.547,8.111L480.099,1363.363z"/>
<path fill="#FFFFFF" d="M482.558,1387.086c-5.792-3.227-9.71-9.126-11.954-17.239l-6.223-21.972l-31.82,9.035l-0.477-1.875
	l-3.425-12.03l81.277-23.092l10.202,35.86l-1.797,0.522l-1.781,0.521l-9.188-32.296l-74.133,21.064l1.907,6.698l31.787-8.957
	l7.236,25.475c2.06,7.59,5.516,12.445,10.156,14.995c2.72,1.507,5.778,2.305,9.234,2.305c2.49,0,5.208-0.384,8.051-1.213
	c6.976-1.982,11.491-5.301,14.089-9.941c1.49-2.642,2.259-5.654,2.259-9.187c0-2.675-0.477-5.671-1.398-8.943l1.781-0.521
	l1.797-0.522c1,3.549,1.506,6.882,1.506,9.987c0,4.086-0.92,7.682-2.688,11.031c-3.149,5.623-8.727,9.556-16.301,11.646
	c-3.149,0.892-6.223,1.352-9.095,1.352C489.563,1389.789,485.861,1388.914,482.558,1387.086 M486.415,1376.854
	c-3.856-2.412-6.378-6.9-8.066-13.014l-6.223-22.048l32.08-9.036l6.269,22.05c0.829,2.994,1.229,5.853,1.229,8.374
	c0,2.581-0.4,4.824-1.368,6.881c-1.966,3.964-5.668,6.731-10.647,8.083c-1.966,0.553-3.856,0.846-5.637,0.846
	C491.284,1378.989,488.658,1378.236,486.415,1376.854 M488.35,1373.672c1.645,1.092,3.518,1.583,5.701,1.583
	c1.382,0,2.933-0.2,4.593-0.706c4.379-1.199,6.929-3.289,8.359-6.131c0.691-1.43,1.03-3.15,1.03-5.238
	c0-2.091-0.417-4.579-1.185-7.406l-5.239-18.438l-24.937,7.021l5.179,18.516l-1.754,0.491l1.83-0.491
	C483.402,1368.557,485.676,1372.089,488.35,1373.672"/>
<path fill="#FFFFFF" d="M505.881,1399.593c5.285-0.739,10.479-0.339,15.333,0.982c4.916,1.322,9.496,3.673,13.553,7.114
	c4.162,3.395,7.604,8.004,10.278,13.844c2.688,5.823,3.933,11.43,3.842,16.807c-0.124,5.379-1.229,10.325-3.46,14.904
	c-2.227,4.578-5.299,8.635-9.248,12.322c-3.918,3.504-8.466,6.483-13.458,8.789c-5.01,2.335-10.173,3.749-15.488,4.363
	c-5.301,0.675-10.463,0.354-15.35-0.953c-4.946-1.352-9.434-3.688-13.534-7.114c-4.088-3.456-7.484-8.05-10.142-13.873
	c-2.672-5.823-3.949-11.431-3.917-16.777c0.091-5.317,1.29-10.356,3.471-14.89c2.167-4.563,5.301-8.681,9.265-12.307
	c3.949-3.625,8.404-6.545,13.397-8.788C495.434,1401.681,500.597,1400.206,505.881,1399.593 M484.632,1420.18
	c-3.165,2.705-5.747,5.67-7.605,9.064c-2.028,3.352-3.12,7.053-3.349,11.094c-0.308,4.041,0.583,8.266,2.658,12.691
	c2.043,4.486,4.686,7.896,7.896,10.309c3.228,2.46,6.716,3.965,10.587,4.748c3.795,0.768,7.742,0.768,11.77,0.124
	c4.1-0.738,7.928-1.906,11.629-3.658c3.702-1.659,7.098-3.778,10.264-6.437c3.149-2.598,5.699-5.607,7.697-8.959
	c1.89-3.41,3.027-7.098,3.303-11.093c0.248-4.086-0.615-8.28-2.688-12.752c-2.026-4.455-4.639-7.911-7.866-10.354
	c-3.304-2.429-6.793-3.964-10.617-4.687c-3.794-0.738-7.728-0.784-11.8-0.138c-4.012,0.691-7.897,1.919-11.568,3.656
	C491.239,1415.463,487.797,1417.629,484.632,1420.18"/>
<path fill="#FFFFFF" d="M491.468,1479.549c-5.223-1.383-10.001-3.842-14.364-7.468c-4.257-3.626-7.822-8.543-10.602-14.55
	c-2.688-5.854-4.119-11.569-4.119-17.085c0.093-0.108,0-0.354,0.093-0.493c0.017-5.577,1.275-10.769,3.564-15.624
	c2.335-4.855,5.592-9.127,9.696-12.845c4.133-3.795,8.743-6.822,13.92-9.203c5.177-2.336,10.54-3.873,16.008-4.548
	c1.859-0.262,3.658-0.354,5.348-0.354c3.657,0,7.222,0.431,10.74,1.384c5.115,1.414,9.878,3.902,14.258,7.451
	c4.362,3.643,7.971,8.497,10.664,14.535c2.703,5.761,4.053,11.384,4.053,16.916v0.706c-0.091,5.625-1.321,10.816-3.686,15.611
	c-2.274,4.87-5.563,9.218-9.682,12.874c-3.993,3.749-8.724,6.821-13.858,9.22c-5.208,2.305-10.523,3.856-16.039,4.531
	c-1.843,0.2-3.642,0.338-5.423,0.338C498.428,1480.945,494.833,1480.469,491.468,1479.549 M491.163,1405.645
	c-4.81,2.243-9.128,5.041-12.938,8.56c-3.764,3.441-6.698,7.374-8.819,11.66c-2.121,4.333-3.21,9.064-3.289,14.352v0.23
	c0,4.932,1.245,10.095,3.766,15.534c2.536,5.653,5.792,10.001,9.664,13.258c3.933,3.243,8.158,5.517,12.845,6.745
	c3.089,0.798,6.361,1.229,9.65,1.229c1.566,0,3.287-0.076,4.962-0.276c5.116-0.646,10.092-2.028,14.917-4.288
	c4.795-2.195,9.174-5.084,13-8.526c3.704-3.441,6.712-7.344,8.881-11.708c1.965-4.302,3.118-9.002,3.194-14.043v-0.706
	c0-4.855-1.153-10.018-3.686-15.364c-2.49-5.608-5.763-10.018-9.65-13.245c-3.917-3.256-8.204-5.499-12.936-6.743
	c-3.18-0.784-6.377-1.261-9.71-1.261c-1.568,0-3.227,0.107-4.9,0.321C501.011,1402.051,496.049,1403.433,491.163,1405.645
	 M494.45,1469.884c-4.133-0.723-7.882-2.427-11.324-5.056c-3.518-2.596-6.359-6.328-8.466-11.031
	c-1.936-4.133-2.903-8.128-2.903-12.016c0-0.612,0.047-1.105,0.047-1.565c0.322-4.333,1.474-8.328,3.547-11.954
	c2.06-3.534,4.748-6.684,8.052-9.434l1.182,1.352l-1.182-1.383c3.318-2.72,6.898-4.946,10.771-6.697
	c3.794-1.829,7.868-3.059,12.044-3.795c2.044-0.324,4.089-0.508,6.087-0.508c2.15,0,4.286,0.246,6.39,0.615
	c4.117,0.768,7.912,2.472,11.339,5.084c3.487,2.598,6.299,6.346,8.435,11.017c1.905,4.118,2.873,8.204,2.873,12.03v1.613
	c-0.306,4.257-1.521,8.297-3.549,11.923c-2.136,3.549-4.746,6.699-8.049,9.51c-3.336,2.688-6.869,4.903-10.711,6.715
	c-3.885,1.752-7.928,2.95-12.151,3.673c-2.045,0.322-4.042,0.567-6.069,0.567C498.645,1470.544,496.523,1470.299,494.45,1469.884
	 M478.549,1430.167c-1.737,3.103-2.813,6.499-3.06,10.279c0,0.446-0.029,0.875-0.029,1.335c0,3.213,0.798,6.731,2.55,10.449
	c1.905,4.303,4.378,7.437,7.313,9.648c3.027,2.243,6.331,3.75,9.834,4.425c1.827,0.353,3.702,0.477,5.654,0.477
	c1.812,0,3.625-0.124,5.454-0.446c3.871-0.646,7.606-1.766,11.217-3.456c3.504-1.645,6.806-3.734,9.863-6.207
	c2.996-2.474,5.392-5.301,7.189-8.466c1.799-3.104,2.827-6.607,3.074-10.34c0-0.384,0.045-0.801,0.045-1.322
	c0-3.211-0.846-6.774-2.567-10.493c-1.902-4.302-4.362-7.36-7.296-9.558c-3.011-2.288-6.299-3.749-9.818-4.424
	c-1.859-0.339-3.749-0.569-5.668-0.569c-1.816,0-3.58,0.154-5.456,0.477c-3.902,0.707-7.635,1.813-11.155,3.487
	c-3.594,1.582-6.867,3.642-9.909,6.146C482.804,1424.129,480.375,1426.941,478.549,1430.167"/>
<path fill="#FFFFFF" d="M584.545,1495.742c4.195,6.407,5.887,12.476,5.116,18.16c-0.812,5.699-3.948,10.356-9.401,13.951
	c-4.147,2.703-8.357,4.088-12.646,4.286c-4.286,0.138-8.343-1.49-12.152-4.87l-0.215,0.184c0.92,2.26,1.306,4.195,1.259,6.023
	c-0.153,1.783-0.52,3.458-1.259,4.979c-0.815,1.552-1.83,2.966-3.118,4.332c-1.292,1.322-2.646,2.598-4.181,3.903
	c-1.612,1.168-3.18,2.365-4.872,3.533c-1.659,1.198-3.256,2.49-4.686,3.78c-1.459,1.32-2.749,2.705-3.995,4.147
	c-1.183,1.476-2.027,3.026-2.55,4.671l-6.529-9.986c0.293-1.106,0.952-2.167,2.028-3.166c1.044-0.998,2.289-2.027,3.75-3.072
	c1.428-1.013,2.965-2.119,4.562-3.287c1.705-1.153,3.258-2.505,4.717-3.842c1.43-1.32,2.86-2.688,4.104-4.01
	c1.226-1.354,2.103-2.813,2.688-4.318c0.567-1.597,0.782-3.256,0.535-5.008c-0.259-1.721-1.026-3.688-2.471-5.931l-14.367-21.972
	l-28.917,18.868l-5.897-8.988l67.617-44.188L584.545,1495.742z M555.061,1517.714c1.583,1.628,3.289,2.887,5.134,3.747
	c1.844,0.832,3.78,1.108,5.897,0.999c2.121-0.167,4.38-1.09,6.869-2.703c3.38-2.167,5.563-4.963,6.483-8.221
	c0.892-3.318,0-7.099-2.841-11.308l-14.564-22.4l-23.57,15.455l12.23,18.729C552.067,1514.086,553.511,1516.023,555.061,1517.714"/>
<path fill="#FFFFFF" d="M523.288,1553.159l0.248-0.8c0.368-1.521,1.244-2.842,2.518-4.01c1.123-1.105,2.367-2.152,3.918-3.272
	c1.43-0.999,3.074-2.136,4.641-3.272c1.628-1.153,3.12-2.336,4.564-3.704c1.397-1.32,2.718-2.642,3.9-3.886
	c1.077-1.275,1.83-2.459,2.35-3.749c0.324-0.937,0.462-1.906,0.462-3.013c0-0.276,0-0.705-0.047-1.105
	c-0.138-1.337-0.797-3.072-2.194-5.132l-13.338-20.403l-28.917,18.898l-7.896-12.139l70.721-46.215l21.848,33.339l-1.521,1.046
	l-1.612,1.014l-19.788-30.222l-64.501,42.113l3.854,5.839l28.841-18.806l15.455,23.461c1.492,2.412,2.474,4.655,2.783,6.808
	c0,0.491,0.029,1.059,0.029,1.504c0,1.492-0.229,2.951-0.721,4.271c-0.647,1.783-1.721,3.441-3.103,4.917
	c-1.263,1.459-2.707,2.827-4.057,4.147c-1.599,1.476-3.136,2.768-4.934,4.026c-1.707,1.153-3.242,2.29-4.639,3.319
	c-1.416,0.982-2.612,1.905-3.565,2.903c-0.568,0.508-0.982,1.061-1.213,1.521l4.133,6.406c0.46-0.706,0.937-1.337,1.414-1.966
	c1.259-1.552,2.72-2.996,4.209-4.44c1.492-1.321,3.165-2.582,4.886-3.81c1.63-1.168,3.242-2.321,4.671-3.521
	c1.55-1.228,2.889-2.442,4.086-3.764c1.182-1.198,2.121-2.457,2.736-3.84c0.691-1.229,1.044-2.644,1.059-3.935v-0.645
	c0-1.461-0.353-3.072-1.059-4.854l-0.539-1.444l1.23-0.892l1.368-0.846l1.073,0.938c3.366,2.872,6.808,4.316,10.388,4.316h0.505
	c3.918-0.123,7.87-1.444,11.679-3.98c5.148-3.363,7.914-7.451,8.633-12.613c0.033-0.844,0.139-1.674,0.139-2.52
	c0-4.41-1.597-9.188-5.054-14.396l1.612-1.014l1.521-1.046c3.656,5.594,5.625,11.109,5.625,16.456c0,1.029-0.109,1.997-0.2,3.027
	c-0.83,6.206-4.362,11.4-10.202,15.24c-4.362,2.813-8.896,4.333-13.629,4.609h-0.629c-3.057,0-6.054-0.86-8.819-2.443
	c0.076,0.524,0.138,0.939,0.138,1.461v0.461c-0.138,2.09-0.553,4.025-1.492,5.792c-0.812,1.675-1.95,3.272-3.409,4.778
	c-1.306,1.414-2.783,2.734-4.442,4.117c-1.564,1.198-3.165,2.352-4.854,3.534c-1.583,1.168-3.118,2.367-4.547,3.688
	c-1.383,1.229-2.674,2.551-3.688,3.871c-1.151,1.354-1.814,2.705-2.259,4.118l-1.199,3.78L523.288,1553.159z M559.38,1523.105
	c-2.06-0.953-4.01-2.35-5.701-4.179l1.382-1.213l1.354-1.306c1.412,1.521,2.932,2.626,4.5,3.303c1.354,0.613,2.736,0.86,4.195,0.86
	h0.891c1.612-0.093,3.628-0.86,5.883-2.366c3.166-2.06,4.948-4.426,5.749-7.206c0.138-0.614,0.229-1.291,0.229-2.044
	c0-2.182-0.83-4.763-2.78-7.713l-13.614-20.818l-20.527,13.412l11.308,17.163c1.262,2.013,2.707,3.795,4.166,5.409l-1.354,1.306
	l-1.382,1.213c-1.612-1.766-3.166-3.764-4.533-5.899l-13.227-20.312l26.656-17.47l15.611,23.922c2.15,3.365,3.38,6.638,3.428,9.787
	c0,1.015-0.109,2.014-0.4,3.012c-1.015,3.764-3.58,6.96-7.236,9.373c-2.674,1.721-5.239,2.765-7.822,2.919
	c-0.339,0-0.721,0.061-1.044,0.061C563.065,1524.319,561.224,1523.921,559.38,1523.105"/>
<polygon fill="#FFFFFF" points="596.224,1528.838 602.999,1522.846 645.697,1571.365 638.828,1577.326 621.113,1557.107 
	567.217,1604.522 560.147,1596.44 613.953,1549.041 "/>
<path fill="#FFFFFF" d="M557.521,1596.226l53.82-47.337l-16.561-18.823l1.444-1.244l1.183,1.368l-1.183-1.368l-1.444,1.244
	l-1.182-1.382l1.364-1.245l8.237-7.236l45.078,51.347l-1.368,1.215l-8.233,7.221l-17.729-20.266l-53.915,47.383L557.521,1596.226z
	 M616.613,1549.193l-53.868,47.399l4.671,5.286l53.85-47.354l17.747,20.174l4.057-3.503l-40.286-45.74l-3.98,3.504L616.613,1549.193
	z"/>
<polygon fill="#FFFFFF" points="661.553,1585.285 606.117,1644.07 598.283,1636.664 653.749,1577.88 "/>
<path fill="#FFFFFF" d="M595.639,1636.756l58.001-61.458l1.368,1.323l7.837,7.281l-1.292,1.383l1.292-1.383l1.368,1.23
	l-58.033,61.579L595.639,1636.756z M600.877,1636.603l5.119,4.824l52.915-56.08l-5.086-4.793L600.877,1636.603z"/>
<polygon fill="#FFFFFF" points="641.226,1674.184 668.283,1592.875 677.408,1599.989 652.748,1669.513 652.901,1669.667 
	714.238,1628.567 723.119,1635.435 650.903,1681.697 "/>
<path fill="#FFFFFF" d="M640.072,1675.629l1.153-1.461l1.735,0.569l-1.735-0.569L640.072,1675.629l-1.059-0.815l28.331-84.98
	l12.275,9.526l-23.459,65.851l58.154-38.964l11.999,9.313l-75.516,48.305L640.072,1675.629z M651.027,1679.393l68.847-44.142
	l-5.683-4.364l-61.396,41.023l-1-0.83l-1.259-0.922l24.646-69.509l-6.025-4.7l-25.78,77.559L651.027,1679.393z"/>
<path fill="#FFFFFF" d="M714.038,1658.819c3.886-3.625,8.266-6.376,12.934-8.175c4.828-1.843,9.867-2.58,15.245-2.227
	c5.315,0.322,10.784,2.104,16.361,5.239c5.578,3.165,9.94,6.914,13.015,11.369c3.012,4.364,4.995,9.081,5.916,14.104
	c0.876,4.979,0.83,10.126-0.338,15.336c-1.092,5.253-2.936,10.292-5.683,15.057c-2.722,4.793-6.072,9.033-9.943,12.628
	c-3.886,3.626-8.205,6.393-13.015,8.252c-4.729,1.797-9.801,2.534-15.069,2.181c-5.363-0.384-10.85-2.119-16.412-5.301
	c-5.621-3.165-9.863-6.884-12.934-11.293c-3.122-4.362-5.163-9.079-5.992-14.089c-0.876-5.039-0.768-10.154,0.291-15.41
	c1.077-5.162,2.965-10.218,5.701-15.012C706.816,1666.686,710.087,1662.507,714.038,1658.819 M708.919,1688.073
	c-0.997,3.933-1.364,7.865-0.92,11.708c0.353,3.901,1.659,7.527,3.842,10.985c2.121,3.426,5.301,6.314,9.572,8.727
	c4.314,2.381,8.433,3.656,12.442,3.673c4.071,0.107,7.87-0.632,11.388-2.305c3.533-1.645,6.651-3.934,9.572-6.898
	c2.885-2.937,5.301-6.131,7.342-9.696c1.95-3.563,3.533-7.313,4.533-11.293c1.044-3.933,1.273-7.866,0.939-11.784
	c-0.462-3.795-1.663-7.468-3.842-10.816c-2.106-3.504-5.392-6.422-9.604-8.819c-4.315-2.427-8.448-3.688-12.458-3.702
	c-4.089-0.093-7.87,0.723-11.37,2.334c-3.536,1.676-6.702,3.949-9.667,6.853c-2.827,2.937-5.282,6.224-7.236,9.758
	C711.426,1680.329,709.891,1684.063,708.919,1688.073"/>
<path fill="#FFFFFF" d="M733.226,1734.411c-5.621-0.429-11.336-2.242-17.114-5.501c-5.73-3.287-10.326-7.22-13.582-11.86
	c-3.213-4.609-5.286-9.524-6.254-14.842c-0.4-2.365-0.662-4.763-0.662-7.189c0-2.92,0.338-5.901,0.938-8.912
	c1.091-5.377,3.165-10.585,5.901-15.548c2.841-4.902,6.283-9.374,10.292-13.062c4.104-3.84,8.667-6.698,13.567-8.571
	c4.195-1.614,8.757-2.429,13.381-2.429c0.83,0,1.692,0.03,2.598,0.107c5.639,0.323,11.369,2.151,17.223,5.501
	c5.759,3.165,10.292,7.129,13.582,11.77c3.194,4.715,5.254,9.648,6.207,14.934c0.415,2.381,0.629,4.717,0.629,7.129
	c0,2.965-0.338,5.93-0.968,8.957c-1.091,5.378-3.071,10.602-5.778,15.579c-2.856,4.979-6.33,9.281-10.401,13.06
	c-4.057,3.78-8.572,6.7-13.597,8.543c-4.147,1.66-8.557,2.428-13.104,2.428C735.133,1734.504,734.256,1734.442,733.226,1734.411
	 M705.695,1672.387c-2.612,4.624-4.428,9.448-5.486,14.504c-0.601,2.749-0.892,5.454-0.892,8.128c0,2.243,0.153,4.362,0.615,6.515
	c0.829,4.762,2.659,9.248,5.639,13.381c2.889,4.088,6.989,7.698,12.352,10.771c5.41,2.996,10.572,4.7,15.579,5.024
	c0.906,0,1.721,0.107,2.583,0.107c4.147,0,8.08-0.739,11.784-2.167c4.533-1.737,8.619-4.348,12.443-7.82
	c3.736-3.504,6.96-7.529,9.543-12.23c2.612-4.609,4.439-9.448,5.487-14.441c0.611-2.813,0.858-5.518,0.858-8.221
	c0-2.197-0.167-4.348-0.506-6.483c-0.877-4.779-2.721-9.203-5.701-13.384c-2.841-4.147-6.945-7.744-12.293-10.8
	c-5.392-3.027-10.646-4.687-15.67-4.993c-0.815-0.093-1.597-0.124-2.336-0.124c-4.256,0-8.233,0.738-12.013,2.183
	c-4.519,1.767-8.652,4.317-12.37,7.835C711.426,1663.735,708.352,1667.777,705.695,1672.387 M720.521,1721.106
	c-4.472-2.52-7.961-5.623-10.278-9.372c-2.292-3.656-3.656-7.59-4.118-11.754c-0.2-1.122-0.2-2.352-0.2-3.534
	c0-2.965,0.444-5.885,1.153-8.881c1.011-4.071,2.642-7.974,4.763-11.723c2.059-3.642,4.577-7.036,7.604-10.156
	c2.937-3.026,6.345-5.453,10.125-7.19c3.628-1.735,7.546-2.551,11.617-2.551h0.539c4.41,0.063,8.848,1.399,13.349,3.995
	c4.471,2.505,7.946,5.639,10.202,9.357c2.354,3.626,3.704,7.544,4.119,11.739c0.124,1.137,0.2,2.305,0.2,3.532
	c0,2.92-0.338,5.87-1.135,8.851c-1,4.118-2.598,8.113-4.733,11.707c-2.045,3.688-4.624,7.099-7.546,10.141
	c-3.042,3.058-6.483,5.5-10.184,7.252c-3.642,1.645-7.483,2.52-11.631,2.52c-0.109,0-0.248,0.063-0.51,0.063
	C729.446,1724.978,724.945,1723.657,720.521,1721.106 M709.61,1696.446c0,1.092,0.095,2.074,0.218,3.149
	c0.353,3.596,1.564,7.007,3.562,10.172c1.921,3.135,4.9,5.776,8.942,8.081c4.057,2.321,7.928,3.411,11.522,3.503h0.51
	c3.58,0,6.912-0.736,10.078-2.242c3.318-1.568,6.298-3.626,9.004-6.424c2.827-2.855,5.13-5.961,7.022-9.341
	c1.936-3.38,3.423-7.067,4.391-10.862c0.739-2.657,1.106-5.332,1.106-7.913c0-1.059-0.105-2.089-0.196-3.18
	c-0.433-3.58-1.616-6.945-3.565-10.125c-1.921-3.073-4.919-5.838-9.005-8.112c-4.071-2.273-7.837-3.41-11.584-3.534h-0.43
	c-3.595,0-6.931,0.706-10.049,2.26c-3.304,1.58-6.345,3.701-9.066,6.452c-2.809,2.842-5.101,5.961-7.021,9.296
	c-1.918,3.471-3.362,7.129-4.362,10.848C709.981,1691.146,709.61,1693.834,709.61,1696.446"/>
<path fill="#FFFFFF" d="M851.626,1780.014c-5.024,0.4-9.82-0.063-14.382-1.476c-5.763-1.704-10.602-4.348-14.505-7.835
	c-3.9-3.504-6.913-7.529-8.972-12.139c-2.103-4.518-3.304-9.435-3.518-14.626c-0.262-5.21,0.4-10.356,1.921-15.396
	c1.721-5.623,4.086-10.726,7.146-15.411c3.118-4.594,6.807-8.389,10.955-11.231c4.286-2.949,9.019-4.824,14.334-5.745
	c5.239-0.86,10.999-0.369,17.147,1.505c4.133,1.229,7.895,2.919,11.337,5.01c3.427,2.073,6.283,4.655,8.575,7.589
	c2.336,3.042,3.947,6.376,5.006,10.188c1.048,3.84,1.168,8.097,0.495,12.89l-10.311-3.088c0.462-3.104,0.262-5.962-0.477-8.465
	c-0.721-2.553-1.845-4.855-3.519-6.823c-1.568-1.996-3.58-3.748-5.901-5.192c-2.365-1.444-4.977-2.612-7.88-3.473
	c-4.701-1.413-9.034-1.721-12.905-0.814c-3.889,0.846-7.484,2.52-10.496,4.902c-3.089,2.457-5.669,5.499-7.852,9.096
	c-2.212,3.671-3.995,7.559-5.191,11.63c-1.23,4.071-1.83,8.128-1.83,12.153c0.076,4.071,0.814,7.959,2.168,11.4
	c1.383,3.534,3.409,6.652,6.222,9.372c2.736,2.612,6.283,4.641,10.678,5.931c4.042,1.291,7.836,1.721,11.293,1.322
	c3.565-0.386,6.669-1.385,9.51-2.981c2.813-1.659,5.21-3.841,7.208-6.622c2.012-2.688,3.471-5.822,4.377-9.448l-24.66-7.437
	l2.583-8.666l33.908,10.201l-12.261,40.747l-6.531-1.967l0.215-10.416C861.26,1777.801,856.632,1779.599,851.626,1780.014"/>
<path fill="#FFFFFF" d="M871.291,1788.832l-7.88-2.35v-1.368l0.167-6.991c-3.732,2.074-7.637,3.38-11.799,3.733
	c-1.277,0.062-2.503,0.108-3.627,0.108c-3.962,0-7.757-0.523-11.446-1.613c-5.978-1.813-11.06-4.578-15.226-8.297
	c-4.057-3.642-7.251-7.896-9.435-12.721c-2.165-4.779-3.395-9.865-3.656-15.319c-0.029-0.738-0.062-1.521-0.062-2.229
	c0-4.67,0.677-9.311,2.059-13.827c1.783-5.746,4.228-11.031,7.451-15.826c3.198-4.808,6.993-8.741,11.464-11.768
	c4.424-3.104,9.387-5.07,14.95-5.962c1.826-0.323,3.671-0.553,5.56-0.553c3.951,0,8.099,0.675,12.432,2.028
	c4.3,1.29,8.28,3.041,11.813,5.191c3.598,2.229,6.654,4.887,9.128,8.066c2.398,3.182,4.195,6.793,5.287,10.895
	c0.611,2.503,0.968,5.163,0.968,7.896c0,1.874-0.2,3.688-0.386,5.623l-0.305,2.213l-2.078-0.645l-11.828-3.565l0.244-1.535
	c0.109-0.97,0.109-2.06,0.109-2.951c0-1.721-0.171-3.317-0.586-4.824c-0.706-2.319-1.765-4.333-3.165-6.115
	c-1.459-1.813-3.304-3.395-5.483-4.731c-2.259-1.352-4.701-2.489-7.437-3.318c-2.721-0.86-5.348-1.244-7.76-1.244
	c-1.507,0-2.903,0.138-4.239,0.443c-3.704,0.801-6.898,2.336-9.758,4.579c-2.841,2.245-5.301,5.071-7.422,8.59
	c-2.103,3.519-3.732,7.268-4.944,11.231c-1.139,3.809-1.721,7.589-1.721,11.338h-0.909l0.909,0.231
	c0.044,3.856,0.721,7.451,2.026,10.8c1.259,3.289,3.213,6.085,5.792,8.636c2.565,2.443,5.749,4.271,9.896,5.516
	c2.979,0.937,5.73,1.352,8.295,1.352c0.801,0,1.492,0,2.274-0.076c3.274-0.339,6.145-1.275,8.728-2.827
	c2.612-1.476,4.792-3.473,6.669-6.023c1.521-2.104,2.766-4.485,3.624-7.16l-24.78-7.467l0.611-1.75l3.122-10.418l37.456,11.278
	l-13.367,44.31L871.291,1788.832z M867.372,1774.713l-0.167,9.019l3.333,1.014l11.231-37.182l-30.376-9.095l-1.55,5.101
	l24.689,7.374l-0.477,1.736c-0.968,3.842-2.489,7.238-4.668,10.155c-2.183,2.935-4.748,5.287-7.87,7.067
	c-2.995,1.783-6.389,2.829-10.216,3.196c-0.906,0.124-1.75,0.186-2.612,0.186c-3.012,0-6.13-0.553-9.401-1.476
	c-4.548-1.398-8.437-3.61-11.369-6.454c-2.965-2.887-5.225-6.237-6.702-9.984c-1.488-3.75-2.212-7.807-2.212-11.617
	c-0.043-0.353-0.043-0.615-0.043-0.737c0-4.164,0.615-8.327,1.841-12.506c1.339-4.164,3.045-8.235,5.362-12.03
	c2.336-3.796,5.134-6.899,8.361-9.481c3.242-2.672,7.051-4.438,11.151-5.315c1.677-0.429,3.336-0.553,5.086-0.553
	c2.798,0,5.73,0.46,8.804,1.383c3.056,0.922,5.807,2.166,8.313,3.688c2.55,1.582,4.653,3.41,6.407,5.622
	c1.798,2.107,3.118,4.657,3.886,7.468c0.539,1.752,0.753,3.704,0.753,5.777c0,0.646,0,1.214-0.029,1.829l6.684,1.982
	c0.077-0.984,0.12-1.969,0.12-2.951c0-2.55-0.229-4.869-0.891-6.959c-0.906-3.611-2.456-6.776-4.624-9.572
	c-2.179-2.72-4.806-5.163-8.066-7.13c-3.256-2.043-6.865-3.656-10.999-4.869c-4.013-1.292-7.746-1.752-11.311-1.752
	c-1.659,0-3.395,0.107-4.945,0.414c-4.995,0.799-9.543,2.597-13.491,5.332c-4.009,2.78-7.546,6.391-10.496,10.801
	c-3.009,4.485-5.221,9.448-6.975,14.856c-1.259,4.226-1.859,8.451-1.859,12.737c0,0.677,0,1.352,0.062,2.028
	c0.2,4.979,1.339,9.648,3.336,14.027c1.979,4.257,4.806,8.128,8.495,11.477c3.704,3.289,8.328,5.747,13.858,7.468
	c3.274,0.953,6.712,1.507,10.354,1.507c1.029,0,2.183-0.063,3.321-0.17c4.625-0.384,8.958-2.043,12.891-4.9l3.056-2.336
	L867.372,1774.713z"/>
<path fill="#FFFFFF" d="M948.021,1793.35c-6.207,4.316-14.349,5.746-24.383,4.285c-10.34-1.521-18.024-5.101-23.092-10.83
	c-5.101-5.747-6.869-13.89-5.334-24.567l7.437-51.118l10.635,1.552l-7.455,51.087c-0.997,7.129,0.109,12.859,3.365,17.116
	c3.322,4.24,8.481,6.867,15.703,7.928c6.76,0.984,12.231-0.107,16.303-3.35c4.057-3.165,6.607-8.327,7.651-15.487l7.422-51.039
	l10.631,1.489l-7.389,51.102C958.052,1781.734,954.199,1789.017,948.021,1793.35"/>
<path fill="#FFFFFF" d="M923.347,1799.511c-10.587-1.552-18.777-5.271-24.246-11.446c-4.242-4.795-6.283-11.186-6.283-18.774
	c0-2.336,0.153-4.825,0.553-7.346l7.651-52.915l1.841,0.262l12.508,1.798l-7.698,52.945c-0.2,1.613-0.367,3.165-0.367,4.641
	c0.029,4.624,1.12,8.159,3.395,11.062c2.903,3.75,7.56,6.253,14.411,7.223c1.553,0.215,2.998,0.276,4.333,0.276
	c4.395-0.017,7.822-1.108,10.602-3.213c3.58-2.827,6.007-7.451,7.022-14.335l7.622-52.914l1.859,0.276l12.461,1.813l-7.669,52.884
	c-1.488,10.54-5.563,18.406-12.261,23.077l-1.059-1.475l1.059,1.537c-5.024,3.456-11.155,5.132-18.282,5.132
	C928.433,1800.019,925.897,1799.802,923.347,1799.511 M897.042,1762.497c-0.367,2.366-0.477,4.609-0.477,6.793
	c0,6.974,1.797,12.261,5.301,16.347c4.715,5.225,11.938,8.666,22,10.125c2.412,0.353,4.795,0.521,6.931,0.521
	c6.53,0,11.89-1.489,16.161-4.531c5.61-3.811,9.237-10.587,10.726-20.496l7.069-49.258l-6.96-0.953l-7.117,49.213
	c-1.044,7.389-3.718,13.136-8.419,16.701c-3.38,2.641-7.789,4.023-12.813,4.023c-1.535,0-3.166-0.121-4.81-0.353
	c-7.495-1.061-13.244-3.933-16.853-8.665c-2.875-3.549-4.21-8.097-4.166-13.29c0-1.69,0.109-3.441,0.4-5.208l7.131-49.274
	l-6.979-0.999L897.042,1762.497z"/>
<path fill="#FFFFFF" d="M1009.402,1721.168l30.299,81.308l-11.846-0.169l-8.452-24.506l-34.185-0.553l-9.481,24.184l-10.984-0.217
	l32.788-80.246L1009.402,1721.168z M1016.162,1768.675l-12.861-37.857h-0.276l-14.24,37.381L1016.162,1768.675z"/>
<path fill="#FFFFFF" d="M1039.621,1804.289l-13.195-0.23l-8.404-24.367l-31.573-0.584l-9.405,24.167h-1.335l-13.676-0.2
	l34.232-84.027l1.354,0.063l11.846,0.169l-0.062,1.89l0.062-1.89h1.229l31.696,85.103L1039.621,1804.289z M1020.71,1775.926
	l8.451,24.491l7.833,0.169l-28.854-77.605l-9.325-0.153l-31.311,76.607l6.941,0.06l9.511-24.121L1020.71,1775.926z
	 M986.092,1770.058l15.721-41.176h1.212h1.567l13.291,39.209l-1.754,0.584l0.033-1.845l-0.033,1.845l1.754-0.584l0.782,2.488
	L986.092,1770.058z M991.44,1766.4l22.062,0.398l-10.478-30.881L991.44,1766.4z"/>
<path fill="#FFFFFF" d="M1069.291,1717.541c12.29-1.49,22.263,0.477,29.638,5.932c7.469,5.469,12.061,14.626,13.581,27.533
	c0.83,6.76,0.83,12.767-0.015,18.16c-0.876,5.439-2.674,10.049-5.315,14.044c-2.779,3.933-6.378,7.129-11.017,9.572
	c-4.609,2.519-10.325,4.192-16.976,4.993l-27.549,3.395l-9.926-80.125L1069.291,1717.541z M1078.954,1788.694
	c1.229-0.169,2.688-0.477,4.533-0.846c1.722-0.43,3.565-1.09,5.563-2.026c1.906-0.999,3.747-2.291,5.592-3.904
	c1.83-1.583,3.412-3.625,4.577-6.131c1.386-2.503,2.335-5.516,2.874-9.202c0.586-3.626,0.586-7.852-0.029-12.845
	c-0.571-4.732-1.615-8.988-3.06-12.646c-1.383-3.702-3.318-6.698-5.745-9.079c-2.459-2.429-5.424-4.073-9.066-5.041
	c-3.5-0.998-7.713-1.198-12.676-0.506l-17.991,2.182l7.698,62.225L1078.954,1788.694z"/>
<path fill="#FFFFFF" d="M1039.621,1719.354l29.394-3.625c2.798-0.308,5.454-0.462,8.004-0.462c9.096-0.107,16.856,2.183,23.001,6.73
	c8.037,5.838,12.723,15.609,14.335,28.731c0.386,3.41,0.586,6.667,0.586,9.741c0,3.18-0.2,6.176-0.615,9.018
	c-0.876,5.577-2.783,10.54-5.653,14.703c-2.951,4.241-6.822,7.668-11.693,10.249c-4.872,2.612-10.711,4.317-17.576,5.146
	l-29.394,3.656L1039.621,1719.354z M1043.802,1722.612l9.495,76.515l25.657-3.196c6.469-0.829,11.894-2.412,16.351-4.763
	c4.33-2.336,7.771-5.346,10.307-9.064c2.551-3.658,4.181-8.067,5.072-13.199c0.324-2.642,0.582-5.438,0.582-8.434
	c0-2.905-0.258-6.009-0.553-9.25c-1.598-12.6-5.975-21.202-12.844-26.243c-5.529-4.009-12.308-6.068-20.851-6.068
	c-2.379,0-4.9,0.2-7.498,0.507L1043.802,1722.612z M1051.424,1727.067l19.773-2.488c2.012-0.262,3.9-0.415,5.684-0.415
	c2.842,0,5.453,0.354,7.76,0.968c3.824,1.045,7.16,2.935,9.834,5.547c2.671,2.596,4.745,5.868,6.27,9.726
	c1.426,3.842,2.55,8.189,3.209,13.151c0.215,2.582,0.353,4.978,0.353,7.329c0,2.167-0.076,4.134-0.353,5.962
	c-0.659,3.795-1.627,7.036-2.994,9.771c-1.401,2.72-3.151,4.934-5.087,6.73c-1.95,1.674-3.947,3.057-6.068,4.071
	c-1.954,1.014-4.071,1.752-5.948,2.181c-1.798,0.463-3.348,0.723-4.668,0.892l-19.56,2.443L1051.424,1727.067z M1071.703,1728.281
	l-16.117,1.967l7.283,58.584l15.903-1.997c1.059-0.154,2.518-0.431,4.271-0.799c1.597-0.384,3.285-1.015,5.177-1.875
	c1.736-0.937,3.471-2.119,5.225-3.609c1.598-1.444,3.027-3.243,4.177-5.608c1.139-2.273,2.06-5.162,2.612-8.649
	c0.291-1.63,0.371-3.459,0.371-5.409c0-2.121-0.156-4.439-0.414-6.838c-0.601-4.731-1.555-8.818-2.89-12.261
	c-1.368-3.502-3.136-6.269-5.377-8.436c-2.26-2.195-4.934-3.671-8.223-4.593c-1.95-0.584-4.3-0.815-6.821-0.815
	C1075.254,1727.942,1073.548,1727.974,1071.703,1728.281"/>
<path fill="#FFFFFF" d="M1146.451,1702.424l51.227,70l-11.464,3.011l-14.797-21.249l-33.003,8.85l-2.503,25.797l-10.616,2.827
	l9.663-86.179L1146.451,1702.424z M1165.748,1746.319l-22.553-32.972l-0.277,0.076l-3.564,39.948L1165.748,1746.319z"/>
<path fill="#FFFFFF" d="M1133.223,1704.053l1.183-0.37l11.555-3.026l1.273-0.384l53.501,73.227l-2.565,0.737l-12.724,3.379
	l-14.811-21.247l-30.543,8.097l-2.445,25.843l-14.52,3.778L1133.223,1704.053z M1136.603,1706.925l-9.172,82.215l6.712-1.721
	l2.489-25.873l35.571-9.435l14.797,21.25l7.604-2.045l-48.935-66.804L1136.603,1706.925z M1141.212,1712.011l1.229-0.384
	l1.459-0.415l23.416,34.108l-1.459,0.999l1.459-0.999l1.535,2.15l-31.525,8.391L1141.212,1712.011z M1141.427,1750.882l21.371-5.653
	l-18.453-26.796L1141.427,1750.882z"/>
<polygon fill="#FFFFFF" points="1188.764,1688.779 1215.53,1755.339 1255.184,1739.328 1258.563,1747.717 1208.938,1767.69 
	1178.733,1692.714 "/>
<path fill="#FFFFFF" d="M1176.379,1691.746l1.645-0.739l10.035-3.964l1.706-0.705l26.763,66.572l39.687-15.994l0.677,1.752
	l4.07,10.126l-53.1,21.34L1176.379,1691.746z M1181.113,1693.758l28.778,71.506l46.26-18.546l-1.982-4.993l-39.687,16.026
	l-26.792-66.605L1181.113,1693.758z"/>
<path fill="#FFFFFF" d="M1266.448,1651.722l67.373,54.649l-10.373,5.854l-19.697-16.792l-29.746,16.899l4.213,25.565l-9.572,5.518
	l-12.556-85.888L1266.448,1651.722z M1296.391,1689.241l-30.313-26.089l-0.276,0.122l6.76,39.517L1296.391,1689.241z"/>
<path fill="#FFFFFF" d="M1254.092,1656.607l1.092-0.646l10.402-5.84l1.044-0.614l70.477,57.188l-13.873,7.742l-19.744-16.777
	l-27.407,15.641l4.086,25.628l-13.029,7.374L1254.092,1656.607z M1258.059,1658.574l11.998,81.814l6.055-3.41l-4.086-25.676
	l31.955-18.129l19.697,16.84l6.777-3.919l-64.207-52.178L1258.059,1658.574z M1263.741,1662.245l1.091-0.66l1.416-0.706
	l31.296,26.948l-1.153,1.414l1.153-1.414l1.997,1.752l-28.426,16.087L1263.741,1662.245z M1273.914,1699.843l19.234-10.94
	l-24.674-21.264L1273.914,1699.843z"/>
<path fill="#FFFFFF" d="M1371.725,1662.86c0.858,2.566,1.229,5.315,1.044,8.021c-0.291,2.813-1.2,5.607-2.937,8.418
	c-1.702,2.844-4.348,5.609-7.989,8.314c-6.021,4.517-11.847,6.359-17.5,5.668c-5.621-0.723-10.77-4.225-15.364-10.371l-2.994-3.933
	l8.586-6.483l2.078,2.765c1.426,1.845,2.794,3.487,4.285,4.763c1.474,1.368,3.042,2.336,4.639,2.981
	c1.674,0.522,3.428,0.646,5.178,0.276c1.906-0.369,3.766-1.367,5.872-2.95c4.038-2.92,5.912-6.023,5.851-9.249
	c-0.215-3.227-1.564-6.592-4.178-10.187l-35.338-47.275l8.59-6.517l36.307,48.584
	C1369.432,1657.866,1370.738,1660.31,1371.725,1662.86"/>
<path fill="#FFFFFF" d="M1344.066,1695.141c-6.207-0.86-11.723-4.687-16.594-11.094l-4.086-5.516l11.508-8.618l1.105,1.458
	l2.107,2.736c1.335,1.813,2.688,3.395,4.118,4.563c1.273,1.261,2.642,2.028,4.038,2.52c0.677,0.338,1.506,0.432,2.336,0.432
	c0.567,0,1.139-0.063,1.783-0.186c1.473-0.308,3.271-1.106,5.209-2.613c3.548-2.748,4.992-5.16,4.992-7.513
	c0.076,0,0.076-0.091,0-0.122c-0.062-2.781-1.32-5.777-3.81-9.202l-36.491-48.768l11.584-8.681l37.427,50.103
	c1.782,2.29,3.15,4.854,4.181,7.605l-1.75,0.615l-1.798,0.629c-0.924-2.396-2.073-4.67-3.598-6.684l-35.183-47.106l-5.687,4.256
	l34.323,45.847c2.798,3.735,4.396,7.484,4.457,11.187l0.063,0.676l-0.063,0.031c-0.105,3.778-2.551,7.158-6.454,10.095
	c-2.227,1.704-4.453,2.841-6.684,3.302c-0.844,0.138-1.641,0.247-2.503,0.247c-1.244,0-2.503-0.217-3.642-0.677
	c-1.845-0.677-3.657-1.752-5.283-3.258c-1.567-1.397-3.026-3.104-4.472-5.102l-1-1.196l-5.606,4.24l1.826,2.443
	c4.472,5.899,9.172,8.986,14.12,9.632c0.677,0.107,1.4,0.139,2.136,0.139c4.472,0,9.052-1.752,14.072-5.454
	c3.489-2.612,5.964-5.286,7.517-7.806c1.564-2.642,2.412-5.132,2.627-7.527c0-0.554,0.105-1.016,0.105-1.521
	c0-2.044-0.382-3.842-1.073-5.763l1.798-0.629l1.75-0.615c0.8,2.259,1.168,4.579,1.168,7.007c0,0.568,0,1.152-0.105,1.828
	c-0.263,3.104-1.277,6.146-3.107,9.158c-1.874,3.056-4.715,6.068-8.434,8.818c-5.406,4.071-10.831,6.238-16.317,6.238
	C1345.806,1695.295,1344.958,1695.202,1344.066,1695.141"/>
<path fill="#FFFFFF" d="M1367.177,1574.807l78.647,36.507l-8.542,8.204l-23.154-11.446l-24.766,23.614l10.293,23.876l-7.896,7.591
	l-33.145-80.141L1367.177,1574.807z M1405.356,1603.892l-35.801-17.868l-0.105,0.122l16.132,36.69L1405.356,1603.892z"/>
<path fill="#FFFFFF" d="M1356.422,1582.582l9.401-9.096l0.892-0.922l82.369,38.227l-11.464,11l-23.201-11.477l-22.877,21.831
	l10.249,23.878l-10.726,10.324L1356.422,1582.582z M1360.751,1583.519l31.653,76.438l5.039-4.855l-10.293-23.861l26.52-25.428
	l23.212,11.523l5.687-5.47l-75.086-34.785L1360.751,1583.519z M1367.177,1585.686l0.968-0.908l1.12-1.027l36.889,18.437
	l-0.797,1.674l0.797-1.674l2.444,1.199l-23.659,22.646L1367.177,1585.686z M1386.183,1619.701l15.885-15.333l-29.113-14.597
	L1386.183,1619.701z"/>
<path fill="#FFFFFF" d="M1414.299,1521.893c4.763-5.992,9.987-9.496,15.623-10.54c5.639-1.061,11.063,0.477,16.164,4.548
	c3.795,3.072,6.422,6.638,7.99,10.692c1.554,3.98,1.291,8.39-0.753,13.091l0.214,0.093c1.83-1.537,3.58-2.565,5.301-2.996
	c1.798-0.539,3.504-0.646,5.135-0.384c1.734,0.245,3.441,0.736,5.053,1.566c1.75,0.753,3.365,1.721,5.086,2.735
	c1.568,1.106,3.228,2.243,4.916,3.473c1.597,1.229,3.274,2.319,5.024,3.318c1.691,0.984,3.38,1.813,5.163,2.488
	c1.734,0.646,3.471,0.968,5.271,0.923l-7.531,9.357c-1.045,0.06-2.303-0.231-3.624-0.877c-1.215-0.768-2.583-1.598-4.042-2.672
	c-1.383-1.03-2.936-2.184-4.609-3.382c-1.583-1.138-3.318-2.243-5.072-3.164c-1.688-0.998-3.395-1.858-5.13-2.643
	c-1.63-0.708-3.241-1.138-4.915-1.214c-1.645-0.017-3.336,0.291-4.934,1.121c-1.55,0.646-3.227,1.997-4.871,4.133l-16.361,20.558
	l26.978,21.495l-6.713,8.404l-63.149-50.412L1414.299,1521.893z M1444.318,1543.034c1.124-2.06,1.768-4.025,2.016-6.054
	c0.12-1.998-0.139-4.026-0.892-5.962c-0.905-1.904-2.383-3.811-4.733-5.653c-3.194-2.52-6.545-3.749-9.849-3.504
	c-3.471,0.093-6.73,2.167-9.896,6.116l-16.671,20.925l22.004,17.546l13.968-17.515
	C1441.83,1546.981,1443.23,1544.984,1444.318,1543.034"/>
<path fill="#FFFFFF" d="M1387.918,1551.913l24.89-31.174c4.977-6.253,10.569-10.154,16.761-11.261
	c1.292-0.217,2.475-0.338,3.736-0.338c4.854,0,9.555,1.812,13.964,5.301c3.995,3.272,6.917,7.112,8.575,11.415
	c0.706,1.997,1.092,4.025,1.092,6.085c0,1.228-0.186,2.457-0.418,3.688c0.614-0.263,1.215-0.508,1.83-0.708
	c1.32-0.369,2.703-0.522,3.994-0.522c0.601,0,1.277,0,1.936,0.107c1.874,0.293,3.795,0.892,5.53,1.735
	c1.783,0.847,3.504,1.769,5.363,2.937c1.63,1.09,3.241,2.258,4.9,3.487c1.539,1.198,3.184,2.243,4.919,3.211
	c1.598,0.937,3.304,1.706,4.824,2.335c1.488,0.539,2.871,0.83,4.333,0.83h0.354l3.703,0.124l-10.249,12.952l-0.848,0.014h-0.429
	c-1.521,0-2.903-0.414-4.163-1.167c-1.338-0.737-2.826-1.676-4.318-2.734c-1.396-1.03-2.994-2.197-4.624-3.38
	c-1.535-1.137-3.132-2.136-4.915-3.12c-1.659-0.953-3.322-1.782-4.871-2.52c-1.583-0.646-2.951-0.999-4.349-1.015h-0.262
	c-1.259,0-2.474,0.247-3.718,0.846c-1.273,0.553-2.719,1.735-4.271,3.702l-15.164,19.054l26.995,21.509l-9.066,11.308
	L1387.918,1551.913z M1393.063,1551.301l60.261,48.073l4.409-5.546l-26.948-21.479l17.576-21.972c1.75-2.183,3.489-3.78,5.486-4.717
	c1.735-0.784,3.548-1.244,5.33-1.244c0.215,0,0.262,0.062,0.386,0.062c1.965,0.046,3.81,0.491,5.73,1.352
	c1.706,0.768,3.427,1.659,5.162,2.644c1.874,0.951,3.656,2.15,5.225,3.38c1.798,1.213,3.304,2.319,4.73,3.349
	c1.306,1.044,2.626,1.812,3.827,2.443c0.753,0.415,1.35,0.614,1.874,0.722l4.795-5.961c-0.786-0.186-1.568-0.4-2.369-0.801
	c-1.764-0.612-3.656-1.504-5.501-2.488c-1.659-1.075-3.5-2.181-5.13-3.456c-1.63-1.183-3.274-2.351-4.748-3.365
	c-1.75-1.03-3.351-1.936-4.915-2.703c-1.491-0.739-3.013-1.216-4.485-1.383c-0.539-0.124-0.91-0.124-1.416-0.124
	c-1.015,0-1.949,0.153-2.95,0.461c-1.411,0.307-2.994,1.229-4.7,2.643l-1.14,0.953l-1.211-0.953l-1.277-0.922l0.571-1.29
	c1.029-2.551,1.564-4.886,1.564-7.036c0-1.661-0.354-3.213-0.858-4.733c-1.368-3.688-3.78-7.006-7.423-9.863
	c-3.871-3.12-7.698-4.517-11.613-4.517c-1.062,0-2.092,0.152-3.088,0.291c-5.087,0.967-9.958,4.133-14.55,9.91L1393.063,1551.301z
	 M1401.715,1549.148l17.762-22.309c3.289-4.18,7.098-6.683,11.045-6.883c0.371-0.031,0.691,0,0.954-0.031
	c3.627,0,7.112,1.397,10.416,3.995c2.412,1.936,4.194,4.057,5.225,6.421c0.706,1.769,1.077,3.55,1.077,5.408
	c0,0.432,0,0.892-0.095,1.383c-0.276,2.336-0.968,4.548-2.15,6.762c-1.244,2.119-2.598,4.147-4.181,6.146l-15.117,18.989
	L1401.715,1549.148z M1430.86,1523.645c-2.642,0.152-5.425,1.766-8.452,5.499l-15.484,19.421l19.098,15.273l12.828-16.058
	c1.474-1.904,2.766-3.764,3.766-5.668l1.688,0.922l-1.688-0.953c1.045-1.813,1.627-3.534,1.765-5.284
	c0.124-0.355,0.124-0.646,0.124-1.047c0-1.352-0.338-2.703-0.844-4.025c-0.678-1.566-1.969-3.165-4.148-4.963
	c-2.645-2.119-5.395-3.117-8.036-3.117C1431.213,1523.645,1431.075,1523.645,1430.86,1523.645"/>
<path fill="#FFFFFF" d="M1453.309,1463.445l85.626,13.799l-6.011,10.277l-25.457-4.748l-17.347,29.408l16.332,20.188l-5.545,9.435
	l-53.639-68.064L1453.309,1463.445z M1497.895,1481.084l-39.318-7.544l-0.076,0.231l25.552,30.912L1497.895,1481.084z"/>
<path fill="#FFFFFF" d="M1444.918,1473.833l0.725-1.075l6.051-10.28l0.586-1.029l89.605,14.428l-8.099,13.751l-25.475-4.839
	l-16.009,27.21l16.38,20.158l-7.607,12.921L1444.918,1473.833z M1449.404,1473.525l51.227,65.021l3.533-6.021l-16.347-20.129
	l18.635-31.711l25.504,4.793l3.995-6.79l-81.766-13.122L1449.404,1473.525z M1456.227,1473.985l0.614-1.105l0.786-1.383
	l40.636,7.806l-0.368,1.781l0.368-1.781l2.55,0.444l-16.575,28.163L1456.227,1473.985z M1483.746,1501.458l11.246-19.037
	l-31.974-6.114L1483.746,1501.458z"/>
<path fill="#FFFFFF" d="M1504.731,1376.053c-3.656,2.429-6.359,6.362-8.328,11.556c-0.768,2.181-1.364,4.302-1.641,6.483
	c-0.339,2.229-0.262,4.302,0.138,6.269c0.383,1.967,1.288,3.749,2.58,5.284c1.335,1.552,3.227,2.813,5.744,3.704
	c2.274,0.844,4.443,0.844,6.44,0c1.936-0.799,3.78-2.29,5.577-4.257c1.674-1.967,3.428-4.271,5.068-6.975
	c1.754-2.688,3.38-5.394,5.225-8.173c1.797-2.736,3.656-5.38,5.748-7.93c1.965-2.61,4.225-4.763,6.698-6.452
	c2.459-1.69,5.225-2.797,8.204-3.257c3.041-0.493,6.316-0.062,10.111,1.352c4.057,1.413,7.203,3.549,9.415,6.452
	c2.154,2.903,3.689,6.038,4.457,9.542c0.706,3.456,0.953,7.114,0.429,10.924c-0.429,3.78-1.272,7.481-2.502,10.94
	c-1.612,4.209-3.533,8.097-6.055,11.445c-2.459,3.473-5.254,6.224-8.451,8.281c-3.18,2.09-6.822,3.319-10.846,3.779
	c-3.871,0.446-8.189-0.138-12.844-1.843l3.519-9.588c3.224,1.137,6.192,1.537,8.925,1.137c2.75-0.398,5.271-1.352,7.513-2.796
	c2.183-1.476,4.147-3.473,5.825-5.899c1.658-2.429,3.07-5.039,4.038-7.866c0.829-2.305,1.478-4.672,1.954-7.16
	c0.367-2.459,0.367-4.748,0.043-6.977c-0.382-2.273-1.258-4.24-2.564-6.022c-1.444-1.781-3.471-3.165-6.207-4.21
	c-2.598-0.905-5.024-1.013-7.175-0.169c-2.088,0.753-4.118,2.09-5.978,4.011c-1.859,1.967-3.609,4.271-5.315,6.913
	c-1.735,2.705-3.471,5.425-5.286,8.206c-1.75,2.766-3.547,5.408-5.501,8.05c-1.903,2.55-4.038,4.763-6.374,6.483
	c-2.321,1.813-4.824,2.967-7.651,3.504c-2.766,0.553-5.945,0.214-9.343-1.061c-3.857-1.383-6.928-3.35-9.22-5.945
	c-2.15-2.644-3.686-5.532-4.577-8.729c-0.844-3.256-1.153-6.667-0.844-10.34c0.32-3.61,1.092-7.144,2.365-10.616
	c1.43-3.902,3.18-7.313,5.348-10.401c2.117-2.951,4.624-5.363,7.513-7.129c2.918-1.813,6.131-2.904,9.692-3.273
	c3.521-0.338,7.422,0.17,11.664,1.6l-3.488,9.541C1513.106,1372.98,1508.464,1373.533,1504.731,1376.053"/>
<path fill="#FFFFFF" d="M1529.301,1434.884l-1.783-0.63l0.677-1.689l4.071-11.37l1.75,0.645c2.212,0.831,4.257,1.198,6.116,1.198
	c0.753,0,1.291-0.091,1.95-0.138c2.506-0.384,4.686-1.199,6.745-2.534c1.906-1.354,3.751-3.104,5.301-5.408
	c1.659-2.274,2.889-4.824,3.89-7.468c0.829-2.151,1.32-4.426,1.702-6.745c0.276-1.259,0.371-2.381,0.371-3.549
	c0-0.982-0.095-1.967-0.262-2.889c-0.262-1.936-0.982-3.611-2.165-5.132c-1.092-1.414-2.859-2.642-5.381-3.563
	c-1.288-0.492-2.427-0.723-3.456-0.723c-0.858,0-1.674,0.152-2.351,0.415c-1.873,0.675-3.595,1.904-5.363,3.671
	c-1.721,1.782-3.456,4.042-5.082,6.592c-1.754,2.673-3.46,5.439-5.258,8.174c-1.721,2.857-3.686,5.532-5.653,8.128
	c-1.983,2.688-4.238,5.039-6.636,6.929c-2.565,1.905-5.363,3.258-8.438,3.812c-0.997,0.184-2.012,0.291-2.994,0.291
	c-2.321,0-4.795-0.477-7.422-1.397c-4.071-1.506-7.451-3.703-9.831-6.545c-2.412-2.767-4.118-5.916-5.134-9.465
	c-0.614-2.52-0.996-5.163-0.996-7.896c0-1.016,0.058-2.029,0.105-3.044c0.367-3.795,1.215-7.466,2.55-11.124
	c1.415-4.023,3.257-7.635,5.53-10.755c2.292-3.196,4.963-5.746,8.084-7.713c3.147-1.904,6.666-3.104,10.445-3.519
	c0.768-0.045,1.631-0.091,2.398-0.091c3.136,0,6.545,0.568,10.02,1.735l1.889,0.584l-0.691,1.813l-4.086,11.154l-1.615-0.429
	c-1.859-0.462-3.733-0.677-5.345-0.677c-2.846,0-5.163,0.646-7.132,2.028c-3.317,2.243-5.883,5.716-7.65,10.663
	c-0.768,2.074-1.354,4.117-1.598,6.114c-0.109,0.968-0.2,1.813-0.2,2.644c0,1.029,0.091,1.997,0.324,2.979
	c0.367,1.63,1.106,3.104,2.15,4.533c1.091,1.214,2.735,2.288,4.977,3.118c0.982,0.369,1.859,0.555,2.751,0.555
	c0.691,0,1.491-0.186,2.259-0.555c1.722-0.736,3.38-1.904,5.039-3.717c1.645-1.906,3.318-4.149,4.901-6.762
	c1.658-2.703,3.395-5.408,5.225-8.158c1.782-2.827,3.732-5.547,5.82-8.188c2.154-2.643,4.457-4.917,7.146-6.762
	c2.645-1.812,5.653-3.072,8.866-3.563c0.92-0.123,1.782-0.215,2.765-0.215c2.521,0,5.392,0.584,8.281,1.598
	c4.318,1.599,7.789,3.949,10.234,7.146c2.426,3.025,4.009,6.483,4.867,10.247c0.477,2.305,0.771,4.672,0.771,7.16
	c0,1.413-0.109,2.92-0.295,4.379c-0.477,3.979-1.335,7.774-2.641,11.384c-1.612,4.457-3.689,8.39-6.255,11.938
	c-2.564,3.55-5.544,6.469-8.942,8.667c-3.5,2.288-7.437,3.608-11.584,4.133c-0.953,0.029-1.889,0.122-2.718,0.122
	C1536.752,1437.02,1533.109,1436.282,1529.301,1434.884 M1540.317,1433.332c0.734,0,1.521-0.046,2.303-0.153
	c3.751-0.414,6.96-1.582,9.958-3.534c2.994-1.936,5.654-4.517,7.971-7.713c2.322-3.318,4.271-6.975,5.764-11.063
	c1.215-3.349,1.997-6.853,2.474-10.509c0.153-1.383,0.229-2.734,0.229-3.964c0-2.197-0.229-4.348-0.706-6.376
	c-0.677-3.228-2.088-6.161-4.118-8.773c-1.921-2.551-4.748-4.455-8.572-5.931c-2.535-0.922-5.01-1.352-7.021-1.352
	c-0.738,0-1.444,0.031-2.121,0.122c-2.718,0.493-5.191,1.444-7.437,3.026c-2.288,1.583-4.362,3.58-6.298,6.009
	c-1.997,2.551-3.889,5.101-5.73,7.82c-1.738,2.749-3.427,5.485-5.133,8.097c-1.627,2.842-3.395,5.224-5.269,7.345
	c-1.906,2.104-4.027,3.687-6.287,4.7c-1.196,0.462-2.412,0.723-3.747,0.723c-1.444,0-2.66-0.229-3.98-0.691
	c-2.75-1.045-4.963-2.367-6.513-4.271c-1.506-1.735-2.474-3.871-3.06-6.068c-0.306-1.244-0.338-2.536-0.338-3.795
	c0-1.046,0.032-2.104,0.247-3.072c0.339-2.398,0.892-4.672,1.706-6.932c2.026-5.484,5.039-9.771,9.02-12.475
	c2.656-1.829,5.854-2.72,9.296-2.72c1.487,0,3.041,0.154,4.653,0.462l2.183-6.116c-2.488-0.753-4.872-1.075-7.007-1.075
	c-0.659,0-1.35,0.031-2.027,0.107c-3.289,0.354-6.191,1.352-8.881,2.996c-2.627,1.613-5.057,3.812-6.975,6.669
	c-2.044,2.872-3.798,6.146-5.101,9.895c-1.263,3.334-1.982,6.745-2.335,10.201c-0.033,0.892-0.033,1.735-0.033,2.675
	c0,2.364,0.291,4.7,0.891,6.99c0.706,2.935,2.184,5.547,4.243,8.004c2.012,2.243,4.7,4.119,8.342,5.408
	c2.212,0.799,4.225,1.23,6.146,1.23c0.858,0,1.582-0.124,2.288-0.262c2.521-0.508,4.78-1.521,6.869-3.104
	c2.15-1.645,4.118-3.704,5.992-6.224c1.921-2.551,3.686-5.146,5.468-7.896c1.783-2.766,3.519-5.471,5.254-8.083
	c1.754-2.855,3.551-5.223,5.502-7.266c2.015-2.121,4.209-3.61,6.683-4.502c1.139-0.491,2.46-0.708,3.719-0.708
	c1.583,0,3.136,0.308,4.763,0.892c2.982,1.075,5.348,2.72,6.959,4.779c1.568,2.059,2.551,4.316,3.013,6.897
	c0.109,1.092,0.248,2.243,0.248,3.442c0,1.367-0.139,2.75-0.371,4.133c-0.43,2.566-1.149,5.086-1.936,7.482
	c-1.092,2.934-2.565,5.67-4.301,8.266c-1.798,2.566-3.903,4.763-6.393,6.393c-2.441,1.659-5.21,2.688-8.233,3.072
	c-0.8,0.093-1.615,0.184-2.444,0.184c-1.813,0-3.671-0.276-5.606-0.86l-2.213,6.116
	C1535.14,1432.872,1537.752,1433.332,1540.317,1433.332"/>
<polygon fill="#FFFFFF" points="1570.555,1355.143 1582.615,1358.477 1579.326,1370.554 1567.219,1367.234 "/>
<path fill="#FFFFFF" d="M1564.93,1368.557l0.506-1.783l3.26-12.137l0.506-1.752l15.626,4.271l-4.194,15.687L1564.93,1368.557z
	 M1569.539,1365.976l8.467,2.305l2.273-8.56l-8.466-2.288L1569.539,1365.976z"/>
<path fill="#FFFFFF" d="M1514.766,1287.692l85.012-17.945l-1.969,11.755l-25.519,4.701l-5.592,33.71l22.491,12.921l-1.845,10.801
	l-74.562-44.203L1514.766,1287.692z M1562.779,1288.093l-39.348,7.144l-0.047,0.231l34.953,19.65L1562.779,1288.093z"/>
<path fill="#FFFFFF" d="M1510.785,1300.368l0.139-1.289l2.03-11.708l0.229-1.261l88.729-18.759l-0.385,2.734l-2.165,12.999
	l-25.489,4.731l-5.178,31.144l22.568,12.906l-0.215,1.321l-2.273,13.443L1510.785,1300.368z M1514.813,1298.464l71.227,42.236
	l1.168-6.929l-22.602-12.938l5.992-36.168l25.49-4.746l1.307-7.79l-80.955,17.114L1514.813,1298.464z M1521.311,1296.436l0.215-1.29
	l0.276-1.522l40.64-7.344l2.598-0.477l-5.377,32.234L1521.311,1296.436z M1556.879,1312.2l3.594-21.85l-31.987,5.87L1556.879,1312.2
	z"/>
<polygon fill="#FFFFFF" points="1587.854,1245.856 1600.406,1246.748 1599.516,1259.3 1587.007,1258.363 "/>
<path fill="#FFFFFF" d="M1599.362,1261.145l-14.444-1.061l0.172-1.859l0.967-12.522l0.121-1.843l1.782,0.122l14.411,0.983
	l-0.196,1.874l-0.925,14.444L1599.362,1261.145z M1588.945,1256.58l8.849,0.677l0.615-8.85l-8.819-0.615L1588.945,1256.58z"/>
<path fill="#FFFFFF" d="M1520.096,1183.754c-0.706-12.414,1.997-22.218,7.866-29.254c6.039-7.007,15.487-10.94,28.44-11.646
	c6.744-0.37,12.813,0.062,18.114,1.274c5.392,1.214,9.849,3.273,13.629,6.253c3.766,2.95,6.713,6.853,8.881,11.646
	c2.183,4.796,3.456,10.54,3.81,17.209l1.535,27.688l-80.707,4.548L1520.096,1183.754z M1591.755,1178.853
	c-0.077-1.184-0.259-2.72-0.582-4.485c-0.229-1.8-0.862-3.735-1.722-5.64c-0.724-2.06-1.968-3.995-3.395-5.931
	c-1.462-1.906-3.441-3.58-5.824-5.041c-2.38-1.443-5.406-2.641-8.986-3.439c-3.551-0.831-7.808-1.107-12.752-0.831
	c-4.887,0.308-9.144,1.015-12.895,2.151c-3.715,1.152-6.941,2.858-9.463,5.194c-2.551,2.288-4.395,5.132-5.606,8.633
	c-1.229,3.442-1.677,7.668-1.401,12.661l0.969,18.099l62.625-3.503L1591.755,1178.853z"/>
<path fill="#FFFFFF" d="M1518.236,1183.815c-0.062-1.292-0.062-2.612-0.062-3.902c-0.044-10.895,2.707-19.912,8.39-26.611
	c6.439-7.559,16.471-11.554,29.732-12.307c1.611-0.093,3.146-0.155,4.729-0.155c4.996,0,9.572,0.508,13.938,1.461
	c5.53,1.259,10.369,3.442,14.302,6.652c4.043,3.135,7.175,7.282,9.449,12.292c2.292,5.085,3.504,11.077,3.903,17.991l1.659,29.469
	l-84.396,4.671L1518.236,1183.815z M1523.385,1209.475l76.96-4.303l-1.412-25.752c-0.386-6.576-1.582-12.105-3.627-16.592
	c-2.045-4.626-4.839-8.235-8.299-11.033c-3.5-2.779-7.848-4.7-12.891-5.899c-3.947-0.86-8.295-1.29-13.091-1.29
	c-1.458,0-2.965,0-4.576,0.092c-12.646,0.677-21.495,4.487-26.996,10.971c-5.039,5.931-7.574,13.92-7.574,24.245
	c0,1.214,0,2.473,0.047,3.688l-1.859,0.153l1.859-0.153L1523.385,1209.475z M1527.227,1182.232
	c-0.076-1.029-0.139-1.966-0.139-2.813c0-4.025,0.582-7.543,1.583-10.57c1.335-3.733,3.442-6.898,6.251-9.433
	c2.769-2.49,6.13-4.333,10.172-5.532c3.871-1.213,8.313-1.904,13.244-2.212c1.244-0.106,2.535-0.154,3.703-0.154
	c3.627,0,6.76,0.308,9.648,1.015c3.656,0.813,6.793,2.029,9.449,3.595c2.568,1.6,4.732,3.411,6.363,5.532
	c1.582,2.058,2.826,4.103,3.671,6.269c0.876,2.089,1.43,4.179,1.797,6.114c0.339,1.876,0.506,3.411,0.567,4.672l1.092,19.788
	l-66.329,3.597L1527.227,1182.232z M1558.523,1155.33c-4.625,0.245-8.819,0.982-12.338,2.059c-3.565,1.106-6.454,2.734-8.819,4.794
	c-2.288,2.059-3.947,4.669-5.101,7.835c-0.906,2.598-1.383,5.746-1.383,9.402c0,0.847,0,1.645,0.076,2.551l0.877,16.287
	l58.922-3.318l-0.906-15.965l1.903-0.122l-1.903,0.122c0-1.105-0.262-2.534-0.509-4.316c-0.306-1.629-0.812-3.426-1.536-5.256
	c-0.8-1.843-1.858-3.656-3.271-5.484c-1.244-1.705-2.965-3.211-5.257-4.624c-2.241-1.275-5.068-2.397-8.467-3.166
	c-2.503-0.584-5.377-0.844-8.771-0.844C1560.888,1155.284,1559.72,1155.299,1558.523,1155.33"/>
<polygon fill="#FFFFFF" points="1505.685,1081.843 1514.551,1080.213 1523.137,1124.417 1548.368,1119.531 1540.394,1078.293 
	1549.274,1076.542 1557.25,1117.763 1584.703,1112.54 1576.085,1067.951 1584.918,1066.216 1595.597,1121.313 1516.301,1136.647 "/>
<path fill="#FFFFFF" d="M1503.825,1082.258l1.859-0.37l0.4,1.798l-0.4-1.798L1503.825,1082.258l-0.323-1.859l1.815-0.324
	l10.678-2.088l8.619,44.187l21.586-4.147l-7.928-41.207l1.735-0.324l10.711-2.104l8.004,41.208l23.707-4.64l-8.557-44.496
	l1.873-0.353l10.649-2.074l11.413,58.752l-82.996,16.056L1503.825,1082.258z M1517.698,1134.465l75.777-14.581l-9.969-51.577
	l-5.334,1.105l8.651,44.557l-31.037,5.961l-7.99-41.207l-5.221,1.029l7.928,41.27l-28.84,5.577l-8.572-44.25l-5.181,1.015
	L1517.698,1134.465z"/>
<path fill="#FFFFFF" d="M1489.8,1001.932c-1.153,4.801-0.771,9.863,1.303,15.181c1.83,4.486,4.151,7.99,7.16,10.51
	c2.921,2.519,6.207,4.285,9.866,5.253c3.701,0.938,7.543,1.199,11.552,0.799c4.01-0.506,7.989-1.535,11.94-3.087
	c4.33-1.706,8.143-3.766,11.585-6.285c3.485-2.488,6.145-5.284,8.204-8.512c2.026-3.196,3.271-6.729,3.671-10.585
	c0.43-3.896-0.276-8.052-1.997-12.6c-1.321-3.287-3.057-6.023-5.163-8.135c-2.088-2.136-4.472-3.756-7.036-4.894
	c-2.718-1.083-5.668-1.621-8.71-1.621c-3.046,0-6.192,0.491-9.372,1.514l-3.918-9.973c9.786-2.789,18.467-2.458,25.918,1.068
	c7.48,3.442,13.105,10.003,16.871,19.59c2.336,5.861,3.318,11.369,3.056,16.456c-0.323,5.124-1.645,9.855-4.023,14.142
	c-2.368,4.194-5.654,8.036-9.896,11.354c-4.162,3.318-9.033,6.023-14.473,8.189c-5.454,2.136-10.955,3.442-16.38,3.795
	c-5.438,0.354-10.507-0.308-15.226-1.828c-4.792-1.582-9.096-4.194-12.919-7.882c-3.781-3.595-6.822-8.281-9.144-14.044
	c-1.491-3.933-2.474-7.866-2.813-11.799c-0.32-3.957,0-7.66,0.938-11.162c0.969-3.558,2.612-6.876,4.948-9.903
	c2.317-3.003,5.359-5.585,9.187-7.766l3.919,10.001C1494.053,992.951,1490.936,997.015,1489.8,1001.932"/>
<path fill="#FFFFFF" d="M1504.055,1043.999c-4.915-1.673-9.554-4.409-13.52-8.249c-4.01-3.857-7.28-8.805-9.572-14.767
	c-1.612-4.087-2.58-8.189-2.994-12.306c-0.063-1.03-0.063-2.06-0.063-3.104c0-3.035,0.339-5.933,1.121-8.743
	c0.982-3.794,2.736-7.306,5.195-10.463c2.551-3.304,5.836-6.062,9.816-8.243l1.797-0.991l0.786,1.866l4.515,11.47l-1.229,0.853
	c-4.653,2.989-7.299,6.622-8.372,10.978l-1.735-0.361l1.735,0.376c-0.433,1.621-0.586,3.259-0.586,4.879
	c0,2.973,0.662,6.015,1.907,9.228c1.721,4.285,3.903,7.496,6.56,9.817c2.765,2.396,5.716,3.901,9.157,4.793
	c2.336,0.584,4.687,0.952,7.208,0.952c1.135,0,2.394-0.092,3.699-0.246c3.795-0.398,7.67-1.396,11.479-2.842
	c4.148-1.658,7.819-3.672,11.217-6.008c3.242-2.473,5.793-5.132,7.681-8.05c1.83-2.981,2.95-6.224,3.337-9.827
	c0.105-0.66,0.105-1.335,0.105-2.081c0-2.973-0.678-6.245-2.013-9.625c-1.215-3.15-2.812-5.617-4.776-7.537
	c-1.878-1.983-3.934-3.427-6.378-4.471c-2.38-0.922-4.915-1.459-8.037-1.506c-2.903,0-5.792,0.469-8.739,1.475l-1.691,0.508
	l-5.225-13.498l1.859-0.584c4.504-1.275,8.789-1.936,12.89-1.936c5.163,0,9.958,1.052,14.411,3.049
	c7.99,3.766,13.844,10.764,17.776,20.72c2.078,5.309,3.261,10.433,3.261,15.341c0,0.708-0.109,1.183-0.109,1.876
	c-0.306,5.392-1.707,10.37-4.238,14.856c-2.521,4.485-5.949,8.512-10.326,11.968c-4.348,3.442-9.387,6.254-14.949,8.467
	c-5.654,2.242-11.308,3.518-16.947,3.901c-1.044,0.078-2.045,0.078-3.15,0.078
	C1512.383,1046.013,1508.129,1045.306,1504.055,1043.999 M1487.17,988.618c-2.18,2.843-3.719,5.901-4.61,9.188
	c-0.629,2.498-1.011,5.063-1.011,7.768c0,0.898,0.062,1.858,0.152,2.811c0.306,3.749,1.197,7.437,2.703,11.247
	c2.184,5.593,5.072,10.019,8.714,13.413c3.642,3.456,7.694,5.961,12.166,7.391c3.613,1.259,7.499,1.874,11.632,1.874
	c0.968,0,1.969,0,2.936-0.077c5.163-0.353,10.402-1.537,15.685-3.672c5.425-2.06,10.063-4.732,14.12-7.928
	c3.98-3.228,7.131-6.746,9.391-10.786c2.241-4.04,3.441-8.48,3.824-13.183c-0.092-0.723,0-1.275,0-1.798
	c0-4.371-0.936-9.01-2.98-13.996c-3.656-9.365-8.896-15.412-15.841-18.645c-3.918-1.859-8.204-2.729-12.861-2.729
	c-3.056,0-6.359,0.386-9.878,1.246l2.642,6.483c2.688-0.784,5.454-1.068,8.143-1.068c0,0,0.218-0.117,0.08,0
	c3.304,0,6.465,0.56,9.31,1.79c2.871,1.137,5.531,2.927,7.79,5.177c2.303,2.389,4.133,5.301,5.454,8.812
	c1.473,3.818,2.288,7.475,2.288,10.993c0,0.822-0.076,1.621-0.138,2.458c-0.444,4.164-1.783,7.943-3.919,11.447
	c-2.15,3.38-5.13,6.422-8.725,9.018c-3.519,2.566-7.56,4.748-11.923,6.393c-4.15,1.613-8.207,2.796-12.461,3.196
	c-1.367,0.122-2.765,0.214-4.07,0.214c-2.783,0-5.516-0.321-8.176-0.998c-3.886-0.984-7.437-2.92-10.555-5.64
	c-3.289-2.703-5.777-6.56-7.65-11.262c-1.445-3.595-2.15-7.13-2.15-10.563c0-1.936,0.182-3.863,0.705-5.754
	c1.23-4.924,4.119-9.111,8.619-12.337l-2.535-6.654C1491.273,984.256,1488.985,986.337,1487.17,988.618"/>
<polygon fill="#FFFFFF" points="1525.459,944.992 1536.689,939.407 1542.314,950.622 1531.007,956.208 "/>
<path fill="#FFFFFF" d="M1523.737,945.821l1.722-0.83l0.844,1.666l-0.844-1.666L1523.737,945.821l-0.768-1.667l14.535-7.268
	l7.251,14.526l-14.535,7.298L1523.737,945.821z M1531.851,953.687l8.019-3.909l-4.023-7.92l-7.928,3.964L1531.851,953.687z"/>
<polygon fill="#FFFFFF" points="1519.79,908.671 1465.293,974.791 1459.348,964.88 1507.377,908.9 1507.268,908.702 
	1435.223,924.934 1429.478,915.338 1513.488,898.238 "/>
<path fill="#FFFFFF" d="M1457.026,964.658l45.555-52.969l-68.294,15.364l-7.822-12.974l87.915-17.955l7.036,11.579l-1.626,0.959
	l1.626-0.959l0.677,1.166l-57.091,69.072L1457.026,964.658z M1508.835,907.787l0.845,1.382l-48.058,55.918l3.899,6.447
	l52.038-63.025l-5.039-8.166l-80.125,16.332l3.736,6.169l72.026-16.239L1508.835,907.787z"/>
<polygon fill="#FFFFFF" points="1484.99,877.635 1495.297,870.544 1502.381,880.922 1492.026,888.006 "/>
<path fill="#FFFFFF" d="M1483.407,878.679l1.55-1.037l1.045,1.521l-1.045-1.521L1483.407,878.679l-1.029-1.528l13.353-9.188
	l9.139,13.451l-13.334,9.188L1483.407,878.679z M1492.503,885.477l7.343-5.053l-5.083-7.284l-7.331,4.956L1492.503,885.477z"/>
<path fill="#B1132F" d="M1052.73,138.993c-3.228-2.765-7.47-5.124-11.526-7.268c-6.665-3.564-12.629-5.77-20.265-7.406v44.05
	c6.978-2.374,20.436-7.744,31.881-16.786c1.922-1.528,4.242-3.841,4.271-6.091C1057.121,143.656,1055.647,141.467,1052.73,138.993"
	/>
<path fill="#B1132F" d="M1059.689,193.66v-29.277c-6.439,4.879-18.438,11.563-40.763,19.052c-0.968,0.27-71.688,19.59-93.016,70.238
	l109.181-30.952C1036.303,222.453,1059.689,217.014,1059.689,193.66"/>
</svg>
