<?xml version="1.0" encoding="utf-8"?>
<!-- Generator: Adobe Illustrator 16.0.0, SVG Export Plug-In . SVG Version: 6.00 Build 0)  -->
<!DOCTYPE svg PUBLIC "-//W3C//DTD SVG 1.1//EN" "http://www.w3.org/Graphics/SVG/1.1/DTD/svg11.dtd">
<svg version="1.1" id="Capa_1" xmlns="http://www.w3.org/2000/svg" xmlns:xlink="http://www.w3.org/1999/xlink" x="0px" y="0px"
	 width="2000px" height="2000px" viewBox="0 0 2000 2000" enable-background="new 0 0 2000 2000" xml:space="preserve">
<path fill-rule="evenodd" clip-rule="evenodd" fill="#FFFFFF" d="M1942.874,1000.292c0,518.462-422.54,938.729-943.753,938.729
	c-521.199,0-943.737-420.268-943.737-938.729c0-518.438,422.538-938.737,943.737-938.737
	C1520.334,61.555,1942.874,481.854,1942.874,1000.292"/>
<path fill="#B1132F" d="M1354.948,1354.232H643.31V646.344h711.639V1354.232z M999.121,707.897
	c-162.348,0-293.931,130.92-293.931,292.395c0,161.483,131.583,292.378,293.931,292.378s293.947-130.895,293.947-292.378
	C1293.068,838.817,1161.469,707.897,999.121,707.897"/>
<polygon fill="#10245E" points="1231.188,923.351 1076.471,923.351 1076.471,769.457 921.787,769.457 921.787,923.351 
	767.07,923.351 767.07,1077.242 921.787,1077.242 921.787,1231.127 1076.471,1231.127 1076.471,1077.242 1231.188,1077.242 "/>
<polygon fill="#10245E" points="1319.912,1378.708 1319.912,1359 1326.647,1359 1329.126,1370.613 1329.19,1370.613 1331.75,1359 
	1338.438,1359 1338.438,1378.708 1333.879,1378.708 1334.374,1363.255 1334.31,1363.255 1330.918,1378.708 1327.367,1378.708 
	1324.055,1363.255 1324.008,1363.255 1324.457,1378.708 "/>
<path fill="#10245E" d="M1346.55,1378.691h-4.784V1359h7.007c3.887,0,5.855,1.535,5.855,5.438c0,2.08-0.512,3.585-2.528,4.479v0.064
	c1.328,0.287,2.289,1.185,2.385,2.56c0.127,1.536,0.144,4.959,0.431,6.208c0.096,0.272,0.241,0.495,0.464,0.672v0.271h-5.231
	c-0.144-0.366-0.239-0.734-0.287-1.104c-0.064-1.743,0.048-3.392-0.096-4.606c-0.16-1.185-0.512-1.983-1.616-2.048h-1.599V1378.691z
	 M1346.55,1367.382h1.632c1.375,0,1.727-1.249,1.727-2.433c0-2.366-1.007-2.462-3.358-2.414V1367.382z"/>
<path fill="#10245E" d="M643.262,615.565V492.46h32.044c10.398,0.017,23.052,0.296,32.668,5.8
	c11.534,6.767,13.341,19.101,13.326,30.763v53.697c-0.144,12.288-3.985,21.646-12.64,27.013c-7.758,5.047-17.084,5.815-25.885,5.832
	H643.262z M676.698,591.767c6.478-0.015,9.791-1.39,11.613-3.806c1.873-2.423,2.416-6.416,2.399-11.903
	c0-1.823-0.031-3.768-0.127-5.92v-39.474c-0.081-7.047-1.296-10.327-3.76-11.991c-2.352-1.672-6.512-2.086-12.846-2.247v75.27
	C674.938,591.752,675.85,591.767,676.698,591.767"/>
<polygon fill="#10245E" points="729.348,615.565 729.348,492.453 796.859,492.453 796.859,518.825 760.064,518.825 760.064,538.895 
	795.723,538.895 795.723,565.268 760.064,565.268 760.064,589.2 798.794,589.2 798.794,615.565 "/>
<path fill="#10245E" d="M806.746,615.556V492.46h34.956c11.102,0.033,27.212,0.856,35.691,10.375
	c6.895,7.695,8.208,17.086,8.208,26.997c0,13.167-3.072,28.389-16.67,34.676c-9.951,4.832-21.198,3.56-31.484,3.935v47.114H806.746z
	 M837.445,544.526c5.119-0.048,10.446,0.177,14.19-2.736c2.576-2.871,3.249-7.423,3.232-11.487
	c0.064-4.655-0.656-11.303-4.607-13.006c-2.464-0.856-6.303-0.904-10.831-0.904h-1.983V544.526z"/>
<path fill="#10245E" d="M931.114,618.46c-14.592,0.017-24.718-3.6-31.116-10.862c-6.368-7.27-8.879-17.917-8.879-31.659V526.76
	c-0.017-11.814,3.552-21.189,10.415-27.557c6.879-6.358,16.91-9.647,29.581-9.647c12.637,0,22.572,3.289,29.308,9.647
	c6.75,6.384,10.207,15.742,10.207,27.557v49.179c-0.017,13.742-2.416,24.373-8.688,31.643c-6.239,7.279-16.238,10.879-30.795,10.879
	H931.114z M923.436,518.225c-1.33,2.863-1.634,6.832-1.634,10.479v49.657c0,3.409,0.304,7.6,1.682,10.808
	c1.375,3.215,3.454,5.311,7.631,5.358c4.143-0.048,6.095-2.127,7.391-5.32c1.215-3.199,1.407-7.423,1.39-10.846v-49.657
	c0.017-3.665-0.175-7.647-1.39-10.511c-1.296-2.84-3.232-4.655-7.551-4.705C926.777,513.539,924.778,515.354,923.436,518.225"/>
<path fill="#10245E" d="M1029.213,615.573l-0.256-0.72c-0.832-2.311-1.504-4.671-1.68-7.262c-0.177-4.016-0.225-7.944-0.225-11.647
	v-3.639c0-4.729-0.031-9.073-0.431-12.695c-0.896-7.367-2.753-11.302-8.64-11.776h-8.303v46.636v1.103h-30.717V492.46h42.763
	c11.808,0,20.845,2.361,26.989,7.958c6.144,5.624,9.119,14.352,9.103,26.509c0.064,12.224-2.88,21.727-13.534,27.485
	c7.07,2.361,12.127,7.968,12.575,15.958c0.799,9.688,0.976,30.405,2.543,37.971c0.607,1.512,1.313,2.751,2.433,3.703l0.352,0.33
	v0.479v2.72H1029.213z M1018.303,543.901c3.791-0.031,5.839-1.607,7.263-4.15c1.375-2.552,1.872-6.16,1.856-9.759
	c0-6.358-1.201-9.631-3.393-11.351c-2.208-1.792-5.951-2.311-11.486-2.296c-0.895,0-1.871,0.017-2.863,0.033v27.523H1018.303z"/>
<polygon fill="#10245E" points="1082.582,615.565 1082.582,518.809 1060.217,518.809 1060.217,493.548 1060.217,492.453 
	1136.335,492.453 1136.335,518.809 1113.313,518.809 1113.313,615.565 "/>
<rect x="1145.295" y="492.453" fill="#10245E" width="30.715" height="123.104"/>
<polygon fill="#10245E" points="1210.63,615.565 1183.738,492.453 1214.551,492.453 1228.389,572.874 1242.21,492.453 
	1273.022,492.453 1245.954,615.565 "/>
<path fill="#10245E" d="M1315.561,618.46c-14.574,0.017-24.684-3.6-31.085-10.862c-6.382-7.27-8.894-17.917-8.91-31.659V526.76
	c0-11.814,3.583-21.189,10.448-27.557c6.863-6.358,16.893-9.647,29.547-9.647s22.574,3.289,29.324,9.647
	c6.768,6.384,10.207,15.742,10.19,27.557v49.179c0,13.742-2.399,24.373-8.654,31.643c-6.255,7.279-16.237,10.879-30.796,10.879
	H1315.561z M1307.882,518.225c-1.296,2.863-1.616,6.832-1.6,10.479v49.657c0,3.409,0.304,7.6,1.647,10.808
	c1.393,3.215,3.471,5.311,7.631,5.358c4.177-0.048,6.111-2.127,7.392-5.32c1.231-3.199,1.423-7.423,1.407-10.846v-49.657
	c0.016-3.681-0.176-7.647-1.407-10.511c-1.28-2.84-3.2-4.655-7.535-4.705C1311.24,513.539,1309.241,515.354,1307.882,518.225"/>
<path fill="#10245E" d="M652.51,1501.108c-6.128-6.928-8.736-16.941-8.736-29.517v-50.169c0-13.438,3.104-23.485,9.743-30.188
	c6.672-6.688,16.67-9.839,29.997-9.839c12.429,0,22.509,2.655,29.564,8.606c7.04,5.967,10.831,15.197,10.831,27.837v11.357h-31.004
	v-8.927c0-5.071-0.928-8.83-2.416-11.23c-1.488-2.399-3.344-3.44-5.712-3.472c-0.144,0-0.256-0.017-0.383-0.017
	c-4.144,0.033-6.351,1.122-7.712,2.976c-1.359,1.856-1.904,4.815-1.888,8.657l-0.16,60.424c0.16,6.575,2.16,9.661,9.215,9.838
	c4.511-0.081,6.606-2.128,7.999-5.327c1.327-3.2,1.535-7.486,1.535-11.199v-12.143h31.021v16.078
	c0,10.671-3.103,19.935-10.126,26.494c-6.96,6.542-17.663,10.238-32.556,10.238C668.267,1511.604,658.684,1508.021,652.51,1501.108"
	/>
<path fill="#10245E" d="M787.212,1508.676l-0.256-0.736c-0.833-2.32-1.553-4.703-1.713-7.327c-0.191-4.063-0.191-7.999-0.191-11.773
	v-3.665c0-4.798-0.048-9.166-0.447-12.83c-0.928-7.423-2.801-11.406-8.735-11.887h-8.416v47.131v1.088h-30.987v-124.337h43.162
	c11.903,0,21.053,2.368,27.26,8.047s9.2,14.463,9.2,26.765c0.063,12.351-2.913,21.95-13.694,27.758
	c7.15,2.383,12.254,8.047,12.702,16.108c0.816,9.791,1.007,30.75,2.576,38.396c0.625,1.504,1.328,2.768,2.464,3.712l0.368,0.32
	v0.512v2.72H787.212z M767.454,1436.302h8.719c3.839-0.033,5.903-1.634,7.343-4.193c1.392-2.591,1.887-6.222,1.887-9.853
	c0-6.433-1.215-9.76-3.439-11.504c-2.223-1.791-6.014-2.32-11.597-2.32c-0.928,0-1.904,0.033-2.913,0.033V1436.302z"/>
<path fill="#10245E" d="M866.482,1511.588c-12.383,0-22.334-2.928-29.214-9.2c-6.894-6.286-10.525-15.79-10.525-28.523v-88.437
	v-1.089h31.004v93.27c0.177,5.727,1.327,9.694,8.879,9.821c6.72-0.017,8.638-5.631,8.734-10.623v-92.468h31.021v89.525
	c0,10.494-2.383,19.95-8.655,26.813c-6.255,6.847-16.333,10.911-31.212,10.911h-0.017H866.482z"/>
<polygon fill="#10245E" points="915.788,1508.676 915.788,1485.512 951.495,1410.943 918.396,1410.943 918.396,1385.443 
	918.396,1384.339 985.763,1384.339 985.763,1408.465 950.695,1482.055 987.378,1482.055 987.378,1508.676 "/>
<path fill="#10245E" d="M1072.15,1508.676l-4.095-23.806h-20.732l-3.439,23.806h-31.293l27.341-124.337h36.475l27.166,124.337
	H1072.15z M1050.763,1461.21h14.174l-6.959-47.37L1050.763,1461.21z"/>
<polygon fill="#10245E" points="1109.156,1508.676 1109.156,1485.512 1144.879,1410.943 1111.777,1410.943 1111.777,1385.443 
	1111.777,1384.339 1179.114,1384.339 1179.114,1408.465 1144.063,1482.055 1180.763,1482.055 1180.763,1508.676 "/>
<path fill="#10245E" d="M1231.156,1511.588c-12.367,0-22.35-2.928-29.212-9.2c-6.913-6.286-10.544-15.79-10.544-28.523v-88.437
	v-1.089h31.004v93.27c0.193,5.727,1.327,9.694,8.896,9.821c6.703-0.017,8.654-5.631,8.719-10.623v-92.468h31.021v89.525
	c0,10.494-2.368,19.95-8.64,26.813c-6.272,6.847-16.318,10.911-31.212,10.911H1231.156z"/>
<polygon fill="#10245E" points="1286.813,1508.676 1286.813,1384.339 1317.816,1384.339 1317.8,1482.055 1352.996,1482.055 
	1352.996,1508.676 "/>
<path fill-rule="evenodd" clip-rule="evenodd" fill="#10245E" d="M1911.918,1000.285c0,501.448-408.686,907.957-912.797,907.957
	c-504.112,0-912.796-406.509-912.796-907.957c0-501.44,408.684-907.942,912.796-907.942
	C1503.232,92.343,1911.918,498.844,1911.918,1000.285 M999.121,307.787c-384.495,0-696.184,310.041-696.184,692.498
	c0,382.455,311.689,692.512,696.184,692.512c384.511,0,696.2-310.058,696.2-692.512
	C1695.321,617.828,1383.632,307.787,999.121,307.787"/>
<polygon fill-rule="evenodd" clip-rule="evenodd" fill="#FFFFFF" points="1856.42,830.673 1810.011,856.519 1820.376,908.415 
	1781.309,872.508 1734.915,898.361 1757.185,850.295 1718.135,814.387 1770.928,820.611 1793.197,772.562 1803.579,824.458 "/>
<polygon fill-rule="evenodd" clip-rule="evenodd" fill="#FFFFFF" points="1725.893,517.266 1692.97,558.82 1722.517,602.79 
	1672.62,584.488 1639.695,626.036 1641.76,573.171 1591.878,554.845 1643.055,540.495 1645.152,487.628 1674.699,531.616 "/>
<polygon fill-rule="evenodd" clip-rule="evenodd" fill="#FFFFFF" points="1484.74,277.376 1470.294,328.297 1514.528,357.686 
	1461.382,359.781 1446.952,410.694 1428.538,361.061 1375.362,363.125 1417.164,330.378 1398.735,280.752 1442.969,310.139 "/>
<polygon fill-rule="evenodd" clip-rule="evenodd" fill="#FFFFFF" points="1169.645,147.552 1175.899,200.105 1228.052,210.416 
	1179.77,232.566 1186.025,285.118 1149.902,246.261 1101.621,268.409 1127.602,222.263 1091.51,183.404 1143.662,193.722 "/>
<polygon fill-rule="evenodd" clip-rule="evenodd" fill="#FFFFFF" points="828.6,147.568 854.595,193.714 906.765,183.412 
	870.657,222.247 896.654,268.401 848.355,246.251 812.25,285.11 818.488,232.573 770.19,210.425 822.359,200.105 "/>
<polygon fill-rule="evenodd" clip-rule="evenodd" fill="#FFFFFF" points="513.519,277.391 555.289,310.139 599.508,280.743 
	581.094,330.369 622.881,363.133 569.734,361.054 551.306,410.687 536.875,359.774 483.747,357.693 527.949,328.306 "/>
<polygon fill-rule="evenodd" clip-rule="evenodd" fill="#FFFFFF" points="272.35,517.266 323.559,531.616 353.092,487.628 
	355.202,540.495 406.396,554.845 356.467,573.171 358.579,626.036 325.638,584.488 275.741,602.79 305.289,558.804 "/>
<polygon fill-rule="evenodd" clip-rule="evenodd" fill="#FFFFFF" points="141.853,830.682 194.679,824.458 205.03,772.569 
	227.314,820.602 280.141,814.396 241.073,850.304 263.341,898.354 216.947,872.5 177.896,908.432 188.247,856.526 "/>
<polygon fill="#10245E" points="1320.232,1378.596 1320.232,1359.063 1326.744,1359.063 1329.126,1370.597 1329.159,1370.597 
	1331.638,1359.063 1338.07,1359.063 1338.07,1378.596 1333.688,1378.596 1334.135,1363.286 1334.087,1363.286 1330.839,1378.596 
	1327.416,1378.596 1324.248,1363.286 1324.201,1363.286 1324.615,1378.596 "/>
<path fill="#10245E" d="M1346.229,1378.596h-4.607v-19.533h6.734c3.76,0,5.664,1.504,5.664,5.392c0,2.08-0.513,3.568-2.447,4.463
	v0.031c1.279,0.289,2.191,1.185,2.271,2.528c0.144,1.569,0.177,4.928,0.416,6.176c0.096,0.271,0.239,0.496,0.447,0.673v0.271h-5.023
	c-0.127-0.368-0.256-0.72-0.256-1.119c-0.079-1.711,0-3.328-0.11-4.528c-0.129-1.199-0.497-1.983-1.585-2.079h-1.503V1378.596z
	 M1346.229,1367.382h1.567c1.344,0,1.631-1.249,1.631-2.433c0-2.335-0.942-2.431-3.198-2.366V1367.382z"/>
<polygon fill="#FFFFFF" points="398.957,1613.846 465.732,1535.616 498.24,1563.069 470.708,1619.351 470.963,1619.573 
	522.732,1583.771 554.954,1611.014 488.177,1689.229 466.165,1670.639 520.878,1611.318 520.623,1611.078 452.022,1658.657 
	434.857,1644.178 471.363,1569.469 471.107,1569.228 420.842,1632.309 "/>
<polygon fill="#FFFFFF" points="638.894,1776.594 678.33,1681.773 742.337,1708.105 734.45,1727.049 698.375,1712.218 
	691.112,1729.673 726.1,1744.037 718.213,1763.011 683.257,1748.645 674.763,1769.123 712.709,1784.753 704.838,1803.71 "/>
<polygon fill="#FFFFFF" points="919.29,1778.992 919.627,1779.025 936.473,1749.381 966.581,1752.388 934.697,1800.895 
	957.446,1854.584 927.322,1851.577 915.867,1819.644 915.532,1819.596 895.343,1848.377 866.609,1845.48 900.318,1797.439 
	878.481,1743.542 908.428,1746.549 "/>
<polygon fill="#FFFFFF" points="1126.065,1845.258 1109.139,1744.037 1138.992,1739.109 1155.885,1840.313 "/>
<path fill="#FFFFFF" d="M1341.254,1710.569l-2.784-5.966c-3.679-7.951-9.167-10.384-14.333-8.016
	c-8.655,3.84-8.944,8.511-6.096,14.59l21.309,46.138c2.416,5.184,6.512,7.071,13.711,3.761c9.342-4.335,6.543-12.367,3.871-18.094
	l-3.951-8.432l27.484-12.654l5.311,11.422c7.473,15.998,1.136,32.508-26.939,45.435c-25.261,11.679-40.075,5.535-48.923-13.47
	l-17.821-38.22c-9.422-20.237-2.129-35.083,22.974-46.665c23.404-10.767,41.146-9.313,49.994,9.695l3.631,7.805L1341.254,1710.569z"
	/>
<path fill="#FFFFFF" d="M1579.863,1585.658c15.486,17.246,15.981,32.938-6.815,53.24c-22.829,20.254-38.858,18.366-54.329,1.121
	l-27.965-31.101c-13.214-14.686-9.519-32.652,10.24-50.2c19.741-17.534,37.706-18.848,50.905-4.16L1579.863,1585.658z
	 M1530.445,1575.836c-4.223-4.705-9.774-9.839-17.213-3.231c-7.167,6.382-3.041,12.798,1.167,17.485l28.253,31.403
	c3.951,4.383,10.688,10.111,18.014,3.615c7.311-6.479,1.952-13.47-1.984-17.853L1530.445,1575.836z"/>
</svg>
