<?xml version="1.0" encoding="utf-8"?>
<!-- Generator: Adobe Illustrator 16.0.0, SVG Export Plug-In . SVG Version: 6.00 Build 0)  -->
<!DOCTYPE svg PUBLIC "-//W3C//DTD SVG 1.1//EN" "http://www.w3.org/Graphics/SVG/1.1/DTD/svg11.dtd">
<svg version="1.1" id="Capa_1" xmlns="http://www.w3.org/2000/svg" xmlns:xlink="http://www.w3.org/1999/xlink" x="0px" y="0px"
	 width="2000px" height="2000px" viewBox="0 0 2000 2000" enable-background="new 0 0 2000 2000" xml:space="preserve">
<g>
	<path fill-rule="evenodd" clip-rule="evenodd" fill="#211915" d="M1641.512,1399.806l183.658-4.88
		c2.371-27.273-13.688-26.385-28.1-40.846c-35.249-35.365-66.633-82.179-106.07-103.121l-20.404-6.526l155.223-734.439
		l-161.167,93.854l66.627-311.303c-42.558,1.951-57.918,13.07-110.92,6.361c-31.22-3.955-66.753-11.806-94.204-21.794
		c-183.15-66.636-312.482-178.171-533.365-177.744C763.021,99.813,627.894,223.12,460.255,277.612
		c-98.813,32.118-118.667,24.345-203.042,14.542l65.734,313.439l-160.261-94.632c5.295,52.653,192.022,907.817,195.942,914.288
		l317.43,239.41c90.261,67.655,230.716,176.36,316.73,236.38c19.366-8.297,138.586-100.914,166.54-121.71l412.632-308.072
		c12.694-9.462,26.5-19.844,40.288-29.842C1649.649,1414.288,1623.694,1418.203,1641.512,1399.806z"/>
	<path fill-rule="evenodd" clip-rule="evenodd" fill="#8EB444" d="M1658.163,1429.729l5.22-30.554l-21.871,0.631
		c-17.814,18.397,8.141,14.479-29.26,41.609c-13.787,9.998-27.594,20.377-40.287,29.842l-412.636,308.072
		c-27.954,20.793-147.174,113.409-166.537,121.706c-86.016-60.02-226.471-168.726-316.731-236.376l-317.43-239.413
		c-3.919-6.471-190.647-861.633-195.942-914.287l160.262,94.632l-65.735-313.438c84.377,9.802,104.23,17.573,203.04-14.543
		c167.64-54.492,302.767-177.8,532.537-178.245c220.88-0.427,350.215,111.108,533.367,177.745
		c27.446,9.987,62.979,17.839,94.202,21.794c53.002,6.709,68.359-4.41,110.917-6.361l-66.624,311.302l161.167-93.854
		l-155.223,734.438l20.405,6.526l7.004-2.611c12.024-17.083,128.467-610.024,158.967-738.9c4.42-18.686,8.57-31.608,8.57-53.771
		c-24.404,2.032-125.774,73.7-155.848,89.613l30.171-149.056c10.099-50.793,20.747-101.942,32.167-150.953
		c-16.535,1.375-43.521,19.042-98.383,26.308c-32.684,4.327-84.204-5.63-109.576-13.159
		c-76.423-22.678-190.132-85.228-262.922-115.01c-82.305-33.674-93.182-42.334-187.866-61.493
		C871.11,32.909,721.827,134,520.229,220.782c-86.892,37.404-152.902,68.185-253.022,40.968
		c-18.262-4.965-32.993-15.075-49.766-16.471c5.064,21.723,62.34,281.126,62.34,300.008
		c-29.976-15.862-132.424-87.664-155.849-89.613c0,20.421,17.498,99.915,22.602,121.56
		c46.418,196.879,82.881,409.145,128.58,603.913c19.176,81.732,33.74,161.749,52.229,243.879
		c6.925,30.771,48.41,46.574,83.093,76.654l30.251,24.295c114.686,85.288,269.446,206.388,382.236,284.02
		c55.607,38.273,114.208,88.971,169.868,126.246c18.38-4.905,149.626-108.978,169.179-123.037l481.703-359.897
		C1654.694,1445.364,1658.351,1445.581,1658.163,1429.729z"/>
	<path fill-rule="evenodd" clip-rule="evenodd" fill="#8EB444" d="M1458.124,489.526c32.632-13.063,41.943-11.803,82.325,2.548
		c-15.936,39.057-82.918,140.394-87.255,158.412c27.347,15.103,123.438,32.789,157.2,29.281l0.547-51.111
		c-17.528,6.626-11.902,15.16-37.463,14.626c-14.706-0.31-33.127-5.438-48.4-6.923c5.078-17.573,33.635-65.395,43.651-83.842
		c14.917-27.48,32.712-55.954,42.651-84.427c-27.002-5.471-52.507-7.138-80.139-13.505c-17.449-4.02-57.874-18.058-72.422-16.621
		L1458.124,489.526L1458.124,489.526z M1025.92,1529.06c-7.685-57.397,1.373-38.035-26.719-78.482
		c-22.181-31.935-11.4-40.448-7.016-79.327c-17.124,12.893-35.706,50.991-26.307,80.931c7.715,24.596,19.962,70.904-14.932,80.597
		c-23.326-19.914-3.885-21.242-49.784-42.513c-18.871-8.746-16.001-5.059-24.495-22.239c-4.757-9.608-9.515-20.861-14.148-28.702
		c-3.354,25.495-2.02,50.857,14.782,66.882c10.281,9.806,12.995,6.493,21.352,21.725c0.354,0.646,6.766,16.738,6.788,16.86
		c0.634,3.587,0.273,5.3,0.009,8.636c-0.539,6.76-6.423,8.35-12.814,7.517c-25.326-3.298-11.244-20.242-79.006-15.138
		c-42.112,3.165-55.17-18.079-78.004-33.029c5.64,21.246,29.553,51.907,56.278,59.309c44.994,12.46,50.253,11.47,75.972,40.706
		l-7.202,24.146l132.459,130.171c14.649-8.556,60.877-57.559,76.72-73.298c63.687-63.284,58.166-46.164,51.565-81.252
		c70.528-28.731,46.954-69.868,86.57-88.506l31.15-11.941c5.491-2.834,5.083-2.824,8.218-5.554
		c-48.809-3.644-65.769,2.556-88.458,26.964c-11.976,12.881-53.382,39.513-72.598,27.941c-3.814-10.276,3.853-14.252,8.813-25.592
		c8.629-19.727,4.009-19.503,3.092-40.151c-1.405-31.732,18.338-36.676,28.295-54.771c-64.632,20.402-38.854,41.477-72.326,81.537
		C1044.396,1534.192,1043.912,1535.259,1025.92,1529.06L1025.92,1529.06z M849.886,1374.503
		c9.537-7.415,198.974-84.664,225.177-87.813c29.013-3.479,54.371,7.587,76.931,24.785c0.632,0.48,1.758,1.38,2.577,2.137
		c-45.096-3.573-38.598-7.443-83.197,4.148C1023.021,1330.328,879.908,1370.957,849.886,1374.503L849.886,1374.503z
		 M1287.815,1276.964c4.735,8.405,3.87,9.96,9.888,19.376c4.646,7.272,6.551,10.191,10.435,16.711
		c9.438,15.834,11.058,15.771,9.335,37.31l46.699,14.158c-13.422-45.448-27.695-53.825-63.367-79.065L1287.815,1276.964
		L1287.815,1276.964z M1326.238,1400.336c10.639,7.907,36.361,30.498,41.691,41.769c-11.982,4.812-22.984,8.881-24.017,23.059
		c-1.099,15.072,7.523,18.363,19.262,26.691c14.401,10.212,41.538,32.712,54.839,38.691c-2.97-22.647-14.08-70.022-21.507-91.648
		C1385.829,1407.797,1363.876,1400.566,1326.238,1400.336L1326.238,1400.336z M1217.232,1198.429
		c148.494-7.147,172.518,6.881,309.46,44.522c46.659,12.826,94.696,23.438,141.923,37.024c28.82,8.287,89.21,63.398,101.555,84.501
		c-25.321-3.023-84.789-5.143-100.654-15.452l-20.142-20.597c16.93-14.97,27.489-10.85,40.291-23.375l-233.996-57.594
		c-31.669-7.646-89.248-25.254-119.876-25.258C1283.367,1222.19,1250.439,1234.239,1217.232,1198.429L1217.232,1198.429z
		 M839.238,1205.034c0.729-0.854,1.742-1.886,2.328-2.437c22.112-20.845,22.653-8.211,57.289-42.1l153.661-147.662l-16.867-24.621
		c-44.746,30.871-229.569,185.234-281.378,226.361c-23.65,18.771-72.366,63.13-95.196,72.867c7.656,5.676,2.768,5.54,15.675,4.135
		l323.001-102.249c7.982-2.451,15.583-4.783,23.985-7.423c8.206-2.576,20.437-5.686,22.518-11.184L839.238,1205.034
		L839.238,1205.034z M533.009,1245.649c-7.303-8.897-8.168-28.183-9.808-41.901c6.915-9.656,188.609-116.564,206.324-122.737
		c-46.226,42.968-120.389,100.216-171.742,143.578C550.007,1231.154,540.242,1240.512,533.009,1245.649L533.009,1245.649z
		 M499.079,1052.481l420.989-199.899c-4.504,6.432-0.695,1.719-6.268,6.858c-0.966,0.885-5.357,4.323-6.84,5.393l-398.227,252.009
		L499.079,1052.481L499.079,1052.481z M1419.559,1085.786c-10.431-15.546-45.545-31.764-66.232-43.798
		c-19.872-11.561-51.549-34.435-71.019-38.806c9.626-26.754,23.11-19.729,35.737-69.677c-28.163,10.992-4.518,4.218-26.363,27.593
		c-46.792,50.071-170.623,63.28-213.545-29.598l-18.345-34.246c-1.256,3.971-4.341-0.555-2.225,26.036
		c6.046,75.945,70.224,116.65,141.882,110.521c24.718-2.116,36.651-12.896,58.848-6.104c15.493,4.734,36.609,13.603,51.231,19.007
		C1343.578,1059.294,1384.741,1076.732,1419.559,1085.786L1419.559,1085.786z M1365.34,872.213l-32.484-43.6
		c-16.375-22.549-24.004-21.618-61.191-24.191c26.397,39.419,12.791,37.962,28.727,52.764
		C1310.846,866.907,1350.168,872.673,1365.34,872.213L1365.34,872.213z M892.96,309.364l58.021-2.104l-43.759,35.517l-44.95,2.104
		L892.96,309.364L892.96,309.364z M861.573,155.31c16.651,40.974,13.85,96.145-0.013,135.615l57.529-3.215
		c-8.302-13.874-13.769-26.621-8.121-46.807c17.801-2.438,25.855,3.643,37.583,8.198l-0.528-48.722
		c-14.083,6.91-15.646,13.97-38.227,11.18l-0.777-30.846c36.058-11.146,46.191-1.25,67.066,8.865l0.331-37.818L861.573,155.31
		L861.573,155.31z M1006.769,273.129c11.847,16.834,22.306,12.946,44.318,13.641c88.362,2.787,58.423,6.88,76.213-46.884
		l-41.017-2.083l-4.221,22.614c-24.346,4.023-39.995,7.311-40.709-18.721c-0.5-18.117-0.75-47.408,2.227-62.509l37.248-0.024
		l2.967,25.005l43.403,2.379c-7.823-18.093-3.454-29.912-12.261-48.002c-19.438-5.969-95.607-15.361-106.834,0.74
		C1000.789,169.77,1002.101,260.071,1006.769,273.129L1006.769,273.129z M413.026,465.035l-0.788,50.595
		c28.561-15.826-3.906-16.682,79.913-33.618l-0.193,145.682c-48.191,22.479-66.304,10.345-47.603-36.925l-65.289,8.023
		c14.791,51.179-4.21,82.479,44.756,79.696c158.5-9.001,115.859-65.592,119.788-199.619c0.87-29.745,7.367-30.388,15.301-49.671
		L413.026,465.035L413.026,465.035z M699.148,388.965c22.523,35.076,14.758,55.349,14.804,117.361
		c0.013,17.62,4.619,47.959-5.656,58.399c-9.185,9.33-40.668,16.504-50.026,11.582c-9.045-7.89-4.602-81.338-4.612-93.357
		c-0.039-43.537-3.654-52.891,14.971-84.929l-82.519,21.957c18.457,39.553,14.961,1.975,14.967,94.142
		c0.002,30.543-3.04,82.042,4.161,107.076c27.801,9.061,57.047-6.435,86.633-14.441c87.202-23.609,75.516-7.997,75.499-139.389
		c-0.004-52.913-5.37-51.835,14.955-92.688L699.148,388.965L699.148,388.965z M873.662,493.466
		c4.187-23.063,14.583-79.947,25.622-95.943c4.736,7.487,27.897,82.574,21.907,94.079L873.662,493.466L873.662,493.466z
		 M854.318,366.393c-26.212,74.588-29.924,157.78-64.367,221.007l79.457-8.045c-5.739-15.813-12.491-20.583-6.912-44.028
		c16.573-5.4,56.939-7.759,73.601-4.06c5.006,23.105-0.95,29.217-7.848,43.957l80.183-0.723
		c-5.442-13.535-13.478-18.125-20.343-43.964c-4.918-18.507-9.611-36.54-14.565-55.991c-9.489-37.219-18.839-74.286-28.66-111.704
		L854.318,366.393L854.318,366.393z M1099.869,398.586c18.639,1.146,49.531-1.256,59.455,11.787
		c7.214,9.245,6.291,39.024,1.04,48.848c-8.96,11.048-45.768,3.891-59.859,0.363L1099.869,398.586L1099.869,398.586z
		 M1046.979,408.92v120.782c0,27.897-6.013,29.079-15.009,45.83l82.893,3.389c-20.474-37.905-13.721-26.56-15.038-83.408
		l34.704,2.392c4.526,14.827,11.081,25.661,17.035,40.583c11.997,30.061,1.151,27.043-4.818,43.286l86.475,9.845
		c-17.574-28.916-30.337-47.832-45.504-89.189c36.08-17.09,29.251-8.53,29.345-89.613c0.035-42.287-31.381-41.678-70.966-45.214
		c-36.887-3.292-77.521-6.158-114.533-6.076C1039.603,378.771,1046.979,381.055,1046.979,408.92L1046.979,408.92z M1271.671,432.298
		c-0.074,34.272,7.346,129.521-9.49,156.221l-4.716,7.419c15.471,6.402,158.691,45.865,165.789,45.231l0.488-51.439
		c-34.637,14.481-57.869,3.445-98.568-10.589l-0.982-53.903c11.41,1.028,20.841,2.965,30.463,8.56l17.362,14.697
		c6.195,5.261-0.621,0.994,7.868,5.995l0.372-67.704c-25.619,7.021-26.052,10.743-55.654,0.408l0.191-51.845
		c64.124,2.569,93.544,41.588,94.838,42.228l0.37-51.737c-36.311-14.43-122.475-37.043-162.434-42.125
		C1262.954,397.781,1271.712,410.51,1271.671,432.298z"/>
	<path fill-rule="evenodd" clip-rule="evenodd" fill="#B80025" d="M430.373,381.648c10.218,4.306,147.718-37.037,172.628-43.558
		c61.349-16.058,126.514-26.798,186.508-41.987l-0.124-54.606c-42.484,5.526-142.042,48.614-181.861,66.422L430.373,381.648
		L430.373,381.648z M1138.262,1704.991c36.141-26.708,73.072-52.894,110.957-81.149c19.475-14.523,36.976-27.754,55.674-41.801
		c17.166-12.893,35.521-27.908,52.844-41.246l-34.679-20.761c-32.771,23.742-50.989,52.827-68.132,70.531L1138.262,1704.991
		L1138.262,1704.991z M1518.693,1421.85c44.894-33.643,42.666-21.454,51.869-74.289l-85.883-17.529
		c-8.902,26.827,0.151,30.882-19.541,49.914c-12.646,12.223-22.508,24.379-36.498,33.607c0.24,14.42,2.604,20.531,5.926,34.283
		c1.04,4.3,2.493,11.756,3.738,15.638l4.891,10.783c0.201-0.563,0.958,1.675,1.556,2.429L1518.693,1421.85L1518.693,1421.85z
		 M1611.171,1157.719c-16.926,7.823-22.775,21.511-44.32,27.789c-24.609,7.175-38.381-5.934-57.384-12.338l-5.032,30.373
		l92.446,24.313L1611.171,1157.719L1611.171,1157.719z M1640.303,1025.889l73.787-348.894
		c-27.272,10.699-66.407,38.165-94.471,54.777c-14.308,8.465-37.105,16.483-43.241,31.412c-3.12,7.593-9.51,54.832-11.274,66.344
		c-10.584,69.025-24.365,88.028,2.367,115.187c7.908,8.036,10.33,8.671,17.471,17.501l46.001,51.493
		c0.732,0.94,2.786,3.855,3.504,4.797C1637.949,1023.086,1637.535,1022.883,1640.303,1025.889L1640.303,1025.889z M1087.909,637.004
		c40.183,10.255,77.144,33.039,83.241,70.189c-20.472-13.694-21.528-14.907-50.871-24.306
		C1100.758,676.636,1092.314,661.063,1087.909,637.004L1087.909,637.004z M1069.718,658.281
		c-5.729-30.16-30.219-22.535-39.159-51.39c33.357,7.38,79.391,16.353,112.193,26.433c34.427,10.581,42.752,19.644,64.084,40.756
		c44.146,43.697,6.408,8.708,71.009,30.582c78.821,26.688,100.255,69.586,143.743,124.851c11.521,14.635,20.562,23.114,30.269,35.93
		c11.278,14.876,21.639,22.988,32.919,37.212c5.652,7.126,9.856,13.074,16.09,19.063l49.061,52.224
		c17.521,20.06,55.514,46.87,61.239,71.434c6.232,26.747-7.864,34.538-15.131,49.278c10.584,26.067,6.965,26.507-12.053,41.832
		c-11.999,9.675-22.588,18.962-43.899,17.993l9.024-38.276c-43.021-6.304-57.284-48.281-18.64-67.982l3.658,14.918
		c6.14,16.65,13.932,16.96,33.305,10.26c6.71-31.648-12.613-39.13-27.382-54.561c-14.062-14.697-27.434-30.194-42.052-43.693
		c-24.295-22.434-83.541-37.572-110.298-59.717c16.356-6.47,66.786,13.98,90.388,14.455c-20.879-29.808-16.291-19.251-33.221-37.875
		l-69.746-78.357c-65.514-83.218-153.034-98.798-260.611-62.23c6.659-21.42,18.279-20.443,38.34-34.699
		c-48.131-33.326-204.436-32.865-253.96-0.945c79.063-1.115,74.245,6.22,122.666,29.892
		c-83.228,6.498-107.234,24.289-167.086,58.729c-46.301,26.642-113.619,55.418-170.16,29.947l12.284-4.957
		c27.393-7.398,41.766-3.543,82.324-26.419c25.55-14.406,52.664-35.898,64.81-54.79c-65.242-7.681-144.357-8.103-167.81-59.138
		c83.779,23.055,112.512,22.776,197.852-1.823c29.016-8.364,61.553-19.795,91.508-25.583c64.454-12.449,76.277,0.098,95.099-0.927
		C1068.493,660.268,1066.165,659.944,1069.718,658.281L1069.718,658.281z M468.478,856.434
		c46.15-25.241,47.214-36.009,123.38-45.559c48.084-6.024,103.66-9.458,142.673-31.815c-6.8-5.55-19.885-8.109-31.775-14.008
		c-20.329-10.083-14.784-8.2-38.635-3.591c-28.852,5.578-56.919,7.632-86.158,11.822
		C513.395,782.54,487.245,803.722,468.478,856.434L468.478,856.434z M366.742,947.82c74.248-10.895,85.172-16.633,135.353-51.649
		c28.813-20.102,104.997-51.228,144.3-22.695C568.27,898.518,453.755,996.869,366.742,947.82L366.742,947.82z M389.648,992.435
		c-19.126-5.383-34.155-12.481-51.025-18.541c16.133,109.42,57.854,265.477,81.626,385.384c7.696,38.823,4.791,27.723,30.113,47.915
		l223.086,166.509c58.111,43.418,118.186,91.158,177.417,131.394c-25.269-22.611-39.529-37.425-67.762-69.582
		c-32.458-36.969-167.189-164.543-208.221-204.773c-18.009-17.665-60.18-51.131-65.006-74.837
		c-11.427-56.118-49.677-338.284-59.499-349.196C445.162,1000.906,408.942,997.866,389.648,992.435L389.648,992.435z M326.529,920.7
		c35.346-0.823,75.826-9.775,107.583-22.417l-18.449-118.732c-4.799-34.462-17.272-30.47-77.591-66.612
		c-19.338-11.592-42.676-27.667-63.173-36.003L326.529,920.7L326.529,920.7z M1199.362,296.651
		c61.048,11.167,124.502,24.545,183.799,40.817c43.38,11.904,138.155,42.794,175.981,45.683
		c-59.378-27.336-305.328-132.215-359.578-141.951L1199.362,296.651z"/>
	<path fill-rule="evenodd" clip-rule="evenodd" d="M1171.15,707.193c-6.098-37.15-43.059-59.934-83.241-70.189
		c4.405,24.059,12.849,39.632,32.37,45.883C1149.622,692.286,1150.679,693.499,1171.15,707.193z"/>
</g>
</svg>
