<?xml version="1.0" encoding="utf-8"?>
<!-- Generator: Adobe Illustrator 16.0.0, SVG Export Plug-In . SVG Version: 6.00 Build 0)  -->
<!DOCTYPE svg PUBLIC "-//W3C//DTD SVG 1.1//EN" "http://www.w3.org/Graphics/SVG/1.1/DTD/svg11.dtd">
<svg version="1.1" id="Capa_1" xmlns="http://www.w3.org/2000/svg" xmlns:xlink="http://www.w3.org/1999/xlink" x="0px" y="0px"
	 width="2000px" height="2000px" viewBox="0 0 2000 2000" enable-background="new 0 0 2000 2000" xml:space="preserve">
<path fill="#F4DE00" d="M1547.393,326.536l-1.236-0.638c-223.337-108.271-494.027-113.775-546.01-113.775
	c-4.16,0-6.781,0.053-7.537,0.053c-0.893,0-3.496-0.053-7.644-0.053c-51.996,0-322.687,5.504-546.144,113.828l-1.09,0.572
	c-16.725,8.576-27.546,26.443-27.546,45.587l0.132,28.716v981.729l0.2,23.372h0.253c1.781,64.997,11.486,106.875,33.223,143.861
	c30.83,52.341,84.753,87.066,164.865,106.091c22.681,5.384,46.426,9.586,69.532,13.653c11.248,1.98,22.866,4.015,34.14,6.182
	c31.88,6.156,64.599,13.867,97.239,22.96c5.554,1.542,11.165,3.085,16.802,4.613c39.804,10.876,80.952,22.096,111.808,42.131
	l0.893,0.559c11.766,6.833,22.958,13.469,24.94,14.823c5.663,3.856,10.382,5.689,13.28,6.515c4.84,1.567,9.906,2.367,15.051,2.367
	h0.026c5.132,0,10.184-0.8,14.929-2.314c2.994-0.878,7.726-2.711,13.389-6.567c1.967-1.354,13.161-7.99,25.033-14.876l0.866-0.545
	c30.802-19.996,71.974-31.242,111.78-42.105c5.611-1.515,11.191-3.058,16.75-4.6c32.626-9.093,65.329-16.804,97.212-22.96
	c11.327-2.167,22.932-4.201,34.166-6.182l0.198-0.04c22.962-4.041,46.68-8.229,69.331-13.613
	c80.115-19.024,134.038-53.75,164.881-106.117c21.752-36.973,31.456-78.838,33.211-143.835h0.479V400.906l0.105-28.902
	C1574.9,352.94,1564.079,335.099,1547.393,326.536"/>
<path fill="#3C7135" d="M1538.924,342.916l-0.559-0.306c-219.812-106.57-486.927-111.981-538.232-111.981
	c-4.771,0-7.405,0.053-7.511,0.053c-0.265,0-2.897-0.053-7.656-0.053c-51.306,0-318.421,5.411-538.354,112.034l-0.372,0.213
	c-10.876,5.384-17.894,16.817-17.894,29.154l0.105,28.796v981.809l0.187,2.818c0.213,73.944,8.88,117.324,30.91,154.789
	c28.172,47.848,78.371,79.794,153.435,97.609c22.228,5.304,45.758,9.438,68.627,13.454c11.327,1.994,23.051,4.068,34.298,6.222
	c32.346,6.235,65.544,14.093,98.646,23.292c5.505,1.557,11.063,3.058,16.67,4.586c41.135,11.235,83.678,22.84,117.021,44.472
	c0.212,0.146,21.964,12.763,26.031,15.528c4.385,2.977,7.656,3.988,8.43,4.199c3.162,1.051,6.473,1.583,9.837,1.583h0.026
	c3.363,0,6.647-0.532,9.691-1.543c0.892-0.251,4.146-1.263,8.548-4.239c2.366-1.623,11.727-7.207,25.671-15.315l0.559-0.334
	c33.146-21.511,75.688-33.115,116.873-44.363c5.558-1.516,11.115-3.017,16.62-4.573c33.103-9.199,66.287-17.057,98.646-23.292
	c11.274-2.153,23.011-4.228,34.431-6.235c22.737-4.002,46.267-8.137,68.508-13.44c75.077-17.815,125.263-49.762,153.435-97.609
	c21.814-37.118,30.525-80.073,30.908-152.795h0.176V400.854l0.105-28.85C1556.74,359.68,1549.719,348.26,1538.924,342.916"/>
<g>
	<defs>
		<path id="SVGID_1_" d="M448.792,347.05l-0.345,0.2c-9.041,4.44-15.289,13.853-15.289,24.754l0.107,28.822v981.702h0.198
			c0,72.057,7.484,116.514,30.231,155.188c29.742,50.519,82.746,79.288,150.375,95.348c33.278,7.911,69,13.149,102.744,19.637
			c34.14,6.581,67.431,14.584,99.016,23.373c46.799,13.042,96.519,24.687,134.809,49.521c0,0,22.069,12.815,26.322,15.715
			c4.256,2.898,7.153,3.589,7.153,3.589c2.66,0.903,5.505,1.383,8.43,1.383c2.924,0,5.77-0.479,8.429-1.383
			c0,0,2.898-0.69,7.151-3.589c4.256-2.899,26.324-15.715,26.324-15.715c38.301-24.835,88.01-36.479,134.822-49.521
			c31.572-8.789,64.863-16.792,99.029-23.373c33.717-6.487,69.453-11.726,102.714-19.637
			c67.632-16.06,120.636-44.829,150.388-95.348c22.737-38.675,30.234-83.132,30.234-155.188h0.186V400.826l0.105-28.822
			c0-10.901-6.248-20.314-15.289-24.754l-0.344-0.2c-230.996-111.98-515.634-111.728-541.797-111.475
			c-1.289,0.026-1.953,0.026-1.953,0.026s-2.634-0.053-7.59-0.053C936.76,235.548,668.527,240.521,448.792,347.05"/>
	</defs>
	<clipPath id="SVGID_2_">
		<use xlink:href="#SVGID_1_"  overflow="visible"/>
	</clipPath>
	
		<linearGradient id="SVGID_3_" gradientUnits="userSpaceOnUse" x1="577.9771" y1="1297.4033" x2="591.5938" y2="1297.4033" gradientTransform="matrix(87.7271 0 0 -87.7271 -50305.4883 114808.1875)">
		<stop  offset="0" style="stop-color:#38692F"/>
		<stop  offset="0.5276" style="stop-color:#83AF41"/>
		<stop  offset="1" style="stop-color:#35642D"/>
	</linearGradient>
	<rect x="433.158" y="235.069" clip-path="url(#SVGID_2_)" fill="url(#SVGID_3_)" width="1118.768" height="1511.213"/>
</g>
<path fill="#407936" d="M1269.31,808.44c-38.554,0-74.637,19.316-96.571,51.676l-0.373,0.505l-453.239,677.082
	c-3.71,5.331-5.664,11.646-5.664,18.279c0,14.971,10.435,28.012,24.835,31.029c25.552,5.014,50.519,9.972,75.205,15.356
	c12.484,2.712,25.859,5.251,40.032,7.896c37.543,7.112,80.139,15.155,111.01,28.278c2.552,1.076,5.476,2.578,8.563,4.16
	c6.912,3.537,14.063,7.193,19.594,7.433l0.201,0.013l0.226-0.013c5.531-0.239,12.668-3.896,19.581-7.433
	c3.1-1.582,6.023-3.084,8.578-4.16c30.868-13.123,73.438-21.166,111.007-28.266c14.173-2.658,27.548-5.197,40.019-7.909
	c25.764-5.598,52.727-10.915,78.837-16.048c31.242-6.154,63.601-12.51,94.526-19.502c42.09-9.52,71.019-20.634,94.39-49.337
	c32.438-39.937,35.019-90.203,35.019-151.798V808.44H1269.31z"/>
<g>
	<defs>
		<path id="SVGID_4_" d="M1467.214,813.358h-166.302h-31.603c-38.448,0-72.403,19.677-92.675,49.683l-0.36,0.491l-453.213,677.016
			c-3.02,4.36-4.762,9.691-4.762,15.421c0,12.923,8.975,23.719,20.913,26.218c25.38,4.985,50.668,9.998,75.288,15.382
			c46.809,10.157,109.229,18.307,151.905,36.428c8.267,3.523,19.835,10.928,26.496,11.233c6.698-0.306,18.254-7.71,26.521-11.233
			c42.665-18.121,105.083-26.271,151.879-36.428c56.582-12.324,116.568-22.707,173.336-35.55
			c41.132-9.293,69.159-19.955,91.704-47.661c29.967-36.866,33.902-82.12,33.902-148.674V813.358H1467.214z"/>
	</defs>
	<clipPath id="SVGID_5_">
		<use xlink:href="#SVGID_4_"  overflow="visible"/>
	</clipPath>
	
		<linearGradient id="SVGID_6_" gradientUnits="userSpaceOnUse" x1="576.9893" y1="1304.4043" x2="590.6044" y2="1304.4043" gradientTransform="matrix(0 61.2784 61.2784 0 -78837.5547 -34607.6406)">
		<stop  offset="0" style="stop-color:#FFFFFF"/>
		<stop  offset="1" style="stop-color:#F7F7F8"/>
	</linearGradient>
	<rect x="718.3" y="813.358" clip-path="url(#SVGID_5_)" fill="url(#SVGID_6_)" width="751.944" height="831.871"/>
</g>
<path fill="#407936" d="M1475.537,415.118l-0.122-0.12c-0.955-9.705-7.085-18.081-16.072-21.763
	c-5.396-2.912-10.795-4.772-11.78-5.118c-19.687-7.844-194.259-74.33-455.02-74.33c-260.748,0-435.32,66.486-455.022,74.33
	c-0.983,0.346-6.369,2.207-11.778,5.118c-8.988,3.683-15.104,12.059-16.061,21.763l-0.173,0.173v353.624h966.068V417.18
	L1475.537,415.118z"/>
<polygon fill="#CFB41C" points="786.395,1802.331 767.689,1752.212 749.225,1802.331 692.642,1803.742 737.551,1836.446 
	721.677,1887.59 767.716,1857.252 814.022,1887.605 797.897,1836.434 842.819,1803.742 "/>
<polygon fill="#CFB41C" points="1011.222,1845.951 992.543,1795.832 974.035,1845.951 917.482,1847.336 962.378,1880.064 
	946.491,1931.184 992.556,1900.872 1038.862,1931.184 1022.747,1880.052 1067.629,1847.336 "/>
<polygon fill="#CFB41C" points="561.584,1739.289 542.879,1689.183 524.413,1739.289 467.804,1740.698 512.74,1773.402 
	496.866,1824.508 542.905,1794.209 589.211,1824.508 573.096,1773.389 617.979,1740.698 "/>
<polygon fill="#CFB41C" points="1235.887,1802.331 1217.406,1752.225 1198.714,1802.331 1142.293,1803.742 1187.215,1836.434 
	1171.09,1887.605 1217.38,1857.252 1263.435,1887.59 1247.561,1836.446 1292.443,1803.742 "/>
<polygon fill="#CFB41C" points="1517.254,1740.685 1460.697,1739.289 1442.193,1689.169 1423.527,1739.289 1367.156,1740.685 
	1412.016,1773.389 1395.887,1824.508 1442.167,1794.223 1488.259,1824.508 1472.371,1773.402 "/>
<polygon fill="#F4DE00" points="767.716,1763.339 783.712,1806.2 831.158,1807.37 793.363,1834.918 807.057,1878.336 
	767.716,1852.573 728.576,1878.336 742.071,1834.918 704.29,1807.37 751.911,1806.2 "/>
<polygon fill="#F4DE00" points="992.556,1806.959 1008.522,1849.82 1055.985,1850.977 1018.2,1878.524 1031.894,1921.93 
	992.556,1896.206 953.403,1921.93 966.911,1878.524 929.113,1850.977 976.735,1849.82 "/>
<polygon fill="#F4DE00" points="542.905,1700.295 558.898,1743.158 606.348,1744.328 568.55,1771.86 582.243,1815.281 
	542.905,1789.53 503.779,1815.281 517.273,1771.86 479.463,1744.328 527.098,1743.158 "/>
<polygon fill="#F4DE00" points="1217.38,1763.339 1201.4,1806.2 1153.938,1807.37 1191.762,1834.918 1178.056,1878.336 
	1217.38,1852.573 1256.52,1878.336 1243.041,1834.918 1280.809,1807.37 1233.201,1806.2 "/>
<polygon fill="#F4DE00" points="1442.181,1700.295 1426.201,1743.158 1378.765,1744.328 1416.536,1771.86 1402.84,1815.281 
	1442.181,1789.53 1481.333,1815.281 1467.838,1771.86 1505.623,1744.328 1458.001,1743.158 "/>
<path fill="#407936" d="M684.16,1507.351h-23.199v-84.66h52.885v20.501H684.16v12.085h27.733v20.407H684.16V1507.351z
	 M666.743,1501.448h11.647v-31.668h27.733v-8.601h-27.733v-23.904h29.673v-8.694h-41.32V1501.448z"/>
<polygon fill="#FFFFFF" points="663.845,1425.629 710.948,1425.629 710.948,1440.24 681.262,1440.24 681.262,1458.241 
	708.995,1458.241 708.995,1472.731 681.262,1472.731 681.262,1504.387 663.845,1504.387 "/>
<path fill="#45803C" d="M789.042,1494.814c5.518-6.967,12.55-10.437,21.098-10.437c11.433,0,19.809,4.653,25.103,13.999
	c2.924,5.212,4.49,10.477,4.679,15.741h-14.334c-0.915-4.055-2.098-7.1-3.522-9.174c-2.564-3.642-6.341-5.49-11.38-5.49
	c-5.118,0-9.133,2.593-12.084,7.764c-2.95,5.172-4.44,12.498-4.44,21.963c0,9.492,1.556,16.565,4.679,21.285
	c3.126,4.732,7.074,7.072,11.886,7.072c4.92,0,8.67-2.034,11.248-6.049c1.437-2.194,2.633-5.451,3.562-9.825h14.281
	c-1.252,9.2-4.375,16.686-9.44,22.469s-11.539,8.668-19.436,8.668c-9.787,0-17.457-3.936-23.054-11.727
	c-5.61-7.816-8.416-18.545-8.416-32.186C779.469,1514.145,782.674,1502.791,789.042,1494.814"/>
<g>
	<defs>
		<path id="SVGID_7_" d="M1003.655,1308.277c0,111.263,88.782,201.786,197.934,201.786c109.147,0,197.956-90.523,197.956-201.786
			c0-111.289-88.809-201.812-197.956-201.812C1092.438,1106.466,1003.655,1196.988,1003.655,1308.277"/>
	</defs>
	<clipPath id="SVGID_8_">
		<use xlink:href="#SVGID_7_"  overflow="visible"/>
	</clipPath>
	
		<radialGradient id="SVGID_9_" cx="616.436" cy="1277.0801" r="13.6135" gradientTransform="matrix(14.5399 0 0 -14.8236 -7761.3325 20239.2148)" gradientUnits="userSpaceOnUse">
		<stop  offset="0" style="stop-color:#FFFFFF"/>
		<stop  offset="1" style="stop-color:#F4F5F6"/>
	</radialGradient>
	<rect x="1003.655" y="1106.466" clip-path="url(#SVGID_8_)" fill="url(#SVGID_9_)" width="395.89" height="403.598"/>
</g>
<path fill="#E0E1E4" d="M1201.589,1514.012c-111.253,0-201.786-92.305-201.786-205.748c0-113.442,90.533-205.747,201.786-205.747
	c111.274,0,201.81,92.305,201.81,205.747C1403.398,1421.707,1312.863,1514.012,1201.589,1514.012 M1201.589,1110.387
	c-107.01,0-194.077,88.782-194.077,197.877c0,109.109,87.067,197.864,194.077,197.864c107.019,0,194.101-88.755,194.101-197.864
	C1395.689,1199.169,1308.607,1110.387,1201.589,1110.387"/>
<g>
	<defs>
		<path id="SVGID_10_" d="M1076.273,1455.622c5.075-0.704,12.176-2.207,18.785-5.345c33.727,20.739,71.164,26.496,78.955,27.52
			c7.34,12.67,17.629,20.78,25.553,25.565C1152.477,1502.857,1109.429,1484.937,1076.273,1455.622 M1305.978,1435.055
			c4.425-3.323,39.403-30.511,52.965-69.783c4.015-0.491,7.686-1.383,10.9-2.499c8.017-2.619,13.987-6.647,18.187-10.384
			c-12.443,54.721-47.542,100.681-94.631,127.043C1304.646,1458.573,1305.842,1439.734,1305.978,1435.055 M1095.336,1445.371
			c-4.146-7.924-17.018-34.658-22.998-72.282c4.371-4.534,26.547-27.174,57.379-51.185c32.188,16.047,70.074,24.781,76.683,26.243
			c1.808,7.845,9.863,41.28,23.679,78.997c-24.928,26.749-48.791,42.716-54.643,46.438
			C1170.69,1473.024,1130.54,1467.733,1095.336,1445.371 M1234.212,1426.002c-14.651-39.885-22.786-75.022-23.93-79.967
			c27.108-34.42,43.818-61.768,47.036-67.191c5.505,0.426,45.801,3.802,74.621,9.412c12.352,23.691,21.418,65.369,23.335,74.477
			c-12.593,37.744-46.931,65.063-51.666,68.707c-3.109,0.065-6.126,0.093-9.024,0.093
			C1258.115,1431.532,1239.185,1427.317,1234.212,1426.002 M1011.74,1332.859c-1.011-8.043-1.543-16.26-1.543-24.582
			c0-18.705,2.607-36.772,7.445-53.883c22.402-28.53,47.849-46.863,52.924-50.373c5.387,3.044,34.979,19.915,55.479,33.582
			c-3.773,42.609,0.162,74.369,1.091,80.857c-29.954,23.306-51.848,45.401-57.326,51.052
			C1064.705,1367.239,1033.186,1352.762,1011.74,1332.859 M1257.144,1274.47c-21.362-37.093-42.529-60.491-46.518-64.798
			c9.774-27.201,20.407-51.69,22.575-56.636c7.593-0.399,35.498-0.958,62.777,9.466c10.184,8.574,38.607,34.673,55.238,72.004
			c-4.239,21.604-16.151,44.059-19.076,49.376C1301.854,1278.02,1259.579,1274.655,1257.144,1274.47 M1354.224,1230.756
			c-17.804-38.554-47.556-65.036-56.715-72.574c0.093-0.705,1.447-10.969-0.014-18.72c42.117,24.981,74.076,65.836,87.931,114.493
			C1372.477,1240.422,1356.841,1232.113,1354.224,1230.756 M1073.666,1200.804c3.883-23.837,22.813-55.186,23.16-55.731
			c20.804-13.919,44.402-23.85,69.77-28.649c0.611,0.133,31.615,6.621,62.656,34.979c-2.326,5.304-13.002,29.926-22.773,57.167
			c-45.705,8.003-72.535,22.281-78.066,25.445C1108.844,1220.945,1081.084,1205.019,1073.666,1200.804 M1003.655,1308.277
			c0,111.263,88.782,201.786,197.934,201.786c109.147,0,197.956-90.523,197.956-201.786c0-111.289-88.809-201.812-197.956-201.812
			C1092.438,1106.466,1003.655,1196.988,1003.655,1308.277"/>
	</defs>
	<clipPath id="SVGID_11_">
		<use xlink:href="#SVGID_10_"  overflow="visible"/>
	</clipPath>
	
		<radialGradient id="SVGID_12_" cx="611.9458" cy="1284.1377" r="13.6149" gradientTransform="matrix(15.7642 0 0 -16.0718 -8474.1396 21851.7168)" gradientUnits="userSpaceOnUse">
		<stop  offset="0" style="stop-color:#6B6B6F"/>
		<stop  offset="1" style="stop-color:#211915"/>
	</radialGradient>
	<rect x="1003.655" y="1106.466" clip-path="url(#SVGID_11_)" fill="url(#SVGID_12_)" width="395.89" height="403.598"/>
</g>
<g>
	<defs>
		<path id="SVGID_13_" d="M728.246,1163.619c-3.737-2.313-3.06-12.803,1.82-27.042c3.311-9.704,6.503-14.013,10.356-14.013
			c1.728,0,3.75,0.799,6.037,2.394c-0.105,3.722-0.905,6.754-1.754,9.944c-1.011,3.803-2.049,7.737-1.943,12.922l0.083,3.776
			l3.588-0.984c3.298-0.93,5.33-2.951,7.124-4.759c1.943-1.941,3.364-3.351,6.183-3.563c1.063,0.545,1.741,1.091,1.93,1.569
			c0.356,0.983-0.704,3.297-1.702,5.504c-0.799,1.729-1.701,3.709-2.392,5.902c-0.958,3.111-1.305,6.183-1.596,8.881
			c-0.347,3.111-0.664,5.85-1.781,7.205l-0.479,0.188c-1.358,0.479-2.634,0.916-3.403,0.916c-0.281,0-0.638,0-1.279-1.023
			c-1.966-3.177-1.808-7.657-1.408-13.161l0.264-3.496l-3.43,0.332c-4.507,0.452-6.899,3.098-8.852,5.225
			c-1.834,2.034-3.06,3.391-5.892,3.391C729.257,1163.726,728.751,1163.698,728.246,1163.619 M817.24,1187.363
			c1.117-1.17,2.059-2.181,2.766-2.766c1.676-1.489,3.202-2.738,4.6-3.883c4.441-3.642,7.95-6.54,11.578-12.735l0.334-0.558
			l0.053-0.666c0.796-7.896,0.317-14.185-0.132-19.755c-0.506-6.701-0.905-12.005,0.941-17.975
			c1.557-5.012,7.62-11.247,12.778-15.422c2.019-1.595,4.467-2.925,6.807-4.201c4.306-2.313,8.76-4.733,10.581-9.081
			c4.256-10.183-2.313-40.721-2.577-42.023c-0.453-1.994-1.196-3.829-1.94-5.597c-1.464-3.523-2.343-5.916-1.464-8.362
			c0.783-0.333,1.464-0.506,2.019-0.506c2.181,0,3.539,3.351,5.492,8.828c1.53,4.334,3.258,9.252,6.476,12.908
			c3.281,3.789,6.685,5.159,9.679,6.382c2.366,0.958,4.278,1.729,5.875,3.604c-4.2,19.063-11.539,34.698-18.266,47.567
			c-1.424,0.744-3.02,1.356-4.679,1.994c-3.033,1.171-6.143,2.394-8.71,4.414l-0.862,0.691l-0.228,1.09
			c-1.315,6.914-1.13,13.588-0.968,20.063c0.159,6.979,0.331,13.573-1.622,18.691c-0.773,1.98-2.462,4.693-4.098,7.299
			c-0.757,1.196-1.487,2.381-2.125,3.483c-2.819,4.84-5.918,10.063-9.014,15.288c-3.298,5.585-6.622,11.194-9.625,16.393
			c-5.492,1.423-11.116,2.287-16.564,3.151c-5.36,0.851-10.931,1.701-16.194,3.084c-3.962,1.011-7.604,2.632-11.143,4.229
			c-5.703,2.524-11.165,4.853-16.511,4.174c-2.181-1.529-2.181-4.8-1.887-9.838c0.092-1.728,0.198-3.51,0.119-5.212
			c-0.65-13.32-1.341-30.364-0.955-45.095c4.134-3.178,8.36-6.089,12.428-8.907c12.989-9.015,25.235-17.523,34.86-33.104
			c1.648-2.646,2.766-5.664,3.856-8.589c1.408-3.882,2.872-7.844,4.679-7.844c0.132,0,0.277,0,0.452,0.026
			c1.461,0.253,1.729,0.864,1.86,1.117c0.783,1.755,0,6.727-4.784,15.036c-6.41,11.127-11.78,17.349-18.587,25.22
			c-2.115,2.459-4.349,5.052-6.807,8.029c-0.4,0.479-0.905,1.064-1.49,1.756c-5.545,6.461-10.954,13.188-11.112,17.801
			c-0.215,5.863,9.226,20.115,16.363,20.807c0.281,0.026,0.572,0.039,0.866,0.039C806.551,1198.41,812.773,1192.016,817.24,1187.363
			 M769.034,1074.744c-3.205-0.506-5.026-2.153-5.505-5.065c-0.85-4.759,2.353-12.337,8.271-15.607
			c4.226-2.34,8.399-3.323,12.854-4.334c2.462-0.585,4.986-1.171,7.699-1.994c2.26-0.704,4.705-1.569,7.058-2.42
			c4.695-1.688,9.56-3.456,13.614-4.015c0.694-0.107,1.824-0.24,3.152-0.24c5.558,0,8.614,1.756,9.146,5.252
			c0.704,4.374-7.325,13.654-10.342,17.164l-0.866,0.997c-3.549,4.108-11.846,13.706-15.46,13.972
			c-2.445,0.16-3.615-0.851-5.584-2.897c-1.715-1.756-3.869-3.962-7.523-4.574c-0.691-0.105-1.398-0.159-2.102-0.159
			c-3.338,0-6.156,1.25-8.641,2.354c-1.956,0.863-3.628,1.608-5.158,1.608C769.431,1074.784,769.232,1074.771,769.034,1074.744
			 M667.754,1084.224c-2.045-0.744-8.241-4.653-11.06-6.993c-7.445-6.222-24.61-32.106-25.674-46.146
			c4.88,3.124,7.871,6.979,11.023,11.048c3.628,4.653,7.392,9.479,14.066,13.72c4.97,3.111,15.289,7.02,23.57,10.13l3.522,1.357
			c1.463,0.558,3.033,1.089,4.629,1.647c7.392,2.58,15.765,5.478,15.5,10.37c-0.185,3.855-9.001,6.661-20.953,6.661
			C676.583,1086.019,670.867,1085.287,667.754,1084.224 M725.322,1023.893c-2.501-3.244-3.324-6.528-2.501-10.078
			c0.439-1.954,3.06-4.4,6.648-5.211l0,0c4.52,0,5.769,1.861,8.029,5.238c2.128,3.138,4.748,7.059,10.769,9.492
			c3.922,1.622,7.95,1.889,11.195,2.087c5.849,0.386,6.86,0.812,7.18,3.099c0.186,1.289-0.162,2.499-1.037,3.709
			c-1.504,2.087-4.468,3.709-7.501,4.16c-0.902,0.133-1.913,0.213-2.99,0.213C745.527,1036.602,731.421,1031.724,725.322,1023.893
			 M790.146,1018.946c-6.434-3.536-14.969-11.806-17.856-17.934c0.76-0.134,1.718-0.227,2.888-0.227
			c9.011,0,24.009,4.88,29.857,11.128c0.905,0.997,1.996,2.459,1.917,3.882c-0.228,4.826-7.95,4.959-8.855,4.959
			C795.171,1020.755,792.194,1020.09,790.146,1018.946 M851.143,1006.011c-0.734-1.023-1.517-2.06-2.33-3.124
			c-0.462-0.598-0.994-1.263-1.579-1.98c-3.192-3.962-9.133-11.327-8.829-15.595c0.225-2.925,2.687-5.424,5.637-5.717
			c0.211-0.013,0.4-0.026,0.584-0.026c4.028,0,8.803,3.921,12.765,10.477c5.132,8.508,7.339,18.691,5.542,24.78
			C857.255,1014.373,854.784,1010.97,851.143,1006.011 M865.804,982.24c-0.704-3.656,1.345-4.973,2.927-5.637
			c0.651-0.279,1.315-0.438,1.926-0.438c3.668,0,6.675,5.092,7.339,9.785c0.387,2.645,0.08,5.969-2.022,6.607
			c-0.185,0.041-0.37,0.067-0.598,0.067C872.227,992.624,866.814,987.398,865.804,982.24 M798.521,968.773
			c-1.622-2.832-2.035-5.345-1.223-7.525c1.104-0.346,2.125-0.545,3.057-0.545c4.758,0,7.844,5.105,11.433,11.021l1.13,1.834
			c0.717,1.197,1.557,2.354,2.34,3.457c1.397,1.94,2.805,3.935,3.152,5.371C812.693,982.121,802.615,975.938,798.521,968.773
			 M635.567,946.198c3.658-8.601,12.566-14.624,22.096-14.624c2.462,0,4.933,0.399,7.365,1.17c4.573,1.463,9.427,5.783,13.108,9.267
			c-1.074,1.21-4.028,1.742-7.669,2.261c-1.144,0.159-2.26,0.332-3.271,0.518c-0.958,0.187-1.913,0.399-2.951,0.599
			c-5.479,1.09-12.312,2.446-18.586,2.446C641.631,947.834,638.307,947.289,635.567,946.198 M895.757,927.214
			c4.468-1.011,6.274-3.643,7.009-5.649c2.484-6.781-3.404-16.354-7.141-21.445c-5.026-6.886-11.578-15.235-17.404-18.586
			c-3.122-1.781-6.446-2.579-9.371-3.297c-3.988-0.957-7.207-1.728-9.308-4.4c0.373-10.356,5.052-11.766,9.612-11.766
			c1.529,0,3.297,0.212,5.197,0.611c5.241,1.156,13.974,9.665,19.185,14.744c0.866,0.864,1.662,1.635,2.383,2.299
			c0.571,0.559,1.249,1.197,1.966,1.862c4.811,4.467,13.746,12.776,15.606,18.44c1.942,5.863,0.772,11.632-0.45,17.748
			c-0.958,4.839-1.955,9.837-1.516,15.208c0.373,4.933,2.365,9.506,4.295,13.96c1.82,4.201,3.549,8.163,3.949,12.257
			c0.185,1.941,0.053,3.936-0.109,6.036c-0.186,2.686-0.396,5.477,0.162,8.269c1.622,8.402,7.07,14.345,11.872,19.583
			c3.575,3.882,6.926,7.538,8.399,11.686c2.115,5.996,4.828,16.632,0.519,23.054c-3.509-0.719-6.183-4.335-9.001-8.137
			c-0.703-0.971-1.42-1.915-2.138-2.818c-3.724-4.68-7.686-9.2-11.542-13.601l-0.449-0.532c-0.984-1.116-1.996-2.233-2.994-3.363
			c-9.902-11.114-20.139-22.641-19.224-40.309l0.079-1.356l-0.941-0.93c-1.729-1.675-3.073-3.43-4.521-5.291
			c-4.296-5.61-8.75-11.407-21.858-13.269c-16.432-2.326-24.98-7.551-26.907-16.405c-1.956-8.908,0.053-17.389,2.897-21.883
			c1.249-1.994,2.713-3.297,4.068-3.563c0.704-0.172,1.438-0.24,2.154-0.24c6.434,0,12.871,6.01,18.56,11.327
			c0.81,0.771,1.609,1.516,2.393,2.221c1.117,1.037,2.591,2.672,4.16,4.427c5.307,5.916,11.938,13.295,18.547,13.295
			C894.508,927.4,895.158,927.333,895.757,927.214 M797.511,856.193c4.146-0.744,7.523-3.283,10.501-5.516
			c2.778-2.061,5.399-4.029,7.953-4.029c1.328,0,2.683,0.506,4.173,1.569c3.189,2.234,4.811,11.061,3.403,18.493
			c-1.807,9.213-13.227,19.17-23.107,20.114c-0.559,0.027-1.13,0.067-1.715,0.067c-12.352,0-25.856-10.835-27.24-21.843
			c-0.744-5.77-0.08-10.024,1.926-12.364c1.398-1.622,3.553-2.433,6.397-2.433c4.521,0,10.369,2.047,15.659,5.503l0.932,0.612
			L797.511,856.193z M835.933,816.018l-1.755,0.984c-1.969,1.09-3.935,2.419-5.865,3.709c-3.856,2.592-7.831,5.305-11.073,5.305
			c-1.754-0.054-4.216-1.755-6.78-3.536c-1.808-1.276-3.671-2.58-5.717-3.63c-7.817-4.056-13.028-6.222-16.379-6.82
			c-2.766-0.492-6.143-0.718-10.61-0.718c-3.776,0-7.831,0.159-12.123,0.319c-4.547,0.186-9.269,0.373-13.895,0.373h-0.014
			c-0.796,0-1.556,0-2.326-0.026c-4.239-0.054-8.521-0.266-12.668-0.439c-4.92-0.226-9.573-0.452-14-0.452
			c-14.572,0-29.58,2.327-30.376,19.624l-0.069,1.369l1.011,0.944c4.801,4.427,10.861,4.667,16.234,4.879
			c3.403,0.106,6.648,0.239,9.45,1.304c9.387,3.589,18.177,14.211,16.687,25.445c-1.53,1.01-3.1,1.476-4.946,1.476
			c-1.715,0-3.563-0.385-5.505-0.784c-2.177-0.479-4.464-0.958-7.005-1.01h-1.104c-6.407,0-14.516,0.877-23.107,1.781
			c-3.347,0.373-6.725,0.745-10.048,1.051c-5.373,0.505-10.795,0.625-16.049,0.731c-6.552,0.133-12.748,0.279-18.064,1.169
			c-12.087,1.968-24.755,16.406-30.34,24.595c-1.728,2.525-3.109,5.424-4.415,8.229c-2.019,4.32-3.975,8.415-6.913,10.756
			c-1.077,0.851-3.109,1.475-5.264,2.1c-1.956,0.599-4.163,1.237-6.143,2.26c-10.769,5.397-21.537,11.806-31.987,18.001
			c-8.322,4.972-16.219,9.625-24.023,13.813l-2.911,1.555c-12.231,6.448-24.849,13.148-31.295,24.861
			c-2.647,4.825-7.073,20.846-3.245,28.637c1.33,2.711,3.496,4.334,6.301,4.732c6.235,0.811,9.691-4.573,12.685-9.253
			c2.085-3.337,4.094-6.488,6.407-6.541c-1.223,5.371-4.067,10.542-7.046,15.98c-5.611,10.236-11.993,21.829-8.986,37.623
			c1.513,7.991,8.641,17.336,11.604,20.979c4.081,4.959,11.129,11.246,18.692,13.959l1.422,0.531l1.224-0.916
			c2.032-1.503,3.563-3.151,5.024-4.747c1.955-2.153,3.643-4.015,6.355-5.211c0.73-0.319,2.155-0.585,3.655-0.864
			c2.3-0.412,4.88-0.891,7.313-1.928c4.959-2.101,9.001-5.518,12.91-8.814c4.613-3.869,8.935-7.538,13.667-7.804
			c7.564-0.452,13.64,6.461,16.697,12.922c4.097,8.655,4.15,18.307,0.135,23.452c-4.124,5.237-22.429,14.132-31.057,14.132
			c-0.865,0-1.381-0.093-1.662-0.173c-2.739-0.798-3.152-2.167-3.87-5.425c-0.743-3.403-1.781-8.069-7.816-10.396
			c-0.705-0.267-1.409-0.426-2.126-0.426c-4.017,0-5.664,4.095-6.995,7.365c-0.611,1.516-1.487,3.763-2.26,4.321
			c-1.249,0.411-2.777,0.624-4.358,0.891c-3.909,0.585-8.324,1.276-10.636,4.892l-0.413,0.652l-0.04,0.811
			c-0.466,9.466,2.792,18.373,6.235,27.786c0.717,1.968,1.451,3.988,2.167,6.035c0.532,1.542,1.064,3.536,1.623,5.663
			c2.405,9.174,6.009,23.014,17.522,23.426h0.425c5.622,0,9.892-3.802,14.025-7.498c2.062-1.821,4.19-3.723,6.368-5.025
			c7.325-4.414,19.413-9.705,34.143-8.961c7.775,0.373,14.981,2.979,22.611,5.743c5.865,2.101,11.912,4.308,18.309,5.425
			c8.72,1.556,17.549,1.888,23.503,1.914c1.794,0,3.522-0.306,5.171-0.559c1.503-0.238,2.924-0.479,4.243-0.479
			c1.623,0,3.377,0.293,5.277,2.154c-9.718,15.793-28.13,25.167-44.443,33.476l-1.877,0.957c-1.074,0.532-2.164,1.063-3.281,1.596
			c-5.638,2.686-12.021,5.717-15.369,11.739l-1.226,2.141l1.89,1.595c1.143,0.957,2.233,4.547,3.096,7.419
			c1.847,6.168,4.164,13.839,11.05,13.839c0.264,0,0.532-0.013,0.81-0.039c3.896-0.346,5.971-4.202,7.778-7.605
			c1.315-2.459,2.818-5.251,4.332-5.503c3.459-0.532,8.908,2.765,13.296,5.317c1.848,1.091,3.602,2.114,5.185,2.871
			c1.464,0.691,2.819,1.409,4.121,2.075c5.241,2.711,10.224,5.304,18.986,5.676l2.26,0.094l0.638-2.207
			c1.543-5.199,2.26-11.926,3.03-19.038c1.517-14.198,3.245-30.285,11.978-30.285c0.149,0,0.308,0,0.439,0.013
			c6.063,0.293,6.622,7.033,6.873,18.121c0.053,3.138,0.119,6.355,0.479,9.2l0.066,0.611l0.294,0.532
			c2.006,3.456,5.237,5.49,8.347,7.445c3.417,2.127,6.622,4.147,7.95,7.922c2.048,5.917,1.811,13.27,1.543,21.047
			c-0.159,4.373-0.317,8.907-0.013,13.214c-2.006,1.543-4.547,2.194-8.403,2.194c-1.368,0-2.766-0.08-4.16-0.146
			c-2.66-0.146-5.399-0.239-7.629-0.027c-11.647,1.171-32.508,4.375-41.162,12.989c-8.535,8.482-8.029,18.813-7.471,30.751
			c0.238,5.051,0.506,10.756,0.172,17.004l-0.119,1.861l1.623,0.891c1.46,0.811,2.924,1.223,4.467,1.223
			c1.754,0,3.308-0.545,4.679-1.01c1.341-0.479,2.604-0.904,4.094-0.864c2.022,1.436,3.75,3.164,5.452,4.839
			c3.787,3.723,7.708,7.578,14.489,8.296c1.077,0.133,2.141,0.187,3.165,0.187c11.139,0,16.538-6.9,21.27-13.016
			c2.845-3.67,5.531-7.126,9.229-8.934c4.173-2.048,7.841-2.846,11.433-3.604c4.292-0.943,8.747-1.914,13.587-4.959l0.532-0.332
			l0.344-0.545c1.863-2.819,3.645-4.161,5.69-5.757c2.181-1.688,4.643-3.563,7.154-7.299c1.368-2.034,2.233-4.507,3.083-6.873
			c1.596-4.468,2.752-7.206,5.24-7.804c2.393-0.559,5.022,1.063,7.854,2.871c2.845,1.795,6.05,3.816,9.721,3.816
			c0.489,0,0.981-0.041,1.474-0.107c7.14-1.063,11.208-10.051,15.144-18.758c1.913-4.229,3.909-8.603,5.967-11.341
			c3.245-4.254,7.461-7.777,11.555-11.194c5.316-4.413,10.795-8.987,14.344-15.314c3.869-6.914,7.062-15.662,9.48-26.031
			c1.038-4.494,0.638-9.546,0.238-14.426c-0.291-3.482-0.545-6.779-0.185-9.172c0.132-0.864,0.756-1.929,1.503-3.152
			c0.625-1.036,1.315-2.206,1.927-3.563c0.81-1.808,1.249-3.748,1.622-5.45c0.331-1.462,0.664-2.845,1.117-3.883
			c1.17-2.538,2.644-5.052,4.213-7.685c1.715-2.871,3.482-5.849,4.96-9.133c0.984-2.166,2.154-4.467,3.298-6.714
			c2.127-4.135,4.146-8.029,5.131-11.473c0.929-3.324,1.408-6.448,1.834-9.213c1.012-6.888,1.596-8.137,4.041-8.31
			c2.287,0,4.652,3.044,4.973,5.038c0.758,4.44-2.339,10.384-5.052,15.608c-1.116,2.127-2.154,4.148-2.978,6.09
			c-0.852,1.913-1.78,3.828-2.686,5.676c-3.004,6.169-5.849,11.992-4.881,18.387l0.466,3.058l2.994-0.625
			c9.823-2.087,21.177-11.261,33.753-27.2c6.807-8.629,18.428-25.499,19.862-41.772c1.091-11.979-3.615-17.655-7.766-22.681
			c-2.805-3.403-5.475-6.607-6.592-11.846c2.498-1.395,6.274-0.398,10.448,0.838c3.219,0.971,6.859,2.061,10.663,2.061
			c2.554,0,4.88-0.479,7.114-1.476l0.81-0.358l0.479-0.744c8.109-12.883,9.573-32.254,10.98-50.999
			c0.105-1.489,0.228-3.004,0.347-4.493c1.781-0.372,4.147-0.107,6.648,0.213c1.701,0.212,3.47,0.438,5.237,0.438
			c2.181,0,4.067-0.359,5.743-1.077l0.664-0.279l0.453-0.545c4.946-6.142,3.72-15.143,2.418-24.675
			c-0.85-6.089-1.701-12.417-0.862-17.895c0.331-2.247,1.21-4.041,2.111-5.903c1.038-2.127,2.102-4.333,2.476-7.259l0.079-0.744
			l-0.255-0.705c-0.73-1.901-1.605-3.842-2.537-5.889c-2.313-5.079-4.706-10.316-4.745-15.169c1.979-0.399,4.521,0.013,6.899,0.438
			c1.728,0.319,3.509,0.651,5.264,0.651c3.096,0,5.531-1.037,7.392-3.19l0.822-0.918l-0.079-1.25
			c-0.492-7.512-6.381-13.294-12.044-17.96c-5.052-4.134-11.565-9.213-17.202-11.66c-5-2.18-10.795-2.393-16.379-2.579
			c-5.132-0.16-10.479-0.346-14.89-2.127c-4.282-1.729-15.887-11.433-16.498-14.265c-0.229-3.284,2.204-5.864,5.022-8.855
			c3.311-3.496,7.061-7.471,6.902-13.467c-0.426-15.741-20.09-22.827-33.928-22.827c-1.795,0-3.51,0.12-5.132,0.346
			c-6.995,0.997-12.286,3.949-17.443,6.807c-5.492,3.057-10.663,5.929-17.457,5.929c-1.447,0-2.911-0.119-4.414-0.385
			c-2.085-2.899-2.858-7.817-3.575-12.603c-1.091-6.861-2.181-13.96-7.247-17.881l-0.396-0.306l-0.493-0.146
			c-2.353-0.759-4.6-1.117-6.807-1.117C844.894,811.006,840.347,813.545,835.933,816.018"/>
	</defs>
	<clipPath id="SVGID_14_">
		<use xlink:href="#SVGID_13_"  overflow="visible"/>
	</clipPath>
	
		<linearGradient id="SVGID_15_" gradientUnits="userSpaceOnUse" x1="577.1499" y1="1295.1738" x2="590.7592" y2="1295.1738" gradientTransform="matrix(37.5296 0 0 -37.5296 -21158.2656 49683.1953)">
		<stop  offset="0" style="stop-color:#447D3C"/>
		<stop  offset="0.5276" style="stop-color:#658948"/>
		<stop  offset="1" style="stop-color:#3B7044"/>
	</linearGradient>
	<rect x="499.472" y="811.006" clip-path="url(#SVGID_14_)" fill="url(#SVGID_15_)" width="513.25" height="529.645"/>
</g>
<g>
	<defs>
		<path id="SVGID_16_" d="M727.341,1166.438c-8.043-3.775-3.03-21.977,0-30.817c3.75-11.114,9.387-22.042,21.99-12.164
			c0.264,9.611-3.882,14.744-3.681,24.315c6.007-1.688,7.005-8.441,14.688-8.415c8.271,3.629,2.475,8.867,0,16.817
			c-2.233,7.166-0.849,14.478-4.586,17.775c-4.094,1.396-6.833,2.832-9.16-0.944c-2.445-3.936-2.3-8.882-1.834-14.942
			c-7.154,0.691-7.193,8.601-15.011,8.601C729.016,1166.663,728.22,1166.597,727.341,1166.438 M818.103,1182.364
			c6.86-6.076,11.129-8.229,15.597-15.927c1.701-16.99-2.739-26.483,0.915-38.302c1.877-6.05,8.71-12.776,13.763-16.845
			c5.875-4.72,14.225-6.674,16.511-12.138c3.245-7.777-0.918-31.734-2.739-40.202c-1.249-5.65-5.875-10.889-2.766-16.845
			c11.978-6.143,10.531,12.522,18.332,21.51c5.773,6.647,12.14,4.733,16.501,11.222c-4.058,19.224-11.248,35.257-19.25,50.492
			c-4.335,2.42-9.972,3.563-13.762,6.541c-2.71,14.358,1.266,28.797-2.739,39.26c-1.249,3.23-4.346,7.67-6.434,11.233
			c-6.037,10.356-13.28,22.401-19.264,32.705c-11.433,3.138-23.133,3.762-33.915,6.567c-10.342,2.659-19.168,10.051-29.339,8.375
			c-5.838-3.217-3.377-11.539-3.671-17.734c-0.717-14.504-1.381-32.027-0.915-46.758c17.414-13.56,35.095-21.67,47.688-42.063
			c4.451-7.206,5.185-18.998,11.938-17.749c8.865,1.596,2.524,14.545-0.958,20.54c-8.535,14.864-15.263,21.139-25.658,33.676
			c-2.792,3.364-11.753,13.135-11.912,17.762c-0.175,4.68,8.347,17.243,13.746,17.761c0.198,0.014,0.4,0.027,0.585,0.027
			C806.868,1195.473,814.62,1185.422,818.103,1182.364 M768.581,1077.656c-13.002-1.995-8.842-20.262,1.834-26.178
			c6.926-3.842,13.455-4.188,21.098-6.554c6.674-2.062,14.638-5.638,21.101-6.541c4.121-0.585,14.278-0.824,15.58,7.472
			c0.958,6.168-8.215,16.272-11.912,20.579c-5.079,5.877-12.682,14.638-17.43,14.944c-7.164,0.478-7.722-6.502-13.746-7.473
			c-3.324-0.531-6.169,0.665-8.869,1.849c-2.23,0.997-4.358,1.98-6.592,1.98C769.298,1077.735,768.955,1077.709,768.581,1077.656
			 M666.81,1087.016c-2.525-0.904-9.081-5.133-11.952-7.498c-8.426-7.047-29.008-38.023-26.586-52.355h1.86
			c13.082,6.968,14.502,17.962,27.518,26.164c5.399,3.417,17.962,7.977,26.576,11.248c9.12,3.457,22.456,6.487,22.003,14.943
			c-0.347,6.966-12.629,9.438-23.851,9.438C676.131,1088.956,670.187,1088.186,666.81,1087.016 M719.988,1013.15
			c0.76-3.271,4.454-6.555,9.16-7.484c11.595-0.213,8.803,10.303,20.183,14.956c9.12,3.709,19-0.692,20.183,7.472
			c0.849,5.862-5.227,10.383-10.997,11.221c-1.051,0.146-2.194,0.213-3.403,0.213
			C740.716,1039.527,716.281,1029.211,719.988,1013.15 M788.764,1021.539c-7.619-4.188-18.639-14.957-20.183-22.428
			c9.015-4.958,41.853,5.558,41.268,16.858c-0.268,5.425-5.905,7.737-11.753,7.737
			C794.731,1023.706,791.262,1022.936,788.764,1021.539 M846.54,1004.722c-3.496-4.494-11.459-13.388-11.006-19.65
			c0.294-4.227,3.75-7.963,8.244-8.416c13.478-1.276,27.412,28.397,21.111,41.146c-0.228,0.027-0.453,0.027-0.665,0.027
			C854.704,1017.83,851.807,1011.502,846.54,1004.722 M867.627,973.864c11.38-4.826,18.345,18.719,9.172,21.511
			c-0.452,0.146-0.918,0.2-1.411,0.2C867.531,995.575,856.165,978.718,867.627,973.864 M795.171,958.908
			c10.515-4.453,15.008,4.653,20.192,13.095c2.819,4.614,7.594,9.147,5.505,13.083c-0.624,0.186-1.315,0.279-2.071,0.279
			C808.943,985.365,788.923,970.209,795.171,958.908 M631.952,947.701c3.79-12.724,18.359-22.774,33.942-17.775
			c5.862,1.875,11.727,7.511,15.58,11.221c-0.264,5.583-8.373,5.49-13.746,6.554c-6.129,1.17-14.331,3.071-22.069,3.071
			C640.672,950.772,635.875,949.987,631.952,947.701 M895.146,924.315c10.104-2.247,3.697-14.863-1.834-22.428
			c-4.854-6.634-11.208-14.717-16.512-17.775c-7.087-4.054-15.741-2.446-20.183-9.359c0.133-11.46,5.066-17.841,18.349-14.942
			c6.965,1.529,17.602,12.71,22.918,17.788c4.771,4.52,15.979,14.226,18.332,21.484c3.816,11.487-2.752,21.909-1.82,33.662
			c0.69,8.788,7.339,16.991,8.271,26.164c0.449,4.839-0.879,9.599,0,14.039c2.604,13.534,16.366,20.089,20.14,30.844
			c2.779,7.87,5.359,19.995-0.889,27.095c-6.781,0.053-10.663-7.1-14.678-12.151c-3.83-4.786-7.871-9.386-11.912-14.013
			c-11.063-12.63-24.052-25.074-22.948-45.813c-7.15-7.02-8.641-15.475-24.752-17.761c-14.572-2.061-26.751-6.807-29.355-18.692
			c-3.004-13.787,2.471-27.547,9.199-28.983c9.678-2.127,18.415,7.419,25.658,14.013c4.788,4.388,13.588,16.964,20.768,16.964
			C894.322,924.449,894.732,924.409,895.146,924.315 M821.787,845.771c4.798,3.377,6.007,14.065,4.573,21.511
			c-2.062,10.782-14.651,21.431-25.685,22.467c-13.67,1.223-30.34-10.742-32.095-24.315c-3.03-23.718,16.433-20.009,28.437-12.165
			C806.257,851.621,811.775,838.778,821.787,845.771 M835.56,819.607c-6.051,3.285-12.497,9.44-18.346,9.333
			c-4.19-0.053-8.644-4.813-13.775-7.472c-4.891-2.525-11.697-5.836-15.606-6.541c-5.663-1.01-13.772-0.664-22.548-0.319
			c-5.211,0.186-10.65,0.399-15.953,0.319c-26.405-0.398-53.074-5.823-54.082,15.9c6.728,6.235,16.723,2.553,24.739,5.624
			c10.809,4.122,20.9,16.618,18.336,29.9c-6.89,5.451-12.897,1.064-20.156,0.931c-8.842-0.146-21.775,1.648-33.942,2.818
			c-12.242,1.144-24.633,0.332-33.928,1.861c-10.646,1.754-22.747,15.01-28.424,23.371c-4.213,6.169-6.328,15.183-11.938,19.65
			c-2.7,2.127-7.884,2.632-11.912,4.653c-18.997,9.572-38.009,22.203-55.93,31.801c-13.189,7.046-26.509,13.415-33.024,25.233
			c-3.083,5.61-8.562,27.706,0.918,28.996c4.428,0.584,7.139-3.644,9.824-7.858c3.166-4.972,6.288-9.931,12.18-7.125
			c-2.142,17.442-21.086,30.949-16.485,55.173c1.196,6.342,6.673,14.385,10.98,19.623c4.388,5.344,11.115,10.821,17.417,13.081
			c4.494-3.271,6.447-7.816,11.938-10.263c2.339-1.024,7.139-1.171,10.994-2.818c10.597-4.468,17.575-16.207,27.534-16.818
			c17.242-1.023,29.233,28.371,19.251,41.146c-5.28,6.728-28.159,17.15-35.762,14.957c-8.988-2.593-2.766-12.351-11.94-15.9
			c-4.945-1.901-5.105,9.107-9.16,11.207c-4.546,1.596-11.314,0.918-13.748,4.693c-0.519,10.729,4.083,20.753,8.257,32.691
			c2.872,8.309,4.851,26.695,16.485,27.147c7.259,0.253,12.444-8.097,19.277-12.151c8.909-5.371,21.204-10.09,35.736-9.359
			c14.449,0.691,27.068,8.694,41.267,11.207c7.243,1.29,15.395,1.849,22.945,1.849c1.596,0.026,3.192-0.24,4.788-0.505
			c4.626-0.745,9.226-1.489,13.544,4.28c-10.158,18.294-30.737,28.291-48.59,37.384c-6.195,3.165-13.908,5.877-17.443,12.152
			c4.679,3.935,4.441,21.352,12.844,20.553c4.864-0.438,6.275-12.151,11.912-13.055c5.901-0.958,14.648,5.757,20.192,8.429
			c7.313,3.456,11.767,7.032,22.003,7.444c4.894-16.511,1.464-52.247,18.332-51.41c12.087,0.599,8.684,18.572,10.091,29.913
			c3.724,6.475,13.561,7.365,16.512,15.887c3.645,10.463,0.664,24.608,1.821,36.481c-4.319,4.36-9.982,4.041-15.699,3.762
			c-2.436-0.133-4.88-0.252-7.207-0.026c-13.561,1.315-32.039,4.8-39.443,12.151c-10.891,10.848-5.267,24.675-6.411,45.8
			c2.7,1.529,4.749,0.718,7.035-0.053c1.676-0.586,3.483-1.157,5.796-0.865c7.098,4.653,10.316,12.139,19.277,13.069
			c18.692,2.021,20.54-15.848,32.091-21.497c9.573-4.693,16.458-3.191,24.769-8.415c4.242-6.449,8.363-6.476,12.83-13.07
			c3.404-5.131,3.668-14.41,10.075-15.926c3.565-0.824,6.78,1.21,9.985,3.23c3.03,1.927,6.023,3.829,9.278,3.323
			c8.71-1.276,12.923-20.646,19.251-28.969c7.699-10.145,19.73-15.568,25.674-26.204c3.909-6.966,6.939-15.687,9.172-25.232
			c1.676-7.26-0.918-17.164,0-23.359c0.357-2.366,2.313-4.467,3.668-7.497c1.358-3.019,1.543-6.661,2.766-9.32
			c2.488-5.557,6.395-10.716,9.16-16.831c2.726-6.063,6.833-12.775,8.257-17.762c2.925-10.264,1.144-19.078,8.241-19.649
			c4.031-0.319,7.686,4.121,8.271,7.472c1.235,7.405-5.264,16.365-8.271,23.372c-3.522,8.243-8.439,15.209-7.336,22.415
			c10.954-2.313,22.972-14.559,32.092-26.164c9.265-11.726,18.055-26.669,19.25-40.176c1.755-19.225-12.443-19.464-14.65-35.537
			c4.176-3.882,9.295-2.233,14.836-0.572c4.894,1.463,10.145,2.912,15.411,0.572c8.601-13.667,9.345-35.324,11.02-56.076
			c3.03-1.383,6.394-0.971,9.758-0.52c3.271,0.412,6.542,0.852,9.493-0.425c7.059-8.748-1.249-26.842,0.919-41.12
			c0.81-5.411,3.975-8.203,4.586-13.095c-2.818-7.339-8.376-16.087-7.339-24.33c3.281-1.462,6.728-0.877,9.956-0.292
			c3.936,0.73,7.554,1.449,10.21-1.569c-0.423-6.487-6.047-11.832-10.993-15.887c-4.6-3.763-11.129-8.881-16.512-11.221
			c-9.014-3.948-21.405-0.758-31.188-4.692c-4.243-1.702-18.028-12.471-18.336-16.805c-0.638-9.173,12.166-12.896,11.925-22.441
			c-0.396-14.651-22.161-21.564-35.762-19.624c-15.821,2.208-23.077,15.781-41.264,12.152c-6.648-7.259-3.192-24.808-11.01-30.871
			c-2.167-0.677-4.12-0.984-5.954-0.984C844.947,813.943,840.559,816.842,835.56,819.607"/>
	</defs>
	<clipPath id="SVGID_17_">
		<use xlink:href="#SVGID_16_"  overflow="visible"/>
	</clipPath>
	
		<linearGradient id="SVGID_18_" gradientUnits="userSpaceOnUse" x1="571.313" y1="1300.0479" x2="584.9277" y2="1300.0479" gradientTransform="matrix(-33.6873 0 0 33.6873 20217.6719 -42720.75)">
		<stop  offset="0" style="stop-color:#F7EA1C"/>
		<stop  offset="1" style="stop-color:#EBD216"/>
	</linearGradient>
	<rect x="500.508" y="809.104" clip-path="url(#SVGID_17_)" fill="url(#SVGID_18_)" width="509.25" height="530.455"/>
</g>
<path fill-rule="evenodd" clip-rule="evenodd" fill="#F4DE00" d="M1470.709,417.126c-0.197-8.867-5.689-16.379-13.389-19.41
	c-5.607-3.058-11.38-4.973-11.38-4.973c-20.698-8.256-193.608-74.024-453.397-74.024c-259.777,0-432.7,65.769-453.374,74.024
	c0,0-5.771,1.915-11.408,4.973c-7.696,3.031-13.161,10.542-13.386,19.41l-0.042,0.054v346.683h478.208h478.206V417.18
	L1470.709,417.126z"/>
<path fill="#FAED8E" d="M1472.692,765.844H512.367v-3.936h956.469V417.791l-0.053-0.611c-0.079-3.829-1.252-7.499-3.403-10.609
	l3.188-2.247c2.422,3.536,3.803,7.671,4.041,11.966l0.026,0.04l0.057,0.851V765.844z"/>
<path fill="#C5A919" d="M516.263,763.876h-3.869V416.381l0.107-0.106c0.504-9.067,6.088-16.99,14.464-20.367
	c5.677-3.059,11.367-4.946,11.591-5.026c18.907-7.551,193.198-74.144,453.986-74.144c260.813,0,435.078,66.593,454.092,74.185
	c0.132,0.04,5.822,1.927,11.512,4.985c4.213,1.701,7.818,4.612,10.422,8.428l-3.162,2.234c-2.181-3.191-5.225-5.611-8.776-7.033
	l-0.212-0.093c-5.398-2.925-11.022-4.813-11.075-4.813c-19.05-7.618-192.716-73.958-452.8-73.958s-433.738,66.34-452.681,73.904
	c-0.162,0.054-5.797,1.941-11.195,4.866l-0.213,0.093c-7.178,2.859-11.965,9.771-12.138,17.629l-0.053,0.811V763.876z"/>
<path fill="#FAED8E" d="M750.223,735.745H549.805v-28.637l4.626-0.186c14.345-0.573,25.578-12.524,25.578-27.188v-9.187V454.324
	l-0.053-2.739c0-9.678-7.683-17.548-17.149-17.548c-2.207,0-4.36,0.425-6.394,1.263l-6.635,2.726v-23.066l3.192-1.17
	c0.506-0.173,49.641-18.107,118.214-33.542l3.936-0.877l9.52,23.066l-6.116,0.943c-15.087,2.327-26.458,15.795-26.458,31.363
	v246.734c0.149,2.367,1.279,4.467,3.139,5.784c6.992,4.347,14.968,6.647,23.094,6.647c14.291,0,27.452-6.927,36.119-18.972
	c15.289-21.285,23.107-67.989,23.186-68.468l0.066-0.318c0.971-4.202,1.943-12.285,1.956-12.365l0.519-4.307h21.789L750.223,735.745
	z M559.43,725.92h181.898l10.131-126.619h-2.832c-0.387,2.792-0.945,6.368-1.53,8.961c-0.611,3.629-8.561,49.762-24.888,72.496
	c-10.501,14.598-26.497,22.986-43.911,22.986c-9.933,0-19.717-2.832-28.225-8.163l-0.172-0.12c-4.48-3.071-7.193-8.03-7.488-13.587
	v-0.253v-246.88c0-18.28,11.981-34.394,28.718-39.698l-1.781-4.295c-56.104,12.843-98.314,27.095-109.921,31.163v2.526
	c1.117-0.16,2.26-0.24,3.377-0.24c14.784,0,26.814,12.271,26.814,27.334l0.026,2.738v225.464c0,18.359-12.933,33.583-30.218,36.533
	V725.92z"/>
<path fill="#FAED8E" d="M944.043,735.745H759.276v-30.657l4.626-0.24c10.822-0.425,19.277-9.386,19.277-20.368V403.047
	c0-7.444-5.944-13.507-13.217-13.507c-1.729,0-3.377,0.318-4.97,0.971l-6.609,2.712v-29.302l4.042-0.678
	c0.813-0.119,81.787-13.481,179.836-16.418l4.229-0.133l18.557,112.871l-30.02,2.658l-1.235-3.615
	c-0.146-0.452-3.87-11.367-5.571-16.991c-2.538-8.495-11.804-37.012-23.318-47.302c-9.652-8.588-24.304-11.805-47.01-10.342v138.304
	c6.836-1.849,22.842-12.71,29.395-72.576l0.479-4.361h18.719V645.74h-18.719l-0.479-4.374
	c-6.553-59.865-22.559-70.714-29.395-72.575v120.263c0,1.968,1.543,3.563,3.459,3.563l10.435,0.026
	c20.222,0,38.859-9.784,51.157-26.802c19.611-27.148,26.774-58.15,26.87-58.47l0.85-3.802h20.939v5.45l-0.119,0.559L944.043,735.745
	z M768.928,725.92h167.378l24.462-112.526h-2.554c-2.578,9.506-10.607,34.898-27.492,58.271
	c-14.133,19.583-35.617,30.803-58.948,30.803l-10.422-0.013c-7.233,0-13.111-6.009-13.111-13.401V560.083l3.486-1.037
	c0.344-0.106,1.646-0.439,3.655-0.439c9.586,0,32.465,7.645,40.999,77.295h0.453V455.175h-0.453
	c-8.534,69.664-31.413,77.308-40.999,77.308c-2.009,0-3.311-0.358-3.655-0.465l-3.486-1.011V374.875l4.401-0.372
	c5.465-0.479,10.385-0.691,15.038-0.691c19.701,0,33.529,4.161,43.581,13.108c13.081,11.66,22.681,40.123,26.189,51.81
	c1.064,3.483,2.99,9.292,4.239,13.029l12.141-1.064l-15.478-93.9c-83.195,2.765-153.114,12.87-170.316,15.515v7.472
	c0.625-0.053,1.262-0.08,1.927-0.08c12.605,0,22.842,10.463,22.842,23.346V684.48c0,14.678-10.158,26.909-23.877,29.647V725.92z"/>
<path fill="#FAED8E" d="M1097.09,734.947c-11.617,0-22.865-2.287-33.462-6.807c-10.487-4.44-20.368-10.875-29.368-19.118
	c-8.879-8.136-17.084-18.134-24.369-29.7c-7.243-11.513-13.492-24.648-18.57-39.006c-5.053-14.332-9.014-30.06-11.78-46.797
	c-2.752-16.725-4.146-34.66-4.146-53.312c0-18.347,1.395-35.949,4.146-52.342c2.767-16.418,6.728-31.748,11.807-45.587
	c5.079-13.826,11.327-26.589,18.573-37.863c7.296-11.327,15.514-21.033,24.448-28.85c8.958-7.857,18.825-14.039,29.325-18.32
	c10.558-4.334,21.806-6.515,33.396-6.515c11.596,0,22.813,2.18,33.371,6.515c10.53,4.307,20.394,10.529,29.381,18.479
	c8.908,7.897,17.123,17.603,24.409,28.81c7.26,11.194,13.508,23.89,18.587,37.743c5.052,13.839,9.014,29.128,11.776,45.454
	c2.766,16.313,4.177,33.782,4.177,51.969c0,19.145-1.411,37.464-4.177,54.429c-2.749,16.99-6.711,32.864-11.75,47.169
	c-5.079,14.398-11.354,27.479-18.613,38.913c-7.26,11.474-15.474,21.378-24.382,29.448c-8.988,8.136-18.878,14.464-29.408,18.771
	C1119.89,732.767,1108.658,734.947,1097.09,734.947 M1097.09,360.544c-10.368,0-20.381,1.968-29.805,5.823
	c-9.492,3.882-18.467,9.492-26.642,16.671c-8.218,7.206-15.848,16.219-22.654,26.776c-6.86,10.662-12.791,22.733-17.603,35.921
	c-4.854,13.242-8.67,27.986-11.326,43.806c-2.688,15.834-4.016,32.877-4.016,50.666c0,18.106,1.328,35.483,4.016,51.663
	c2.656,16.166,6.486,31.348,11.354,45.095c4.811,13.694,10.742,26.151,17.602,37.039c6.807,10.822,14.463,20.155,22.707,27.693
	c8.188,7.499,17.149,13.335,26.616,17.376c9.41,4.016,19.409,6.063,29.751,6.063c10.33,0,20.355-1.968,29.782-5.836
	c9.493-3.883,18.451-9.599,26.59-16.991c8.267-7.472,15.899-16.711,22.707-27.426c6.859-10.823,12.774-23.226,17.602-36.907
	c4.864-13.773,8.667-29.062,11.327-45.468c2.684-16.431,4.041-34.194,4.041-52.806c0-17.628-1.357-34.54-4.015-50.28
	c-2.687-15.741-6.477-30.444-11.327-43.686c-4.827-13.162-10.742-25.207-17.602-35.762c-6.781-10.489-14.427-19.517-22.681-26.828
	c-8.165-7.232-17.136-12.896-26.643-16.778C1117.458,362.512,1107.433,360.544,1097.09,360.544 M1095.15,704.489
	c-9.823,0-18.467-4.626-25.74-13.787c-6.697-8.428-12.335-20.167-16.723-34.898c-4.322-14.425-7.616-31.708-9.811-51.357
	c-2.181-19.543-3.298-41.174-3.298-64.239c0-22.774,1.117-43.926,3.298-62.91c2.194-19.065,5.502-35.763,9.811-49.629
	c4.414-14.159,10.078-25.406,16.806-33.437c7.256-8.668,15.887-13.055,25.657-13.055c9.679,0,18.24,4.414,25.473,13.068
	c6.675,8.017,12.322,19.251,16.776,33.409c4.361,13.853,7.686,30.551,9.894,49.643c2.181,19.011,3.284,40.176,3.284,62.91
	c0,23.039-1.104,44.656-3.284,64.239c-2.208,19.676-5.532,36.972-9.881,51.37c-4.438,14.718-10.061,26.47-16.709,34.885
	C1113.482,699.863,1104.882,704.489,1095.15,704.489 M1095.15,391.015c-6.912,0-12.896,3.151-18.332,9.625
	c-5.892,7.02-10.904,17.097-14.919,29.993c-4.134,13.268-7.312,29.367-9.437,47.807c-2.142,18.599-3.231,39.379-3.231,61.767
	c0,22.707,1.09,43.952,3.231,63.123c2.125,19.051,5.303,35.736,9.45,49.616c4.015,13.507,9.08,24.116,14.998,31.575
	c5.423,6.82,11.38,10.143,18.239,10.143c6.754,0,12.656-3.323,18.028-10.13c5.875-7.445,10.928-18.081,15.021-31.602
	c4.16-13.84,7.365-30.524,9.493-49.602c2.154-19.211,3.245-40.442,3.245-63.123c0-22.349-1.091-43.128-3.245-61.767
	c-2.128-18.466-5.32-34.54-9.48-47.781c-4.054-12.922-9.105-23.027-14.928-30.046
	C1107.886,394.152,1101.957,391.015,1095.15,391.015"/>
<path fill="#FAED8E" d="M1412.042,735.745h-25.859l-122.044-233.161v174.479c0,14.092,10.809,25.153,25.166,25.738l4.625,0.173
	v32.771h-96.769v-27.813l0.026-4.879l4.56-0.026c14.119-0.572,25.205-12.285,25.205-26.682V415.57
	c0-13.866-11.099-25.153-24.739-25.153h-0.559l-4.959,0.106v-5.118v-24.888l5.396,0.639c37.054,4.479,89.421,15.527,89.952,15.647
	l2.208,0.465l76.203,146.374v-72.084c0-15.368-9.572-28.902-23.851-33.94h-4.041l-0.066-4.919v-24.156l5.998,1.502
	c47.38,11.952,83.33,25.671,83.701,25.805l3.112,1.197v24.036h-4.841c-10.157,0-18.425,8.443-18.425,18.826V735.745z
	 M1391.965,725.92h10.426V459.908c0-14.119,10.048-25.897,23.265-28.238v-7.778c-9.146-3.35-37.52-13.387-73.507-22.773v8.11
	c16.858,7.019,27.932,23.61,27.932,42.329v111.595l-92.223-177.19c-9.774-2.021-49.855-10.184-81.511-14.359v9.226
	c17.004,2.075,30.231,16.858,30.231,34.739v260.774c0,18.08-12.735,33.077-29.766,36.002v13.574h77.466v-13.787
	c-17.044-2.872-29.792-17.482-29.792-35.071V463.245L1391.965,725.92z"/>
<g>
	<defs>
		<path id="SVGID_19_" d="M554.619,418.416v12.323c2.525-1.037,5.291-1.608,8.202-1.608c12.14,0,21.977,10.038,21.977,22.401
			l0.026,2.779v216.236v9.2c0,17.283-13.416,31.415-30.205,32.08v19.024h191.15l10.901-136.469h-12.246
			c0,0-0.995,8.389-2.059,12.909c0,0-7.897,48.073-24.052,70.568c-9.067,12.576-23.517,20.979-40.002,20.979
			c-9.44,0-18.213-2.766-25.727-7.445c-3.123-2.154-5.145-5.716-5.356-9.772v-228.92v-17.974c0-18.347,13.28-33.556,30.551-36.215
			l-5.531-13.468C603.169,400.588,554.619,418.416,554.619,418.416"/>
	</defs>
	<clipPath id="SVGID_20_">
		<use xlink:href="#SVGID_19_"  overflow="visible"/>
	</clipPath>
	
		<linearGradient id="SVGID_21_" gradientUnits="userSpaceOnUse" x1="560.1577" y1="1297.9629" x2="573.7667" y2="1297.9629" gradientTransform="matrix(0 36.1393 36.1393 0 -46251.7422 -20055.5547)">
		<stop  offset="0" style="stop-color:#6AA657"/>
		<stop  offset="0.0465" style="stop-color:#67A255"/>
		<stop  offset="0.3717" style="stop-color:#548E46"/>
		<stop  offset="0.6921" style="stop-color:#49813E"/>
		<stop  offset="1" style="stop-color:#457D3B"/>
	</linearGradient>
	<rect x="554.619" y="385.046" clip-path="url(#SVGID_20_)" fill="url(#SVGID_21_)" width="202.051" height="345.806"/>
</g>
<g>
	<defs>
		<path id="SVGID_22_" d="M763.208,368.096v17.841c2.075-0.851,4.362-1.329,6.741-1.329c9.985,0,18.042,8.256,18.042,18.439v2.273
			v6.647v252.544v19.969c0,13.614-10.65,24.755-23.876,25.287v0.053v21.032h176.075l26.586-122.35v-0.026h-12.281
			c0,0-7.181,31.946-27.654,60.277c-12.496,17.31-32.385,28.796-55.065,28.796l-10.422-0.026c-4.59,0-8.297-3.789-8.297-8.469
			v-1.728v-123.56c0,0,29.619-8.774,39.033,77.056h9.573V450.256h-9.573c-9.414,85.831-39.033,77.056-39.033,77.056V379.396
			c23.942-2.047,42.714,0.266,55.013,11.208c11.02,9.812,20.14,34.154,24.782,49.576c1.676,5.583,5.502,16.831,5.502,16.831
			l21.088-1.888l-17.034-103.378C843.549,354.694,763.208,368.096,763.208,368.096"/>
	</defs>
	<clipPath id="SVGID_23_">
		<use xlink:href="#SVGID_22_"  overflow="visible"/>
	</clipPath>
	
		<linearGradient id="SVGID_24_" gradientUnits="userSpaceOnUse" x1="560.145" y1="1303.3291" x2="573.7597" y2="1303.3291" gradientTransform="matrix(0 36.1393 36.1393 0 -46236.4219 -20055.6016)">
		<stop  offset="0" style="stop-color:#6AA657"/>
		<stop  offset="0.0465" style="stop-color:#67A255"/>
		<stop  offset="0.3717" style="stop-color:#548E46"/>
		<stop  offset="0.6921" style="stop-color:#49813E"/>
		<stop  offset="1" style="stop-color:#457D3B"/>
	</linearGradient>
	<rect x="763.208" y="351.743" clip-path="url(#SVGID_23_)" fill="url(#SVGID_24_)" width="203.567" height="379.109"/>
</g>
<g>
	<defs>
		<path id="SVGID_25_" d="M1073.16,687.592c-6.327-7.95-11.631-19.024-15.873-33.21c-4.227-14.186-7.445-31.017-9.625-50.479
			c-2.168-19.478-3.245-40.708-3.245-63.694c0-22.681,1.077-43.447,3.245-62.325c2.18-18.905,5.398-35.125,9.625-48.726
			c4.242-13.587,9.546-24.182,15.873-31.72c6.354-7.565,13.667-11.34,21.99-11.34c8.229,0,15.501,3.775,21.789,11.34
			c6.301,7.538,11.581,18.133,15.873,31.72c4.27,13.601,7.498,29.82,9.679,48.726c2.168,18.878,3.284,39.645,3.284,62.325
			c0,22.986-1.116,44.217-3.284,63.694c-2.181,19.463-5.409,36.294-9.679,50.479c-4.292,14.186-9.572,25.26-15.873,33.21
			c-6.288,8.004-13.561,11.992-21.789,11.992C1086.827,699.584,1079.515,695.596,1073.16,687.592 M1065.491,361.807
			c-10.038,4.108-19.373,9.932-27.987,17.497c-8.614,7.564-16.484,16.817-23.543,27.826c-7.088,11.008-13.121,23.292-18.094,36.879
			c-4.974,13.601-8.843,28.503-11.568,44.696c-2.736,16.22-4.081,33.37-4.081,51.504c0,18.453,1.345,35.948,4.081,52.474
			c2.726,16.551,6.595,31.867,11.568,45.959c4.973,14.105,11.006,26.775,18.094,38.022c7.059,11.247,14.929,20.819,23.543,28.704
			c8.614,7.883,17.949,13.972,27.987,18.253c10.062,4.28,20.593,6.408,31.599,6.408c10.997,0,21.538-2.047,31.563-6.168
			c10.052-4.108,19.409-10.051,28.023-17.868c8.601-7.804,16.458-17.283,23.56-28.438c7.058-11.167,13.107-23.796,18.067-37.902
			c4.986-14.105,8.839-29.54,11.579-46.319c2.713-16.804,4.08-34.672,4.08-53.63c0-17.975-1.367-35.005-4.08-51.131
			c-2.74-16.113-6.593-30.963-11.579-44.563c-4.96-13.587-11.01-25.845-18.067-36.76c-7.102-10.901-14.959-20.194-23.56-27.826
			c-8.614-7.617-17.972-13.507-28.023-17.615c-10.025-4.121-20.566-6.168-31.563-6.168
			C1086.084,355.639,1075.553,357.686,1065.491,361.807"/>
	</defs>
	<clipPath id="SVGID_26_">
		<use xlink:href="#SVGID_25_"  overflow="visible"/>
	</clipPath>
	
		<linearGradient id="SVGID_27_" gradientUnits="userSpaceOnUse" x1="560.1606" y1="1309.2783" x2="573.77" y2="1309.2783" gradientTransform="matrix(0 36.1389 36.1389 0 -46218.8203 -20055.3672)">
		<stop  offset="0" style="stop-color:#6AA657"/>
		<stop  offset="0.0465" style="stop-color:#67A255"/>
		<stop  offset="0.3717" style="stop-color:#548E46"/>
		<stop  offset="0.6921" style="stop-color:#49813E"/>
		<stop  offset="1" style="stop-color:#457D3B"/>
	</linearGradient>
	<rect x="980.205" y="355.639" clip-path="url(#SVGID_26_)" fill="url(#SVGID_27_)" width="233.758" height="374.389"/>
</g>
<g>
	<defs>
		<path id="SVGID_28_" d="M1201.532,385.405v0.093c0.215,0,0.453,0,0.681,0c16.283,0,29.554,13.441,29.554,30.072V451v219.654v5.69
			c0,17.017-13.296,30.923-29.835,31.588h0.054v22.919h87.134v-23.146c-16.538-0.665-29.809-13.627-29.809-30.644v-48.725v-145.43
			l129.757,247.945h18.134V471.421v-11.526c0-13.095,10.422-23.717,23.266-23.717V420.45c0,0-35.469-13.614-83.143-25.632v17.881
			h0.066c16.15,5.318,27.891,20.647,27.891,38.86v37.717v54.123l-84.223-161.782c0,0-52.247-11.074-89.526-15.568V385.405z"/>
	</defs>
	<clipPath id="SVGID_29_">
		<use xlink:href="#SVGID_28_"  overflow="visible"/>
	</clipPath>
	
		<linearGradient id="SVGID_30_" gradientUnits="userSpaceOnUse" x1="560.1509" y1="1314.8926" x2="573.7605" y2="1314.8926" gradientTransform="matrix(0 36.1392 36.1392 0 -46203.0703 -20055.5078)">
		<stop  offset="0" style="stop-color:#6AA657"/>
		<stop  offset="0.0465" style="stop-color:#67A255"/>
		<stop  offset="0.3717" style="stop-color:#548E46"/>
		<stop  offset="0.6921" style="stop-color:#49813E"/>
		<stop  offset="1" style="stop-color:#457D3B"/>
	</linearGradient>
	<rect x="1201.532" y="366.048" clip-path="url(#SVGID_29_)" fill="url(#SVGID_30_)" width="228.935" height="364.804"/>
</g>
<path fill="#42785A" d="M669.935,389.606l2.498,6.063c-16.868,4.839-29.061,20.846-29.061,39.073v17.934v228.946v0.094v0.105
	c0.281,5.252,2.845,9.918,7.061,12.83l0.066,0.04l0.08,0.054c8.363,5.238,17.962,8.003,27.72,8.003
	c17.11,0,32.812-8.229,43.114-22.574c16.271-22.627,24.181-68.759,24.739-72.11c0.641-2.819,1.252-6.86,1.636-9.731h4.722
	l-10.293,128.585h-183.73v-11.486c17.217-2.526,30.193-17.536,30.193-35.696v-9.187V454.271l-0.027-2.738
	c0-14.517-11.595-26.337-25.846-26.337c-1.462,0-2.897,0.12-4.333,0.373v-4.361C569.147,417.445,612.275,402.768,669.935,389.606
	 M672.248,385.06c-69.079,15.541-117.643,33.356-117.643,33.356v12.323c2.538-1.037,5.304-1.608,8.201-1.608
	c12.153,0,21.99,10.038,21.99,22.401l0.026,2.792v216.224v9.187c0,17.296-13.402,31.428-30.205,32.106v18.998h191.15l10.927-136.442
	h-12.272c0,0-1.008,8.362-2.072,12.896c0,0-7.884,48.06-24.052,70.568c-9.04,12.576-23.503,20.952-40.001,20.952
	c-9.427,0-18.213-2.738-25.701-7.418c-3.109-2.154-5.145-5.716-5.37-9.772V452.676v-17.934c0-18.36,13.28-33.569,30.551-36.228
	L672.248,385.06z"/>
<path fill="#42785A" d="M939.165,355.785l15.755,95.8l-13.895,1.224c-1.235-3.696-3.377-10.051-4.494-13.786
	c-3.495-11.633-13.028-39.87-25.912-51.384c-9.863-8.76-23.503-12.855-42.926-12.855c-4.639,0-9.52,0.225-14.958,0.704l-3.536,0.293
	v3.615v147.917v2.951l2.779,0.824c0.333,0.107,1.53,0.413,3.403,0.413c9.374,0,31.787-7.618,40.15-77.308h2.273v182.695h-2.273
	c-8.363-69.678-30.776-77.296-40.15-77.296c-1.874,0-3.07,0.306-3.403,0.399l-2.779,0.824v2.951v123.547v1.741
	c0,6.848,5.452,12.417,12.153,12.417l10.422,0.013c22.998,0,44.218-11.074,58.179-30.404c17.241-23.878,25.191-49.882,27.531-58.669
	h4.48l-24.888,114.506H767.97v-13.614c13.653-2.34,23.877-14.358,23.877-28.823v-19.969V411.968v-6.634v-2.3
	c0-12.311-9.811-22.362-21.884-22.362c-0.981,0-1.953,0.08-2.898,0.213v-9.413C782.833,369.026,854.186,358.537,939.165,355.785
	 M942.394,351.729c-98.845,2.965-179.185,16.366-179.185,16.366v17.841c2.075-0.851,4.362-1.316,6.754-1.316
	c9.959,0,18.028,8.243,18.028,18.413v2.3v6.634v252.544v19.969c0,13.614-10.663,24.755-23.876,25.287v0.053v21.032h176.075
	l26.586-122.35v-0.026h-12.269c0,0-7.206,31.946-27.667,60.291c-12.496,17.283-32.385,28.783-55.065,28.783l-10.422-0.013
	c-4.603,0-8.297-3.803-8.297-8.482v-1.741V563.766c0,0,0.849-0.239,2.326-0.239c7.167,0,28.89,6.036,36.721,77.295h9.56V450.256
	h-9.56c-7.831,71.26-29.58,77.308-36.721,77.308c-1.477,0-2.326-0.252-2.326-0.252V379.396c5.118-0.438,9.999-0.678,14.638-0.678
	c17.03,0,30.71,3.284,40.389,11.885c10.993,9.825,20.113,34.154,24.769,49.563c1.676,5.596,5.502,16.831,5.502,16.831l21.088-1.875
	L942.394,351.729z"/>
<path fill="#42785A" d="M1097.09,731.995c-11.234,0-22.108-2.193-32.346-6.567c-10.184-4.334-19.795-10.583-28.542-18.586
	c-8.693-7.977-16.739-17.774-23.877-29.115c-7.127-11.327-13.283-24.25-18.279-38.422c-4.985-14.119-8.921-29.713-11.661-46.292
	c-2.712-16.539-4.094-34.313-4.094-52.833c0-18.16,1.382-35.59,4.094-51.809c2.74-16.26,6.676-31.402,11.661-45.042
	c4.996-13.653,11.152-26.204,18.279-37.292c7.164-11.087,15.21-20.58,23.903-28.225c8.746-7.645,18.346-13.653,28.543-17.828
	c10.223-4.2,21.098-6.328,32.318-6.328c11.222,0,22.083,2.127,32.293,6.328c10.224,4.175,19.822,10.224,28.56,17.948
	c8.706,7.751,16.736,17.243,23.89,28.225c7.138,11.021,13.293,23.518,18.267,37.171c5.025,13.64,8.935,28.756,11.657,44.91
	c2.752,16.126,4.137,33.449,4.137,51.463c0,18.998-1.385,37.146-4.123,53.95c-2.736,16.804-6.646,32.519-11.645,46.664
	c-5,14.159-11.155,27.041-18.293,38.288c-7.127,11.247-15.156,20.953-23.877,28.849c-8.736,7.924-18.335,14.052-28.572,18.241
	C1119.173,729.882,1108.285,731.995,1097.09,731.995 M1097.09,357.592c-10.729,0-21.11,2.035-30.868,6.036
	c-9.811,4.015-19.053,9.785-27.469,17.176c-8.442,7.392-16.243,16.618-23.199,27.4c-6.966,10.835-12.999,23.12-17.88,36.494
	c-4.92,13.415-8.775,28.331-11.459,44.351c-2.713,15.979-4.08,33.197-4.08,51.131c0,18.308,1.367,35.843,4.08,52.168
	c2.684,16.353,6.539,31.722,11.459,45.627c4.895,13.879,10.928,26.536,17.893,37.625c6.969,11.034,14.774,20.553,23.213,28.304
	c8.43,7.698,17.672,13.733,27.442,17.881c9.758,4.175,20.14,6.275,30.868,6.275c10.717,0,21.085-2.021,30.873-6.022
	c9.783-4.002,19.035-9.905,27.438-17.509c8.456-7.685,16.247-17.11,23.187-28.052c6.979-11.008,13.002-23.611,17.896-37.491
	c4.93-13.933,8.772-29.407,11.485-45.999c2.687-16.565,4.068-34.499,4.068-53.285c0-17.788-1.382-34.885-4.068-50.798
	c-2.713-15.914-6.556-30.79-11.473-44.205c-4.906-13.374-10.917-25.619-17.883-36.361c-6.938-10.702-14.756-19.928-23.212-27.426
	c-8.403-7.446-17.655-13.269-27.438-17.283C1118.188,359.627,1107.807,357.592,1097.09,357.592 M1095.15,701.538
	c-8.895,0-16.792-4.269-23.493-12.696c-6.474-8.136-11.925-19.543-16.204-33.889c-4.27-14.265-7.523-31.361-9.678-50.839
	c-2.208-19.423-3.299-40.934-3.299-63.934c0-22.653,1.091-43.686,3.299-62.538c2.154-18.878,5.422-35.39,9.678-49.083
	c4.292-13.773,9.758-24.675,16.23-32.413c6.701-7.977,14.585-12.018,23.467-12.018c8.786,0,16.617,4.041,23.266,12.018
	c6.434,7.725,11.886,18.613,16.218,32.413c4.309,13.653,7.58,30.166,9.787,49.083c2.168,18.906,3.269,39.938,3.269,62.538
	c0,22.946-1.101,44.458-3.269,63.934c-2.207,19.504-5.479,36.614-9.774,50.839c-4.318,14.358-9.771,25.766-16.204,33.889
	C1111.795,697.27,1103.95,701.538,1095.15,701.538 M1095.15,388.063c-7.817,0-14.519,3.483-20.525,10.65
	c-6.143,7.325-11.354,17.775-15.491,31.043c-4.187,13.454-7.392,29.713-9.546,48.353c-2.164,18.691-3.255,39.578-3.255,62.072
	c0,22.867,1.091,44.218,3.255,63.495c2.154,19.225,5.359,36.082,9.56,50.135c4.149,13.866,9.36,24.82,15.503,32.559
	c6.021,7.577,12.723,11.233,20.5,11.233c7.67,0,14.331-3.656,20.289-11.22c6.112-7.751,11.34-18.706,15.526-32.585
	c4.213-13.999,7.458-30.87,9.599-50.121c2.182-19.33,3.271-40.682,3.271-63.495c0-22.441-1.09-43.327-3.271-62.072
	c-2.141-18.666-5.372-34.925-9.599-48.353c-4.173-13.295-9.4-23.731-15.5-31.057C1109.508,391.547,1102.847,388.063,1095.15,388.063
	"/>
<path fill="#42785A" d="M1409.145,732.807h-21.221l-126.696-242.028v186.284c0,15.688,12.031,28.025,27.958,28.663l1.847,0.08
	v27.001h-90.987v-24.874h1.874l-0.053-1.954c15.675-0.639,27.971-13.653,27.971-29.634V415.57c0-15.488-12.404-28.092-27.638-28.092
	c-0.228-0.026-0.412,0-0.61,0l-0.057-2.073h-1.939v-21.563l2.154,0.252c36.933,4.454,89.18,15.488,89.712,15.594l0.879,0.187
	l0.423,0.823l80.578,154.803v-83.942c0-16.791-10.541-31.588-26.243-36.905h-1.635l-0.066-1.955v-20.394l2.393,0.599
	c47.238,11.926,83,25.565,83.37,25.712l1.253,0.465v19.052h-1.93c-11.78,0-21.336,9.771-21.336,21.763V732.807z M1390.237,728.871
	h15.024V459.895c0-13.507,10.289-24.607,23.292-25.619v-12.457c-6.582-2.434-38.383-14.026-79.29-24.489v13.946
	c16.779,6.102,27.932,22.122,27.932,40.282v99.75l-87.412-167.951c-6.912-1.436-52.406-10.848-86.334-15.102v15.289
	c16.802,0.664,30.244,14.784,30.244,32.026v260.774c0,17.442-12.937,31.774-29.766,33.423v19.104h83.248v-19.33
	c-17.109-1.582-29.791-15.249-29.791-32.479V475.037L1390.237,728.871z"/>
<polygon fill="#CFB41C" points="969.436,104.33 913.016,102.975 894.35,52.84 875.842,102.975 819.286,104.33 864.171,137.062 
	848.297,188.166 894.376,157.868 940.665,188.193 924.554,137.062 "/>
<polygon fill="#F4DE00" points="894.376,63.968 910.328,106.83 957.791,107.973 920.007,135.532 933.7,178.939 894.376,153.201 
	855.21,178.939 868.718,135.532 830.934,107.973 878.528,106.83 "/>
<polygon fill="#CFB41C" points="1165.797,104.33 1109.402,102.975 1090.71,52.84 1072.216,102.975 1015.649,104.33 
	1060.559,137.062 1044.658,188.166 1090.736,157.868 1137.029,188.193 1120.914,137.062 "/>
<polygon fill="#F4DE00" points="1090.736,63.968 1106.716,106.83 1154.152,107.973 1116.367,135.532 1130.074,178.939 
	1090.736,153.201 1051.597,178.939 1065.078,135.532 1027.294,107.973 1074.915,106.83 "/>
</svg>
