<svg xmlns="http://www.w3.org/2000/svg" viewBox="0 0 185.59 185.59"><g id="Capa_2" data-name="Capa 2"><g id="Capa_1-2" data-name="Capa 1"><path fill="#a2d9e7" d="M158.41,27.18A92.79,92.79,0,1,0,27.18,158.41,92.79,92.79,0,1,0,158.41,27.18Z"/><circle fill="#fff" cx="93.11" cy="92.79" r="84.98"/><path fill="#533278" d="M156.6,29.3a89.79,89.79,0,0,0-127,127,89.79,89.79,0,0,0,127-127ZM93.11,177.78a85,85,0,1,1,85-85A85,85,0,0,1,93.11,177.78Z"/><path fill="#533278" d="M118.46,14.22a82.82,82.82,0,0,0-22.73-3.91l0,16.7a65.52,65.52,0,0,1,17.64,3.12Z"/><path fill="#533278" d="M131.42,39.25l9.82-13.52A81.65,81.65,0,0,0,120.81,15L115.7,30.92A65.72,65.72,0,0,1,131.42,39.25Z"/><path fill="#533278" d="M39.9,54,26.41,44.16a81.73,81.73,0,0,0-11.11,21l15.91,5.15A65.72,65.72,0,0,1,39.9,54Z"/><circle fill="#533278" cx="93.11" cy="92.79" r="62.98"/><path fill="#533278" d="M73,30.08l-5.12-15.9a81.7,81.7,0,0,0-21,10.23L56.66,38A65.68,65.68,0,0,1,73,30.08Z"/><path fill="#533278" d="M54.62,39.38,44.84,25.83A82.9,82.9,0,0,0,27.91,42.19l13.5,9.86A66.12,66.12,0,0,1,54.62,39.38Z"/><path fill="#533278" d="M155.3,71.15,171.2,66a81.55,81.55,0,0,0-10.42-20.45l-13.5,9.84A65.39,65.39,0,0,1,155.3,71.15Z"/><path fill="#533278" d="M172,68.32l-15.9,5.18a65.86,65.86,0,1,1-125.66-.86l-15.9-5.15A82.54,82.54,0,1,0,172,68.32Z"/><path fill="#533278" d="M145.84,53.34l13.5-9.84a83.37,83.37,0,0,0-16.11-16.29l-9.82,13.52A66.57,66.57,0,0,1,145.84,53.34Z"/><path fill="#533278" d="M93.11,27h.12l0-16.7h-.15a83,83,0,0,0-22.85,3.21l5.13,15.92A66,66,0,0,1,93.11,27Z"/><path fill="#fff" d="M93.11,43.51A49.29,49.29,0,1,1,43.83,92.79,49.29,49.29,0,0,1,93.11,43.51m0-10.56A59.85,59.85,0,1,0,153,92.79,59.92,59.92,0,0,0,93.11,33Z"/><path fill="#fff" d="M93.15,37.84H45.32v61.5a47.24,47.24,0,0,0,1.39,11.06A46.11,46.11,0,0,0,56.6,129a47.66,47.66,0,0,0,12.82,10.18c3.1,1.67,12.35,5.48,18.35,7.9l5.38,2.16h0L98.54,147c6-2.42,15.25-6.23,18.35-7.9A47.66,47.66,0,0,0,129.71,129a46.11,46.11,0,0,0,9.89-18.55A47.24,47.24,0,0,0,141,99.34V37.84Z"/><path fill="#533278" d="M141,32.88H40.37V99.34c.32,29.12,23.12,42.15,27,44.29,4,2.24,23.91,10.13,23.91,10.13l1.92.81v0l1.92-.81S115,145.87,119,143.63c3.84-2.14,26.64-15.17,27-44.29V32.88Zm0,66.46h0a44.28,44.28,0,0,1-1.39,11.06A43.49,43.49,0,0,1,129.72,129a47.5,47.5,0,0,1-12.82,10.18c-3.1,1.67-12.35,5.48-18.35,7.9-2.54,1-4.68,1.88-5.39,2.16h0L87.77,147c-6-2.42-15.25-6.23-18.35-7.9A47.66,47.66,0,0,1,56.6,129a43.71,43.71,0,0,1-9.89-18.55,44.28,44.28,0,0,1-1.39-11.06h0V37.84H141Z"/><path fill="#101820" d="M114.34,41.49c-.7-.49-1.42-1-2.15-1.39a37.09,37.09,0,0,0-39.92,1.39H48.73V99h0c0,16.9,10,27.07,16.55,32,11.27,7.39,27.76,13.38,27.87,13.43h0c.12,0,16.6-6,27.88-13.43,6.58-4.88,16.54-15.05,16.54-31.95h0V41.49Z"/><path fill="none" d="M133.29,124.08a48.16,48.16,0,0,1-3.66,4.7A48.16,48.16,0,0,0,133.29,124.08Z"/><path fill="none" d="M93.15,149.19,87.77,147Z"/><path fill="none" d="M118,138.62l-.35.21Z"/><path fill="none" d="M129.07,129.41c-.56.61-1.12,1.2-1.67,1.75C128,130.61,128.51,130,129.07,129.41Z"/><path fill="none" d="M123.65,134.58c-.84.69-1.64,1.31-2.37,1.85C122,135.89,122.81,135.27,123.65,134.58Z"/><path fill="none" d="M120.44,137c-.67.47-1.27.86-1.76,1.18C119.17,137.9,119.77,137.51,120.44,137Z"/><path fill="none" d="M127.4,131.16c-1.3,1.3-2.57,2.44-3.75,3.42C124.83,133.6,126.1,132.46,127.4,131.16Z"/><path fill="none" d="M121.28,136.43l-.84.61Z"/><path fill="none" d="M118.68,138.22l-.45.28Z"/><path fill="none" d="M56.6,129a46.11,46.11,0,0,1-9.89-18.55A43.71,43.71,0,0,0,56.6,129Z"/><path fill="#572f7f" d="M45.32,99.34a44.28,44.28,0,0,0,1.39,11.06,47.24,47.24,0,0,1-1.39-11.06Z"/><path fill="#572f7f" d="M118.23,138.5l-.19.12Z"/><path fill="#fff" d="M25,118.86l4.76,2.39.41,1.07-9,3.44-1-2.34,4.69-1.8-3.07-1.53,1.24-3.2-4.67,1.79-.8-2.43,9-3.44L26.9,114Z"/><path fill="#fff" d="M22.32,128.08l10.36-1,.66,1.13-5.89,8.59-1.36-2.08.82-1.19-2-3.42-1.44.14Zm4.93,1.84,1,1.7,1.34-1.92Z"/><path fill="#fff" d="M33.17,140.19l2.33,2.93-2,1.58s-3.38-3.92-5-6.38l8.1-1.2-2.41-3,2-1.59A58.48,58.48,0,0,0,41.32,139Z"/><path fill="#fff" d="M35,146.31l9.69-3.8.94.9-3.29,9.88-1.87-1.65.44-1.33L38,147.58l-1.32.53Zm5.24.4,1.43,1.37.76-2.22Z"/><path fill="#fff" d="M49.18,146.52A63.48,63.48,0,0,0,55.35,151l-1.46,2-2.08-1.52-4.24,5.82-2.06-1.49L49.76,150l-2-1.48Z"/><path fill="#fff" d="M56.7,151.86l2.19,1.28-3.4,6.1,3,1.7-1.25,2.23L52,160.24Z"/><path fill="#fff" d="M59.26,164.26l5.92-5.62,3,.3.58,8.91-2.35-.78-.09-1.4-3.69-1.45-1,1Zm5.08-1.67,1.84.73L66,161Z"/><path fill="#fff" d="M78.08,170.24l-3.43-5.48-1,4.46-2.46-.64,2.14-9.36,1,.3,3.41,5.41,1-4.36,2.5.47-2.14,9.35Z"/><path fill="#fff" d="M88.79,161.83a54.34,54.34,0,0,0,6.06.1l0,2.09L91.3,164l0,1.57,3.11.05,0,2.16-3.11-.05-.06,3.86-2.55-.09Z"/><path fill="#fff" d="M99.65,167.42a1.26,1.26,0,0,0,2.51-.27l-.6-5.71,2.54-.37.61,5.85a3.82,3.82,0,0,1-7.6.81l-.62-5.83,2.55-.19Z"/><path fill="#fff" d="M105.59,160.83c3.31-.64,7.41-1.8,7.41-1.8l.6,2.46-2.5.61,1.69,7-2.47.6-1.69-7-2.44.6Z"/><path fill="#fff" d="M117.93,167.49l-3.46-9,4-1.51a2.92,2.92,0,0,1,3.71,1.65,2.87,2.87,0,0,1,0,1.85,2.82,2.82,0,0,1,.2,5.35Zm1.43-6.75a.84.84,0,0,0-.61-1.57l-1.14.44.6,1.57Zm1.81,3.38a.85.85,0,0,0,.49-1.09.86.86,0,0,0-1.09-.48l-1.59.61.61,1.57Z"/><path fill="#fff" d="M126.78,153a4.84,4.84,0,1,1-1.81,6.6A4.86,4.86,0,0,1,126.78,153Zm1.25,2.2a2.31,2.31,0,1,0,3.15.88A2.3,2.3,0,0,0,128,155.24Z"/><path fill="#fff" d="M132.22,149.7l2.05-1.5,4.28,5.64,2.78-2.11,1.47,1.94L138,157.32Z"/><path fill="#fff" d="M149,138.43a2.24,2.24,0,0,0-1.54.81,2.27,2.27,0,0,0,3.43,3,2.23,2.23,0,0,0,.58-1.65l2.53-.2a4.84,4.84,0,1,1-8.48-2.81,4.73,4.73,0,0,1,3.29-1.65Z"/><path fill="#fff" d="M148.79,133.54l1.41-2.11,5.92,4,1.94-2.9,2,1.34-3.35,5Z"/><path fill="#fff" d="M159.23,127.69a1.26,1.26,0,0,0,1.15-2.25l-5.2-2.63,1.06-2.33,5.32,2.69a3.82,3.82,0,1,1-3.45,6.82l-5.31-2.69,1.24-2.24Z"/><path fill="#fff" d="M166,122.05l-9.07-3.15,1.49-4a2.92,2.92,0,0,1,3.66-1.76,2.8,2.8,0,0,1,1.44,1.15A2.89,2.89,0,0,1,166,114a2.75,2.75,0,0,1,1.67,3.54Zm-4.18-5.44a.82.82,0,0,0-.51-1.06.84.84,0,0,0-1.07.51l-.4,1.16,1.58.55Zm3.76.8a.84.84,0,0,0-.52-1.07.87.87,0,0,0-1.07.52l-.56,1.61L165,119Z"/><polygon fill="#fff" points="65.26 157.87 68.6 158.26 68.53 157.63 66.06 156.65 65.26 157.87"/><rect fill="#533278" x="4.62" y="81.71" width="33.94" height="23.88"/><path fill="#a2d9e7" d="M11.26,88.39h.15l4.56,5,4.5-5h.16v9.37H18.79V94.28c0-.63.07-1.62.07-1.62s-.56.82-1,1.31L16,96h-.18L14,94a15.74,15.74,0,0,1-1-1.31s.07,1,.07,1.62v3.48H11.26Z"/><path fill="#a2d9e7" d="M22.57,88.39h.15l4.57,5,4.49-5H32v9.37H30.11V94.28c0-.63.06-1.62.06-1.62a14.72,14.72,0,0,1-1,1.31L27.34,96h-.18L25.32,94c-.43-.49-1-1.31-1-1.31s.07,1,.07,1.62v3.48H22.57Z"/><polygon fill="#533278" points="147.83 81.67 147.83 82.6 147.83 83.53 147.83 103.69 147.83 104.62 147.83 105.55 181.29 105.55 181.29 81.67 147.83 81.67"/><path fill="#a2d9e7" d="M158.61,92.62l-2.53-4.17h2.17l.94,1.59c.27.47.61,1.27.61,1.27a8.29,8.29,0,0,1,.54-1.27l.9-1.59h2l-2.48,4.18,3.08,5.09h-2.18l-1.46-2.47a13,13,0,0,1-.64-1.31,9.36,9.36,0,0,1-.58,1.31l-1.43,2.47h-2Z"/><path fill="#a2d9e7" d="M168.49,92.62,166,88.45h2.17l.94,1.59c.27.47.61,1.27.61,1.27a9,9,0,0,1,.53-1.27l.9-1.59h2l-2.49,4.18,3.09,5.09h-2.19l-1.45-2.47a13,13,0,0,1-.64-1.31,9.36,9.36,0,0,1-.58,1.31l-1.43,2.47h-2Z"/><path fill="none" d="M94.16,135.51S110.1,132.6,117,123.44c-9.52,9.24-22.86,10.16-22.86,10.16Z"/><path fill="none" d="M85,132.07c-9.75-1.15-16-6.42-20-11,9.67,13.68,27.56,14.33,27.56,14.33V124.28S92.44,133,85,132.07Z"/><polygon fill="none" points="91.63 119.73 91.63 119.74 92.75 120.06 92.75 119.81 92.75 98.12 91.63 98.75 91.63 119.73"/><path fill="#fff" d="M133.57,102.86s-1.47-3.14-4.48-9l-.62-1.41a28.48,28.48,0,0,1-.81,9.78,27.52,27.52,0,0,1-14.06,17.23,10,10,0,0,1-12.12-2.4,14.06,14.06,0,0,1-2.77,1.58V98.89l-5.6-.77-5.6.69v19.86a14.5,14.5,0,0,1-2.77-1.58,10,10,0,0,1-12.12,2.4,27.52,27.52,0,0,1-14.06-17.23,28.16,28.16,0,0,1-.82-9.78l-.61,1.41c-3,5.83-4.48,9-4.48,9h2.77s-2.77,23.62,30.13,34a45.8,45.8,0,0,1,4.35,1.45,10.41,10.41,0,0,1,3.2,2.3h0a10.41,10.41,0,0,1,3.2-2.3,45.8,45.8,0,0,1,4.35-1.45c32.91-10.42,30.13-34,30.13-34h2.78ZM92.49,135.42s-17.89-.65-27.56-14.33c4,4.56,10.27,9.83,20,11,7.49.89,7.54-7.79,7.54-7.79Zm.26-15.61v.25l-1.12-.32h0v-21l1.12-.63Zm1.41,15.7V133.6s13.34-.92,22.86-10.16C110.1,132.6,94.16,135.51,94.16,135.51Z"/><path fill="#fff" d="M82.4,55.79v2.82a1.51,1.51,0,0,0,1.51,1.5h3.6v20.5l5.58,2.54,5.62-2.58V60.11h3.09a1.51,1.51,0,0,0,1.51-1.5V55.79a1.58,1.58,0,0,0-1.57-1.57h-1.31l.69-1.31h.63v-.75h-.63V48.48h.63v-.75H97.66l.87-1.64V40h0v-.75h-.79l-1-1.14a4.17,4.17,0,0,0-.37-.36,4.49,4.49,0,0,0-3-1.16H92.21a4.24,4.24,0,0,0-2.84,1.08l-.09.08-1.61,1.5h-.74v6.81h0l.71,1.64H84.46v.75H85v3.68h-.52v.75h.89l.58,1.31H84A1.58,1.58,0,0,0,82.4,55.79ZM99,48.48h1.43v3.68H99Zm-.24,6.93h3v3.51h-3Zm-.87,0v3.51H88.29V55.41Zm-8-3.25V48.48h2.84v3.68Zm3.58,0V48.48h2.82v3.68ZM97.09,77.9h-8v-.62h8Zm0-1.62h-8V71.06h8Zm0-6.84h-8v-.63h8Zm0-1.92h-8V62.3h8Zm0-6.66h-8l-.77-.75h9.55ZM98.2,48.48v3.68H97V48.48ZM87.67,43.74V40H97.79v6.06H96.65a4.34,4.34,0,0,0-1.8-1.8A2.27,2.27,0,0,0,95,43.6s0-.07,0-.1a2.15,2.15,0,0,0-4.29,0v.09a2,2,0,0,0,.12.69,4.34,4.34,0,0,0-1.8,1.8H87.67Zm0,4.74H89.1v3.68H87.67Zm-1.94,3.68V48.48h1.2v3.68ZM84,55.41h3.3v3.51H84Z"/><path fill="none" d="M72.59,99.55a1.44,1.44,0,0,1-.86-.36A3.82,3.82,0,0,1,71,98.1s.37,1.14.67,1.84c.43,1,.81,1.75.81,1.75l3.31-1.6-.7-1.66Z"/><path fill="none" d="M115.29,100c.29-.68.65-1.77.65-1.77a3.69,3.69,0,0,1-.67,1,1.38,1.38,0,0,1-.82.34L112,98.51l-.68,1.6,3.19,1.54S114.88,100.92,115.29,100Z"/><path fill="none" d="M71.65,99.59a1.42,1.42,0,0,1-.83-.34,3.57,3.57,0,0,1-.66-1s.35,1.09.64,1.77c.41,1,.78,1.68.78,1.68l3.18-1.54-.67-1.6Z"/><path fill="#fff" d="M121.42,76.17a6.89,6.89,0,0,0,.51,1l-4.21,2.08a13.43,13.43,0,0,0,1.43,2.52.73.73,0,0,0,.38-.63.5.5,0,0,0,0-.11c0-.61,4-1.51,4.17-1.73a25.61,25.61,0,0,1-2.93-6.62s-3.65,2-4,1.57l-.08-.08a.8.8,0,0,0-.72-.06,17.92,17.92,0,0,0,1.27,4Z"/><path fill="#fff" d="M66.06,105.16c1.88,1.34,5,0,5,0a19.24,19.24,0,0,1-2.14-3.75,22.21,22.21,0,0,1-1.7-5.06s-.71.38-1.31.75a5.8,5.8,0,0,0-2,1.65c.4-1.49,2-2.47,3.14-3L67,94.79S64,95.53,63.16,98a7,7,0,0,0-.32,3.89l-.49.22a1,1,0,0,0-.47,1.28l.72,1.45a1,1,0,0,0,1.25.46l.51-.23a13.66,13.66,0,0,0,1,1.1c2.56,2.58,6.82.51,6.82.51l-.52-.69C68,107,67.06,106.26,66.06,105.16Z"/><path fill="#fff" d="M75.51,97.93a29.76,29.76,0,0,1-1.58-5.3v0a1.41,1.41,0,0,0-.65,1.11l-2.14,1-3,1.43a15.47,15.47,0,0,0,1.51,4.61,22.27,22.27,0,0,0,2.18,3.91l4.8-2.3a2.42,2.42,0,0,0,1.44.24v0A28.56,28.56,0,0,1,75.51,97.93Zm-3.93,3.72s-.37-.73-.78-1.68c-.29-.68-.64-1.77-.64-1.77a3.57,3.57,0,0,0,.66,1,1.42,1.42,0,0,0,.83.34l2.44-1.08.67,1.6Z"/><path fill="#fff" d="M79.49,97.6s-2.72,1-1.07,3.94l12.86-6.22-3.55-1.71Z"/><path fill="#fff" d="M107.9,87.28l1.38-.67a13.76,13.76,0,0,1-1.53-2.7L101.38,87l3.6,1.67Z"/><path fill="#fff" d="M74.93,93a19.47,19.47,0,0,0,1.84,5.62,2.42,2.42,0,0,1,1-1.84L86,92.86l-5.14-2.6Z"/><path fill="#fff" d="M107.19,82.74a24.66,24.66,0,0,1-1.35-4l-1.76.81-9.42,4.32,5.11,2.37Z"/><path fill="#fff" d="M121.57,72.45a26.92,26.92,0,0,0,2.73,6.38A10.76,10.76,0,0,0,121.57,72.45Z"/><path fill="#fff" d="M115.61,78.91a5,5,0,0,0,.41.91s-3.09,1.5-5.37,2.63a2.18,2.18,0,0,0-.84,3.23v0L118,81.56a25.52,25.52,0,0,1-2.63-6.28L106.88,79a33.29,33.29,0,0,0,1.17,3.35Z"/><path fill="#fff" d="M66.57,81.08a.87.87,0,0,1,0,.11.76.76,0,0,0,.39.63,14.69,14.69,0,0,0,1.43-2.52l-4.22-2.08a6.38,6.38,0,0,0,.52-1l4.23,2a17.28,17.28,0,0,0,1.26-4,.8.8,0,0,0-.72.06l-.07.08c-.4.46-4-1.57-4-1.57a25.92,25.92,0,0,1-2.94,6.62C62.62,79.57,66.61,80.47,66.57,81.08Z"/><path fill="#fff" d="M123.74,102.09l-.49-.22a7.12,7.12,0,0,0-.31-3.89c-.87-2.45-3.82-3.19-3.82-3.19l-.12.93c1.16.56,2.74,1.54,3.14,3a5.7,5.7,0,0,0-2-1.65c-.6-.37-1.31-.75-1.31-.75a22.55,22.55,0,0,1-1.69,5.06,19.15,19.15,0,0,1-2.15,3.75s3.13,1.34,5,0c-1,1.1-1.9,1.87-5.56.81l-.53.69s4.27,2.07,6.83-.51a11.79,11.79,0,0,0,1-1.1l.51.23a1,1,0,0,0,1.26-.46l.71-1.45A1,1,0,0,0,123.74,102.09Z"/><path fill="#fff" d="M116.49,100.77A15.59,15.59,0,0,0,118,96.16L115,94.73l-2.13-1a1.44,1.44,0,0,0-.66-1.11v0a26.64,26.64,0,0,1-4.07,10l0,0a2.42,2.42,0,0,0,1.44-.24l4.8,2.3A22.27,22.27,0,0,0,116.49,100.77ZM112,98.51l2.44,1.08a1.38,1.38,0,0,0,.82-.34,3.69,3.69,0,0,0,.67-1s-.36,1.09-.65,1.77c-.41,1-.77,1.68-.77,1.68l-3.19-1.54Z"/><path fill="#fff" d="M106.6,97.6l-10-4.85L93.05,91l-1.61-.78-5.16-2.5-7.94-3.85a13.79,13.79,0,0,1-1.52,2.7l1.38.67,4.44,2.15L87.87,92l1.64.79,3.54,1.71,14.63,7.08C109.33,98.59,106.61,97.6,106.6,97.6Z"/><path fill="#fff" d="M103.45,89.43l-3.64-1.67L98.21,87l-5.16-2.37L82,79.59l-1.76-.81a24.07,24.07,0,0,1-1.34,4l9,4.28,5.17,2.47,1.61.77L98.22,92l10.06,4.79a2.45,2.45,0,0,1,1,1.84A19.65,19.65,0,0,0,111.16,93Z"/><path fill="#fff" d="M61.79,78.83a26.92,26.92,0,0,0,2.73-6.38A10.83,10.83,0,0,0,61.79,78.83Z"/><path fill="#fff" d="M76.27,85.7l0,0a2.19,2.19,0,0,0-.84-3.23c-2.29-1.13-5.38-2.63-5.38-2.63a5.55,5.55,0,0,0,.42-.91l7.56,3.43c.72-1.77,1.17-3.35,1.17-3.35l-8.47-3.71a25.09,25.09,0,0,1-2.63,6.28Z"/><circle fill="#101820" cx="93.15" cy="109.09" r="12.44"/><path fill="#fff" d="M93.15,98.75a10.34,10.34,0,1,0,10.35,10.34A10.34,10.34,0,0,0,93.15,98.75Zm9,8.45a.76.76,0,0,1-.57.86,1.71,1.71,0,0,1-2-1c-1.12-3.19-2.16-5.17-5.83-7.09A9.17,9.17,0,0,1,102.12,107.2ZM90,100.49a4.87,4.87,0,0,1,3.43.58,8.28,8.28,0,0,1,4,4.74c.35.93.66,2.52-.82,2.88a3.76,3.76,0,0,1-1.62,0,3.06,3.06,0,0,1-1.86-1.64,15.81,15.81,0,0,0-4.87-5.63l0,0A6,6,0,0,1,90,100.49ZM84.87,113a9.2,9.2,0,0,1-.88-3.93,8.56,8.56,0,0,1,1.07-4.31,7.49,7.49,0,0,1,1-1.37,1.57,1.57,0,0,1,2.29-.35c1.42,1.33.52,1.87.06,2.38l-.89,1S84.79,109.8,84.87,113Zm2.69,3.33a3.24,3.24,0,0,1-1.12-1.67,6,6,0,0,1,.06-3.16,11,11,0,0,1,2.1-4.38,2.18,2.18,0,0,1,1.48-1.08c.89-.08,1.55,1.41,1.61,1.63.45,1.55-.36,2.08-.79,2.94a28.18,28.18,0,0,0-1.68,4.27c-.29,1-.46,2.17-1.24,1.75A3.19,3.19,0,0,1,87.56,116.35Zm5.59,1.91a9.78,9.78,0,0,1-1.63-.15c-1-.22-1.58-.6-1.44-1.69a3.48,3.48,0,0,1,.35-1.08c.55-.8,1.07-.7,2.45-.26a10.91,10.91,0,0,0,7.7-.63A9.13,9.13,0,0,1,93.15,118.26Zm6.29-4.76a9.85,9.85,0,0,1-6.66.19c-1-.38-1.3-1-1.11-1.48a5.76,5.76,0,0,1,.57-1.11c.55-.85,1.05-1.17,1.8-1.12h0a15.55,15.55,0,0,0,8.27-1,3.27,3.27,0,0,1,0,.9A5,5,0,0,1,99.44,113.5Z"/></g></g></svg>