<?xml version="1.0" encoding="utf-8"?>
<!-- Generator: Adobe Illustrator 16.0.0, SVG Export Plug-In . SVG Version: 6.00 Build 0)  -->
<!DOCTYPE svg PUBLIC "-//W3C//DTD SVG 1.1//EN" "http://www.w3.org/Graphics/SVG/1.1/DTD/svg11.dtd">
<svg version="1.1" id="Capa_1" xmlns="http://www.w3.org/2000/svg" xmlns:xlink="http://www.w3.org/1999/xlink" x="0px" y="0px"
	 width="2000px" height="2000px" viewBox="0 0 2000 2000" enable-background="new 0 0 2000 2000" xml:space="preserve">
<polygon fill-rule="evenodd" clip-rule="evenodd" fill="#F5DB18" points="575.725,266.799 543.918,198.787 513.368,265.626 
	433.893,275.079 491.949,324.744 477.89,396.931 543.918,363.212 611.777,398.076 596.487,324.744 654.572,273.893 "/>
<polygon fill-rule="evenodd" clip-rule="evenodd" fill="#F5DB18" points="575.725,266.799 543.918,198.787 513.368,265.626 
	433.893,275.079 491.949,324.744 477.89,396.931 543.918,363.212 611.777,398.076 596.487,324.744 654.572,273.893 "/>
<polygon fill-rule="evenodd" clip-rule="evenodd" fill="#F5DB18" points="575.725,266.799 543.918,198.787 513.368,265.626 
	433.893,275.079 491.949,324.744 477.89,396.931 543.918,363.212 611.777,398.076 596.487,324.744 654.572,273.893 "/>
<polygon fill-rule="evenodd" clip-rule="evenodd" fill="#F5DB18" points="575.725,266.799 543.918,198.787 513.368,265.626 
	433.893,275.079 491.949,324.744 477.89,396.931 543.918,363.212 611.777,398.076 596.487,324.744 654.572,273.893 "/>
<polygon fill-rule="evenodd" clip-rule="evenodd" fill="#F5DB18" points="1538.506,266.799 1506.713,198.787 1474.92,265.626 
	1397.287,275.079 1455.343,324.744 1440.068,396.931 1505.483,363.212 1574.557,398.076 1559.282,324.744 1616.738,273.893 "/>
<polygon fill-rule="evenodd" clip-rule="evenodd" fill="#F5DB18" points="1538.506,266.799 1506.713,198.787 1474.92,265.626 
	1397.287,275.079 1455.343,324.744 1440.068,396.931 1505.483,363.212 1574.557,398.076 1559.282,324.744 1616.738,273.893 "/>
<polygon fill-rule="evenodd" clip-rule="evenodd" fill="#F5DB18" points="1538.506,266.799 1506.713,198.787 1474.92,265.626 
	1397.287,275.079 1455.343,324.744 1440.068,396.931 1505.483,363.212 1574.557,398.076 1559.282,324.744 1616.738,273.893 "/>
<polygon fill-rule="evenodd" clip-rule="evenodd" fill="#F5DB18" points="1538.506,266.799 1506.713,198.787 1474.92,265.626 
	1397.287,275.079 1455.343,324.744 1440.068,396.931 1505.483,363.212 1574.557,398.076 1559.282,324.744 1616.738,273.893 "/>
<polygon fill-rule="evenodd" clip-rule="evenodd" fill="#F5DB18" points="1029.901,150.881 998.124,82.869 966.943,150.881 
	888.069,160.334 946.154,210.613 930.864,281.572 996.895,247.279 1065.939,282.772 1050.692,209.44 1108.749,159.175 "/>
<polygon fill-rule="evenodd" clip-rule="evenodd" fill="#F5DB18" points="1029.901,150.881 998.124,82.869 966.943,150.881 
	888.069,160.334 946.154,210.613 930.864,281.572 996.895,247.279 1065.939,282.772 1050.692,209.44 1108.749,159.175 "/>
<polygon fill-rule="evenodd" clip-rule="evenodd" fill="#F5DB18" points="1029.901,150.881 998.124,82.869 966.943,150.881 
	888.069,160.334 946.154,210.613 930.864,281.572 996.895,247.279 1065.939,282.772 1050.692,209.44 1108.749,159.175 "/>
<polygon fill-rule="evenodd" clip-rule="evenodd" fill="#F5DB18" points="1029.901,150.881 998.124,82.869 966.943,150.881 
	888.069,160.334 946.154,210.613 930.864,281.572 996.895,247.279 1065.939,282.772 1050.692,209.44 1108.749,159.175 "/>
<path fill-rule="evenodd" clip-rule="evenodd" fill="#BE0411" d="M1006.683,308.799c-191.973,186.89-438.902,247.223-740.3,181.557
	c-46.44,221.796-31.779,453.046,44.024,694.348c124.7,339.502,355.169,586.738,691.976,740.496l15.302,7.693l14.062-7.693
	c199.89-98.772,374.101-241.902,523.278-428.807c209.662-305.796,278.709-642.911,207.22-1013.117
	C1491.438,563.701,1238.964,506.314,1006.683,308.799 M304.905,555.407c273.863,42,507.375-15.945,701.777-176.236
	c211.506,168.557,450.533,222.97,717.037,160.291c51.941,366.101-26.278,686.641-232.282,959.304
	c-136.945,164.426-297.098,290.409-479.268,382.074c-306.858-133.063-526.323-373.78-658.354-721.562
	C289.616,944.574,273.126,744.085,304.905,555.407"/>
<path fill-rule="evenodd" clip-rule="evenodd" fill="#FFFFFF" d="M1006.653,379.185C812.28,539.462,578.769,597.407,304.905,555.407
	c-31.779,188.691-15.275,389.181,48.911,603.884c132.031,347.754,351.496,588.472,658.338,721.563
	c182.186-91.666,342.352-217.679,479.283-382.103c205.99-272.662,284.236-593.189,232.282-959.29
	C1457.2,602.154,1218.175,547.741,1006.653,379.185 M1023.171,434.184l25.078,22.465c11.017,11.827,38.494,32.519,81.304,64.466
	c42.769,30.773,121.643,56.186,237.171,73.332c114.911,18.347,223.736,13.013,324.575-12.426l18.36,274.436l-1.843,19.52h1.843
	h-1.843H325.695l-1.229-33.105l16.504-241.917l1.842-11.813l4.888,1.173c87.421,14.786,171.153,17.146,250.015,8.294
	C748.708,593.273,890.541,538.261,1023.171,434.184"/>
<path fill-rule="evenodd" clip-rule="evenodd" fill="#BE0411" d="M1048.249,456.636l-25.078-22.466
	c-132.63,104.091-274.463,159.104-425.455,164.424c-78.862,8.881-162.609,6.506-250.015-8.293l-4.888-1.173l-1.842,11.841
	l-16.518,241.888l1.242,33.133h1382.121l1.829-19.505l-18.333-274.45c-100.853,25.441-209.678,30.76-324.589,12.427
	c-115.528-17.16-194.39-42.572-237.171-73.332C1086.743,489.183,1059.266,468.476,1048.249,456.636 M1230.393,829.843
	L1230.393,829.843h1.256H1230.393z M1194.34,832.203v-1.159l1.83,1.159H1194.34z M1209.602,831.044l1.256,3.532h-1.256V831.044z
	 M1231.648,831.044L1231.648,831.044h-1.256H1231.648z M1405.818,832.203v-1.159l2.457,1.159H1405.818z M1488.365,832.203h-3.673
	v-1.159L1488.365,832.203z M411.886,665.433h1.216v1.201L411.886,665.433z M546.976,646.499l1.216,1.173h-1.216V646.499z
	 M619.734,648.874v0.586V648.874z"/>
<polygon fill-rule="evenodd" clip-rule="evenodd" fill="#D1D2D6" points="1194.326,831.044 1194.326,832.217 1196.17,832.217 "/>
<polygon fill-rule="evenodd" clip-rule="evenodd" fill="#D1D2D6" points="1405.846,831.044 1405.846,832.217 1408.29,832.217 "/>
<polygon fill-rule="evenodd" clip-rule="evenodd" fill="#D1D2D6" points="1484.692,832.203 1488.38,832.203 1484.692,831.03 "/>
<polygon fill-rule="evenodd" clip-rule="evenodd" fill="#D1D2D6" points="413.102,665.433 411.886,665.433 413.102,666.606 "/>
<polygon fill-rule="evenodd" clip-rule="evenodd" fill="#D1D2D6" points="548.191,647.7 546.976,646.499 546.976,647.7 "/>
<path fill-rule="evenodd" clip-rule="evenodd" fill="#BE0411" d="M510.911,921.522H339.742v83.399
	c28.749,147.836,83.147,282.688,162.609,402.166h8.56V921.522z"/>
<path fill-rule="evenodd" clip-rule="evenodd" fill="#BE0411" d="M815.938,919.162H644.771v654.709
	c48.311,49.106,100.879,94.64,158.936,137.226h12.232V919.162z"/>
<polygon fill-rule="evenodd" clip-rule="evenodd" fill="#BE0411" points="1096.531,1795.653 1096.531,919.148 923.548,919.148 
	923.548,1795.653 1010.954,1846.533 "/>
<path fill-rule="evenodd" clip-rule="evenodd" fill="#BE0411" d="M1385.043,919.162h-171.128v791.935h13.433
	c56.855-42.586,110.641-88.119,157.695-137.226V919.162z"/>
<path fill-rule="evenodd" clip-rule="evenodd" fill="#BE0411" d="M1684.596,913.828h-171.168v486.166h8.574
	c78.86-120.079,132.632-253.715,162.594-402.181V913.828z"/>
<path fill-rule="evenodd" clip-rule="evenodd" fill="#FFFFFF" d="M1312.952,725.193l-64.828-117.119l-57.471-20.134l88.063,147.865
	l-49.539,79.252h-1.214l-9.788,14.772h1.256l-1.256,1.201h50.74l44.037-78.637l54.386,80.997h44.01l-60.527-90.492l71.529-104.664
	l-51.34-3.574L1312.952,725.193z M1396.058,832.203h-2.456v-1.173L1396.058,832.203z"/>
<polygon fill-rule="evenodd" clip-rule="evenodd" fill="#D1D2D6" points="1393.602,832.203 1396.073,832.203 1393.602,831.03 "/>
<path fill-rule="evenodd" clip-rule="evenodd" fill="#FFFFFF" d="M1020.741,505.169l-4.3,9.439
	c-3.043,8.866-4.271,21.292-4.271,36.666v278.555h1.229v1.201h38.508v-89.892l77.646,8.294l30.564,85.144h38.482l-1.202-3.546
	c-29.349-93.466-61.128-182.156-94.121-269.703l-6.759-18.933c-12.818-26.6-34.223-41.386-60.515-46.72
	c-6.102,1.201-10.988,4.161-14.059,9.495H1020.741z M1057.394,555.407l12.832,5.334l37.309,121.838h1.215l4.3,14.772l-51.354-4.119
	L1057.394,555.407z M1184.58,832.203h-2.472v-1.173L1184.58,832.203z"/>
<polygon fill-rule="evenodd" clip-rule="evenodd" fill="#D1D2D6" points="1182.122,832.203 1184.58,832.203 1182.122,831.03 "/>
<path fill-rule="evenodd" clip-rule="evenodd" fill="#FFFFFF" d="M1432.124,831.044v1.173l47.068,1.187l13.46-38.453h66.643
	l21.992,38.453h36.079l-72.146-162.665c-12.218-21.279-26.29-30.745-40.338-29.572c-11.016,1.201-18.961,7.693-25.69,18.347h-0.587
	l-6.729,15.387L1432.124,831.044z M1548.278,761.245l-45.839-4.134l10.975-63.893L1548.278,761.245z M1473.09,831.044l3.058,1.173
	h-3.058V831.044z"/>
<polygon fill-rule="evenodd" clip-rule="evenodd" fill="#D1D2D6" points="1476.163,832.203 1473.105,831.03 1473.105,832.203 "/>
<path fill-rule="evenodd" clip-rule="evenodd" fill="#FFFFFF" d="M400.27,665.433c-2.457,4.132-3.657,8.853-2.457,14.186v155.558
	v1.159h27.506V694.419l88.662,134.838l2.431,1.787c12.846,8.838,26.277,8.838,39.737,0l3.044-1.787
	c5.514-10.64,8.587-22.479,8.587-36.065V641.18l-31.806,6.507h-1.216v121.852l1.216,1.173v26.613l-85.592-129.518l-7.316-7.694
	c-9.801-5.906-20.176-7.107-29.964-1.773l-4.272,1.773l-7.344,6.493L400.27,665.433z"/>
<polygon fill-rule="evenodd" clip-rule="evenodd" fill="#D1D2D6" points="400.27,665.433 401.485,666.606 401.485,665.433 "/>
<polygon fill-rule="evenodd" clip-rule="evenodd" fill="#D1D2D6" points="535.974,647.7 534.758,646.499 534.758,647.7 "/>
<path fill-rule="evenodd" clip-rule="evenodd" fill="#FFFFFF" d="M806.165,614.567l-2.458,15.959
	c-7.931,53.239-7.931,109.439,0,167.999v1.759c6.745,14.772,14.061,25.426,23.25,30.76c4.285,2.359,8.545,3.532,12.83,3.532h139.375
	v-57.358l-144.876,8.266v-156.13l144.876-69.785v-63.865l-150.992,92.251c-9.173,4.133-15.89,10.639-18.934,20.106h-1.242
	L806.165,614.567z"/>
<path fill-rule="evenodd" clip-rule="evenodd" fill="#D1D2D6" d="M607.504,648.874l1.2,0.586L607.504,648.874z"/>
<path fill-rule="evenodd" clip-rule="evenodd" fill="#FFFFFF" d="M608.718,649.459l-1.214-0.6l-3.686,5.361
	c-4.259,5.879-7.332,14.759-8.547,24.226v117.691l2.444,7.693c4.272,12.428,11.603,20.693,23.848,27.2l16.504,5.306h133.861V786.67
	l-141.19,5.32v-31.947l141.19-11.813v-46.733l-142.433,15.973v-43.186l142.433-19.493V607.46l-141.19,25.44
	C621.563,637.033,614.219,642.367,608.718,649.459"/>
</svg>
