<?xml version="1.0" encoding="utf-8"?>
<!-- Generator: Adobe Illustrator 16.0.0, SVG Export Plug-In . SVG Version: 6.00 Build 0)  -->
<!DOCTYPE svg PUBLIC "-//W3C//DTD SVG 1.1//EN" "http://www.w3.org/Graphics/SVG/1.1/DTD/svg11.dtd">
<svg version="1.1" id="Capa_1" xmlns="http://www.w3.org/2000/svg" xmlns:xlink="http://www.w3.org/1999/xlink" x="0px" y="0px"
	 width="2000px" height="2000px" viewBox="0 0 2000 2000" enable-background="new 0 0 2000 2000" xml:space="preserve">
<path fill="#FFFFFF" d="M1582.88,180.161c-10.685,0-14.218,9.396-17.304,19.673c-2.989,9.781-7.265,19.326-11.108,28.946
	c-1.216,0.682-2.577,0.607-4.152,0.843c-0.83,0.595-1.352,0.496-2.083,0.496l-41.07,0.768c-9.817,1.514-13.771,8.405-13.771,14.914
	c0,15.854,41.033,33.941,41.033,39.147c0,1.872-12.695,41.045-12.695,42.904c0,9.521,7.477,14.926,14.914,14.926
	c8.044,0,44.875-26.876,46.237-26.876c1.413,0,38.06,26.876,46.277,26.876c7.637,0,14.54-5.777,14.9-14.976l-13.426-42.755
	c7.327-5.739,15.756-13.388,25.19-18.979c11.009-6.608,16.586-13.091,16.586-20.269c0-6.509-3.583-13.4-13.772-14.914l-41.801-0.768
	c-1.487,0-2.913-0.732-4.252-0.942c-3.608-7.785-6.707-16.798-10.029-24.893C1597.882,193.152,1596.591,180.161,1582.88,180.161"/>
<path fill="#FFFFFF" d="M1384.81,119.405c-10.698,0-14.231,9.409-17.306,19.674c-3.012,9.793-7.29,19.338-11.12,28.945
	c-1.202,0.682-2.566,0.608-4.152,0.843c-0.808,0.608-1.352,0.521-2.096,0.521l-41.046,0.756c-9.829,1.5-13.772,8.392-13.772,14.9
	c0,15.868,41.022,33.941,41.022,39.173c0,1.859-12.684,41.02-12.684,42.891c0,9.521,7.451,14.926,14.902,14.926
	c8.046,0,44.875-26.875,46.251-26.875c1.413,0,38.045,26.875,46.264,26.875c7.637,0,14.54-5.789,14.9-14.975l-13.426-42.769
	c7.327-5.752,15.756-13.388,25.19-18.966c11.008-6.62,16.586-13.091,16.586-20.281c0-6.508-3.583-13.4-13.772-14.9l-41.801-0.756
	c-1.487,0-2.913-0.756-4.253-0.955c-3.605-7.797-6.693-16.797-10.028-24.905C1399.798,132.41,1398.519,119.405,1384.81,119.405"/>
<path fill="#FFFFFF" d="M1182.138,43.985c-10.696,0-14.231,9.409-17.304,19.673c-2.988,9.769-7.265,19.338-11.108,28.934
	c-1.214,0.694-2.577,0.62-4.152,0.843c-0.83,0.62-1.353,0.521-2.097,0.521l-41.055,0.744c-9.831,1.512-13.772,8.404-13.772,14.925
	c0,15.855,41.032,33.941,41.032,39.148c0,1.883-12.695,41.032-12.695,42.903c0,9.521,7.477,14.913,14.914,14.913
	c8.032,0,44.862-26.851,46.237-26.851c1.415,0,38.046,26.851,46.252,26.851c7.649,0,14.556-5.776,14.926-14.963l-13.438-42.755
	c7.328-5.752,15.769-13.388,25.203-18.979c10.995-6.608,16.586-13.078,16.586-20.269c0-6.521-3.607-13.413-13.772-14.925
	l-41.8-0.744c-1.501,0-2.926-0.744-4.252-0.942c-3.607-7.81-6.707-16.811-10.042-24.917
	C1197.126,56.989,1195.851,43.985,1182.138,43.985"/>
<path fill="#FFFFFF" d="M964.926,43.985c-10.697,0-14.231,9.409-17.304,19.673c-3,9.769-7.29,19.338-11.108,28.934
	c-1.216,0.694-2.578,0.62-4.152,0.843c-0.831,0.62-1.352,0.521-2.096,0.521L889.21,94.7c-9.833,1.512-13.772,8.404-13.772,14.925
	c0,15.855,41.032,33.941,41.032,39.148c0,1.883-12.694,41.032-12.694,42.903c0,9.521,7.476,14.913,14.914,14.913
	c8.032,0,44.862-26.851,46.237-26.851c1.415,0,38.045,26.851,46.252,26.851c7.648,0,14.553-5.776,14.925-14.963l-13.438-42.755
	c7.328-5.752,15.769-13.388,25.203-18.979c10.995-6.608,16.586-13.078,16.586-20.269c0-6.521-3.607-13.413-13.772-14.925
	l-41.801-0.744c-1.5,0-2.925-0.744-4.264-0.942c-3.594-7.81-6.693-16.811-10.028-24.917
	C979.915,56.989,978.638,43.985,964.926,43.985"/>
<path fill="#FFFFFF" d="M764.55,119.405c-10.698,0-14.231,9.409-17.306,19.674c-3.001,9.793-7.276,19.338-11.106,28.945
	c-1.216,0.682-2.58,0.608-4.152,0.843c-0.833,0.608-1.352,0.521-2.096,0.521l-41.059,0.756c-9.816,1.5-13.772,8.392-13.772,14.9
	c0,15.868,41.034,33.941,41.034,39.173c0,1.859-12.695,41.02-12.695,42.891c0,9.521,7.464,14.926,14.914,14.926
	c8.034,0,44.875-26.875,46.239-26.875c1.414,0,38.045,26.875,46.264,26.875c7.637,0,14.54-5.789,14.912-14.975l-13.424-42.769
	c7.313-5.752,15.756-13.388,25.176-18.966c11.009-6.62,16.6-13.091,16.6-20.281c0-6.508-3.607-13.4-13.772-14.9l-41.803-0.756
	c-1.498,0-2.913-0.756-4.264-0.955c-3.607-7.797-6.693-16.797-10.028-24.905C779.539,132.41,778.26,119.405,764.55,119.405"/>
<path fill="#FFFFFF" d="M564.186,177.917c-10.698,0-14.232,9.409-17.305,19.686c-3,9.781-7.278,19.327-11.108,28.921
	c-1.214,0.694-2.591,0.62-4.166,0.843c-0.817,0.621-1.351,0.521-2.07,0.521l-41.069,0.769c-9.83,1.487-13.772,8.404-13.772,14.9
	c0,15.868,41.02,33.941,41.02,39.161c0,1.872-12.682,41.02-12.682,42.903c0,9.508,7.463,14.913,14.901,14.913
	c8.045,0,44.875-26.863,46.251-26.863c1.4,0,38.044,26.863,46.252,26.863c7.647,0,14.553-5.765,14.912-14.975l-13.425-42.743
	c7.327-5.752,15.768-13.4,25.19-18.979c10.996-6.62,16.598-13.091,16.598-20.281c0-6.496-3.607-13.413-13.772-14.9l-41.813-0.769
	c-1.488,0-2.913-0.744-4.252-0.942c-3.607-7.785-6.693-16.81-10.029-24.917C579.172,190.921,577.896,177.917,564.186,177.917"/>
<path fill="#FFFFFF" d="M1067.669,235.053c13.886,0,97.909,56.553,108.197,62.156c58.87,31.834,121.387,65.974,182.737,82.511
	c32.713,8.678,69.779,11.479,104.848,14.578l57.781,2.355h108.334c12.805,0,33.767,4.116,33.767,20.789v232.063
	c0,142.721,1.799,135.135,0.312,146.478c-4.006,29.206-1.923,34.152-2.381,53.032c-0.62,20.045-1.017,40.301-2.652,56.652
	c-5.889,59.119-10.477,118.3-22.872,176.998c-9.272,43.784-21.085,91.313-34.66,136.869
	c-11.331,37.872-28.786,79.834-47.194,119.218c-23.763,50.714-60.406,107.898-99.904,156.989
	c-36.246,45.099-86.192,97.561-131.773,131.75c-25.637,19.339-52.636,39.966-80.219,59.006
	c-10.041,6.92-152.477,92.555-174.319,92.555c-8.243,0-64.833-29.269-75.159-34.71c-70.041-37.624-144.916-85.611-214.795-149.899
	c-47.342-43.499-87.954-90.879-122.451-137.663c-13.265-17.963-23.915-38.665-34.972-56.64
	c-53.813-88.027-81.879-174.704-106.238-262.014c-21.645-77.54-28.166-160.77-36.124-238.371l-7.078-155.75V415.968
	c0-6.05,13.115-21.793,21.904-19.314l195.679-2.355c52.041-3.099,107.576-9.545,161.414-32.255
	c17.641-7.364,37.065-16.462,55.351-27.086c48.806-28.326,100.077-61.177,150.941-97.126
	C1059.239,235.598,1064.706,235.053,1067.669,235.053"/>
<path fill="#172A74" d="M1056.537,266.775C830.425,420.69,788.415,420.69,515.293,420.69h-20.9l-0.198,136.398
	c-1.996,451.072-4.066,917.565,564.648,1194.143l9.062,4.391l9.1-4.365c573.5-274.235,568.715-739.166,564.141-1188.763
	l-0.979-141.667l-20.778-0.136c-251.934,0-284.313,0-540.252-154.535l-11.517-6.929L1056.537,266.775z M1068.946,308.874
	c248.339,149.217,295.211,153.542,529.666,153.655c0.198,28.661,0.645,100.412,0.645,100.412
	c0.434,39.594,0.843,79.462,0.843,119.391c0,181.063-8.394,362.858-63.545,526.231c-75.036,222.208-224.18,381.366-468.5,500.446
	c-242.39-120.097-390.777-280.223-466.271-503.495c-59.591-176.279-65.974-373.792-65.974-568.739
	c0-26.604,0.098-53.107,0.248-79.512c0,0,0.075-66.569,0.123-94.733C791.55,462.429,847.707,458.413,1068.946,308.874"/>
<path fill="#172A74" d="M1313.938,631.542c-4.438-8.243-6.323-23.206-6.024-44.491c0.298-17.454,2.242-29.863,5.714-37.499
	c5.096-9.818,11.767-13.971,20.652-12.049c3.82,0.645,7.302,2.231,10.478,5.404c2.887,2.852,5.713,6.645,7.635,11.43
	c1.289,2.542,2.244,6.992,3.483,12.694l34.352-6.025c-4.179-19.065-10.525-33.991-19.413-44.801
	c-8.89-11.107-20.951-18.743-36.83-22.536c-20.046-4.785-35.641,0-46.723,14.925c-11.467,15.544-17.479,40.337-18.112,73.697
	c-0.311,25.401,2.865,46.078,9.21,62.59c6.025,16.203,13.377,27.645,21.918,33.991c8.59,6.038,19.699,9.211,33.396,9.211
	c11.084,0,20.318-2.541,27.606-6.992c7.302-4.748,13.364-11.442,18.124-20.342c4.761-8.876,8.591-19.996,10.823-33.037
	l-33.708-17.454c-1.586,11.441-4.76,20.008-8.242,26.045c-3.832,5.715-9.546,8.578-16.884,8.269
	C1323.793,643.927,1318.093,639.799,1313.938,631.542 M1491.854,685.232h40.363l-44.789-161.713l-42.285-2.579l-48.902,163.97h39.42
	l6-27.311l22.252,0.31l21.929,0.608L1491.854,685.232z M663.593,624.849c15.236-0.621,26.999-5.678,34.611-15.57
	c3.186-4.438,5.752-9.21,7.649-14.888c2.555-7.339,3.807-15.917,3.807-25.437c0-9.832-0.967-17.021-3.498-23.703
	c-1.598-4.76-3.816-8.566-6.68-11.752c-6.993-7.933-17.169-10.797-31.45-9.855l-10.476,0.322l-54.024,1.463v159.804h38.776v-59.739
	l14.938-0.645H663.593z M797.686,684.6h40.636l-45.138-177.505l-43.498,4.054l-43.834,160.435l-3.508,13.327h3.508h35.888
	l6.061-28.587l21.895-0.955l21.941-0.632L797.686,684.6z M953.35,653.149c5.094-11.764,8.899-26.368,11.106-44.169l-33.966-14.306
	c-1.613,13.996-4.488,24.793-8.293,32.43c-3.471,7.301-9.185,11.429-16.822,11.739c-7.637,0.658-13.351-3.173-17.493-11.441
	c-4.425-7.935-6.345-23.182-6-45.743c0-18.434,1.885-32.107,5.355-41.306c4.787-12.706,11.467-20.33,20.356-22.561
	c3.83-0.943,7.302-0.322,10.474,1.586c3.174,1.921,5.74,5.405,7.935,9.843c1.301,2.852,2.244,7.636,3.533,13.983l34.302-20.95
	c-4.141-22.884-10.823-39.074-19.699-47.986c-8.888-8.579-21.283-10.153-37.177-5.095c-20.008,6.372-35.579,20.02-47.02,40.363
	c-10.798,20.008-16.835,45.743-16.835,77.837c-0.309,23.838,2.852,43.537,9.198,58.45c6.026,15.595,13.673,26.392,22.24,32.739
	c8.577,6.037,19.722,9.521,33.383,9.521c11.095,0,20.318-2.851,27.322-8.554C942.54,673.468,948.589,664.889,953.35,653.149
	 M1102.343,683.633l1.92-243.666l-39.099-3.174l-0.645,86.404l-41.898,2.554l0.645-84.829l-38.79,8.578l-1.263,234.456l38.465-0.322
	l0.299-98.18l41.948-1.587l-0.333,99.768H1102.343z M1247.854,600.068l1.933-124.201l-38.479-9.533l-1.869,132.792
	c0,12.086-1.924,21.607-5.729,27.656c-3.819,6.669-8.913,9.521-15.596,9.211c-6.979-0.632-12.048-4.451-15.868-11.765
	c-3.47-6.967-5.7-17.157-5.416-29.553l1.946-139.782l-38.765-9.843l-1.598,142.324c-0.322,11.752,0.941,25.426,3.472,40.686
	c1.288,9.521,3.83,18.731,7.969,27.631c3.782,8.889,8.567,15.546,13.341,20.331c4.76,5.07,10.796,7.934,18.11,9.521
	c6.991,1.586,13.648,2.541,19.709,2.541c10.464,0,19.712-2.541,27-7.326c5.382-3.149,10.477-9.174,15.559-17.454
	c4.771-8.269,8.578-17.479,10.798-28.611C1246.576,623.894,1247.854,612.477,1247.854,600.068 M1557.468,494.475l1.624,216.183
	H576.558l-0.299-217.162c243.431,0,287.513,0.979,492.403-138.729C1300.092,494.475,1334.121,494.475,1557.468,494.475
	 M1463.912,568.642l1.277-4.784l12.406,59.441l-13.684-0.657l-13.675-0.644L1463.912,568.642z M657.247,556.233
	c5.069,0,8.888,1.587,10.823,4.476c2.825,3.149,3.78,7.624,3.78,12.693c0,5.071-1.266,9.521-4.451,13.004
	c-2.206,2.864-5.69,4.451-10.152,5.405c-1.933,0.322-3.497,0.322-5.405,0.632l-9.534,0.335v-35.899l11.12-0.646
	C654.692,556.233,655.958,555.924,657.247,556.233 M769.696,554.015l13.995,61.958l-13.995,1.289l-13.65,0.93L769.696,554.015z"/>
<path fill="#172A74" d="M1247.629,1420.928l-10.102-6.397l-6.063-82.424l-4.947-7.971l-5.354-126.605l-51.396-25.165l6.049-2.318
	c0,0,34.746,18.508,45.868,22.227c4.711-7.413,6.05-13.487,12.135-17.193c2.69-5.033-7.424-18.57-7.424-18.57l-18.546-44.516
	l-9.162,1.859l-6.707-56.169v-8.727c15.869-75.223,18.582-40.835-3.693-106.933l-63.049-14.826v-24.967l3.683-2.367
	c1.339,1.376,13.5,11.131,13.5,13.5l-2.368,1.351c0,5.07,9.793,9.781,12.495,13.474h8.43c3.693-3.693,7.426-7.413,8.79-8.404
	c3.693,3.694,3.693,2.343,3.693,4.711c1.363,0-5.058,7.412-3.693,7.412l8.739-1.016c2.368-2.703,9.78-11.107,2.368-17.528
	c-2.368-9.781-11.107-13.5-12.472-20.926l-9.793-8.752v-24.619l-2.366-2.355v-5.058l-11.122-9.794c-5.069,0,0,0-11.144,3.719v1.352
	c-1.34,0-3.719,1.004-3.719,0c0-1.352-1.339-2.715,0-6.409c-1.339-3.693-8.74-9.793-11.12-12.16l-6.396,4.723
	c-1.005-2.355-3.72-4.723-4.71-2.355l-5.071,6.1c-3.719,0-3.719-11.158-3.719-13.513c0-1.364-2.368-1.364-2.368-1.364v6.41
	l-6.395,12.16h-1.03c-11.12-9.793-13.464-15.843-27.298-14.851l-8.429,7.414l-2.368-2.355c-3.694,9.793-12.135,9.793-7.425,17.206
	c0,3.72,0,7.414-2.355,10.104c-3.707,1.029-2.354,0-5.032-2.69c-1.055,2.69-2.382,3.719-6.126,6.409
	c0-1.351-1.325-2.689-2.342-2.689l-7.414,3.693h-1.325c-3.73,2.703-6.113,3.731-8.79,6.099l-1.017,11.108
	c-6.408,0-3.717,0-3.717,1.351c0,3.694-5.047,1.352-5.047,1.352s-1.352-5.058-3.72-1.352c0,3.694,0,8.765,3.72,8.765
	c7.413,3.719,11.119,6.074,12.457,9.781c0,2.367-1.338,11.131-1.338,17.194l-11.119,7.438c0,2.702-2.343,2.702-2.343,2.702
	c0,2.367,4.698,6.062,4.698,6.062c0,2.368,0,2.368-2.355,3.72c-2.343,0-3.72-1.352-5.059-1.352c-1.003,0-3.706,1.352-3.706,3.694
	v17.194c0-7.414-0.991,8.455-3.383,8.455l-8.753,5.045l2.355,17.182l2.714,3.719c3.684,2.355,1.006,11.146,1.006,11.146
	l-12.658,130.088l-11.975,0.781h-2.38c2.38,3.719,2.38,8.752,2.38,11.132c-1.364,0-3.706,0-3.706,1.327l-3.707,2.38
	c0,2.702,0,2.702-2.38,2.702l-2.689,10.76l-7.415,5.082v11.133l16.377,13.215l-3.893,68.392l-2.38,2.38l-2.689,57.979l-7.415,7.413
	l-1.017,18.583v1.338l-2.691,38.12l-2.355,24.954l-8.763,8.404v27.348l191.291,11.292l129.716-12.73L1247.629,1420.928z
	 M1228.079,1357.866l-1.028,4.054l-48.891-5.059l0.705,14.814h-10.14l2.688-19.55L1228.079,1357.866z M1218.3,1333.581l-71.49-4.735
	l2.664-13.14l18.569,2.38l15.855,3.707l1.017,5.689l36.77,1.054L1218.3,1333.581z M1198.764,1273.893l8.044,13.152l7.785,2.689
	l0.669,16.203l-10.798-1.004l-9.768-1.352L1198.764,1273.893z M1202.109,1311.999l-33.05-1.352l-29.007-2.021l8.096-11.801
	l16.201,9.111l19.203-0.359L1202.109,1311.999z M1138.069,1281.975l-0.063-79.288l11.543-26.269l3.954,11.678l0.087,99.296
	L1138.069,1281.975z M1177.727,1300.445l-20.652-0.719v-22.487l20.652,3.669V1300.445z M1171.764,1196.984l6.086,13.487
	l-0.123,62.752l-20.652-3.769v-67.549l7.597-2.889L1171.764,1196.984z M1168.403,1077.271c1.649,2.045,4.017,3.719,5.738,5.058
	l-9.135,7.761l-4.71-7.116L1168.403,1077.271z M1180.875,1125.146l-20.914,0.36l-16.201-0.36l19.895-12.123
	C1165.342,1114.696,1178.865,1123.473,1180.875,1125.146 M1142.755,1040.504l1.699-39.483l7.747,4.065l0.681,37.451l0.324,36.072
	c-3.024,2.715-7.079,3.36-11.146,1.34C1141.727,1063.425,1143.077,1063.425,1142.755,1040.504 M1139.383,1105.585
	c1.711,1.698,3.694,3.396,5.739,5.083l-9.458,7.388l-4.388-6.731L1139.383,1105.585z M1127.233,1129.87l69.484-1.687
	c1.71,2.021-5.418,7.091-3.36,8.777l-75.917,5.727L1127.233,1129.87z M975.463,1179.48l-11.79-5.43l106.228-13.835l3.385-0.284
	l-0.694,4.041l-4.352,3.67L975.463,1179.48z M977.832,1186.199l-7.76,1.723c0,0-3.372,2.666-4.71,5.355
	c-0.694,0-4.81-2.342-4.475-4.028c0.322-0.347,8.504-7.673,8.504-7.673L977.832,1186.199z M1004.832,1132.932l13.016-9.62
	l18.148,4.276l-17.69,17.455L1004.832,1132.932z M1053.724,1268.475l1.697-67.746l10.092-7.811l4.053-8.058l8.082,3.062
	l-0.036,76.463L1053.724,1268.475z M1077.611,1271.152v25.141l-27.26,1.872l1.687-22.252L1077.611,1271.152z M1056.426,1183.831
	c0.683-0.991,7.077-13.474,9.087-12.817l2.045,3.707l-7.115,11.813L1056.426,1183.831z M1049.311,1285.384l-0.311,9.731l-7.76-3
	l-8.096,9.743l-33.073-0.334v-14.479L1049.311,1285.384z M996.712,1199.327l-0.348,26.987l-6.049,2.07l1.017-26.665h1.352
	l2.678-4.054L996.712,1199.327z M989.635,1244.859l4.053-9.062l2.02,4.041l-0.668,63.743l-9.099,4.016l2.007-62.02L989.635,1244.859
	z M998.075,1308.28l41.479-4.376l38.441-3.359l-7.414,6.396l-30.334,3l-60.074,5.43L998.075,1308.28z M1083.066,1302.528
	l15.842,1.376l32.368,2.033l-12.137,5.379l-21.248,1.711l-25.3-3.396L1083.066,1302.528z M1081.38,979.29l10.117,4.24v73.288
	c-2.728,3.024-5.754,3.644-10.117,1.624V979.29z M1081.418,1062.681l10.079,3.087v50.949l-10.117,6.013L1081.418,1062.681z
	 M1101.289,1119.432c1.673,1.686,16.523,9.1,18.533,10.773l-19.215,10.449l-13.5-11.789L1101.289,1119.432z M1091.497,1299.156
	l-10.105-2.863l-0.012-109.077l5.728,2.009l4.39-8.07V1299.156z M1097.508,1299.727l0.038-105.122l15.867-4.017l11.021-32.38
	l7.871,12.806l0.012,129.109L1097.508,1299.727z M1104.289,916.042l16.896-8.058l-0.087,19.426l-18.83,5.851L1104.289,916.042z
	 M998.423,939.323c0.991,2.355,1.35,2.033,4.388,0.694l4.018,1.661l12.83-11.107l2.702,1.673l11.106-8.429
	c1.377-1.351-7.411-10.45-8.094-11.12l4.735-3.049l6.719,5.071l4.748,3.384l11.79-8.455c-0.633-2.033-10.439-9.086-12.461-11.454
	c3.026-4.054,5.394-4.054,8.406-7.091v0.36l7.412,9.099l-0.297,4.054l10.798,10.438l6.719-0.334l1.711,2.008
	c-1.017,5.404,13.797,4.735,19.202,2.702c2.392,0,4.735,0,6.434,0.682c-1.388,15.855-22.625,8.776-22.625,22.934
	c-3.011,0.335-14.168-7.76-11.801-12.818l4.39-5.393c0-1.016-16.19-10.449-14.145-9.111c-13.5-3.025-32.069,22.611-42.843,32.367
	l2.678,2.703c0,0-3.025,3.719-3.371,4.042l-18.211,1.041c0,0-0.993-13.847-0.993-14.516
	C995.039,940.018,996.364,938.988,998.423,939.323 M1050.352,950.455l-4.736-2.368l4.736-6.73l5.069-0.322
	C1054.381,943.377,1051.355,948.087,1050.352,950.455 M1052.038,962.951c-0.683,2.021-4.078,7.425-5.071,9.768l-5.069-2.343
	l5.069-7.103L1052.038,962.951z M1056.092,950.455l0.631-2.021l3.087-2.021h0.311c1.017,0,1.673,0.347,2.366,1.004l-2.044,2.367
	c-0.322,0-0.633,0-0.992,0.335c-0.335,0.335-0.669,1.004-0.669,1.351c-2.059,1.017-2.355,2.368-3.719,4.042
	c-1.017-0.323-1.339-1.339-1.697-2.356C1053.365,951.806,1055.063,951.471,1056.092,950.455 M1039.888,957.199l-3.345,4.053
	l-5.418-6.744l1.352-5.405C1034.161,950.79,1038.215,955.513,1039.888,957.199 M1006.828,969.372
	c1.685,1.661,3.05,19.884,4.711,21.545l-14.158,1.029l-3.693-12.818L1006.828,969.372z M990.515,1000.4l22.063,9.062l-7.078,94.103
	l-25.635,9.459L990.515,1000.4z M979.617,1118.391l28.959-11.789l6.644-96.42c0,0,2.74-2.393,1.724-4.735
	c4.734-5.752,8.43-10.116,13.846-15.187c-3.358-2.677-7.773-5.727-11.453-7.4c1.325-3.397-1.03-13.488,3.335-14.529l22.599,20.231
	c2.69-0.334,0.681-3.719,0.346-4.388l-13.139-9.769l1.351-0.669c2.021,0.335,4.858,3,9.247,4.463
	c6.893,2.281,16.302-2.169,18.745-4.735c0.73-0.843,20.03-18.719,21.568-19.982c7.093,3.037,2.691,8.106,6.743,11.156
	c4.725-2.033,5.74-3.384,9.46-5.405c10.81,1.686,10.81,4.042,19.896-0.992l3.693,1.661c0,2.033,1.03,147.717,1.03,147.717
	l-5.74,3.359c-1.03,2.046-3.372,3.719-6.063,4.054c-1.353,0-2.008-1.352-2.703-0.992c-1.35-0.359-1.35,0.992-2.366,1.648
	l-9.646-5.219V974.157l-7.884-8.194l-12.471,7.103l-1.353,38.417c-4.053-1.673-5.738-5.727-8.429-8.738
	c-3.384-3.05,0.683-8.456-2.045-11.468l-4.724-4.4c1.363-3.694,4.375-4.376,5.752-8.07c2.33-0.682,3.707-4.401,1.017-5.071
	c-2.728,0.669-4.055,4.389-6.421,6.063c-1.327,2.343-2.703,3.384-4.028,5.045l1.673,5.752l4.389,3.359l-0.684,5.74l-5.764,1.686
	l-1.302-2.021l-10.462,8.764c-0.334-0.334-4.711-3.719-5.404-3.371c-1.34,1.686-13.499,11.801-15.855,16.872
	c0,0.991,1.34,0.991,2.021,2.008c2.021,0,10.463-9.087,11.504-11.107l3.024,2.689c-6.781,7.066-11.515,15.521-18.235,22.587
	l-2.046,37.412l-0.99,15.199c0.99,0.669,2.701,1.363,4.039,0.991c2.023-5.38,1.365-12.446,1.688-18.868
	c1.353-10.127,2.379-20.9,2.379-31.016l15.483-18.545l1.365,2.008c0,0.707-6.063,12.818-6.707,13.165v39.124l-0.396,14.132
	l0.694,2.405c2.727,0,10.82,0,14.183,2.355l-1.353,6.743c-0.358,0.657-0.681,0.992-1.041,1.983h-15.844
	c-0.322,0.359-0.322,0.694-0.322,1.042c0,1.041,1.017,2.008,2.344,2.702c1.735-1.352,4.399-1.352,6.087,0l2.689-1.017l4.077,1.363
	l-0.382,2.343l-3.063,8.207c0,0-18.979-5.492-22.885-6.781c-3.894-1.302-5.615-1.252-8.157,0.582
	c-2.28,1.762-34.549,25.724-36.557,27.422L979.617,1118.391z M1069.243,1112.676l-1.686-1.698l-6.061-2.69l1.325-2.354
	c0-0.683-0.67-1.042-1.325-1.339l-2.382,0.656c-0.334,0.335-0.334,1.352-0.334,2.033c-0.348-0.682-0.348-1.351-1.339-1.698
	c0.322,0,1.339-0.335,1.339-1.363c0.334-0.657-0.348-1.314-1.017-1.984h-1.042l-0.631-5.404c0.631-0.669,2.342,0,3.023-1.042
	c0.694,0.373,0.694,0.694,1.327,1.042c1.71-1.042,8.17-4.847,8.17-4.847l-0.05-62.268l-8.442-10.115l-1.339-4.067l11.12,4.401
	l-15.161-10.128c-2.008,0.682-6.398,6.05-5.74,5.727l-3.73-1.326l8.776-10.14l15.197,7.412l3.349,4.054
	c0.359,0,0.694,0.694,1.004,1.376l2.058,32.046l-0.334,65.416L1069.243,1112.676z M1075.319,1119.035l-0.683,8.826l-28.339-7.772
	l8.765-11.802C1056.723,1110.32,1073.286,1117.721,1075.319,1119.035 M1048.342,1062.408v22.276c0,0-5.068,3.013-6.086,2.702
	l-2.368-44.85C1043.608,1050.271,1044.959,1054.338,1048.342,1062.408 M945.787,1168.014l72.173-53.317l69.816,20.256l-10.438,0.645
	l-60.036-14.839l-71.838,52.971L945.787,1168.014z M946.457,1177.447l12.47-2.541l7.501,4.798l-8.146,7.177L946.457,1177.447z
	 M961.307,1201.373l6.074-1.029l12.793-11.889l6.076,5.864l-2.369,76.524l-27.073,4.549L961.307,1201.373z M955.828,1281.789
	l27.844-4.426l-2.481,25.524l-26.615,1.513L955.828,1281.789z M953.857,1320.838l0.718-10.19l24.942-2.367l-5.393,11.479
	l-4.388,7.065l-22.276-0.31L953.857,1320.838z M974.474,1419.911c0,1.71,0.333,0.682,0.333,3.05l-20.913,0.645l-20.579-1.984
	l-0.681-3.05L974.474,1419.911z M929.621,1441.63v-7.141l47.875,2.169l-0.073,7.265L929.621,1441.63z M979.865,1414.195
	l-32.405-7.747l32.405,1.313V1414.195z M978.835,1396.989l-35.764,0.372l5.06-21.967l2.728-24.285l27.309,1.017l3.372,23.628
	L978.835,1396.989z M989.299,1351.457l0.336-12.136l10.437,2.69l34.772-2.033l2.678,5.727l-6.396,4.066L989.299,1351.457z
	 M1072.951,1376.411l-3.05,21.235l-38.43,1.711l1.995-29.343l8.789-18.21l31.34,2.665L1072.951,1376.411z M1091.42,1443.216
	l-10.176,1.34l0.174-101.739l10.002,2.48V1443.216z M1129.255,1445.2h-30.012c-1.352-1.017,1.698-1.017,4.389-1.327h3.036h27.645
	C1133.31,1444.184,1132.305,1444.865,1129.255,1445.2 M1096.566,1398.019l4.041-28.004l9.409-2.689l-2.678-20.95l25.648,5.43
	l1.325,23.59l1.711,24.285L1096.566,1398.019z M1045.95,1327.482l-69.471,1.723l26.95-11.801l46.563-2.033l88.04,2.033l2.7,11.441
	L1045.95,1327.482z M1157.594,1377.428l-1.672,22.252l-13.501,0.67l3.05-18.174l2.678-12.161l2.714-17.194l7.748,0.311
	L1157.594,1377.428z M1180.193,1415.522c-0.361,1.041-1.328,1.041-1.687,2.045l-4.365,1.674h-1.361
	c-0.694,0-1.017-0.347-1.366-1.017l-4.388-3.037l-1.685-1.996c0.334,0,0.706,0,1.017-0.347c0.668,0.347,1.351,0.347,1.685,0
	l2.01,0.347c0.334-0.694,1.711,0,2.728,0c0.322-0.694,1.361,0,2.342,0c0.694-0.694,1.688,0,2.728,0c0-0.347,0.311-0.347,1.016-0.347
	l1.328,1.351V1415.522z M1240.898,1441.146l-55.326,4.697l-2.02-13.115l19.228-0.669l22.944,1.363l16.19,0.322L1240.898,1441.146z"
	/>
<path fill="#172A74" d="M699.604,969.335l-0.52-11.913c6.137-4.822,10.549-10.042,13.226-15.669
	c2.704-5.628,3.893-11.988,3.608-19.091c-0.495-11.231-5.069-20.628-13.71-28.189c-8.64-7.537-18.832-11.058-30.569-10.537
	c-11.828,0.496-21.732,4.909-29.678,13.239c-7.958,8.318-11.678,18.05-11.193,29.182c0.309,6.967,2.007,13.165,5.144,18.57
	c3.125,5.417,7.722,10.09,13.723,13.996l0.508,11.677c-8.938-4.302-15.855-10.19-20.813-17.665
	c-4.946-7.513-7.637-16.24-8.046-26.206c-0.621-14.38,3.905-26.678,13.612-36.893c9.706-10.215,22.016-15.669,36.954-16.313
	c7.029-0.297,13.734,0.744,20.157,3.124c6.383,2.38,12.259,6.037,17.528,10.921c5.033,4.624,8.924,9.83,11.59,15.632
	c2.69,5.777,4.19,12.124,4.476,19.016c0.458,9.992-1.588,19.041-6.099,27.198C715.014,957.57,708.344,964.202,699.604,969.335"/>
<polygon fill="#172A74" points="728.192,987.495 729.368,997.388 639.322,1008.408 643.597,1043.453 633.954,1044.619 
	628.462,999.694 "/>
<path fill="#172A74" d="M736.274,1050.606l2.069,9.706l-59.181,12.496c-6.371,1.352-10.897,2.604-13.625,3.744
	c-2.728,1.165-5.02,2.615-6.816,4.289c-2.777,2.727-4.699,5.826-5.74,9.31c-1.078,3.533-1.178,7.152-0.347,11.021
	c0.794,3.855,2.417,7.239,4.822,10.017c2.393,2.826,5.381,4.884,8.939,6.148c2.405,0.867,5.069,1.239,8.019,1.202
	c2.952-0.049,7.612-0.769,13.958-2.082l59.156-12.484l2.01,9.496l-62.528,13.19c-12.745,2.702-22.812,2.145-30.136-1.6
	c-7.338-3.731-12.075-10.784-14.281-21.16c-2.306-10.996-0.98-19.698,4.041-26.231c5.071-6.471,14.083-11.107,27.099-13.859
	L736.274,1050.606z"/>
<path fill="#172A74" d="M713.117,1175.501c2.528,7.55,2.9,13.698,1.128,18.509c-1.735,4.797-5.629,8.168-11.689,10.165
	c-6.074,2.045-11.195,1.698-15.359-0.992c-4.154-2.727-7.514-7.921-10.079-15.521l-4.427-13.314l36.024-12.023L713.117,1175.501z
	 M753.12,1157.961c2.355,7.065,2.804,12.805,1.352,17.205c-1.475,4.451-4.822,7.513-10.09,9.285
	c-5.901,1.922-10.698,1.525-14.479-1.314c-3.782-2.801-7.192-8.813-10.228-18.036l-1.947-5.789l32.255-10.735L753.12,1157.961z
	 M660.691,1168.348l7.079,21.187c3.621,10.922,8.839,18.347,15.606,22.265c6.793,3.904,15.001,4.301,24.559,1.053
	c5.368-1.76,9.584-4.623,12.682-8.541c3.049-3.93,4.599-8.393,4.585-13.363c2.952,2.492,6.249,3.992,9.881,4.611
	c3.632,0.545,7.487,0.161,11.565-1.152c7.936-2.69,13.314-7.314,16.241-14.033c2.9-6.707,2.864-14.504-0.113-23.393l-6.78-20.417
	L660.691,1168.348z"/>
<path fill="#172A74" d="M803.859,1274.512c6.088,10.475,7.785,20.591,5.058,30.285c-2.764,9.645-9.447,17.603-20.107,23.826
	c-10.834,6.298-21.185,8.393-31.066,6.298c-9.879-2.07-17.689-8.009-23.379-17.802l-11.653-20.107l70.438-40.908L803.859,1274.512z
	 M709.633,1293.441l13.141,22.611c4.561,7.811,8.616,13.45,12.124,16.921c3.521,3.472,7.698,6.224,12.545,8.355
	c7.501,3.248,15.138,4.574,23.046,4.004c7.848-0.632,15.607-3.161,23.243-7.586c12.756-7.438,20.826-17.479,24.198-30.174
	c3.396-12.682,1.289-25.499-6.26-38.503l-15.199-26.119L709.633,1293.441z"/>
<polygon fill="#172A74" points="847.532,1325.759 880.185,1366.568 872.759,1372.543 846.33,1339.482 818.401,1361.82 
	844.73,1394.771 837.318,1400.672 811,1367.771 782.698,1390.382 809.067,1423.332 801.652,1429.246 769.088,1388.56 "/>
<polygon fill="#172A74" points="1413.296,921.311 1413.582,911.381 1504.287,914.01 1505.315,878.704 1515.047,878.989 
	1513.709,924.248 "/>
<path fill="#172A74" d="M1430.168,973.066c9.101-7.116,19.315-10.054,30.656-8.776c12.111,1.351,21.867,6.421,29.318,15.173
	c7.425,8.727,10.475,18.793,9.199,30.123c-1.289,11.542-6.472,20.826-15.511,27.868c-9.049,7.028-19.522,9.892-31.361,8.54
	c-11.727-1.275-21.247-6.346-28.648-15.197c-7.426-8.813-10.487-18.854-9.248-30.012
	C1415.875,989.43,1421.045,980.206,1430.168,973.066 M1406.664,1019.206c1.785,6.235,4.773,11.987,8.976,17.256
	c4.499,5.702,9.693,10.215,15.645,13.586c5.963,3.348,12.422,5.419,19.399,6.199c14.889,1.661,27.879-1.798,39.051-10.389
	c11.193-8.652,17.59-20.107,19.178-34.462c0.88-7.513,0.223-14.628-1.897-21.348c-2.109-6.743-5.653-12.941-10.673-18.656
	c-4.352-4.921-9.361-8.826-15.052-11.677c-5.627-2.864-12.023-4.686-19.089-5.492c-7.154-0.806-14.009-0.248-20.541,1.661
	c-6.508,1.91-12.447,5.071-17.902,9.521c-5.391,4.401-9.63,9.447-12.729,15.124c-3.138,5.716-5.083,12.051-5.865,19.054
	C1404.372,1006.487,1404.892,1013.058,1406.664,1019.206"/>
<path fill="#172A74" d="M1440.421,1118.105c1.809-7.772,4.747-13.202,8.763-16.352c3.98-3.16,9.076-3.979,15.284-2.528
	c6.237,1.463,10.401,4.425,12.511,8.938c2.156,4.512,2.278,10.686,0.432,18.495l-3.223,13.673l-36.94-8.727L1440.421,1118.105z
	 M1397.144,1112.019c1.711-7.251,4.352-12.358,7.923-15.335c3.544-3.049,8.045-3.879,13.4-2.578
	c6.061,1.389,9.952,4.289,11.651,8.665c1.749,4.377,1.488,11.318-0.756,20.752l-1.352,5.913l-33.147-7.81L1397.144,1112.019z
	 M1481.254,1151.725l5.108-21.756c2.651-11.207,2.132-20.244-1.587-27.16c-3.694-6.88-10.465-11.467-20.308-13.773
	c-5.514-1.326-10.597-1.103-15.284,0.607c-4.696,1.723-8.317,4.736-10.92,8.951c-1.203-3.67-3.225-6.67-6.024-9.1
	c-2.79-2.393-6.273-4.078-10.439-5.083c-8.132-1.933-15.159-0.793-21.185,3.397c-6,4.189-10.065,10.835-12.212,19.971l-4.946,20.95
	L1481.254,1151.725z"/>
<polygon fill="#172A74" points="1360.723,1197.567 1377.371,1149.816 1386.742,1153.113 1380.035,1172.266 1465.512,1202.079 
	1462.275,1211.477 1376.75,1181.649 1370.095,1200.827 "/>
<path fill="#172A74" d="M1323.843,1275.727l4.427-8.875l54.085,27.049c5.826,2.876,10.142,4.735,13.017,5.516
	c2.863,0.807,5.553,1.079,8.008,0.905c3.856-0.421,7.265-1.661,10.289-3.756c2.988-2.07,5.33-4.884,7.115-8.355
	c1.772-3.545,2.604-7.177,2.467-10.896c-0.123-3.694-1.189-7.141-3.186-10.339c-1.362-2.156-3.186-4.127-5.527-5.926
	c-2.344-1.809-6.422-4.141-12.248-7.065l-54.087-27.049l4.339-8.653l57.197,28.563c11.653,5.851,19.179,12.47,22.574,19.982
	c3.408,7.525,2.777,15.991-1.971,25.487c-5.009,10.041-11.529,16.017-19.512,17.987c-7.972,1.971-17.926-0.037-29.801-5.987
	L1323.843,1275.727z"/>
<polygon fill="#172A74" points="1281.758,1338.751 1310.106,1297.941 1318.277,1303.595 1295.467,1336.433 1324.328,1356.453 
	1347.086,1323.614 1355.268,1329.293 1332.46,1362.143 1369.821,1388.064 1364.318,1396.048 "/>
<path fill="#172A74" d="M576.295,801.746c9,398.325,100.66,669.437,492.092,858.793
	c392.872-186.319,483.762-458.125,490.891-858.793H576.295z M1068.34,1650.957c-382.656-185.13-472.209-450.191-481.036-839.591
	h961.015C1541.24,1203.096,1452.444,1468.766,1068.34,1650.957"/>
<rect x="574.661" y="730.194" fill="#3D6931" width="355.432" height="53.454"/>
<rect x="1202.158" y="730.194" fill="#B90022" width="355.434" height="53.454"/>
<polygon fill="#172A74" points="1582.906,295.993 1540.943,326.924 1556.996,276.928 1515.047,245.999 1566.852,246.023 
	1582.906,196.029 1598.922,246.023 1650.763,245.999 1608.839,276.928 1624.869,326.924 "/>
<path fill="#FFFFFF" d="M1582.88,1497.922c-10.685,0-14.218,9.421-17.304,19.674c-2.989,9.793-7.265,19.338-11.108,28.945
	c-1.216,0.694-2.577,0.62-4.152,0.844c-0.83,0.619-1.352,0.533-2.083,0.533l-41.07,0.743c-9.817,1.499-13.771,8.405-13.771,14.925
	c0,15.843,41.033,33.942,41.033,39.148c0,1.859-12.695,41.033-12.695,42.904c0,9.533,7.477,14.913,14.914,14.913
	c8.044,0,44.875-26.863,46.237-26.863c1.413,0,38.06,26.863,46.277,26.863c7.637,0,14.54-5.776,14.9-14.975l-13.426-42.744
	c7.327-5.739,15.756-13.4,25.19-18.991c11.009-6.632,16.586-13.091,16.586-20.256c0-6.52-3.583-13.426-13.772-14.925l-41.801-0.743
	c-1.487,0-2.913-0.757-4.252-0.955c-3.608-7.811-6.707-16.822-10.029-24.904C1597.882,1510.913,1596.591,1497.922,1582.88,1497.922"
	/>
<polygon fill="#9F8224" points="1582.906,1613.755 1540.943,1644.696 1556.996,1594.688 1515.047,1563.784 1566.852,1563.784 
	1582.906,1513.776 1598.922,1563.784 1650.763,1563.784 1608.839,1594.688 1624.869,1644.696 "/>
<polygon fill="#172A74" points="1384.834,235.239 1342.86,266.168 1358.925,216.185 1316.963,185.269 1368.768,185.269 
	1384.834,135.273 1400.851,185.269 1452.691,185.269 1410.767,216.185 1426.796,266.168 "/>
<path fill="#FFFFFF" d="M1404.78,1674.337c-10.7,0-14.23,9.384-17.307,19.674c-3,9.779-7.288,19.325-11.105,28.92
	c-1.216,0.682-2.579,0.62-4.153,0.855c-0.831,0.583-1.351,0.521-2.095,0.521l-41.059,0.744c-9.816,1.501-13.772,8.404-13.772,14.913
	c0,15.854,41.033,33.955,41.033,39.146c0,1.886-12.694,41.034-12.694,42.931c0,9.521,7.474,14.9,14.913,14.9
	c8.033,0,44.876-26.864,46.239-26.864c1.412,0,38.058,26.864,46.251,26.864c7.66,0,14.553-5.776,14.925-14.975l-13.437-42.743
	c7.338-5.74,15.769-13.4,25.189-18.991c11.009-6.607,16.6-13.092,16.6-20.269c0-6.509-3.607-13.412-13.772-14.913l-41.803-0.744
	c-1.486,0-2.913-0.756-4.264-0.954c-3.596-7.798-6.695-16.799-10.028-24.903C1419.779,1687.327,1418.49,1674.337,1404.78,1674.337"
	/>
<polygon fill="#9F8224" points="1404.804,1790.156 1362.842,1821.1 1378.896,1771.092 1336.947,1740.175 1388.752,1740.175 
	1404.804,1690.181 1420.822,1740.175 1472.65,1740.175 1430.727,1771.092 1446.768,1821.1 "/>
<polygon fill="#172A74" points="1182.164,159.806 1140.202,190.723 1156.255,140.74 1114.291,109.836 1166.109,109.849 
	1182.164,59.841 1198.18,109.849 1250.022,109.836 1208.085,140.74 1224.127,190.723 "/>
<path fill="#FFFFFF" d="M1202.158,1796.393c-10.697,0-14.23,9.409-17.305,19.674c-3,9.78-7.277,19.337-11.12,28.945
	c-1.214,0.683-2.564,0.62-4.14,0.843c-0.83,0.621-1.365,0.534-2.109,0.534l-41.043,0.742c-9.831,1.5-13.784,8.406-13.784,14.9
	c0,15.869,41.032,33.967,41.032,39.162c0,1.87-12.695,41.045-12.695,42.915c0,9.534,7.477,14.914,14.928,14.914
	c8.031,0,44.861-26.862,46.236-26.862c1.402,0,38.046,26.862,46.251,26.862c7.65,0,14.544-5.776,14.915-14.976l-13.427-42.742
	c7.328-5.74,15.756-13.402,25.19-18.993c11.008-6.606,16.599-13.09,16.599-20.28c0-6.494-3.607-13.4-13.785-14.9l-41.788-0.742
	c-1.5,0-2.925-0.757-4.264-0.957c-3.607-7.796-6.695-16.809-10.028-24.903C1217.146,1809.396,1215.87,1796.393,1202.158,1796.393"/>
<polygon fill="#9F8224" points="1202.184,1912.238 1160.21,1943.179 1176.263,1893.171 1134.313,1862.254 1186.117,1862.254 
	1202.184,1812.26 1218.187,1862.254 1270.029,1862.254 1228.105,1893.171 1244.134,1943.179 "/>
<polygon fill="#172A74" points="564.186,293.75 606.147,324.68 590.095,274.685 632.043,243.755 580.239,243.78 564.186,193.772 
	548.169,243.78 496.327,243.755 538.263,274.685 522.224,324.68 "/>
<path fill="#FFFFFF" d="M564.186,1495.69c-10.698,0-14.232,9.409-17.305,19.673c-3,9.793-7.278,19.339-11.108,28.935
	c-1.214,0.706-2.591,0.619-4.166,0.854c-0.817,0.607-1.351,0.521-2.07,0.521l-41.069,0.743c-9.83,1.501-13.772,8.405-13.772,14.926
	c0,15.867,41.02,33.941,41.02,39.16c0,1.859-12.682,41.021-12.682,42.904c0,9.521,7.463,14.9,14.901,14.9
	c8.045,0,44.875-26.863,46.251-26.863c1.4,0,38.044,26.863,46.252,26.863c7.647,0,14.553-5.776,14.912-14.975l-13.425-42.743
	c7.327-5.74,15.768-13.401,25.19-18.967c10.996-6.632,16.598-13.115,16.598-20.28c0-6.521-3.607-13.425-13.772-14.926l-41.813-0.743
	c-1.488,0-2.913-0.757-4.252-0.955c-3.607-7.811-6.693-16.81-10.029-24.904C579.172,1508.694,577.896,1495.69,564.186,1495.69"/>
<polygon fill="#9F8224" points="564.186,1611.523 606.147,1642.465 590.095,1592.457 632.043,1561.541 580.239,1561.541 
	564.186,1511.545 548.169,1561.541 496.327,1561.541 538.263,1592.457 522.224,1642.465 "/>
<polygon fill="#172A74" points="762.256,235.239 804.23,266.168 788.166,216.185 830.127,185.269 778.323,185.269 762.256,135.273 
	746.24,185.269 694.398,185.269 736.336,216.185 720.294,266.168 "/>
<path fill="#FFFFFF" d="M729.356,1674.337c-10.698,0-14.231,9.384-17.306,19.674c-3,9.779-7.276,19.325-11.108,28.92
	c-1.214,0.682-2.564,0.62-4.152,0.855c-0.817,0.583-1.362,0.521-2.094,0.521l-41.057,0.744c-9.832,1.501-13.773,8.404-13.773,14.913
	c0,15.854,41.032,33.955,41.032,39.146c0,1.886-12.693,41.034-12.693,42.931c0,9.521,7.449,14.9,14.912,14.9
	c8.033,0,44.862-26.864,46.239-26.864c1.414,0,38.044,26.864,46.264,26.864c7.636,0,14.542-5.776,14.9-14.975l-13.414-42.743
	c7.315-5.74,15.744-13.4,25.178-18.991c11.007-6.607,16.598-13.092,16.598-20.269c0-6.509-3.594-13.412-13.772-14.913l-41.813-0.744
	c-1.475,0-2.913-0.756-4.239-0.954c-3.607-7.798-6.707-16.799-10.042-24.903C744.343,1687.327,743.067,1674.337,729.356,1674.337"/>
<polygon fill="#9F8224" points="727.063,1790.156 769.024,1821.1 752.972,1771.092 794.934,1740.175 743.129,1740.175 
	727.063,1690.181 711.048,1740.175 659.216,1740.175 701.142,1771.092 685.114,1821.1 "/>
<polygon fill="#172A74" points="964.926,159.806 1006.889,190.723 990.837,140.74 1032.785,109.836 980.994,109.849 964.926,59.841 
	948.911,109.849 897.068,109.836 939.006,140.74 922.964,190.723 "/>
<path fill="#FFFFFF" d="M951.875,1796.393c-10.7,0-14.219,9.409-17.307,19.674c-2.986,9.78-7.265,19.337-11.106,28.945
	c-1.214,0.683-2.58,0.62-4.152,0.843c-0.819,0.621-1.364,0.534-2.108,0.534l-41.045,0.742c-9.817,1.5-13.772,8.406-13.772,14.9
	c0,15.869,41.032,33.967,41.032,39.162c0,1.87-12.693,41.045-12.693,42.915c0,9.534,7.475,14.914,14.912,14.914
	c8.034,0,44.864-26.862,46.241-26.862c1.412,0,38.044,26.862,46.276,26.862c7.623,0,14.528-5.776,14.9-14.976l-13.426-42.742
	c7.313-5.74,15.756-13.402,25.189-18.993c11.008-6.606,16.587-13.09,16.587-20.28c0-6.494-3.583-13.4-13.772-14.9l-41.801-0.742
	c-1.5,0-2.914-0.757-4.265-0.957c-3.595-7.796-6.694-16.809-10.029-24.903C966.861,1809.396,965.584,1796.393,951.875,1796.393"/>
<polygon fill="#9F8224" points="951.875,1912.238 993.837,1943.179 977.795,1893.171 1019.744,1862.254 967.939,1862.254 
	951.875,1812.26 935.856,1862.254 884.028,1862.254 925.952,1893.171 909.913,1943.179 "/>
</svg>
