<?xml version="1.0" encoding="utf-8"?>
<!-- Generator: Adobe Illustrator 16.0.0, SVG Export Plug-In . SVG Version: 6.00 Build 0)  -->
<!DOCTYPE svg PUBLIC "-//W3C//DTD SVG 1.1//EN" "http://www.w3.org/Graphics/SVG/1.1/DTD/svg11.dtd">
<svg version="1.1" id="Capa_1" xmlns="http://www.w3.org/2000/svg" xmlns:xlink="http://www.w3.org/1999/xlink" x="0px" y="0px"
	 width="2000px" height="2000px" viewBox="0 0 2000 2000" enable-background="new 0 0 2000 2000" xml:space="preserve">
<path fill="#FFFFFF" d="M784.779,93.481v15.576V93.481c-46.74,0-90.512,12.735-133.847,38.954
	c-64.789,39.208-90.328,97.522-100.364,139.543c-13.767,57.68-6.543,124.08,17.823,168.177c-8.38,27.447-7.76,53.411-4.069,73.776
	c-6.134-1.356-12.523-2.035-19.125-2.035c-40.958,0-89.579,27.11-144.533,80.564c-47.25,45.961-69.156,83.389-66.963,114.369
	c1.286,18.289,10.67,33.936,27.884,46.515c23.067,16.862,32.536,41.595,36.013,63.39H242.069h-15.674l0.086,15.661l1.187,218.126
	v72.096v3.929l1.868,3.449l39.22,72.831l4.425,8.226l3.448-0.015c-10.811,56.494-28.791,179.472,23.717,279.41
	c98.794,188.065,243.511,192.418,371.21,196.274c59.869,1.796,116.447,3.521,164.854,23.236
	c81.976,33.439,131.473,80.76,165.492,158.284l13.314,30.36l14.868-29.626c78.879-157.194,138.665-160.573,269.674-168.02
	c31.643-1.797,67.531-3.831,108.279-8.312c111.485-9.428,194.606-51.716,246.66-125.662
	c86.428-122.797,61.144-294.677,49.241-352.525h14.614h7.93l4.681-6.432l47.712-65.565l2.986-4.101v-5.061v-110.61v-15.59h-15.578
	h-10.26c0.662-55.375-16.523-138.496-116.264-148.771c-9.88-1.004-20.156-1.512-30.545-1.512c-11.363,0-21.283,0.593-28.93,1.298
	c-2.348-45.99,26.631-78.046,80.927-109.069l8.893-5.073l-1.13-10.176c-15.692-141.107-113.947-247.464-245.097-265.625
	l-4.042-0.566l-22.53,9.95c-6.375,2.516-15.927,7.039-22.94,7.039c-10.825,0-15.997-9.187-37.566-27.957
	c-28.62-24.904-58.84-42.598-86.115-55.15c186.042-18.558,268.342-120.277,304.737-206.917c4.425-10.559,3.858-21.298-1.583-29.454
	c-4.749-7.181-12.552-11.279-21.356-11.279c-5.456,0-10.938,1.554-16.283,4.607c-101.55,58.231-181.039,94.33-263.493,94.33
	c-58.021,0-117.144-17.131-191.698-55.533C958.369,138.597,872.449,93.481,784.779,93.481"/>
<path fill="none" d="M784.693,93.481c-46.756,0-90.542,12.748-133.874,38.966c-64.775,39.208-90.329,97.51-100.351,139.529
	c-13.781,57.694-6.558,124.094,17.823,168.163c-8.383,27.462-7.747,53.411-4.084,73.792c-6.133-1.371-12.522-2.036-19.123-2.036
	c-40.962,0-89.579,27.11-144.503,80.564c-47.28,45.961-69.171,83.375-66.995,114.369c1.286,18.289,10.67,33.949,27.885,46.529
	c23.083,16.848,32.535,41.582,36.029,63.375H241.957h-15.66l0.086,15.66l1.172,218.14v72.098v3.914l1.868,3.449l39.219,72.831
	l4.423,8.226l3.451-0.015c-10.812,56.494-28.792,179.457,23.729,279.41c98.809,188.064,243.523,192.432,371.208,196.275
	c59.885,1.796,116.45,3.506,164.841,23.249c81.994,33.414,131.473,80.764,165.494,158.271l13.342,30.371l14.839-29.638
	c78.88-157.182,138.667-160.586,269.657-168.021c31.676-1.781,67.56-3.846,108.307-8.325
	c111.488-9.413,194.608-51.702,246.648-125.634c86.428-122.823,61.145-294.703,49.258-352.554h14.611h7.931l4.665-6.416
	l47.715-65.553l2.982-4.099v-5.074v-110.619v-15.563h-15.575h-10.275c0.664-55.405-16.507-138.511-116.249-148.771
	c-9.866-1.019-20.141-1.526-30.545-1.526c-11.362,0-21.285,0.593-28.916,1.299c-2.347-45.977,26.614-78.031,80.93-109.055
	l8.875-5.104l-1.129-10.162c-15.689-141.125-113.935-247.454-245.095-265.628l-4.028-0.566l-22.557,9.95
	c-6.348,2.517-15.913,7.04-22.926,7.04c-10.826,0-15.985-9.187-37.566-27.957c-28.609-24.889-58.84-42.598-86.104-55.135
	c186.056-18.586,268.342-120.292,304.708-206.934c4.452-10.544,3.874-21.313-1.54-29.469c-4.777-7.151-12.564-11.263-21.385-11.263
	c-5.454,0-10.938,1.553-16.266,4.621c-101.54,58.217-181.056,94.316-263.525,94.316c-58.006,0-117.127-17.131-191.681-55.519
	C958.271,138.597,872.337,93.481,784.693,93.481z"/>
<path fill="#2B385D" d="M580.644,572.022c103.107,99.952,220.84,214.649,323.988,314.871c-41.708-1.922-72.21,13.201-89.847,45.582
	l-31.051-46.259H677.221c-10.063,0-23.701-3.888-30.996-10.856c-31.362-29.99-121.152-115.911-185.646-178.281
	c-36.14-33.681-75.105-8.198-55.037,21.977c28.959,45.682,43.969,81.481,45.385,127.473l-18.941-0.084
	c1.683-53.058-23.021-84.35-45.652-120.081c-21.215-36.606,6.037-72.309,38.402-105.409
	C498.385,546.242,540.532,539.825,580.644,572.022"/>
<path fill="#2B385D" d="M477.935,848.534c30.104,2.135,47.336,16.24,62.146,40.395c7.009-27.264,11.038-39.801,6.486-83.219
	c-32.436-31.32-64.858-62.302-97.31-93.565c-19.095-3.394-11.957,5.2-0.099,27.066C488.875,812.522,476.647,848.45,477.935,848.534"
	/>
<path fill="#2B385D" d="M1431.596,1561.441c0.849-14.459-1.483-64.282-8.271-78.739c-46.781,59.531-99.528,90.157-231.381,90.157
	c-95.714,0-144.716,64.537-174.481,109.016c-33.498-57.072-83.969-108.659-156.898-119.585
	c-132.476-19.873-250.011,22.628-379.817-32.749c-136.137-69.764-166.736-171.726-131.484-337.16h19.928
	c-46.614,140.801,0.226,263.636,117.889,316.369c124.039,56.817,194.099,26.473,320.414,26.473
	c95.712,0,161.504,42.344,208.965,117.945c31.011-47.163,65.809-92.9,161.876-98.156c124.191-6.813,174.382-19.577,233.929-85.935
	l-3.436-16.31c-69.085,77.665-139.331,75.954-238.352,84.11c-56.847,4.664-117.186,30.559-152.008,78.131
	c-16.312-19.279-58.132-128.857-289.418-102.667c-159.682,18.092-225.418-0.791-296.086-72.294
	c-34.461-34.866-57.935-89.368-57.428-150.68c0.313-36.777,9.272-75.998,29.669-114.864c0.578-1.498,1.99-2.954,2.571-4.411h-71.869
	c-0.283,1.131-28.775,65.087-20.339,157.62c12.494,137.056,119.882,259.016,254.42,288.343
	c83.984,18.304,168.208-8.185,251.923,13.68c70.06,18.277,132.573,60.084,177.136,117.057c6.516,8.354,12.677,17.004,18.419,25.938
	c58.202-106.5,123.683-138.711,281.047-128.239c122.299,8.171,235.074-31.248,283.057-103.049
	C1509.076,1561.441,1444.923,1563.942,1431.596,1561.441"/>
<path fill="#2B385D" d="M1437.051,508.35c-238.069,67.023-334.458,48.762-443.078-24.466
	c-110.526,95.136-281.659,106.061-340.82,45.78c-20.013-9.372-42.798-23.222-55.419-34.302
	c-7.477,141.223,155.879,246.153,418.005,107.415c87.715,52.437,262.268,60.324,393.838-18.147
	c46.995,43.038,85.678,85.792,106.313,128.843c-35.716,53.566-42.132,116.038-28.395,204.274
	c7.322-7.362,22.895-33.991,51.928-49.763c-0.156-64.338,38.429-125.042,87.786-154.172
	C1606.883,617.632,1541.557,543.316,1437.051,508.35 M1528.455,856.535l-21.484,15.913c-17.429-75.474-4.749-134.255,61.682-185.618
	c-30.392-60.915-74.262-103.388-125.849-135.597c-114.626,75.57-295.635,107.033-428.679,35.77
	c-139.555,77.002-328.566,93.962-374.146-7.349c91.174,72.901,256.258,62.981,372.323-13.47
	c116.363,73.199,296.653,45.963,425.073-32.521c73.918,32.521,134.426,80.815,165.646,163.993
	C1550.078,739.507,1528.455,789.201,1528.455,856.535"/>
<path fill="#2B385D" d="M804.454,1091.184v-138.61l-31.167-48.72h-8.225h-63.729h-14.105v14.106v113.422
	c0,9.936-5.119,14.204-12.158,14.997l0.143-87.362l-37.072-54.626h-1.596h-62.09h-2.176h-14.246h-14.091v14.119v51.687v10.021v1.131
	v0.24l0.182,0.029l14.911,12.749l-0.211,55.375c0,20.763,5.499,39.969,20.324,58.23c2.119,2.319,26.259,36.438,52.069,47.561
	c31.349,13.525,86.907,7.858,110.171-9.469l7.532,12.041h65.864v-51.632L804.454,1091.184z M784.142,1105.147h-72.068v-1.217
	l0.156-11.504c-44.438,38.782-139.301,24.495-139.301-42.653l0.337-91.461l-15.235-3.292v-36.578h14.246h2.176h62.091v107.105
	c0,48.394,64.789,43.164,64.789,5.795V917.918h63.729v147.345l20.138,4.493L784.142,1105.147z"/>
<path fill="#2B385D" d="M1224.24,987.3h-45.299v68.944h48.76c7.308,0,24.127-7.646,24.127-36.21
	C1251.828,988.896,1231.801,987.3,1224.24,987.3"/>
<path fill="#2B385D" d="M1308.534,959.797c-12.747-24.508-42.643-33.81-71.107-34.74c-21.681-0.693-36.959,3.448-45.325,8.141
	V885.65v-25.78h-2.477l-15.546,0.042h-0.295l-41.921-0.042h-0.624h-17.991h-0.988h-17.979h-1.372h-8.537l-11.475,23.464v77.763
	l22.811,8.368v86.835l-11.802,6.615l-11.239,28.806l0.228,71.418h37.936h104.562c40.719,0,60.266-6.219,78.174-40.196
	c7.18-13.639,16.096-36.154,23.305-57.539c0.721-2.134,0.918-4.509,1.356-6.783c0.029-0.155,0.044-0.283,0.073-0.424
	c0.538-2.841,1.002-5.781,1.412-8.806c0.158-1.132,0.355-2.248,0.496-3.406c0.934-7.803,1.498-16.111,1.498-25.129
	C1321.705,995.143,1316.435,975.004,1308.534,959.797 M1223.106,1105.303h-111.021h-17.806v-42.217l18.881-4.155V912.999
	l-18.881-3.293V874.4h15.913h3.054h18.614h46.133v82.031c0,0,11.63-16.875,49.707-16.875c45.681,0,79.8,8.508,79.8,81.326
	C1307.501,1093.316,1276.93,1105.303,1223.106,1105.303"/>
<path fill="#2B385D" d="M446.063,912.546h-75.249v58.273h75.25C470.288,970.819,469.723,912.546,446.063,912.546"/>
<path fill="#2B385D" d="M533.337,950.525c0.029-1.075,0.228-2.135,0.228-3.238c0-57.383-34.246-87.417-68.083-87.417H290.167
	h-14.104v14.106v19.179v11.829v12.763v11.041l18.599,38.526v83.207c0,0.89-0.166,1.652-0.251,2.459l-7.152,1.526l-11.194,2.219
	v27.42v5.653v25.413v0.114l30.871,45.623h7.292h15.588h33.681h30.868h20.479v-29.725l-0.083-32.647l-6.178-12.877l-0.255-0.819
	h71.193C535.403,1084.88,539.629,987.526,533.337,950.525 M456.833,1026.776h-85.735v38.287l16.11,2.572v37.665h-16.394h-31.181
	h-47.658h-1.809v-36.224l19.011-4.014l-0.228-152.531l-18.784-3.307v-35.307h175.315
	C538.708,873.918,538.95,1026.776,456.833,1026.776"/>
<path fill="#2B385D" d="M1456.895,1055.17l-5.187-1.116l-0.073-57.991v-64.506v-57.074v-14.656h-13.113l-20.256,0.043h-50.33
	l-18.613,0.057l-2.304-0.1l-17.088,40.465v60.45l14.868,8.509l0.893,107.699l-15.76,29.808v56.381h1.836h44.14h31.631h11.832h4.819
	h24.168l19.702-35.9v-58.274v-11.42L1456.895,1055.17z M1453.953,1105.303h-9.637h-6.771h-31.18h-47.657h-1.81v-35.955l18.782-4.169
	V913.408l-18.782-3.307v-35.617h62.485h18.161v57.043v64.507l0.072,69.396l16.336,3.477V1105.303z"/>
<path fill="#2B385D" d="M972.729,957.521h-51.432c-10.756,0-16.127,5.667-16.127,17.001v19.9h83.699v-19.9
	C988.869,963.188,983.482,957.521,972.729,957.521"/>
<path fill="#2B385D" d="M971.441,903.798h-55.94c-51.036,0-88.76,32.988-92.604,79.46c-0.297,3.024-0.452,6.107-0.452,9.257v56.789
	c0,2.19,0.169,4.298,0.34,6.433l-0.056,0.027c0,80.053,52.18,105.961,104.236,107.247c73.536,1.809,108.661-17.087,108.661-17.087
	l6.825-3.746l0.536-43.941l-23.095-29.061c9.81,1.91,15.394-4.24,15.394-4.24l27.206-36.451v-11.645v-6.757l0.511-29.639
	C1063.002,936.036,1024.501,903.798,971.441,903.798 M1048.897,1014.86c0,7.32-5.951,13.259-13.273,13.229l-134.525-0.564v5.979
	c0,26.613,4.084,36.225,22.586,37.213c36.451,1.95,81.014-6.388,81.014-6.388v41.469c-15.32,3.235-59.913,7.308-88.224,6.912
	c-44.066-0.58-79.854-24.31-79.854-66.132V991.09c0-41.822,32.521-73.24,78.879-73.24h55.941c46.359,0,77.457,27.263,77.457,62.556
	V1014.86z"/>
<path fill="#2B385D" d="M972.729,957.521h-51.432c-10.756,0-16.127,5.667-16.127,17.001v19.9h83.699v-19.9
	C988.869,963.188,983.482,957.521,972.729,957.521"/>
<path fill="#2B385D" d="M1558.078,1051.043c0,24.875,23.108,21.525,27.603,21.525h42.218v-43.503h-49.641
	C1578.26,1029.065,1558.078,1028.429,1558.078,1051.043"/>
<path fill="#2B385D" d="M1729.465,1113.798l-0.438-14.531l-1.231-29.369l-0.324-10.94l-10.67-2.402l-7.549-1.711l-0.877-74.018
	c0-18.628-8.365-37.752-20.237-51.419c-16.325-20.41-48.748-25.612-73.116-25.612c-32.916,0-100.604,8.439-100.604,8.439
	l-16.069,23.928v12.155v53.794l11.903-2.405c-2.885,1.613-5.401,3.21-7.067,4.721c-28.649,25.696-18.699,103.926-18.699,103.926
	c5.951,38.614,42.472,55.843,84.179,55.843c39.604,0,55.787-11.405,55.787-11.405l6.6,10.276h68.479l29.936-44.833l-0.155-4.44
	h0.155V1113.798z M1640.634,1113.698l0.41-14.77c-48.054,37.397-139.303,26.346-139.303-42.629c0,0-1.568-17.836,2.755-28.974
	c6.517-16.775,21.64-22.246,35.152-24.196c10.274-1.456,32.734-1.584,32.734-1.584h58.217l-0.143-9.753
	c0-29.284-12.24-31.673-25.696-31.998c-42.809-1.059-77.958,6.502-77.958,6.502V924.66c15.319-3.236,56.562-6.813,88.22-6.813
	c44.068,0,79.856,24.142,79.856,70.811l0.325,77.439l18.485,4.184l0.353,43.419L1640.634,1113.698L1640.634,1113.698z"/>
<path fill="#2B385D" d="M1074.351,412.311c-108.066,7.265-172.008,65.327-254.393,88.252
	c-100.731,28.026-200.715-10.148-234.69-112.363c0,0,15.984,122.935,132.305,148.206c161.579,35.136,267.015-91.671,404.736-87.714
	C1237.256,452.013,1325,510.173,1325,510.173S1247.688,407.238,1074.351,412.311"/>
<path fill="#2B385D" d="M944.547,287.085c0,0,79.897,61.623,282.889,80.732c-147.23,5.909-284.908-19.93-284.908-19.93
	S949.521,319.014,944.547,287.085"/>
<path fill="#2B385D" d="M833.299,479.475c0,0,162.511-102.329,304.626-74.909c-126.694-37.143-227.328-10.545-227.328-10.545
	L833.299,479.475z"/>
<path fill="#2B385D" d="M605.011,251.793c0,0,67.87-158.793,239.116-107.217c213.562,64.322,360.225,258.589,668.003,58.019
	c-7.081,13.159-174.792,315.974-653.741,9.3C790.615,168.504,696.047,130.428,605.011,251.793"/>
<path fill="#2B385D" d="M839.039,269.955c-18.659-20.421-49.737-29.001-65.425-32.252c-15.973,13.611-39.955,41.724-47.348,52.097
	c8.875,21.299,30.19,53.27,37.298,63.319c42.911-0.875,70.415-13.61,70.415-13.61C842.587,307.24,841.101,283.863,839.039,269.955
	 M787.818,281.404l-30.927,11.335l22.701-35.208l39.135,20.339L787.818,281.404z"/>
<path fill="#2B385D" d="M758.164,153.339c-94.78,0-171.612,76.831-171.612,171.625c0,94.78,76.834,171.613,171.612,171.613
	c94.781,0,171.612-76.833,171.612-171.613C929.778,230.169,852.946,153.339,758.164,153.339 M600.418,326.208
	c-0.028-0.424-0.073-0.833-0.073-1.244c0-0.833,0.085-1.637,0.101-2.458C600.418,323.805,600.418,324.993,600.418,326.208
	 M872.437,385.315c-6.136-7.477-21.864-26.288-30.728-33.129c12.381,14.133,21.655,34.825,23.816,39.829
	c-6.855,27.985-31.321,50.881-35.489,53.934c5.653,5.598,18.669,8.141,18.669,8.141c-25.64,18.007-56.817,28.678-90.541,28.678
	c-6.939,0-13.752-0.539-20.465-1.401c12.338-3.617,26.6-11.774,34.825-16.889c20.876-0.99,39.985-7.987,50.965-16.085
	c-25.877,8.128-45.468,8.157-56.702,6.996c-15.321-7.646-24.438-20.607-30.744-30.6c6.516-9.993,18.785-32.832,26.715-55.813
	c-7.633,19.066-27.999,38.585-37.937,47.334c-23.476,3.024-50.556-4.34-69.338-10.022c-4.411,19.9-0.793,32.423,1.695,39.461
	c-30.078-25.159-50.756-61.086-55.617-102.073c1.838,1.186,8.72,5.653,15.731,9.808c4.959,14.728,15.449,32.508,33.596,47.942
	c-24.083-29.596-17.708-60.747-17.708-60.747s-0.115-0.056-0.313-0.14c6.487-15.11,12.762-28.325,19.716-39.631
	c10.744-5.146,35.18-14.474,66.63-11.337c-13.005-5.68-39.86-7.462-63.041-6.162c-7.971-13.286-10.586-27.491-8.565-38.373
	c1.273-2.969,3.024-6.56,5.231-10.502c2.669-4.028,4.96-7.619,6.922-10.855c8.409-11.746,20.89-24.309,38.714-32.719
	c-43.15,9.965-74.811,37.142-89.707,55.843c60.788-81.89,128.813-84.393,175.782-71.701c4.875-1.429,8.013-1.936,8.013-1.936
	s-1.216-1.33-2.983-2.884c25.583,5.172,48.917,16.536,68.38,32.451c12.762,15.094,18.755,33.2,20.268,42.797l-27.406,17.767
	c0,0,18.543-6.968,30.898-10.841c14.77,9.484,22.768,22.586,26.811,31.759c8.719,45.582-0.186,74.301-5.809,86.654
	C892.054,379.944,880.563,383.449,872.437,385.315 M669.941,424.605l49.919,7.012l24.934,31.956
	C744.795,463.574,700.356,457.341,669.941,424.605 M631.102,250.41l7.788,40.464l-21.018,35.801
	C607.767,283.383,631.102,250.41,631.102,250.41"/>
<path fill="#2B385D" d="M739.692,187.316c1.921,0.296,3.859,0.564,5.542,0.889l-16.635-1.044c-0.056,0-0.128,0.014-0.198,0.014
	c0.379,0.241,36.069,23.646,40.635,37.044c3.915-15.123,7.193-25.128,8.945-30.133C764.653,190.071,751.875,187.951,739.692,187.316
	"/>
<path fill="#2B385D" d="M1648.804,1175.052l-100.831,0.283c36.904,102.752,55.433,183.682,37.498,223.993
	c-16.086,36.125-42.613,44.055-90.034,1.751c-87.4-77.946-136.474-129.224-221.248-210.042l-25.046-0.225
	c82.514,77.313,171.032,161.322,253.561,238.959c30.161,28.634,66.852,42.527,100.139,24.309
	c36.775-30.91,56.844-130.92,22.67-257.162l15.308,0.169c62.429,307.877-80.378,324.993-154.639,247.144
	c-77.665-74.696-120.532-115.062-198.226-190.042l-62.37-61.58c0,0-84.649-1.288-130.824-1.189
	c-32.846,0.1-40.068-15.561-40.068-15.561c-41.497,15.732-78.003,16.679-78.003,16.679c2.051,1.979,292.227,279.254,298.729,285.347
	c32.281,30.261,103.854-9.484,138.258-56.127c22.924,28.282,35.163,76.438,31.839,112.267
	c59.451-2.897,116.38-10.743,164.446-36.521c35.832-18.232,61.146-79.036,61.725-165.083v-5.483
	C1671.431,1283.359,1663.388,1228.86,1648.804,1175.052"/>
<g>
	<g>
		<defs>
			<path id="SVGID_1_" d="M439.52,632.345c-14.177,14.444-24.479,26.797-31.265,37.766c16.777-8.665,42.26-7.349,66.486,15.207
				c70.173,67.603,174.624,167.811,197.562,189.817h113.295l26.234,42.26c16.055-21.06,39.886-33.751,64.647-39.207l-100.083-96.957
				c-69.068-66.939-139.95-135.644-203.156-196.659c-9.854-7.803-20.709-14.373-35.194-14.388
				C516.336,570.185,486.442,584.926,439.52,632.345"/>
		</defs>
		<clipPath id="SVGID_2_">
			<use xlink:href="#SVGID_1_"  overflow="visible"/>
		</clipPath>
		
			<linearGradient id="SVGID_3_" gradientUnits="userSpaceOnUse" x1="521.2334" y1="726.6641" x2="535.7088" y2="726.6641" gradientTransform="matrix(15.3774 21.8902 -21.8902 15.3774 8450.9414 -21958.498)">
			<stop  offset="0" style="stop-color:#004A87"/>
			<stop  offset="0.5687" style="stop-color:#00385D"/>
			<stop  offset="1" style="stop-color:#00385D"/>
		</linearGradient>
		<polygon clip-path="url(#SVGID_2_)" fill="url(#SVGID_3_)" points="721.771,349.952 1039.792,802.657 562.963,1137.626 
			244.941,684.908 		"/>
	</g>
</g>
<g>
	<g>
		<defs>
			<path id="SVGID_4_" d="M1015.457,1204.139c0,0,158.48,158.498,282.744,268.812c95.091-10.147,109.042-86.215,109.042-86.215
				L1214.516,1206.7c0,0-34.217-0.412-81.144,0c-45.581,0.396-66.781-3.647-84.942-13.738
				C1028.248,1200.013,1015.457,1204.139,1015.457,1204.139"/>
		</defs>
		<clipPath id="SVGID_5_">
			<use xlink:href="#SVGID_4_"  overflow="visible"/>
		</clipPath>
		
			<linearGradient id="SVGID_6_" gradientUnits="userSpaceOnUse" x1="558.1362" y1="732.1509" x2="572.608" y2="732.1509" gradientTransform="matrix(4.9884 25.6547 -25.6547 4.9884 17177.6836 -16805.6836)">
			<stop  offset="0" style="stop-color:#004A87"/>
			<stop  offset="0.5687" style="stop-color:#00385D"/>
			<stop  offset="1" style="stop-color:#00385D"/>
		</linearGradient>
		<polygon clip-path="url(#SVGID_5_)" fill="url(#SVGID_6_)" points="1392.967,1119.563 1459.691,1462.745 1029.729,1546.346 
			963.004,1203.164 		"/>
	</g>
</g>
<g>
	<g>
		<defs>
			<path id="SVGID_7_" d="M694.309,1599.559c62.809-3.474,158.409,7.635,214.324,43.76c25.906,16.748,50.486,37.496,71.192,60.365
				l23.928-25.766c0,0-75.742-82.398-161.167-95.657c-107.135-16.621-327.677,20.622-421.27-69.608
				C478.132,1583.943,572.844,1606.23,694.309,1599.559"/>
		</defs>
		<clipPath id="SVGID_8_">
			<use xlink:href="#SVGID_7_"  overflow="visible"/>
		</clipPath>
		
			<linearGradient id="SVGID_9_" gradientUnits="userSpaceOnUse" x1="548.0742" y1="722.707" x2="562.5442" y2="722.707" gradientTransform="matrix(29.5363 19.9918 -19.9918 29.5363 -1103.2188 -30746.2734)">
			<stop  offset="0" style="stop-color:#004A87"/>
			<stop  offset="0.5687" style="stop-color:#00385D"/>
			<stop  offset="1" style="stop-color:#00385D"/>
		</linearGradient>
		<polygon clip-path="url(#SVGID_8_)" fill="url(#SVGID_9_)" points="604.305,1242.287 1092.428,1572.678 820.749,1974.048 
			332.641,1643.671 		"/>
	</g>
</g>
<g>
	<g>
		<defs>
			<path id="SVGID_10_" d="M1570.401,1190.528c37.965,110.299,47.181,177.448,29.909,216.177
				c-9.838,22.189-23.548,35.263-40.662,38.966c-0.738,0.156-1.515,0.298-2.277,0.41c12.184,3.11,25.37,2.7,38.516-4.438
				c25.596-22.005,49.778-112.957,15.106-240.967l-2.769-10.245L1570.401,1190.528z"/>
		</defs>
		<clipPath id="SVGID_11_">
			<use xlink:href="#SVGID_10_"  overflow="visible"/>
		</clipPath>
		
			<linearGradient id="SVGID_12_" gradientUnits="userSpaceOnUse" x1="554.9692" y1="748.1484" x2="569.4436" y2="748.1484" gradientTransform="matrix(-1.3978 11.0079 -11.0079 -1.3978 10619.9414 -3799.666)">
			<stop  offset="0" style="stop-color:#004A87"/>
			<stop  offset="0.5687" style="stop-color:#00385D"/>
			<stop  offset="1" style="stop-color:#00385D"/>
		</linearGradient>
		<polygon clip-path="url(#SVGID_11_)" fill="url(#SVGID_12_)" points="1678.003,1194.543 1644.267,1460.229 1525.035,1445.091 
			1558.771,1179.406 		"/>
	</g>
</g>
<g>
	<g>
		<defs>
			<path id="SVGID_13_" d="M620.064,1136.354c46.431,21.369,99.503,0,99.503,0l-15.492-27.476
				c-68.55,37.383-117.932-8.255-117.932-8.255S594.991,1117.938,620.064,1136.354"/>
		</defs>
		<clipPath id="SVGID_14_">
			<use xlink:href="#SVGID_13_"  overflow="visible"/>
		</clipPath>
		
			<linearGradient id="SVGID_15_" gradientUnits="userSpaceOnUse" x1="447.3003" y1="1103.7617" x2="461.771" y2="1103.7617" gradientTransform="matrix(-0.0895 3.3998 -3.3998 -0.0895 4445.8975 -309.3545)">
			<stop  offset="0" style="stop-color:#004A87"/>
			<stop  offset="0.5687" style="stop-color:#00385D"/>
			<stop  offset="1" style="stop-color:#00385D"/>
		</linearGradient>
		<polygon clip-path="url(#SVGID_14_)" fill="url(#SVGID_15_)" points="721.063,1100.668 719.466,1161.23 584.645,1157.683 
			586.243,1097.119 		"/>
	</g>
</g>
<g>
	<g>
		<defs>
			<polygon id="SVGID_16_" points="292.5,1118.416 310.421,1145.357 402.955,1145.357 387.775,1118.416 			"/>
		</defs>
		<clipPath id="SVGID_17_">
			<use xlink:href="#SVGID_16_"  overflow="visible"/>
		</clipPath>
		
			<linearGradient id="SVGID_18_" gradientUnits="userSpaceOnUse" x1="288.0869" y1="895.8379" x2="302.5636" y2="895.8379" gradientTransform="matrix(3.1576 3.7215 -3.7215 3.1576 2763.9312 -2778.3545)">
			<stop  offset="0" style="stop-color:#004A87"/>
			<stop  offset="0.5687" style="stop-color:#00385D"/>
			<stop  offset="1" style="stop-color:#00385D"/>
		</linearGradient>
		<polygon clip-path="url(#SVGID_17_)" fill="url(#SVGID_18_)" points="356.724,1063.933 416.24,1134.079 338.731,1199.829 
			279.214,1129.683 		"/>
	</g>
</g>
<g>
	<g>
		<defs>
			<path id="SVGID_19_" d="M1023.003,1115.69l-13.061,2.772c-17.921,3.759-65.708,8.336-96.405,7.603
				c-28.69-0.366-53.212-8.918-70.78-23.364c17.284,33.441,51.939,42.611,82.44,43.363c63.01,1.866,97.326-12.112,104.688-15.378
				l0.383-30.628l-7.263-9.144v24.775H1023.003z"/>
		</defs>
		<clipPath id="SVGID_20_">
			<use xlink:href="#SVGID_19_"  overflow="visible"/>
		</clipPath>
		
			<linearGradient id="SVGID_21_" gradientUnits="userSpaceOnUse" x1="468.1484" y1="706.5527" x2="482.62" y2="706.5527" gradientTransform="matrix(9.5932 4.6349 -4.6349 9.5932 -292.4219 -7834.623)">
			<stop  offset="0" style="stop-color:#004A87"/>
			<stop  offset="0.5687" style="stop-color:#00385D"/>
			<stop  offset="1" style="stop-color:#00385D"/>
		</linearGradient>
		<polygon clip-path="url(#SVGID_20_)" fill="url(#SVGID_21_)" points="878.246,1017.461 1052.6,1101.698 994.776,1221.383 
			820.422,1137.146 		"/>
	</g>
</g>
<g>
	<g>
		<defs>
			<path id="SVGID_22_" d="M1239.094,1117.769H1094.32l-11.659,29.398h111.755c43.322,0,75.446-14.077,93.595-37.243
				C1281.028,1117.5,1239.094,1117.769,1239.094,1117.769"/>
		</defs>
		<clipPath id="SVGID_23_">
			<use xlink:href="#SVGID_22_"  overflow="visible"/>
		</clipPath>
		
			<linearGradient id="SVGID_24_" gradientUnits="userSpaceOnUse" x1="398.9424" y1="919.5073" x2="413.415" y2="919.5073" gradientTransform="matrix(0.6344 3.426 -3.426 0.6344 4080.3276 -833.1719)">
			<stop  offset="0" style="stop-color:#004A87"/>
			<stop  offset="0.5687" style="stop-color:#00385D"/>
			<stop  offset="1" style="stop-color:#00385D"/>
		</linearGradient>
		<polygon clip-path="url(#SVGID_23_)" fill="url(#SVGID_24_)" points="1281.197,1073.148 1294.681,1145.924 1089.458,1183.928 
			1075.99,1111.154 		"/>
	</g>
</g>
<g>
	<g>
		<defs>
			<polygon id="SVGID_25_" points="1354.241,1117.471 1340.743,1145.781 1437.941,1145.781 1454.321,1117.471 			"/>
		</defs>
		<clipPath id="SVGID_26_">
			<use xlink:href="#SVGID_25_"  overflow="visible"/>
		</clipPath>
		
			<linearGradient id="SVGID_27_" gradientUnits="userSpaceOnUse" x1="382.8013" y1="751.7158" x2="397.276" y2="751.7158" gradientTransform="matrix(2.5996 3.0638 -3.0638 2.5996 2698.2524 -2003.8989)">
			<stop  offset="0" style="stop-color:#004A87"/>
			<stop  offset="0.5687" style="stop-color:#00385D"/>
			<stop  offset="1" style="stop-color:#00385D"/>
		</linearGradient>
		<polygon clip-path="url(#SVGID_26_)" fill="url(#SVGID_27_)" points="1406.776,1061.445 1468.288,1133.938 1388.273,1201.821 
			1326.765,1129.33 		"/>
	</g>
</g>
<g>
	<g>
		<defs>
			<path id="SVGID_28_" d="M1499.126,1115.506c28.111,57.086,118.809,30.77,118.809,30.77l11.857-30.26
				c-98.977,46.104-133.208-35.689-133.208-35.689S1496.044,1102.235,1499.126,1115.506"/>
		</defs>
		<clipPath id="SVGID_29_">
			<use xlink:href="#SVGID_28_"  overflow="visible"/>
		</clipPath>
		
			<linearGradient id="SVGID_30_" gradientUnits="userSpaceOnUse" x1="492.2544" y1="796.4961" x2="506.7279" y2="796.4961" gradientTransform="matrix(-0.1452 5.5189 -5.5189 -0.1452 6030.9131 -1502.4431)">
			<stop  offset="0" style="stop-color:#004A87"/>
			<stop  offset="0.5687" style="stop-color:#00385D"/>
			<stop  offset="1" style="stop-color:#00385D"/>
		</linearGradient>
		<polygon clip-path="url(#SVGID_29_)" fill="url(#SVGID_30_)" points="1632.223,1080.398 1629.696,1176.112 1493.613,1172.522 
			1496.145,1076.822 		"/>
	</g>
</g>
<g>
	<g>
		<defs>
			<polygon id="SVGID_31_" points="1657.326,1119.055 1639.982,1151.01 1692.645,1151.01 1712.518,1119.055 			"/>
		</defs>
		<clipPath id="SVGID_32_">
			<use xlink:href="#SVGID_31_"  overflow="visible"/>
		</clipPath>
		
			<linearGradient id="SVGID_33_" gradientUnits="userSpaceOnUse" x1="400.9102" y1="800.7456" x2="415.3775" y2="800.7456" gradientTransform="matrix(0.5883 3.0257 -3.0257 0.5883 3859.4824 -568.2859)">
			<stop  offset="0" style="stop-color:#004A87"/>
			<stop  offset="0.5687" style="stop-color:#00385D"/>
			<stop  offset="1" style="stop-color:#00385D"/>
		</linearGradient>
		<polygon clip-path="url(#SVGID_32_)" fill="url(#SVGID_33_)" points="1709.875,1105.458 1718.51,1149.852 1642.625,1164.608 
			1633.991,1120.213 		"/>
	</g>
</g>
<g>
	<g>
		<defs>
			<path id="SVGID_34_" d="M445.513,1036.74c-34.333,0-60.749-0.651-60.749-0.651l21.13,33.667h60.733c0,0,44.253,0,56.775-62.726
				C506.244,1024.189,499.645,1036.74,445.513,1036.74"/>
		</defs>
		<clipPath id="SVGID_35_">
			<use xlink:href="#SVGID_34_"  overflow="visible"/>
		</clipPath>
		
			<linearGradient id="SVGID_36_" gradientUnits="userSpaceOnUse" x1="413.9116" y1="644.5898" x2="428.3848" y2="644.5898" gradientTransform="matrix(9.5789 0 0 9.5789 -3580.0552 -5136.0742)">
			<stop  offset="0" style="stop-color:#004A87"/>
			<stop  offset="0.5687" style="stop-color:#00385D"/>
			<stop  offset="1" style="stop-color:#00385D"/>
		</linearGradient>
		<rect x="384.764" y="1007.03" clip-path="url(#SVGID_35_)" fill="url(#SVGID_36_)" width="138.639" height="62.726"/>
	</g>
</g>
<path fill="#2B385D" d="M784.65,109.057c86.075,0,172.08,46.6,269.095,102.032c76.022,39.164,138.384,57.256,198.817,57.256
	c83.742,0,163.783-34.755,271.255-96.378c3.083-1.766,5.965-2.557,8.522-2.557c8.339,0,13.073,8.424,8.578,19.136
	c-39.516,94.131-131.697,200.36-352.622,200.36c-10.345,0-20.987-0.226-31.885-0.706c0,0,91.913,12.225,170.028,80.195
	c26.771,23.277,33.753,31.773,47.801,31.773c14.969,0,27.417-8.735,47.378-16.565c127.186,17.609,217.361,122.597,231.721,251.918
	c-54.654,31.265-98.484,70.527-86.908,139.98c0,0,17.595-3.108,42.655-3.108c8.859,0,18.656,0.381,28.944,1.441
	c89.257,9.187,103.757,82.202,101.935,148.856h26.178v110.61l-47.719,65.566h-34.159c0,0,118.327,444.79-278.053,478.286
	c-210.324,23.125-287.58-19.644-390.177,184.827c-34.727-79.135-85.722-130.496-173.873-166.439
	c-157.889-64.364-388.438,53.581-528.164-212.344c-56.861-108.237-26.644-247.552-18.518-287.763c0-0.015-1.469-0.015-3.421-0.015
	c-3.899,0-9.723,0.015-9.723,0.015l-39.22-72.817v-72.166l-1.188-218.141h172.743c-1.428-31.547-11.8-67.998-44.027-91.545
	c-31.291-22.854-37.172-61.326,40.749-137.138c59.219-57.625,102.454-76.153,133.675-76.153c19.605,0,34.488,7.321,45.583,16.875
	c-2.559-2.855-25.314-50.627-5.385-106.004c-41.584-66.583-45.101-220.742,73.593-292.568
	C701.645,119.883,743.154,109.057,784.65,109.057 M784.65,93.481v15.576V93.481c-46.724,0-90.526,12.735-133.845,38.954
	c-64.79,39.208-90.342,97.522-100.365,139.543c-13.764,57.68-6.542,124.08,17.825,168.177c-8.382,27.447-7.762,53.411-4.088,73.776
	c-6.133-1.356-12.506-2.035-19.107-2.035c-40.958,0-89.579,27.11-144.53,80.564c-47.25,45.961-69.159,83.389-66.966,114.369
	c1.285,18.289,10.67,33.936,27.885,46.515c23.066,16.862,32.522,41.595,36.014,63.39H241.929h-15.66l0.084,15.661l1.187,218.126
	v72.096v3.929l1.853,3.449l39.235,72.831l4.424,8.226l3.434-0.015c-10.813,56.494-28.791,179.472,23.731,279.41
	c98.808,188.065,243.508,192.418,371.206,196.274c59.884,1.796,116.449,3.521,164.857,23.236
	c81.963,33.439,131.471,80.76,165.479,158.284l13.328,30.36l14.866-29.626c78.869-157.194,138.668-160.573,269.66-168.02
	c31.661-1.797,67.545-3.831,108.278-8.312c111.501-9.428,194.621-51.716,246.663-125.662
	c86.428-122.797,61.144-294.677,49.257-352.525h14.613h7.93l4.662-6.432l47.717-65.565l2.982-4.101v-5.061v-110.61v-15.59h-15.573
	h-10.25c0.653-55.375-16.52-138.496-116.278-148.771c-9.865-1.004-20.139-1.512-30.527-1.512c-11.364,0-21.285,0.593-28.932,1.298
	c-2.344-45.99,26.629-78.046,80.932-109.069l8.89-5.073l-1.133-10.176c-15.688-141.111-113.946-247.468-245.093-265.629
	l-4.042-0.565l-22.542,9.95c-6.362,2.516-15.916,7.04-22.927,7.04c-10.826,0-15.999-9.187-37.567-27.956
	c-28.621-24.904-58.839-42.6-86.117-55.151c186.043-18.559,268.344-120.278,304.723-206.917c4.44-10.559,3.86-21.3-1.567-29.455
	c-4.762-7.181-12.536-11.278-21.371-11.278c-5.44,0-10.925,1.553-16.269,4.607c-101.536,58.23-181.038,94.329-263.511,94.329
	c-58.015,0-117.139-17.129-191.694-55.532C958.243,138.597,872.324,93.481,784.65,93.481"/>
<path fill="none" stroke="#2B385D" stroke-width="0.326" stroke-miterlimit="10" d="M784.65,109.057
	c86.075,0,172.08,46.6,269.095,102.032c76.022,39.164,138.384,57.256,198.817,57.256c83.742,0,163.783-34.755,271.255-96.378
	c3.083-1.766,5.965-2.557,8.522-2.557c8.339,0,13.073,8.424,8.578,19.136c-39.516,94.131-131.697,200.36-352.622,200.36
	c-10.345,0-20.987-0.226-31.885-0.706c0,0,91.913,12.225,170.028,80.195c26.771,23.277,33.753,31.773,47.801,31.773
	c14.969,0,27.417-8.735,47.378-16.565c127.186,17.609,217.361,122.597,231.721,251.918c-54.654,31.265-98.484,70.527-86.908,139.98
	c0,0,17.595-3.108,42.655-3.108c8.859,0,18.656,0.381,28.944,1.441c89.257,9.187,103.757,82.202,101.935,148.856h26.178v110.61
	l-47.719,65.566h-34.159c0,0,118.327,444.79-278.053,478.286c-210.324,23.125-287.58-19.644-390.177,184.827
	c-34.727-79.135-85.722-130.496-173.873-166.439c-157.889-64.364-388.438,53.581-528.164-212.344
	c-56.861-108.237-26.644-247.552-18.518-287.763c0-0.015-1.469-0.015-3.421-0.015c-3.899,0-9.723,0.015-9.723,0.015l-39.22-72.817
	v-72.166l-1.188-218.141h172.743c-1.428-31.547-11.8-67.998-44.027-91.545c-31.291-22.854-37.172-61.326,40.749-137.138
	c59.219-57.625,102.454-76.153,133.675-76.153c19.605,0,34.488,7.321,45.583,16.875c-2.559-2.855-25.314-50.627-5.385-106.004
	c-41.584-66.583-45.101-220.742,73.593-292.568C701.645,119.883,743.154,109.057,784.65,109.057 M784.65,93.481v15.576V93.481
	c-46.724,0-90.526,12.735-133.845,38.954c-64.79,39.208-90.342,97.522-100.365,139.543c-13.764,57.68-6.542,124.08,17.825,168.177
	c-8.382,27.447-7.762,53.411-4.088,73.776c-6.133-1.356-12.506-2.035-19.107-2.035c-40.958,0-89.579,27.11-144.53,80.564
	c-47.25,45.961-69.159,83.389-66.966,114.369c1.285,18.289,10.67,33.936,27.885,46.515c23.066,16.862,32.522,41.595,36.014,63.39
	H241.929h-15.66l0.084,15.661l1.187,218.126v72.096v3.929l1.853,3.449l39.235,72.831l4.424,8.226l3.434-0.015
	c-10.813,56.494-28.791,179.472,23.731,279.41c98.808,188.065,243.508,192.418,371.206,196.274
	c59.884,1.796,116.449,3.521,164.857,23.236c81.963,33.439,131.471,80.76,165.479,158.284l13.328,30.36l14.866-29.626
	c78.869-157.194,138.668-160.573,269.66-168.02c31.661-1.797,67.545-3.831,108.278-8.312
	c111.501-9.428,194.621-51.716,246.663-125.662c86.428-122.797,61.144-294.677,49.257-352.525h14.613h7.93l4.662-6.432
	l47.717-65.565l2.982-4.101v-5.061v-110.61v-15.59h-15.573h-10.25c0.653-55.375-16.52-138.496-116.278-148.771
	c-9.865-1.004-20.139-1.512-30.527-1.512c-11.364,0-21.285,0.593-28.932,1.298c-2.344-45.99,26.629-78.046,80.932-109.069
	l8.89-5.073l-1.133-10.176c-15.688-141.111-113.946-247.468-245.093-265.629l-4.042-0.565l-22.542,9.95
	c-6.362,2.516-15.916,7.04-22.927,7.04c-10.826,0-15.999-9.187-37.567-27.956c-28.621-24.904-58.839-42.6-86.117-55.151
	c186.043-18.559,268.344-120.278,304.723-206.917c4.44-10.559,3.86-21.3-1.567-29.455c-4.762-7.181-12.536-11.278-21.371-11.278
	c-5.44,0-10.925,1.553-16.269,4.607c-101.536,58.23-181.038,94.329-263.511,94.329c-58.015,0-117.139-17.129-191.694-55.532
	C958.243,138.597,872.324,93.481,784.65,93.481z"/>
</svg>
