<?xml version="1.0" encoding="utf-8"?>
<!-- Generator: Adobe Illustrator 16.0.0, SVG Export Plug-In . SVG Version: 6.00 Build 0)  -->
<!DOCTYPE svg PUBLIC "-//W3C//DTD SVG 1.1//EN" "http://www.w3.org/Graphics/SVG/1.1/DTD/svg11.dtd">
<svg version="1.1" id="Capa_1" xmlns="http://www.w3.org/2000/svg" xmlns:xlink="http://www.w3.org/1999/xlink" x="0px" y="0px"
	 width="2000px" height="2000px" viewBox="0 0 2000 2000" enable-background="new 0 0 2000 2000" xml:space="preserve">
<path fill="#002248" d="M1889.707,1185.818l0.126-0.203l-476.207-789.451c-7.216-13.584-15.089-26.668-23.696-39.345l-2.722-4.398
	h-0.251c-82.541-118.739-223.238-196.896-382.997-196.896c-161.541,0-303.444,79.958-385.546,200.794h-0.671l-5.072,8.529
	c-5.431,8.357-10.485,16.871-15.226,25.604l-451.826,755.083l0.5,0.799c-51.24,71.209-81.303,157.567-81.303,250.671
	c0,243.957,206.006,441.685,460.074,441.685c12.271,0,24.444-0.548,36.435-1.487h887.843c11.989,0.939,24.116,1.487,36.386,1.487
	c254.117,0,460.123-197.728,460.123-441.685C1945.676,1320.489,1925.359,1248.545,1889.707,1185.818"/>
<path fill="#72681F" d="M1006.793,683.958c41.584,0,224.426,51.662,248.672,51.662c24.241,0,48.497,2.692,58.779,2.692
	c10.159,0,96.987,29.547,96.987,114.623c0,51.02-63.479,136.972-63.479,150.417c-1.814,31.301-45.62,167.379-53.131,195.189
	c-7.404,27.764-27.968,75.154-26.123,86c1.849,10.72-2.771,40.189-22.412,40.189h-141.711c-11.223,0-26.09-12.504-26.09-29.47
	c0-17.074,11.223-29.563,25.164-29.563c13.979,0,64.372,0.876,69.05,0.876c4.634,0,7.39-2.692,6.481-11.612
	c-0.893-9.03-18.641-161.23-19.534-172.796c-0.999-11.675-4.692-39.407-1.892-42.146c2.785-2.566,72.728-38.469,72.728-77.86
	c0-7.152-3.712-6.307-10.252-6.307h-115.655c0,0,20.516,202.953,14.93,231.015c0,0-227.558,1.783-227.558,0.908
	c0-27.764,17.748-228.309,15.903-232.769c-1.911-4.476-104.779-2.723-124.704-2.723c-19.892,0,6.149,45.714,30.473,61.803
	c24.256,16.136,41.02,25.088,41.02,39.407c0,14.273-29.846,204.988-23.334,208.589c6.57,3.615,69.046,2.69,78.391,2.69
	c9.297,0,24.197,14.353,24.197,27.764c0,13.444-11.208,32.193-27.953,32.193s-128.708,0.971-138.052,0.971
	c-9.359,0-27.108-9.86-27.108-31.363c0-21.504-7.386-57.297-20.423-80.6c-13.115-23.319-40.156-148.678-43.897-158.475
	c-3.727-9.829-28.001-103.81-51.302-130.666c-23.304-26.871-26.104-49.313-26.104-74.354c0-25.04,16.808-116.438,124.074-116.438
	C841.386,733.805,834.595,683.958,1006.793,683.958"/>
<path fill="#72681F" d="M1109.038,1389.068c-1.564,0-3.036,0.283-4.556,0.471H905.537c-1.472-0.188-2.988-0.471-4.494-0.471
	c-17.542,0-31.69,13.663-31.69,30.409c0,16.856,14.148,30.487,31.69,30.487c1.505,0,3.021-0.204,4.494-0.454h198.945
	c1.52,0.25,2.991,0.454,4.556,0.454c17.513,0,31.66-13.631,31.66-30.487C1140.698,1402.731,1126.551,1389.068,1109.038,1389.068"/>
</svg>
