<?xml version="1.0" encoding="utf-8"?>
<!-- Generator: Adobe Illustrator 16.0.0, SVG Export Plug-In . SVG Version: 6.00 Build 0)  -->
<!DOCTYPE svg PUBLIC "-//W3C//DTD SVG 1.1//EN" "http://www.w3.org/Graphics/SVG/1.1/DTD/svg11.dtd">
<svg version="1.1" id="Capa_1" xmlns="http://www.w3.org/2000/svg" xmlns:xlink="http://www.w3.org/1999/xlink" x="0px" y="0px"
	 width="2000px" height="2000px" viewBox="0 0 2000 2000" enable-background="new 0 0 2000 2000" xml:space="preserve">
<path fill="#211915" d="M360.653,51.023V1350.07c0,148.589,88.517,300.476,242.63,416.563
	c142.292,107.198,323.644,171.147,485.542,171.147c161.517,0,342.984-63.949,485.175-171.147
	c154.165-116.088,242.632-267.975,242.632-416.563V51.023H360.653z"/>
<path fill="#FFFFFF" d="M393.516,83.655V1350.07c0,138.134,83.622,280.573,229.556,390.329
	c136.798,102.994,310.88,164.401,465.754,164.401c154.722,0,328.672-61.407,465.473-164.401
	c145.785-109.756,229.438-252.277,229.438-390.329V83.655H393.516z"/>
<rect x="425.572" y="123.051" fill="#211915" width="1323.553" height="206.649"/>
<path fill="#FFFFFF" d="M786.007,233.136c0,7.026-0.975,13.356-3.249,19.723c-2.144,5.968-5.691,11.311-10.159,16.159
	c-4.665,4.633-9.745,7.916-14.576,9.63c-7.14,2.853-15.649,4.056-25.575,4.056h-2.935c-4.898,0-10.226-0.495-15.882-1.203
	c-6.693-0.743-12.366-2.309-16.867-4.866c-4.468-2.324-8.609-5.622-12.599-10.091c-3.677-4.486-6.217-9.121-7.75-13.555
	c-2.258-7.569-3.116-14.083-3.116-19.854v-70.181h36.212v71.764c0,6.563,1.583,11.526,5.358,14.857
	c3.379,3.908,8.46,5.656,14.644,5.656c6.281,0,11.312-1.748,14.874-5.244c3.462-3.743,5.176-8.706,5.176-15.269v-71.764h36.444
	V233.136z"/>
<polygon fill="#FFFFFF" points="909.431,280.758 810.13,280.758 810.13,162.955 907.585,162.955 907.585,187.872 846.473,187.872 
	846.473,206.72 903.28,206.72 903.28,230.497 846.473,230.497 846.473,253.913 909.431,253.913 "/>
<polygon fill="#FFFFFF" points="1156.103,280.758 1056.967,280.758 1056.967,162.955 1154.567,162.955 1154.567,187.872 
	1093.407,187.872 1093.407,206.72 1149.967,206.72 1149.967,230.497 1093.407,230.497 1093.407,253.913 1156.103,253.913 "/>
<polygon fill="#FFFFFF" points="1240.925,280.758 1204.73,280.758 1204.73,191.978 1167.645,191.978 1167.645,162.955 
	1278.158,162.955 1278.158,191.978 1240.925,191.978 "/>
<path fill="#FFFFFF" d="M1646.969,254.705c-4.682,8.773-11.394,15.598-20.002,20.514c-8.805,5.012-19.902,7.468-32.797,7.468h-1.221
	c-12.912-0.181-23.219-2.193-31.71-6.447c-8.609-4.173-15.882-10.818-21.37-20.134c-5.344-8.987-8.147-20.563-8.147-34.513
	c0-19.03,5.575-34.299,16.095-44.786c10.949-10.423,25.871-16.063,44.9-16.063h0.232c19.261,0.117,34.48,5.64,45.164,15.93
	c10.438,10.536,15.799,25.129,15.799,44.308C1653.912,234.521,1651.803,245.8,1646.969,254.705 M1592.949,188.299L1592.949,188.299
	h-0.232c-7.452,0-13.388,2.722-17.759,7.983c-4.518,5.013-6.661,13.9-6.661,25.427c0,12.152,2.144,20.53,6.661,25.988
	c4.371,5.194,10.307,7.716,17.991,7.716c7.635,0,13.899-2.408,18.286-7.716c4.073-4.832,6.35-14,6.35-27.291
	c0-11-2.276-19.292-6.712-24.124C1606.372,191.021,1600.352,188.299,1592.949,188.299"/>
<path fill="#FFFFFF" d="M1486.408,280.758l-16.407-31.314l-2.968-4.963c-2.473-4.319-4.667-7.585-6.678-8.938
	c-2.507-1.665-5.493-2.771-8.972-2.771h-3.231v47.985h-36.442V162.955h58.291h2.489c11.147,0,19.838,0.792,25.839,2.621
	c5.871,2.161,10.588,5.624,14.266,11.099c3.857,5.145,5.573,11.179,5.573,18.896c0,6.464-1.633,12.039-4.221,17.019
	c-2.721,4.667-6.713,8.376-11.444,11.41c-3.199,2.014-7.454,3.333-12.896,4.65c4.519,1.418,7.37,2.902,9.417,4.468
	c1.515,0.76,3.479,2.953,5.983,5.97c2.539,3.166,4.205,5.723,4.948,7.421l17.678,34.249H1486.408z M1470.001,187.029
	L1470.001,187.029c-1.979-0.181-3.645-0.378-5.706-0.378h-16.143v23.829h15.451c1.17,0,3.248-0.248,6.397-0.512
	c0.71-0.347,1.979-0.576,3.247-0.874c2.541-0.61,4.438-1.847,6.021-3.826c1.435-1.881,2.227-4.172,2.227-6.894
	c0-3.758-1.32-6.661-3.464-8.755C1476.152,188.118,1473.331,187.196,1470.001,187.029"/>
<path fill="#FFFFFF" d="M1361.681,280.758l-5.755-19.655h-41.309l-5.705,19.655h-37.201l44.159-117.803h39.577l44.191,117.803
	H1361.681z M1335.264,193.428L1335.264,193.428l-12.764,42.115h25.84L1335.264,193.428z"/>
<path fill="#FFFFFF" d="M1004.247,280.758l-16.836-31.314l-2.489-4.963c-2.457-4.319-4.783-7.585-6.729-8.938
	c-2.703-1.665-5.788-2.771-9.035-2.771h-3.167v47.985h-36.426V162.955h57.846h2.639c11.527,0,19.87,0.792,25.822,2.621
	c5.856,2.161,10.934,5.624,14.431,11.099c3.692,5.145,5.488,11.179,5.488,18.896c0,6.464-1.269,12.039-4.087,17.019
	c-2.935,4.667-6.664,8.376-11.658,11.41c-3.018,2.014-7.322,3.333-12.632,4.65c4.222,1.418,7.537,2.902,9.482,4.468
	c1.221,0.76,3.149,2.953,5.604,5.97c2.771,3.166,4.47,5.723,5.36,7.421l17.497,34.249H1004.247z M987.411,187.029L987.411,187.029
	c-1.583-0.181-3.33-0.378-5.309-0.378h-16.111v23.829h15.418c1.237,0,3.281-0.248,6.001-0.512c1.188-0.347,2.145-0.576,3.645-0.874
	c2.457-0.61,4.452-1.847,5.854-3.826c1.648-1.881,2.308-4.172,2.308-6.894c0-3.758-1.238-6.661-3.71-8.755
	C993.777,188.118,991.056,187.196,987.411,187.029"/>
<path fill="#FFFFFF" d="M647.722,293.917c-4.996-2.639-10.009-5.606-14.874-8.673c-5.178-3.596-8.639-6.069-10.784-7.816
	c-7.37,3.33-16.538,5.078-27.372,5.259h-2.804c-17.775,0-31.973-4.832-42.065-14.032c-12.401-11.231-18.417-26.632-18.417-46.484
	c0-19.311,5.126-34.58,15.748-45.363c10.964-10.423,25.971-16.063,45-16.063c0.774,0,1.764,0,2.54,0.117
	c18.253,0.328,32.684,5.639,42.841,15.813c10.7,10.354,15.895,25.36,15.895,44.918c0,17.494-4.271,31.412-12.91,41.718
	c4.715,3.233,7.716,5.344,8.953,5.952c2.111,1.402,4.915,2.803,8.328,4.305L647.722,293.917z M594.692,188.299L594.692,188.299
	h-2.54c-7.206,0-13.11,2.722-17.593,7.983c-4.387,5.013-6.713,13.339-6.713,24.124c0,12.978,2.326,21.833,6.497,27.291
	c4.354,5.194,10.438,7.716,18.123,7.716h2.227c1.666-0.181,3.248-0.445,4.683-0.708c-1.221-1.221-2.804-2.508-4.683-3.76
	c-2.804-1.518-5.987-3.248-9.746-4.7l5.803-13.109c1.403,0.562,2.721,0.725,3.942,0.957c1.451,0.428,2.457,0.874,3.462,1.153
	c1.881,1.088,5.492,3.397,10.668,6.778c1.188,0.842,2.359,1.665,3.992,2.771c2.885-5.227,4.123-13.078,4.123-23.334
	c0-11.84-2.243-20.347-6.367-25.427C606.532,191.383,601.32,188.91,594.692,188.299"/>
<path fill="#211915" d="M425.046,359.744h1324.079v985.065c0,135.216-83.027,262.254-202.71,357.465
	c-129.428,102.962-302.061,168.673-459.173,168.673c-157.066,0-329.995-65.711-459.34-168.673
	c-119.781-95.211-202.856-222.249-202.856-357.465V359.744z"/>
<path fill="#FFFFFF" d="M432.762,367.593v977.2c0,132.809,81.855,257.719,199.79,351.513
	c128.109,101.806,299.042,167.007,454.64,167.007c155.761,0,326.463-65.201,454.474-167.007
	c118.197-93.794,200.053-218.704,200.053-351.513v-977.2H432.762z"/>
<path fill="#211915" d="M1572.419,367.593H1418.01l-0.068,467.188c64.147,75.886,102.947,173.967,102.947,280.54
	c0,39.13-5.063,76.232-14.66,112.048c-9.859,37.086-24.52,72.259-43.069,104.811l-0.348,0.196l-2.243,2.507l72.951,68.598
	l1.879,1.847l-1.879,1.979l-111.322,117.208l-1.961,1.913l-2.028-2.242l-0.446-0.527l-0.033,237.502
	c40.514-21.617,79.463-46.963,115.428-75.672c14.396-11.313,27.869-22.789,40.714-34.909L1572.419,367.593z"/>
<path fill="#211915" d="M1035.791,1547.865v299.438c17.233,1.434,34.563,2.274,51.401,2.274c33.918,0,68.646-3.018,103.687-9.251
	l0.396-302.454c-33.951,8.459-69.075,12.896-105.485,12.896C1068.904,1550.768,1052.25,1549.629,1035.791,1547.865"/>
<path fill="#211915" d="M1192.199,693.481l0.362-325.888h-156.19l-0.135,315.284c16.357-1.847,32.75-2.819,49.553-2.819
	C1122.412,680.059,1158.031,684.791,1192.199,693.481"/>
<path fill="#0056B3" d="M1378.121,367.593h-149.086l-0.132,336.936c55.703,19.31,106.228,49.963,149.218,88.962V367.593z"/>
<path fill="#0056B3" d="M1230.273,1526.032c-0.528,0.181-1.139,0.396-1.847,0.561l-0.183,306.463
	c50.657-11.956,101.049-29.138,149.877-51.927v-301.515l-21.355-23.714C1319.036,1485.763,1276.461,1509.674,1230.273,1526.032"/>
<path fill="#211915" d="M1085.789,696.646c230.577,0,418.428,188.148,418.428,418.676c0,39.889-5.623,78.161-16.062,114.389
	c-10.47,37.005-25.772,71.93-45.608,103.903l70.707,69.569l1.913,2.145l-1.913,1.549l-91.799,93.729l-2.027,2.177l-1.716-2.177
	l-62.894-64.937c-37.051,31.199-79.115,55.934-124.941,72.835c-44.917,16.457-93.528,25.279-144.088,25.279
	c-230.874,0-418.773-187.589-418.773-418.461C667.016,884.794,854.915,696.646,1085.789,696.646"/>
<path fill="#FFFFFF" d="M1085.789,702.252c-228.021,0-413.512,185.708-413.512,413.069c0,228.037,185.492,413.317,413.512,413.317
	c49.866,0,97.934-8.808,142.242-25.197c46.22-17.084,88.335-42.066,124.958-73.479l2.062-1.747l1.715,2.013l62.662,65.019
	l88.119-89.919l-70.394-69.571l-1.418-1.302l1.155-1.946c20-32.006,35.617-67.047,46.287-104.115
	c10.238-35.817,15.599-73.76,15.599-113.071C1498.776,887.96,1313.332,702.252,1085.789,702.252"/>
<path fill="#211915" d="M1085.789,852.854c144.484,0,262.551,118.084,262.551,262.484c0,18.404-1.979,36.427-5.492,54.02
	c-3.808,17.546-9.514,34.827-16.522,51.316l-1.582,3.496l-2.985-2.935l-13.554-14.676l-88.864,89.457l23.613,26.054l1.964,2.193
	l-2.508,1.648c-22.311,16.688-47.275,29.946-74.106,38.884c-26.07,8.673-53.788,13.473-82.514,13.473
	c-144.829,0-262.847-118.018-262.847-262.931C822.942,970.938,940.96,852.854,1085.789,852.854"/>
<path fill="#0056B3" d="M1335.264,1053.931c-7.06,3.726-13.506,8.854-18.057,14.774c-4.798,5.738-7.898,12.317-7.898,19.721
	l-0.975,77.865v2.54l-2.373,0.181l-27.803,1.962l-3.066,0.231v-3.018l0.446-89.705c0-19.737-12.779-33.292-28.874-39.162
	c-6.48-2.11-13.637-3.381-20.563-3.381c-6.925,0-14.131,1.271-20.66,3.596c-16.575,6.497-29.599,22.013-29.599,47.193l-0.314,89.474
	v2.622h-2.539l-29.519,2.292l-2.901,0.248v-2.804l0.181-111.143c0-24.107-11.147-37.431-26.07-43.235
	c-6.596-2.506-13.8-3.413-21.271-3.232c-7.535,0.165-15.021,1.913-22.26,4.189c-19.92,6.925-36.228,22.112-36.228,40.449v121.314
	v2.672h-2.426l-28.808,1.979l-2.901,0.609v-3.083l-0.296-137.441c0-24.917-15.567-41.834-35.981-49.024
	c-7.883-2.902-16.621-4.567-25.328-4.567c-8.692,0-17.2,1.665-25.495,4.831c-20.217,7.717-36.442,25.954-36.212,54.994v141.036
	v2.639l-2.44,0.264l-22.393,1.418l-2.672,0.098v-2.736l0.198-139.999c0-8.507-0.428-17.675-1.088-26.152
	c-0.611-5.26-1.352-10.256-1.847-15.252c-12.104,29.83-18.765,62.184-18.765,96.12c0,141.778,115.395,257.469,257.321,257.469
	c27.851,0,55.356-4.583,80.885-13.323c25.178-8.328,48.974-20.612,70.309-35.981l-23.299-25.821l-1.714-1.832l1.896-1.729
	l92.54-93.135l1.929-2.045l2.014,2.045l12.762,13.488c6.152-14.709,11.131-30.309,14.265-46.254
	c3.728-17.166,5.474-34.513,5.474-52.881C1342.848,1094.362,1340.392,1073.785,1335.264,1053.931"/>
<path fill="#0056B3" d="M900.396,937.43l414.965,62.628c-42.428-83.783-129.395-141.662-229.587-141.662
	C1012.854,858.396,947.111,888.769,900.396,937.43"/>
<path fill="#FFFFFF" d="M1318.032,1005.846L895.877,942.26c-18.073,19.905-33.243,42.545-44.555,67.411
	c1.219,7.487,2.227,15.781,2.736,24.158c1.173,9.037,1.732,18.255,1.732,26.762l-0.559,137.196l16.753-1.154v-138.761
	c0-32.073,17.446-51.4,40.037-60.271c8.376-3.166,17.759-4.915,27.159-4.915c9.25,0,18.664,1.749,27.043,4.784
	c22.376,8.195,39.69,26.531,39.69,54.151l0.314,134.706l23.282-1.881v-118.857c0-20.894,18.041-37.466,39.841-45.265
	c7.699-3.002,15.994-4.387,23.942-4.733c8.063-0.264,16.011,0.974,23.117,3.596c17.233,6.479,29.65,21.667,29.65,48.1v108.306
	l24.206-1.848v-87.016c0-27.918,14.693-44.901,33.243-52.108c7.106-2.622,14.874-4.303,22.591-4.303
	c7.537,0,15.354,1.318,22.277,4.121c18.255,6.728,32.502,21.768,32.502,44.028l-0.28,86.902l22.344-1.717l1.006-75.227
	c0.263-8.326,3.545-16.423,8.938-23.282c5.358-6.663,12.813-12.466,21.057-16.655c-1.93-7.074-4.121-14.477-6.66-21.403
	C1324.512,1019.961,1321.577,1012.739,1318.032,1005.846"/>
<path fill="#211915" d="M1047.847,750.223c-3.332-5.163-7.405-8.674-12.45-11.049c-3.248-1.055-6.397-2.011-9.861-2.045
	c-2.027,0-3.807,0.035-5.837,0.363c-7.502,1.583-13.192,5.112-17.463,11.379c-3.94,5.836-5.31,13.29-3.677,21.699
	c1.221,8.179,4.816,14.496,10.604,18.602c4.881,3.693,10.404,5.177,16.373,4.65c0.842,0,1.75-0.132,2.441-0.132
	c4.172-0.825,7.997-2.49,10.832-5.376c3.334-2.803,5.706-5.442,7.289-9.268c0.265,0.825,0.265,1.549,0.265,1.897
	c0.743,4.567,1.056,8.854,0.743,12.878c-0.215,4.352-1.008,7.848-2.111,10.619c-1.121,2.54-2.589,4.65-4.815,6.925
	c-2.028,1.715-4.782,2.803-8.03,3.397c-2.408,0.379-4.65,0.379-6.613-0.147c-1.021-0.447-2.027-0.907-3.034-1.304
	c-2.803-1.846-4.781-4.847-6.447-9.134l-9.548,2.588c1.914,6.546,5.361,10.933,10.158,13.803c2.688,1.715,5.623,2.835,8.871,2.935
	c2.441,0.331,5.163,0.331,8.015-0.099c6.102-1.236,11.313-3.693,15.22-7.716c4.041-4.222,6.546-9.745,7.767-16.507
	c1.139-6.81,0.975-15.434-0.973-26.135C1053.865,762.952,1051.228,755.267,1047.847,750.223 M1039.651,777.067L1039.651,777.067
	c-2.407,3.875-5.985,6.134-10.652,7.024c-1.138,0-2.475,0.181-3.464,0.181c-3.479-0.181-6.414-1.071-9.481-3.117
	c-3.643-2.505-6.134-6.958-7.189-12.004c-0.973-6.118,0-11.213,2.755-15.5c2.771-4.287,6.101-6.745,10.882-7.553
	c1.007-0.164,2.013-0.164,3.034-0.164c3.216,0,6.351,0.972,9.252,3.429c3.595,2.539,6.149,7.056,7.107,13.06
	C1042.834,768.426,1042.143,773.044,1039.651,777.067"/>
<path fill="#211915" d="M905.391,777.067c0.132,4.089-0.609,8.871-2.671,14.708c-1.847,5.343-4.566,10.818-8.558,15.913l4.863,8.855
	c2.376-2.54,4.636-6.051,6.945-9.926c2.571-4.289,4.251-8.097,5.259-11.248l32.335,58.209l9.021-5.144l-41.355-74.6L905.391,777.067
	z"/>
<path fill="#211915" d="M1116.016,777.067l9.333,2.737c2.012-2.111,4.519-3.348,7.271-4.782c2.92-0.957,6.201-1.188,9.4-0.363
	c5.492,0.659,9.516,3.034,12.202,6.892c2.671,3.958,3.447,9.118,2.491,15.073c-1.271,6.266-3.728,10.619-7.98,13.867
	c-4.041,3.216-8.377,4.271-13.358,3.512c-4.188-0.693-7.47-2.639-10.025-5.87c-2.456-3.38-3.413-7.553-3.413-13.127l-10.883-0.823
	c-0.611,7.009,1.235,13.208,5.128,18.732c4.386,4.782,10.091,8.114,17.694,9.367c9.15,1.551,17.049-0.396,23.794-6.432
	c5.226-4.485,8.738-10.883,9.976-18.154c1.434-7.898,0.082-14.824-4.04-20.893c-4.139-5.953-9.959-9.762-17.167-10.916
	c-5.292-0.989-11.063-0.198-16.836,2.54l8.477-21.519l33.59,5.492l1.666-9.615l-41.571-7.469L1116.016,777.067z"/>
<path fill="#211915" d="M1226.811,854.964c5.557,2.902,10.701,4.304,15.863,3.166c1.764-0.527,3.562-1.104,5.228-1.665
	c3.147-1.335,6.397-3.594,9.645-6.415c4.997-4.386,9.697-10.702,14.348-19.721c4.205-7.108,7.058-13.423,8.229-18.254
	c1.318-5.08,1.765-9.481,1.548-13.771c-0.229-4.121-1.548-7.649-3.774-11.047c-2.014-3.166-4.948-6.101-9.169-8.211
	c-5.193-2.935-10.651-4.023-15.6-2.935c-2.078,0.362-3.43,0.691-5.226,1.583c-3.464,1.055-6.794,3.249-9.88,6.398
	c-4.764,4.073-9.463,10.652-14.46,19.475c-7.552,13.95-10.884,25.476-9.433,34.217
	C1215.399,845.301,1219.621,850.908,1226.811,854.964 M1232.944,808.695L1232.944,808.695c5.358-9.499,10.271-15.995,14.957-19.954
	c1.219-1.021,2.455-1.846,3.76-2.637c4.353-2.013,8.655-2.013,12.729,0.296c4.336,2.522,6.909,6.481,7.503,12.12
	c0.51,5.656-2.458,14.56-9.135,26.896c-5.689,9.563-10.603,16.174-14.857,19.885c-1.006,0.989-1.929,1.419-2.984,1.897
	c-5.213,2.326-9.745,2.326-13.901,0.215c-4.205-2.112-6.711-6.2-7.156-11.971C1223.066,829.934,1226.101,821.03,1232.944,808.695"/>
<path fill="#211915" d="M1464.543,1169.357c-0.248-3.988-0.939-7.008-2.49-9.926c-1.484-2.688-3.711-5.244-6.695-7.651
	c-2.935-2.242-6.578-3.661-10.388-4.32c-2.423-0.396-4.832-0.561-6.91,0c-2.308,0.231-4.551,0.857-6.432,1.914
	c-4.154,2.011-7.501,5.671-9.728,10.257c-1.072-4.29-3.479-7.553-6.15-10.093c-2.885-2.474-6.052-3.909-9.746-4.699
	c-1.665-0.611-3.462-0.611-5.128-0.313c-2.096,0.313-4.337,1.104-6.283,1.55c-3.924,1.616-7.123,4.353-9.232,7.75
	c-2.591,3.43-4.388,8.641-5.492,15.006l-5.606,31.232l26.614,4.913l37.184,6.529l20.052,3.116l5.492-31.478
	C1464.543,1177.505,1464.773,1173.382,1464.543,1169.357 M1414.744,1177.207L1414.744,1177.207l-3.249,18.107l-10.619-1.832
	l-14.693-2.638l2.953-16.67c1.089-6.005,2.177-10.126,3.364-12.666c1.17-2.077,3.067-3.908,5.392-4.766
	c0.889-0.278,1.978-0.495,2.984-0.809c1.451-0.346,2.984-0.346,4.65,0.313c3.034,0.495,5.178,1.353,6.975,3.184
	c1.798,1.847,2.787,4.023,3.036,7.173C1415.75,1168.831,1415.537,1172.343,1414.744,1177.207 M1453.644,1181.379L1453.644,1181.379
	l-3.463,20.859l-12.121-2.259l-16.604-2.901l3.15-19.573c0.971-5.162,2.191-8.938,3.775-11.773c1.237-2.838,3.429-4.699,6.051-6.019
	c1.089-0.281,2.459-0.611,3.628-0.939c1.503-0.463,3.067-0.463,4.8,0.328c2.639,0.529,4.782,1.303,6.877,2.703
	c1.664,1.502,2.901,3.266,3.774,5.312c0.825,1.715,1.056,3.857,1.056,6.628C1454.566,1175.146,1454.336,1177.505,1453.644,1181.379"
	/>
<polygon fill="#211915" points="877.804,1346.343 883.725,1352.874 891.145,1346.193 877.804,1331.914 845.271,1296.924 
	837.981,1303.7 856.879,1324.264 817.584,1360.904 802.116,1375.151 809.9,1383.396 817.584,1376.536 864.596,1332.508 "/>
<path fill="#211915" d="M1290.708,1406.646l-5.886,2.145c2.241,6.794,2.504,12.729,0.79,18.204
	c-2.243,5.508-5.688,9.911-10.915,12.896c-4.47,2.72-9.433,3.958-14.693,3.958s-9.926-1.518-14.644-4.947
	c-4.436-3.728-8.558-8.673-12.416-14.774c-2.671-4.684-4.913-10.025-6.02-15.336c-1.089-5.607-0.593-10.784,1.319-15.831
	c2.424-4.914,5.922-8.788,11.675-12.068c4.998-3.02,9.68-4.024,14.38-3.629c4.699,0.428,9.48,2.54,14.18,6.909l8.099-7.603
	c-5.871-5.44-12.235-8.772-19.524-9.498c-7.454-0.527-14.644,1.319-21.881,5.475c-6.269,4.023-11.313,8.756-15.073,14.842
	c-3.48,6.166-4.963,12.829-4.451,20.297c0.494,7.207,3.049,14.924,7.419,22.278c4.223,7.025,9.448,12.647,15.584,17.414
	c6.267,4.436,12.713,6.629,19.639,6.991c6.976,0.248,14.114-2.043,22.064-6.728c4.27-2.572,7.716-5.31,10.354-8.739
	c2.308-2.969,4.122-5.772,5.178-8.938c2.622-7.354,2.622-15.516,0-24.635L1290.708,1406.646z"/>
<path fill="#211915" d="M832.64,1280.664l-4.699-10.124l-10.356,5.211l-33.772,16.505c-9.694,4.668-16.952,6.151-21.915,4.668
	c-4.897-1.484-9.119-6.069-12.614-13.356c-2.225-4.421-3.183-8.41-2.887-12.451c0.314-3.842,1.633-6.76,4.174-9.694
	c2.456-2.936,7.239-6.087,13.686-9.037l44.028-21.454l-4.865-10.173l-44.076,21.585c-8.114,3.859-13.951,7.979-17.728,12.186
	c-3.611,4.222-5.821,9.218-5.952,14.856c-0.314,5.806,1.219,12.5,5.046,19.293c3.51,7.719,7.666,12.746,12.846,15.863
	c4.996,3.315,10.074,4.453,15.649,3.941c5.176-0.38,11.904-2.358,19.655-6.134l28.725-14.181L832.64,1280.664z"/>
<polygon fill="#211915" points="749.037,1199.534 759.028,1197.787 752.104,1158.311 778.106,1154.188 786.007,1199.534 
	796.016,1197.787 786.007,1141.376 702.254,1155.935 704.25,1167.131 742.373,1160.487 "/>
<path fill="#211915" d="M936.31,1374.804l-15.782-10.008l-11.311-6.745l-31.414,50.344l-13.423,21.04l13.423,8.691l14.214,8.606
	c4.222,2.803,8.46,4.997,12.285,6.218c3.464,1.055,6.927,1.665,9.96,1.055c1.963,0,4.123-0.265,6.265-1.253
	c1.138-0.627,2.112-1.238,3.333-1.814c3.248-2.011,5.704-4.75,7.931-8.328c2.555-4.006,3.792-8.262,3.216-13.175
	c-0.346-4.155-2.16-8.723-5.887-12.565c4.485,0.214,8.377-0.33,11.625-1.995c3.431-1.697,6.152-3.843,7.949-7.173
	c2.276-3,3.183-6.926,3.183-11.146c0-4.14-1.304-8.246-3.76-11.51C946.004,1381.482,941.917,1378.251,936.31,1374.804
	 M921.98,1436.558L921.98,1436.558c-0.577,0.594-1.235,1.568-1.452,2.046c-1.153,1.286-2.373,2.145-3.939,3.066
	c-1.896,1.188-3.776,1.814-6.101,1.814c-1.931,0-4.174-0.627-6.813-1.534c-1.219-0.412-3.28-1.714-6.513-3.742l-17.825-11.23
	l15.352-24.816l16.54,10.585c4.255,2.394,7.156,4.948,9.299,6.927c0.084,0.132,0.217,0.43,0.661,0.726
	c1.979,2.457,2.853,5.013,2.853,7.833C924.438,1430.854,923.514,1433.789,921.98,1436.558 M938.733,1402.92L938.733,1402.92
	c-1.631,2.672-3.726,4.387-5.886,5.475c-2.359,0.841-4.865,0.841-7.717,0.164c-1.269-0.758-2.705-1.021-4.602-2.242
	c-1.583-0.725-3.167-1.518-5.044-2.836L900,1393.816l13.338-21.468l7.19,4.188l7.454,4.387c5.013,3.248,8.51,5.902,10.174,7.815
	c1.797,2.177,2.804,4.519,2.804,6.927C940.96,1398.302,940.317,1400.775,938.733,1402.92"/>
<polygon fill="#211915" points="1097.861,1489.31 1091.493,1414.727 1080.266,1415.584 1087.471,1500.143 1140.568,1495.592 
	1139.564,1485.5 "/>
<polygon fill="#211915" points="1346.361,1383.396 1291.531,1332.508 1290.708,1333.102 1283.897,1340.818 1290.708,1347.53 
	1345.882,1398.533 1381.715,1359.914 1374.475,1352.89 "/>
<path fill="#211915" d="M1425.924,1259.096c-3.464-4.123-9.201-7.998-16.853-11.84l-8.195-3.858l-35.782-17.545l-4.932,10.058
	l40.714,20.283l3.117,1.22c9.662,4.65,15.235,9.399,17.198,14.216c1.848,4.749,0.692,10.883-2.77,18.254
	c-2.326,4.469-4.65,7.767-7.949,9.745c-2.868,2.276-6.117,2.885-9.597,2.885h-0.741c-3.727-0.181-8.855-2.011-15.616-5.358
	l-43.683-21.403l-4.912,10.042l43.944,21.551c7.933,3.959,14.758,6.135,20.579,6.383h0.429c5.573,0.181,10.405-1.303,14.824-4.469
	c4.749-3.314,8.641-8.41,12.285-15.863c3.628-7.157,5.178-13.818,4.435-19.738
	C1431.795,1267.605,1429.618,1262.789,1425.924,1259.096"/>
<path fill="#211915" d="M1041.153,1416.425c-5.18-5.128-11.644-8.724-19.098-10.67c-3.726-0.956-7.452-1.401-10.965-1.401
	c-7.404,0-14.166,1.963-20.546,5.724c-9.135,6.034-15.582,15.861-18.831,29.731c-2.062,7.304-2.062,14.196-0.429,21.566
	c1.352,7.339,4.864,13.672,10.125,18.65c4.963,5.475,11.345,9.07,19.375,10.981c3.462,0.809,6.893,1.023,10.306,1.023
	c3.86,0,7.239-0.215,10.965-1.023c6.943-1.911,12.864-5.771,18.123-11.393c4.815-5.954,8.56-12.747,10.39-21.42
	c2.242-8.13,2.456-15.601,0.659-23.22C1049.876,1427.951,1046.362,1421.52,1041.153,1416.425 M1039.388,1455.687L1039.388,1455.687
	c-2.358,10.421-7.239,17.974-14.116,22.261c-4.137,3.348-8.904,4.65-14.181,4.65c-2.572,0-5.426-0.115-8.064-0.955
	c-8.293-2.028-14.214-6.399-18.204-13.771c-3.595-6.743-4.253-15.12-1.846-25.278c2.852-12.366,7.814-20.513,14.791-24.373
	c4.468-2.637,8.92-3.774,13.323-4.12c2.771,0,5.806,0.346,8.823,1.039c5.126,1.285,9.826,4.056,13.636,7.731
	c3.479,3.859,5.838,8.709,6.877,14.116C1041.447,1442.594,1041.153,1448.927,1039.388,1455.687"/>
<path fill="#211915" d="M1120.221,1329.326c-14.874,5.476-30.654,4.304-43.947-1.896c-13.29-6.184-24.255-17.464-29.78-32.484
	c-5.358-14.874-4.088-30.49,2.245-43.567c6.133-13.454,17.198-24.568,32.006-29.829c15.054-5.394,30.753-4.205,43.944,2.013
	c13.39,6.148,24.257,17.297,29.879,32.269c5.361,14.71,4.124,30.407-1.979,43.798
	C1146.274,1313.033,1135.093,1324,1120.221,1329.326"/>
<path fill="#FFFFFF" d="M1152.243,1258.668c-0.313-0.892-0.626-2.111-0.626-2.111c-0.082-0.363-0.413-0.578-0.644-1.236
	c0.562,1.765,0.956,2.818,1.039,3.149L1152.243,1258.668"/>
<polygon fill="#FFFFFF" points="1057.329,1309.258 1057.329,1309.191 1057.279,1309.191 "/>
<path fill="#FFFFFF" d="M1138.82,1238.482c7.717,7.454,11.146,17.496,12.104,20.959c1.089,0.775,2.722,1.98,4.073,3.431
	c-0.61-2.293-1.352-4.402-2.012-6.679c-3.118-8.592-8.112-15.748-14.296-21.485
	C1138.82,1235.582,1139.002,1237.099,1138.82,1238.482"/>
<path fill="#FFFFFF" d="M1080.347,1225.936c11.627-4.7,21.585-3.942,25.791-3.299c0.842-0.644,2.243-1.797,3.776-2.325
	c-9.299-1.616-19.129-0.956-28.593,2.539c-2.326,0.726-4.485,1.863-6.498,3.002
	C1076.273,1225.853,1078.469,1225.853,1080.347,1225.936"/>
<path fill="#FFFFFF" d="M1100.959,1328.931c-0.873,0.609-2.324,1.434-3.874,2.242c7.272,0.214,15.056-0.676,22.608-3.348
	c1.748-0.526,3.412-1.22,5.095-2.046h-3.101C1112.371,1329.54,1104.176,1329.227,1100.959,1328.931"/>
<path fill="#FFFFFF" d="M1048.343,1289.271c-0.842-0.709-1.732-1.683-2.558-2.555c0.627,2.555,1.32,5.358,2.326,7.635
	c2.324,6.66,5.969,12.829,10.404,17.727c-0.495-1.667-0.495-3.069-0.578-3.447
	C1051.673,1300.848,1049.165,1292.604,1048.343,1289.271"/>
<path fill="#FFFFFF" d="M1129.867,1312.324c-0.742,2.556-2.474,7.916-5.277,11.444h3.793h0.346
	c9.961-5.953,17.546-14.774,22.459-24.668c1.056-2.177,1.846-4.485,2.589-6.927c-1.318,1.007-3.891,2.441-7.635,3.644
	C1141.179,1303.569,1135.655,1309.191,1129.867,1312.324"/>
<path fill="#FFFFFF" d="M1045.358,1282.842c0,0.196,1.401,1.946,3.181,3.793c0.676-2.458,2.426-6.927,5.326-9.729
	c-0.526-3.957-0.626-12.45,2.935-23.879c-0.758-1.648-1.929-5.209-1.665-10.257c-2.11,3.002-3.907,5.97-5.259,9.004
	c-4.387,9.335-6.251,20.218-4.7,30.738L1045.358,1282.842z"/>
<path fill="#FFFFFF" d="M1092.582,1330.497c2.162-0.644,4.174-1.583,5.674-2.59c-1.419-0.825-3.512-2.935-5.674-7.948
	c-6.677-1.963-17.329-7.749-21.254-10.52c-1.978,0.658-7.42,2.291-10.932,1.401c0.346,1.369,0.608,3.199,1.088,4.649v0.1
	c4.567,4.369,9.663,7.881,15.352,10.521c4.963,2.309,10.059,3.775,15.483,4.649L1092.582,1330.497z"/>
<path fill="#FFFFFF" d="M1090.653,1253.424c3.067-1.319,12.021-4.42,21.06-3.43l7.765-15.073
	c-3.857-5.902-10.188-8.985-12.96-10.224c-2.968-0.56-13.392-1.747-25.544,3.25c-1.499,1.979-4.353,6.513-4.88,13.77
	C1083.563,1245.491,1088.643,1250.752,1090.653,1253.424"/>
<path fill="#FFFFFF" d="M1089.121,1254.709c-1.798-2.192-6.796-7.898-14.727-11.278c-8.08,2.061-13.158,7.321-15.236,9.777
	c-3.66,11.395-3.66,19.41-3.116,23.466c1.633,2.077,6.315,6.894,12.862,9.63c6.479-6.596,14.296-9.926,17.94-11.146
	C1085.972,1266.944,1088.296,1257.448,1089.121,1254.709"/>
<path fill="#FFFFFF" d="M1121.225,1235.664l-7.387,15.088c4.719,4.221,8.839,14.444,10.207,18.006
	c8.674-0.362,15.65,2.277,18.369,3.843c3.514-3.167,5.706-9.481,6.531-12.285c-0.66-2.803-3.908-13.323-11.972-20.694
	C1135.093,1238.17,1129.602,1234.74,1121.225,1235.664"/>
<path fill="#FFFFFF" d="M1123.337,1270.902c-1.683,2.572-6.711,9.169-14.642,15.303c2.802,9.136,3.593,17.149,3.627,20.431
	c6.76,2.556,13.472,3.595,16.191,4.073c9.17-4.685,14.939-14.676,16.359-17.429c0.263-3.383,0.263-10.769-2.722-18.485
	C1140.14,1273.656,1132.9,1270.177,1123.337,1270.902"/>
<path fill="#FFFFFF" d="M1088.033,1276.986c-2.937,0.975-11.197,4.223-17.892,11.065c-0.577,10.042,1.187,16.82,1.927,19.475
	c3.185,1.995,14.199,8.624,21.093,10.289c2.374-1.254,10.024-4.864,16.984-10.8c-0.05-3.628-0.759-11.594-3.528-20.563
	C1103.333,1285.248,1093.161,1280.664,1088.033,1276.986"/>
</svg>
