<svg id="Layer_1" data-name="Layer 1" xmlns="http://www.w3.org/2000/svg" viewBox="0 0 506.8 743.36"><defs></defs><path fill="#0a2240" d="M294.06,110s54.07,5.42,125.84,29c65.3,21.47,127.56,55.51,127.56,55.51v9.78c0,232.63-48.88,375.61-253.4,499.42,0,0-32.7-19.8-63-43C74,540.43,40.66,404.8,40.66,204.33v-9.78s62.28-34,127.57-55.51c71.76-23.61,125.83-29,125.83-29" transform="translate(-40.66 -12)"/><path fill="#fff" d="M170,144.27c71.13-23.43,124.11-28.76,124.11-28.76s53,5.33,124.14,28.76C483,165.58,542,197.82,542,197.82v6.51c0,199.63-33.06,333.23-188.17,452-30.08,23-59.72,41-59.72,41s-29.64-18-59.7-41C79.25,537.56,46.17,404,46.17,204.33v-6.51S105.1,165.58,170,144.27" transform="translate(-40.66 -12)"/><polygon fill="#0a2240" points="324.85 451.47 342.05 394.62 362.54 452.17 455.77 426.36 393.62 244.49 291.56 244.49 253.4 312.62 215.19 244.49 113.14 244.49 51.02 426.36 144.28 452.17 164.74 394.62 181.93 451.47 324.85 451.47"/><path fill="#0a2240" d="M142.63,165.66v77.85L81.11,424.22c-14.72-51-24-119.43-24-219.89a772.46,772.46,0,0,1,85.49-38.67m0,300.54v81.54c-19.42-27.38-37.76-55.83-52.49-95.62ZM356,476.35V640.67a671.45,671.45,0,0,1-61.94,43.82,680.45,680.45,0,0,1-63.24-44.8V476.35Zm88.21,73.21V466.35l54-14.77c-15,40.93-34,69.93-54,98M356,243.51H325.66l-31.6,57.12-31.62-57.12H230.82V138.32c38.57-9.25,63.24-11.77,63.24-11.77S318.21,129,356,138Zm88.21,0V165.14A773.36,773.36,0,0,1,531,204.33c0,101.82-9.49,170.73-24.53,222.06Z" transform="translate(-40.66 -12)"/><polygon fill="#0a2240" points="144.88 72.67 127.36 85.41 134.07 64.82 116.55 52.08 138.17 52.08 144.88 31.5 151.55 52.08 173.2 52.08 155.69 64.82 162.38 85.41 144.88 72.67"/><polygon fill="#0a2240" points="252.63 41.17 235.11 53.91 241.82 33.32 224.3 20.59 245.93 20.59 252.63 0 259.3 20.59 280.95 20.59 263.44 33.32 270.14 53.91 252.63 41.17"/><polygon fill="#0a2240" points="359.72 72.67 342.2 85.41 348.89 64.82 331.38 52.08 353.01 52.08 359.72 31.5 366.39 52.08 388.04 52.08 370.54 64.82 377.24 85.41 359.72 72.67"/><polygon fill="#0a2240" points="35.46 117.41 17.93 130.14 24.67 109.56 7.12 96.84 28.77 96.84 35.46 76.26 42.16 96.84 63.79 96.84 46.29 109.56 52.98 130.14 35.46 117.41"/><polygon fill="#0a2240" points="470.78 117.41 453.28 130.14 459.97 109.56 442.45 96.84 464.07 96.84 470.78 76.26 477.47 96.84 499.1 96.84 481.59 109.56 488.28 130.14 470.78 117.41"/><polygon fill="#d59f0f" points="108.53 658.23 91 670.97 97.73 650.38 80.19 637.67 101.83 637.67 108.53 617.08 115.23 637.67 136.86 637.67 119.36 650.38 126.05 670.97 108.53 658.23"/><polygon fill="#d59f0f" points="192.43 730.62 174.91 743.36 181.64 722.77 164.09 710.05 185.74 710.05 192.43 689.47 199.14 710.05 220.76 710.05 203.26 722.77 209.95 743.36 192.43 730.62"/><polygon fill="#d59f0f" points="398.27 658.23 415.79 670.97 409.06 650.38 426.61 637.67 404.96 637.67 398.27 617.08 391.56 637.67 369.94 637.67 387.43 650.38 380.75 670.97 398.27 658.23"/><polygon fill="#d59f0f" points="314.36 730.62 331.89 743.36 325.16 722.77 342.7 710.05 321.05 710.05 314.36 689.47 307.66 710.05 286.03 710.05 303.53 722.77 296.84 743.36 314.36 730.62"/></svg>