<?xml version="1.0" encoding="utf-8"?>
<!-- Generator: Adobe Illustrator 16.0.0, SVG Export Plug-In . SVG Version: 6.00 Build 0)  -->
<!DOCTYPE svg PUBLIC "-//W3C//DTD SVG 1.1//EN" "http://www.w3.org/Graphics/SVG/1.1/DTD/svg11.dtd">
<svg version="1.1" id="Capa_1" xmlns="http://www.w3.org/2000/svg" xmlns:xlink="http://www.w3.org/1999/xlink" x="0px" y="0px"
	 width="2000px" height="2000px" viewBox="0 0 2000 2000" enable-background="new 0 0 2000 2000" xml:space="preserve">
<polygon fill-rule="evenodd" clip-rule="evenodd" fill="#26241E" points="1650.664,1077.553 1650.624,1076.852 1650.624,1076.533 
	1648.176,1045.735 1648.069,1045.127 1648.043,1044.797 1644.232,1014.74 1644.152,1013.813 1644.036,1013.244 1638.547,983.346 
	1638.467,982.816 1638.439,982.605 1631.771,953.698 1631.468,952.64 1631.388,952.296 1623.066,923.231 1622.869,922.676 
	1622.749,922.411 1613.437,894.537 1613.119,893.716 1612.905,893.2 1601.993,865.775 1601.699,865.048 1601.463,864.664 
	1589.412,837.98 1589.121,837.332 1588.934,836.936 1575.36,810.542 1575.084,810.026 1574.937,809.723 1560.255,784.269 
	1559.884,783.674 1559.711,783.436 1543.279,757.942 1526.307,733.997 1525.962,733.495 1525.805,733.282 1507.704,710.264 
	1507.243,709.681 1507.016,709.391 1487.148,686.821 1467.131,665.693 1466.653,665.217 1466.43,664.926 1445.474,644.91 
	1444.893,644.367 1444.521,644.037 1422.377,624.801 1421.846,624.417 1421.648,624.232 1398.535,606.108 1398.062,605.764 
	1397.808,605.632 1373.269,588.235 1348.343,572.174 1347.842,571.883 1347.614,571.725 1322.084,557.079 1321.566,556.788 
	1321.303,556.682 1318.021,554.962 1320.244,550.319 1324.027,542.487 1326.408,537.645 1328.766,532.671 1414.94,353.174 
	1421.476,339.627 1424.44,333.541 1427.402,327.416 1432.113,317.626 1436.875,307.823 1428.514,300.904 1420.126,293.985 
	1414.887,289.606 1409.545,285.28 1398.496,276.165 1371.813,254.099 1364.854,248.462 1364.046,247.867 1363.492,247.483 
	1363.135,247.206 1363.001,247.153 1355.858,242.231 1348.012,237.085 1340.803,232.838 1333.103,228.314 1332.495,228.022 
	1332.151,227.798 1323.87,223.577 1316.778,220.297 1308.391,216.368 1299.846,212.756 1299.262,212.558 1299.064,212.479 
	1291.232,209.634 1282.857,206.737 1275.316,204.263 1266.479,201.458 1265.633,201.207 1265.155,201.074 1259.15,199.579 
	1258.066,199.183 1257.205,198.971 1256.703,198.865 1248.897,196.867 1241.157,195.147 1232.03,193.084 1231.303,192.938 
	1230.998,192.912 1223.113,191.576 1206.127,188.784 1197.158,187.567 1189.141,186.642 1181.098,185.808 1171.783,184.789 
	1171.148,184.723 1170.765,184.723 1164.111,184.326 1154.797,183.612 1154.188,183.559 1153.884,183.559 1146.965,183.4 
	1137.89,182.897 1132.809,182.752 1132.809,158.277 1132.809,149.665 1132.809,140.96 1132.809,127.148 1132.809,113.244 
	1118.983,113.244 1107.567,113.244 1107.567,112.187 1107.567,98.321 1107.567,84.483 1093.703,84.483 1079.84,84.483 
	1071.186,84.483 1062.494,84.483 996.374,84.483 987.734,84.483 979.068,84.483 965.219,84.483 951.381,84.483 951.381,98.321 
	951.381,112.187 951.381,113.244 940.546,113.244 926.695,113.244 926.695,127.148 926.695,140.96 926.695,149.665 926.695,158.277 
	926.695,182.712 919.723,182.99 912.908,183.334 903.754,183.638 903.119,183.651 902.814,183.691 895.869,184.3 886.516,184.802 
	885.854,184.868 885.551,184.908 869.807,186.642 860.705,187.687 851.683,188.983 843.799,190.252 835.907,191.603 
	826.858,193.137 825.925,193.309 825.37,193.401 818.146,195.082 808.76,197.211 800.783,199.249 791.502,201.803 783.373,204.316 
	774.569,207.213 767.213,209.859 758.919,212.888 758.205,213.206 757.807,213.352 749.274,217.043 742.164,220.351 
	733.577,224.425 725.976,228.341 725.27,228.75 724.931,228.949 717.641,233.183 710.287,237.587 709.691,237.958 709.38,238.17 
	702.198,242.946 701.727,243.237 701.548,243.355 701.073,243.727 700.9,243.858 687.553,253.887 687.002,254.35 686.671,254.574 
	665.002,272.911 660.79,276.615 656.219,280.716 651.694,284.804 644.45,291.273 637.174,297.795 640.872,306.831 644.517,315.827 
	646.806,321.542 649.106,327.165 658.023,349.139 731.149,530.064 733.372,535.595 735.569,540.966 738.816,548.877 
	723.456,556.762 722.802,557.106 722.438,557.304 696.959,571.989 696.388,572.28 696.131,572.519 670.65,588.936 646.646,605.949 
	646.196,606.293 645.991,606.438 622.841,624.55 622.363,624.933 622.218,625.132 600.244,644.182 599.701,644.671 599.404,644.923 
	578.309,665.151 577.787,665.693 577.543,665.904 556.951,687.747 537.265,710.436 518.975,733.495 518.544,734.09 518.314,734.38 
	500.984,758.935 485.082,783.515 484.666,784.216 484.446,784.613 469.775,810.146 469.503,810.662 469.34,810.913 455.779,837.372 
	455.507,837.94 455.429,838.139 443.354,864.691 443.031,865.512 442.827,865.987 431.762,894.417 422.05,922.636 421.844,923.43 
	421.712,923.76 413.443,953.461 406.413,982.988 406.294,983.597 406.228,983.888 400.875,1013.403 400.711,1014.276 
	400.671,1014.779 396.881,1045.021 396.781,1045.803 396.728,1046.278 394.454,1077.937 393.572,1108.881 393.572,1109.476 
	393.572,1109.661 393.572,1110.242 393.572,1110.508 394.519,1142.377 396.754,1173.162 396.808,1173.891 396.881,1174.3 
	400.671,1204.41 400.778,1205.27 400.901,1205.786 406.268,1235.565 406.471,1236.398 406.524,1236.862 413.715,1267.104 
	421.804,1295.879 422.05,1296.594 422.168,1297.017 431.8,1325.274 432.045,1325.883 432.17,1326.214 442.827,1353.308 
	443.138,1354.115 443.354,1354.631 455.389,1381.288 455.593,1381.791 455.673,1381.963 455.903,1382.412 456.01,1382.584 
	469.45,1408.753 469.775,1409.414 469.994,1409.771 484.513,1435.065 484.977,1435.859 485.247,1436.243 501.666,1461.339 
	518.314,1484.901 518.598,1485.351 518.691,1485.47 519.029,1485.906 519.167,1486.078 537.511,1509.402 537.861,1509.825 
	538.051,1510.024 557.766,1532.726 577.608,1553.668 578.23,1554.303 578.628,1554.674 600.449,1575.312 623.138,1594.943 
	646.183,1613.214 646.779,1613.677 647.089,1613.941 670.757,1630.676 671.418,1631.14 671.789,1631.338 697.143,1647.465 
	722.643,1662.36 723.397,1662.771 723.782,1662.97 750.748,1676.543 777.942,1689.02 778.498,1689.229 778.743,1689.323 
	799.856,1697.738 807.172,1700.489 835.518,1710.173 836.271,1710.396 836.667,1710.517 866.261,1718.784 895.604,1725.756 
	896.543,1725.93 897.061,1726.008 927.435,1731.326 942.41,1733.324 957.611,1735.336 958.577,1735.428 959.173,1735.479 
	989.799,1737.73 990.486,1737.757 990.869,1737.795 1021.84,1738.695 1022.951,1738.695 1023.375,1738.695 1054.716,1737.757 
	1055.283,1737.73 1055.497,1737.703 1086.229,1735.479 1087.169,1735.374 1087.643,1735.336 1117.567,1731.326 1118.322,1731.181 
	1118.84,1731.089 1120.982,1730.718 1148.631,1725.93 1149.426,1725.796 1149.77,1725.703 1179.775,1718.521 1208.666,1710.383 
	1209.395,1710.173 1209.725,1710.065 1238.076,1700.383 1238.645,1700.158 1238.938,1700.078 1261.399,1691.229 1266.348,1689.35 
	1267.286,1688.926 1267.75,1688.74 1295.16,1676.08 1321.169,1662.956 1321.66,1662.718 1321.78,1662.652 1322.388,1662.309 
	1322.651,1662.163 1348.687,1646.909 1373.188,1631.312 1373.877,1630.836 1374.273,1630.571 1398.271,1613.598 1398.8,1613.175 
	1399.014,1612.989 1422.721,1594.177 1445.396,1574.478 1466.35,1554.607 1466.983,1553.985 1467.408,1553.615 1487.887,1531.932 
	1507.016,1510.117 1507.373,1509.693 1507.467,1509.588 1507.891,1509.071 1508.074,1508.846 1526.199,1485.497 1526.517,1485.126 
	1526.609,1484.901 1543.863,1460.479 1559.777,1436.164 1560.215,1435.384 1560.492,1434.92 1575.177,1409.414 1575.48,1408.846 
	1575.574,1408.606 1589.041,1382.359 1589.385,1381.686 1589.542,1381.288 1601.953,1353.586 1612.985,1326.24 1613.289,1325.354 
	1613.477,1324.852 1623.173,1295.746 1631.388,1267.289 1631.664,1266.179 1631.771,1265.795 1638.467,1236.479 1638.597,1235.777 
	1638.73,1235.341 1644.076,1205.733 1644.18,1204.873 1644.232,1204.331 1648.123,1173.891 1648.176,1173.308 1648.176,1173.017 
	1650.624,1142.324 1650.678,1141.451 1650.678,1140.948 1651.338,1109.039 "/>
<path fill-rule="evenodd" clip-rule="evenodd" fill="#FFFFFF" d="M1022.567,550.345c307.968,0,559.278,251.4,559.278,559.316
	c0,308.153-251.311,559.487-559.278,559.501c-308.179,0-559.474-251.348-559.474-559.501
	C463.094,801.745,714.389,550.345,1022.567,550.345"/>
<path fill-rule="evenodd" clip-rule="evenodd" fill="#007664" d="M644.305,802.592L526.358,850.76
	c-37.882,72.193-60.479,153.488-63.403,239.692l79.237,94.511l102.807-178.531L644.305,802.592z M590.514,1330.288l-5.608,127.942
	c13.156,16.498,27.133,32.2,42.009,47.07c44.133,44.134,95.557,80.951,152.212,108.455l115.884-30.759l-118.849-168.225
	L590.514,1330.288z M1201.51,579.305c-56.211-19.064-116.458-29.422-178.942-29.422c-54.308,0-106.906,7.845-156.624,22.384
	l-23.864,83.783l196.033,61.357l199.235-45.827L1201.51,579.305z M1515.193,844.41l-112.106-43.564l-3.479,205.784l100.82,178.135
	l81.204-101.973c0.054-0.054,0.054-0.172,0.054-0.198C1577.531,996.787,1553.891,915.915,1515.193,844.41 M1236.555,1432.856
	l-127.004,159.746l122.4,36.235c70.142-28.47,133.301-70.777,186.059-123.537c4.34-4.326,8.521-8.771,12.741-13.229l-1.894-133.868
	L1236.555,1432.856z"/>
<path fill-rule="evenodd" clip-rule="evenodd" fill="#E9BD30" d="M1263.914,382.648l-13.904,60.022h-17.464l0.608-13.931
	c1.361-1.363,1.361-5.252,4.829-6.549c-5.438,0-11.985-6.151-13.308-9.419c-2.211,3.268-8.07,9.419-14.223,9.419
	c3.52,1.297,3.52,5.186,4.828,6.549v13.931h-36.645l0.58-20.479c1.35-1.561,7.276-10.689,10.135-12.039
	c-5.477,0-18.098-5.45-20.121-8.705c-1.945,3.254-17.266,8.705-22.689,8.705c2.646,1.35,10.027,10.479,11.324,12.039v20.479h-45.35
	l0.607-13.931c1.55-1.363,1.55-5.252,4.828-6.549c-5.436,0-11.997-6.151-13.27-9.419c-2.036,3.268-8.12,9.419-13.969,9.419
	c3.254,1.297,3.254,5.186,4.551,6.549v13.931h-35.139l0.637-31.168c1.998-2.011,15.929-20.744,21.405-21.392
	c-10.055,0-46.054-20.095-50.63-30.785c-0.436,0.847-0.859,1.495-1.337,2.421c-8.308,10.875-41.421,28.364-50.827,28.364
	c5.412,0.648,25.297,18.535,28.153,20.042v32.519h-34.067l0.663-13.931c1.311-1.363,1.311-5.252,4.576-6.549
	c-5.874,0-12.011-6.151-13.269-9.419c-1.998,3.268-8.122,9.419-13.983,9.419c3.24,1.297,3.24,5.186,4.564,6.549v13.931h-49.347
	v-20.479c1.297-1.561,7.449-10.689,10.081-12.039c-5.264,0-17.911-5.45-20.108-8.705c-1.932,3.254-17.25,8.705-22.489,8.705
	c2.618,1.35,9.867,10.479,11.363,12.039v20.479l-30.785,0.648l0.661-13.282c1.311-1.998,1.958-5.875,4.603-6.549
	c-5.264,0-11.363-6.151-13.308-9.42c-0.701,1.125-1.758,2.62-3.307,4.181c-2.825,2.58-6.535,5.239-10.034,5.239
	c2.619,0.674,3.499,4.551,4.809,6.549v13.917h-23.337V390.11l-85.999-44.133l59.149,146.688h488.638l71.345-148.62L1263.914,382.648
	z M843.375,474.091c-3.91,0-7.415-2.581-7.415-6.721c0-3.956,3.505-7.237,7.415-7.237c3.943,0,7.436,3.281,7.436,7.237
	C850.811,471.511,847.318,474.091,843.375,474.091 M933.507,474.091c-4.154,0-7.408-2.581-7.408-6.721
	c0-3.956,3.254-7.237,7.408-7.237c3.97,0,7.235,3.281,7.235,7.237C940.742,471.511,937.477,474.091,933.507,474.091 M1030.2,474.091
	c-4.141,0-7.406-2.581-7.406-6.721c0-3.956,3.266-7.237,7.406-7.237c3.917,0,7.186,3.281,7.186,7.237
	C1037.386,471.511,1034.117,474.091,1030.2,474.091 M1127.519,474.091h-0.188c-4.153,0-6.771-2.581-6.771-6.721
	c0-3.956,2.618-7.237,6.771-7.237h0.188c3.979,0.238,7.037,3.506,7.037,7.237C1134.556,471.273,1131.498,473.919,1127.519,474.091
	 M1204.618,474.091c-3.994,0-7.435-2.581-7.435-6.721c0-3.956,3.44-7.237,7.435-7.237c3.89,0,7.382,3.281,7.382,7.237
	C1212,471.511,1208.508,474.091,1204.618,474.091 M782.056,347.975c8.738-8.083,32.089-25.784,61.319-40.614
	c22.729-11.338,48.909-20.943,74.642-23.337c-13.31,11.576-65.698,44.067-74.642,70.473c-0.86,2.408-1.282,4.565-1.282,6.958
	l1.282,0.464l48.657,22.039c7.224-13.533,23.575-33.827,41.475-52.573c22.345-24.024,46.978-45.391,57.192-48.036
	c-3.283,8.758,7.434,21.405,14.632,20.73c-13.971,5.279-29.898,27.94-28.603,43.896h36.646c0-9.182,4.007-25.334,16.825-24.66h0.663
	c13.334-1.322,17.939,15.479,17.225,24.66h37.107c1.337-15.955-15.041-38.617-28.985-43.896c7.858,0.675,18.522-11.973,15.241-20.73
	c9.842,2.646,33.84,23.588,56.067,47.11c18.124,19.024,35.163,39.768,42.346,53.5l34.754-15.915l14.604-6.588
	c0-8.691-5.899-18.084-14.604-27.438c-19.235-20.968-51.302-41.263-61.371-49.994c21.008,1.971,42.136,8.493,61.371,17.013
	c35.534,15.532,65.011,37.546,75.276,46.938c5.424-25.334,35.348-41.263,57.362-38.617c-34.874-30.137-82.247-46.713-132.639-54.81
	c-25.401-3.929-51.302-5.875-77.1-6.311c-4.341-0.251-8.705-0.251-12.846-0.251h-62.63c-1.972-4.551-5.251-7.858-9.154-9.354
	v-39.318h25.941v-20.69h-25.32v-28.628h-25.293v28.628h-24.873v20.69h26.168v39.318c-4.153,1.495-8.084,4.802-10.041,9.354H946.87
	c-4.618,0-8.971,0-13.363,0.251c-30.097,0.437-60.631,3.043-90.132,8.719c-45.158,8.731-87.274,24.871-118.708,52.402
	C746.047,306.712,776.823,322.64,782.056,347.975 M1030.2,244.07h0.663c7.832,0,14.656,6.549,14.656,14.619
	c0,8.096-6.824,14.645-14.656,14.645h-0.663c-7.856-0.212-13.493-6.747-13.493-14.645
	C1016.707,250.844,1022.344,244.48,1030.2,244.07"/>
<path fill-rule="evenodd" clip-rule="evenodd" fill="#26241E" d="M938.309,863.765h-29.475c-0.647-4.578-1.944-7.859-4.578-10.677
	c-3.254-2.606-6.747-3.916-11.296-3.916c-5.504,0-10.082,1.932-13.336,6.085c-3.493,4.617-5.489,11.325-5.489,21.181
	c0,6.76,0.661,11.351,2.87,14.843c1.284,3.268,3.254,5.888,5.874,7.859c2.633,1.283,6.099,2.619,10.082,2.619
	c4.55,0,8.704-1.336,11.296-3.902c2.633-2.646,4.578-6.576,4.578-12.039h30.138c-0.663,6.112-1.324,10.663-3.52,14.605
	c-1.958,4.155-4.576,8.071-8.493,12.012c-4.154,4.142-8.745,7.449-13.944,9.367c-5.489,2.646-12.012,3.308-19.446,3.308
	c-7.423,0-13.944-0.662-20.108-3.308c-5.889-1.918-11.326-4.564-15.268-8.691c-3.888-3.904-7.408-8.533-10.042-13.971
	c-3.239-6.549-4.563-14.632-4.563-23.351c0-7.224,1.324-13.983,3.28-20.532c2.593-6.76,6.086-11.999,10.014-16.126
	c3.944-4.604,8.758-7.197,13.971-10.055c6.789-2.659,13.296-3.942,21.418-3.942c6.537,0,13.283,1.283,19.197,3.307
	c6.125,2.131,11.338,4.777,14.831,8.692c3.89,3.942,7.196,8.705,9.154,13.97C937.026,854.597,937.647,859.188,938.309,863.765"/>
<polygon fill-rule="evenodd" clip-rule="evenodd" fill="#26241E" points="1014.273,922.504 940.93,922.504 940.93,827.807 
	971.489,827.807 971.489,897.857 1014.273,897.857 "/>
<path fill-rule="evenodd" clip-rule="evenodd" fill="#26241E" d="M1016.231,883.186v-55.392h31.393v58.687
	c0,3.267,0,6.746,1.311,8.744c0.714,1.945,2.659,3.28,4.63,4.564c2.621,1.322,5.451,1.957,8.705,1.957
	c4.604,0,8.07-1.323,10.741-3.902c2.567-1.984,3.89-5.9,3.89-11.363v-58.687h30.521v55.392c0,7.462-0.636,12.674-1.257,16.604
	c-1.534,4.141-3.546,7.395-6.138,10.702c-1.96,3.268-5.186,6.086-8.758,8.07c-3.863,1.957-7.594,3.929-12.41,5.226
	c-5.213,0.661-10.664,1.335-15.954,1.335c-7.408,0-12.647-0.674-18.099-1.335c-4.564-1.297-8.492-3.269-12.646-5.226
	c-3.282-1.984-6.563-4.803-8.468-8.07c-2.858-3.307-4.842-7.223-6.138-12.647C1016.867,895.225,1016.231,889.747,1016.231,883.186"
	/>
<path fill-rule="evenodd" clip-rule="evenodd" fill="#26241E" d="M1196.721,879.957c-2.659-3.545-6.8-6.125-11.352-7.461
	c8.083-5.226,11.973-11.986,11.973-20.042c0-8.521-3.28-15.32-10.648-19.224c-5.266-3.519-14.011-5.437-26.01-5.437h-4.379h-42.309
	v94.71h42.309h5.689c7.434,0,12.658,0,15.293-0.675c3.52-0.661,6.111-1.958,9.406-3.267c2.631-1.323,5.437-3.308,6.759-4.803
	c2.607-2.633,4.577-5.252,5.875-8.533c1.297-3.479,1.958-6.721,1.958-10.689C1201.285,888.438,1199.327,883.847,1196.721,879.957
	 M1144.134,849.172h10.027h2.144c3.282,0,5.306,0.185,6.377,0.635c1.984,0.661,3.545,1.296,4.775,2.646
	c0.701,1.27,1.309,3.452,1.309,5.41c0,1.985-0.607,3.942-2.539,5.913c-1.985,1.323-5.291,1.959-9.922,1.959h-0.186h-11.985V849.172z
	 M1168.766,898.505c-1.943,1.932-6.084,2.606-11.959,2.606h-0.502h-12.171v-17.926h12.171h0.502c5.875,0,10.016,0.662,11.959,1.985
	c1.985,1.31,3.256,3.928,3.256,6.787C1172.021,894.537,1170.751,897.169,1168.766,898.505"/>
<polygon fill-rule="evenodd" clip-rule="evenodd" fill="#26241E" points="824.808,1338.795 758.919,1338.795 758.919,1253.465 
	786.819,1253.465 786.819,1316.133 824.808,1316.133 "/>
<path fill-rule="evenodd" clip-rule="evenodd" fill="#26241E" d="M890.286,1253.479h-14.418h-14.368l-30.572,85.316h27.265
	l3.307-10.689h14.368h13.797l3.307,10.689h27.889L890.286,1253.479z M875.867,1310.219h-8.943l8.573-30.771l0.37,1.084l8.996,29.687
	H875.867z"/>
<path fill-rule="evenodd" clip-rule="evenodd" fill="#26241E" d="M1002.261,1284.885h-26.618c-0.688-3.479-2.805-5.437-4.828-7.435
	c-2.593-1.905-5.252-2.58-8.468-2.58c-5.489,0-9.42,1.944-12.024,5.874c-3.466,3.479-5.451,10.041-5.451,18.098
	c0,8.785,1.985,14.633,5.451,17.927c2.604,4.14,6.535,6.112,12.024,6.112c3.903,0,7.186-1.323,9.79-3.295
	c2.818-2.17,4.802-4.141,5.491-6.747h-12.673v-18.562h38.616v47.138h-17.939l-1.47-8.521c-1.971,2.605-3.941,4.578-5.913,5.292
	c-1.998,1.931-4.563,3.229-8.082,3.916c-3.256,0.833-6.51,1.481-11.326,1.481c-7.223,0-14.63-1.481-20.532-4.789
	c-6.718-3.295-11.363-8.718-15.503-15.24c-3.89-6.786-5.212-14.672-5.212-24.051c0-7.396,0.607-13.932,3.281-20.056
	c1.932-4.578,4.763-9.182,8.705-13.322c3.916-3.942,8.056-6.563,12.674-8.745c6.748-2.606,12.648-3.902,20.095-3.902
	c7.82,0,15.281,1.296,21.155,4.802c6.111,3.268,10.676,7.196,14.155,13.31C999.654,1274.87,1001.6,1279.448,1002.261,1284.885"/>
<path fill-rule="evenodd" clip-rule="evenodd" fill="#26241E" d="M1013.849,1302.784v-49.319h27.941v51.938
	c0,4.128,0,6.761,1.271,8.071c0.688,1.983,2.011,3.28,4.127,4.841c2.633,1.258,4.578,1.258,7.886,1.258
	c4.141,0,7.407-0.636,9.393-3.44c2.606-1.984,3.281-5.265,3.281-10.729v-51.938h27.939v49.319c0,6.747-0.688,11.364-1.296,15.531
	c-1.561,3.255-2.845,6.522-4.842,9.115c-2.594,2.659-5.028,5.477-8.521,7.461c-3.279,1.945-6.509,3.282-11.126,4.564
	c-4.748,0.661-9.354,1.323-14.829,1.323c-5.874,0-11.324-0.662-15.267-1.323c-4.578-1.282-8.705-2.619-11.378-4.564
	c-3.228-1.984-5.875-4.802-8.705-7.461c-1.985-2.593-3.929-6.522-4.603-11.298
	C1013.849,1313.475,1013.849,1308.883,1013.849,1302.784"/>
<polygon fill-rule="evenodd" clip-rule="evenodd" fill="#26241E" points="1133.18,1338.795 1105.928,1338.795 1105.928,1253.465 
	1131.909,1253.465 1161.358,1298.855 1161.358,1253.465 1188.65,1253.465 1188.65,1338.795 1161.994,1338.795 1133.18,1294.265 "/>
<path fill-rule="evenodd" clip-rule="evenodd" fill="#26241E" d="M1255.432,1253.479h-14.379h-13.574l-30.758,85.316h27.266
	l3.492-11.351h13.574h14.379l2.608,11.351h27.953L1255.432,1253.479z M1241.053,1310.219h-8.971l8.971-30.322l0.422-1.137
	l8.521,31.459H1241.053z"/>
<path fill-rule="evenodd" clip-rule="evenodd" fill="#26241E" d="M692.209,1160.118c-5.802-1.39-11.887-2.077-18.236-1.972
	c-57.199,0.979-92.025,66.412-59.473,68.568c26.563,1.747,54.352-29.846,66.425-48.697
	C684.714,1172.104,688.464,1166.124,692.209,1160.118 M723.729,1135.564c20.201,7.818,33.867,22.079,44.695,40.125
	c13.261-10.16,27.008-22.041,35.76-35.389c1.977-3.029,3.266-6.522,3.902-10.359c2.586-15.24-7.408-29.422-17.919-39.317
	c-8.104-7.647-16.735-13.508-25.798-18.43c-1.369,1.998-2.731,3.983-4.087,5.993c9.089,4.975,17.688,10.862,24.923,17.675
	c8.607,8.109,17.901,20.334,15.771,32.876c-2.13,12.58-13.183,18.824-23.477,23.785c-2.778-24.857-16.728-35.877-36.54-44.688
	C735.178,1117.003,729.45,1126.277,723.729,1135.564 M609.353,1237.153c-44.662-2.183-18.462-113.151,82.24-108.019
	c6.575,0.33,12.655,1.124,18.29,2.328c5.974-9.697,11.979-19.354,18.033-28.919c-3.414-1.31-6.965-2.606-10.591-3.956
	c-21.741-8.11-34.184-11.92-52.01-28.734c-25.832-24.343-16.081-49.386-1.94-61.199c0.682,4.339,1.707,9.393,3.149,13.56
	c7.528,21.908,37.401,33.074,57.045,40.39c3.751,1.402,7.503,2.766,11.272,4.141c4.333,1.588,8.752,3.373,13.136,5.332
	c1.356-1.972,2.738-3.942,4.121-5.9c-8.373-3.731-17.06-6.998-26.009-10.333c-16.244-6.059-42.797-15.954-51.185-32.293
	c-20.505-39.953,18.939-82.208,60.419-82.208c22.939,0,43.083,11.285,55.167,28.602l19.587-19.037l9.704,11.523l-51.768,37.162
	c-7.692-10.61-27.068-37.678-41.143-39.292c-1.661-0.186-3.426-0.186-5.094-0.186c-16.577,0-28.231,16.286-22.635,31.751
	c6.979,19.275,36.928,30.824,54.352,37.308c6.635,2.487,13.653,5,20.672,7.726c15.173-18.627,31.466-35.401,49.611-49.2
	l15.485,1.429c-19.348,14.725-36.62,32.836-52.661,52.971c23.886,10.742,44.557,25.665,44.829,53.117
	c0.375,39.859-58.362,89.219-91.349,101.694c-8.587-14.183-20.322-25.414-34.45-32.068c-2.938,4.735-5.893,9.406-8.872,14.063
	C681.445,1202.822,642.393,1238.767,609.353,1237.153"/>
<path fill-rule="evenodd" clip-rule="evenodd" fill="#26241E" d="M951.685,1144.401l-4.14,6.337
	c-6.324,1.362-11.787-1.588-15.163-8.334v-62.271c4.077-6.377,19.951-23.562,19.951-23.562l-6.773-7.713l-9.101,7.038
	c-6.087-1.35-12.412-11.1-14.476-18.548l-13.122-0.675c-6.8,8.572-14.248,21.035-27.638,23.496
	c-1.546,0.489-3.161,0.489-4.985,0.489c0.688-7.501-0.663-27.398-24.212-22.438c-8.122,7.897-15.153,17.675-2.685,32.81
	c11.733,14.539,20.121,27.662,20.121,27.662c-24.871,14.037-62.244,64.494-11.773,81.043c11.086,0.861,18.098-1.6,23.534-5.477
	c7.264-4.961,12.027-12.185,20.625-18.098c0.661,7.025,9.71,33.313,31.223,22.861c8.149-7.013,19.262-13.124,24.236-30.521
	L951.685,1144.401z M902.51,1138.315c0,0-6.785,8.812-15.159,13.785c-2.277,1.151-4.287,2.024-6.127,2.487
	c-5.648,2.064-9.737,0.953-16.073-3.162c-13.785-20.796,3.625-41.633,11.088-45.02l4.985,5.848l6.788,7.924l9.103-9.697
	c0,0-8.415-10.689-15.891-19.949c-4.061-5.252-7.685-9.989-9.737-12.476c3.64-0.212,7.025-0.86,9.737-2.011
	c5.913-2.289,9.725-6.112,11.788-11.113c0,6.1,5.398,8.824,9.498,12.449V1138.315z"/>
<path fill-rule="evenodd" clip-rule="evenodd" fill="#26241E" d="M953.682,1063.582l24.21-26.233
	c14.526-2.051,23.536,5.662,23.536,39.384c14.498-15.398,37.374-38.511,37.374-38.511c4.947-4.272,15.159-5.623,19.474,0
	c3.386,5.45,6.799,17.688,18.547,12.237c12.223-5.676,9.525-6.112,9.525-6.112l6.111,8.163
	c-6.111,8.136-12.937,19.248-19.712,22.847v76.731c2.023,3.439,2.725,5.438,5.451,5.438c2.937,0,6.085-6.1,6.085-6.1l7.516,8.838
	l-20.414,21.511c-5.637,4.736-10.385,4.736-14.485,2.686c-4.313-1.349-15.373-14.473-15.373-25.572v-77.419l-9.499-15.188
	l-29.211,29.7v58.157c3.6,3.387,6.352,3.387,9.022,4.074c3.412,0.675,6.337-6.787,6.337-6.787l8.824,3.374l-22.174,28.985
	c-4.762,3.4-14.444,3.4-17.171-2.011c-3.439-5.45-9.049-11.112-13.124-10.451c-3.439,0.675-10.438,5.662-11.801,7.7l-7.699-7.025
	c0,0,15.386-17.859,18.839-19.248v-78.994c-2.091-4.736-4.749-9.512-13.189-2.725L953.682,1063.582z"/>
<path fill-rule="evenodd" clip-rule="evenodd" fill="#26241E" d="M1115.348,1035.973v-56.622l31.193-18.098v74.045
	c4.075,1.389,7.463,2.924,9.736,1.389c2.7-1.389,4.71-6.124,4.71-6.124h11.153c0,8.36-7.712,19.896-11.763,23.984h-13.837v88.519
	c4.075,5.45,4.075,8.36,7.463,6.085c2.988-2.023,9.736-8.123,9.736-8.123l8.4,9.725c-4.103,6.773-21.524,21.974-25.6,24.938
	c-4.339,3.347-13.096,5.384-17.45,2.672c-4.722-3.639-4.087-16.775-17.157-9.737c-9.076,4.102-9.076,4.776-9.076,4.776
	l-6.139-10.199c0,0,12.488-13.362,18.629-16.074v-89.881c0,0-4.777-1.337-7.504,0.674c-2.05,2.051-5.674,4.088-4.986,7.025h-10.398
	c2.249-7.025,4.947-21.921,11.763-28.259L1115.348,1035.973z"/>
<path fill-rule="evenodd" clip-rule="evenodd" fill="#26241E" d="M1276.482,1071.746c6.362-5.465,15.847-15.85,17.409-20.586
	l-5.636-9.513c-3.387,6.536-4.75,10.161-12.462,11.511c-6.774,1.415-23.575-13.574-24.873-17.173
	c-4.734-3.373-8.388-2.036-10.451,0.688c-0.885,1.085-4.762,3.836-10.425,7.236c-11.086,6.549-29.184,14.937-47.505,14.01
	c-4.962,5.676-5.637,8.361-4.274,11.1c2.037,2.727,6.985,2.727,8.361,7.699v74.02c-5.397,4.062-15.876,12.449-17.225,15.161
	l4.763,4.763c7.064-2.024,13.811-6.773,15.848-4.763c3.64,3.399,11.787,13.825,14.486,17.212c6.35,1.349,11.789,1.349,16.048-0.676
	c1.416-0.675,5.027-3.85,9.498-7.487c7.263-5.424,16.539-11.761,21.564-11.761c7.659-0.887,31.235-4.3,33.948-3.599v-7.501
	c-4.075-1.35-9.075-4.948-9.075-4.948V1071.746z M1246.848,1151.426c-3.375,0.662-12.462,5.425-12.462,5.425l-4.341-2.726
	l-16.496-10.385v-77.459l12.503-9.035c0.157,2.936,1.746,5.662,3.993,8.148c5.266,5.465,13.428,9.725,16.803,11.324V1151.426z"/>
<path fill-rule="evenodd" clip-rule="evenodd" fill="#26241E" d="M1403.721,1146.412v-43.432c0,0,3.627,0.661,5.664-1.363
	c4.1-3.598,2.023-7.686-2.752-9.063h-38.021l34.422-51.595c0,0-2.697-6.998-5.422-9.075c-3.413,2.738-5.69,5.478-15.824,9.075
	c-9.777,3.837-20.823-7.699-23.574-11.112c-3.216-2.475-4.074-2.289-7.964,1.164l-1.112,0.873
	c-4.721,7.713-13.77,12.449-26.883,16.974c-14.498,1.601-18.151,2.937-24.262,5.688c-1.349,5.438,6.775,9.035,11.76,11.734v37.36
	c0,0-4.984,2.751-10.384,5.477c-5.477,3.612-3.413,8.374,2.05,10.372h32.533l-35.298,55.232l9.737,3.625
	c16.959-14.446,34.198-7.672,41.858-0.859c0.304,0.186,0.701,0.437,0.938,0.859c2.725,4.102,7.699,3.413,10.385,1.377
	c4.777-11.087,32.626-20.837,45.775-23.563c3.359-0.635,4.061-2.037,4.061-5.424
	C1411.408,1147.127,1408.656,1149.164,1403.721,1146.412 M1350.249,1065.62c10.214,2.05,23.574-2.487,32.172-10.425l-27.146,39.41
	h-5.025h-13.521l-0.688-41.435C1338.092,1060.434,1343.501,1064.244,1350.249,1065.62 M1374.748,1153.451
	c-7.249-4.949-12.274-12.198-24.499-10.175c-3.136,0.45-6.748,1.35-10.795,3.136c-19.978,8.4-12.488,2.752-12.488,2.752
	l23.283-33.51l4.338-6.536h20.161V1153.451z"/>
<polygon fill-rule="evenodd" clip-rule="evenodd" fill="#26241E" points="1369.299,1338.795 1359.271,1338.795 1359.271,1297.559 
	1350.7,1338.795 1340.075,1338.795 1331.316,1297.559 1331.316,1338.795 1321.938,1338.795 1321.938,1289.463 1336.516,1289.463 
	1345.261,1328.093 1354.64,1289.463 1369.299,1289.463 "/>
<rect x="1378.004" y="1328.768" fill-rule="evenodd" clip-rule="evenodd" fill="#26241E" width="10.729" height="10.027"/>
<path fill-rule="evenodd" clip-rule="evenodd" fill="#26241E" d="M1436.769,1327.431c0-9.38-2.011-10.689-6.164-11.985
	c4.842-1.932,7.449-6.549,7.449-11.986c0-3.929-2.607-13.996-15.279-13.996h-4.792h-19.871v49.345h9.791v-19.42h10.08h0.635
	c7.409,0,8.098,2.817,8.098,9.366c0,4.815,0,7.436,0.66,10.054h11.326v-1.335
	C1436.769,1336.189,1436.769,1334.879,1436.769,1327.431 M1419.942,1311.516h-1.96h-10.08v-13.295h10.08h2.621
	c6.111,0,7.406,3.955,7.406,6.521C1428.01,1309.57,1425.445,1311.516,1419.942,1311.516"/>
<rect x="1445.91" y="1328.768" fill-rule="evenodd" clip-rule="evenodd" fill="#26241E" width="10.689" height="10.027"/>
<polygon fill="#E9BD30" points="950.057,1836.276 891.518,1835.085 872.268,1779.76 853.031,1835.085 794.492,1836.276 
	841.159,1871.664 824.198,1927.718 872.268,1894.273 920.357,1927.718 903.398,1871.664 "/>
<polygon fill="#E9BD30" points="673.562,1722.172 615.008,1720.981 595.772,1665.656 576.538,1720.981 517.99,1722.172 
	564.657,1757.561 547.696,1813.628 595.772,1780.17 643.854,1813.628 626.895,1757.561 "/>
<polygon fill="#E9BD30" points="462.473,1510.117 403.907,1508.926 384.684,1453.6 365.448,1508.926 306.9,1510.117 
	353.567,1545.492 336.607,1601.559 384.684,1568.101 432.767,1601.559 415.806,1545.492 "/>
<polygon fill="#E9BD30" points="1094.867,1836.276 1153.42,1835.085 1172.656,1779.76 1191.893,1835.085 1250.434,1836.276 
	1203.773,1871.664 1220.732,1927.718 1172.656,1894.273 1124.566,1927.718 1141.527,1871.664 "/>
<polygon fill="#E9BD30" points="1371.362,1722.172 1429.916,1720.981 1449.153,1665.656 1468.387,1720.981 1526.94,1722.172 
	1480.267,1757.561 1497.229,1813.628 1449.153,1780.17 1401.076,1813.628 1418.036,1757.561 "/>
<polygon fill="#E9BD30" points="1582.453,1510.117 1641.008,1508.926 1660.24,1453.6 1679.477,1508.926 1738.031,1510.117 
	1691.357,1545.492 1708.316,1601.559 1660.24,1568.101 1612.164,1601.559 1629.127,1545.492 "/>
</svg>
