<?xml version="1.0" encoding="utf-8"?>
<!-- Generator: Adobe Illustrator 16.0.0, SVG Export Plug-In . SVG Version: 6.00 Build 0)  -->
<!DOCTYPE svg PUBLIC "-//W3C//DTD SVG 1.1//EN" "http://www.w3.org/Graphics/SVG/1.1/DTD/svg11.dtd">
<svg version="1.1" id="Capa_1" xmlns="http://www.w3.org/2000/svg" xmlns:xlink="http://www.w3.org/1999/xlink" x="0px" y="0px"
	 width="2000px" height="2000px" viewBox="0 0 2000 2000" enable-background="new 0 0 2000 2000" xml:space="preserve">
<polygon fill="#FFFFFF" points="1677.898,1934.489 1677.898,41.04 421.313,40.926 421.313,1934.358 "/>
<path fill="#FFFFFF" d="M886.245,1118.139c-4.832-3.706-13.14-5.421-21.139-6.874c-7.476-1.484-15.278-2.986-20.926-6.283
	c-11.956-7.216-22.052-22.69-30.883-36.499c-1.232-1.779-2.285-3.673-3.672-5.518c-6.473,0.85-13.19,1.976-19.344,3.004
	l-1.754,0.295v2.985c1.657,0.489,2.963,1.192,3.697,2.106c2.138,2.66,4.292,5.387,6.602,8.178
	c19.408,24.615,41.454,52.398,72.761,55.059l1.028,0.113v-0.342l1.126,0.229c13.123,2.71,25.904,9.434,36.581,18.493
	C903.515,1139.047,896.513,1126.299,886.245,1118.139"/>
<path fill="#FFFFFF" d="M1300.443,1079.533c2.09-2.775,4.229-5.518,6.496-8.161c0.719-0.947,1.977-1.714,3.656-2.106v-2.986
	l-1.877-0.311c-5.99-1.028-12.813-2.138-19.211-2.988c-1.307,1.813-2.481,3.723-3.641,5.502
	c-8.962,13.793-19.017,29.301-31.097,36.499c-5.451,3.33-13.352,4.815-20.762,6.283c-8.161,1.453-16.422,3.168-21.171,6.888
	c-10.234,8.064-16.911,20.912-23.702,34.785c10.529-9.106,23.294-15.652,36.353-18.346l1.093-0.229l0.066,0.358l0.897-0.13
	C1258.82,1131.947,1280.97,1104.165,1300.443,1079.533"/>
<path fill="#FFFFFF" d="M907.154,1044.193c-2.302-2.302-4.587-4.537-6.855-6.658c-0.326,1.403-1.601,2.855-4.244,2.855
	c-2.841,0-70.058-32.76-83.15-49.982c-5.395-7.28-5.518-24.859-5.518-25.023c0-8.095,3.73-23.26,13.582-31.633l1.084-0.947
	l0.752,1.142c2.316,3.119,4.145,6.106,6.7,10.724c0.8,1.176,1.592,2.58,2.505,4.066c6.685-15.786,22.584-29.823,41.159-40.808
	c9.565-5.746,19.425-10.513,29.643-14.479c0-0.423,0.066-0.734,0.197-1.093l0.261-0.327c3.264-3.981,8.194-15.312,8.194-16.601
	c0-10.381-9.37-11.164-12.227-11.164c-5.468,0-15.164,2.546-26.491,6.513c-23.539,8.063-54.12,21.382-68.598,27.684
	c-3.543,1.584-6.082,2.758-7.135,3.183l-1.354,0.539c-0.906,0.718-2.244,1.943-3.73,3.478
	c-10.512,16.617-19.171,32.367-19.171,39.664c0,4.163,2.14,6.22,4.628,7.77c1.037,0.425,1.812,0.897,2.579,1.486
	c2.603,1.582,5.329,3.363,5.329,7.052c0,2.171-2.007,5.141-5.012,9.482c-5.385,7.967-13.679,20.161-13.679,34.573
	c0,18.461,15.116,42.032,32.214,42.032c1.404,0,10.276-0.964,18.087-1.909c8.57-0.98,16.862-1.894,18.469-1.894
	c46.677,0,76.956,10.577,88.528,61.782c0.425-2.302,1.535-6.807,3.2-13.629c1.404-5.959,3.102-12.7,3.102-14.121
	C930.203,1065.396,917.992,1054.086,907.154,1044.193"/>
<path fill="#FFFFFF" d="M789.466,1280.454c0,0-0.483,0.066-0.687,0.066c-2.49,0-5.297-0.72-8.488-1.96l-1.102-0.228l0.334-0.114
	c-23.667-10.415-60.281-51.549-60.281-71.382c0-2.188,1.762-3.492,3.027-4.456c1.29-0.946,1.854-1.502,2.025-2.35
	c-0.172-0.441-0.556-1.52-1.086-3.168c-5.354-16.959-12.601-40.415-12.601-48.479c0-6.808,0.367-13.793,1.052-20.634l-0.301-1.713
	c-0.75-3.934-0.906-8.652-1.24-13.662c-0.801-17.776-1.756-39.649-24.184-40.923l-1.225-0.081
	c-1.337,8.716-2.105,17.808-2.635,26.558c-0.44,4.081-0.653,8.226-1.126,12.259l-1.118,38.93c0,1.126,0.506,122.472,41.64,122.472
	h26.941c8.275,0,14.863,13.223,20.876,25.938c3.347,6.905,6.49,13.32,9.681,17.646l67.609-50.013
	c-15.294,10.136-30.817,17.84-44.757,17.84C800.059,1283,795.668,1281.924,789.466,1280.454"/>
<path fill="#FFFFFF" d="M1263.847,1043.9c1.47,0,9.647,0.945,18.348,1.894c7.77,0.962,16.715,1.942,18.118,1.942
	c17.107,0,32.223-23.588,32.223-42.049c0-14.397-8.211-26.623-13.776-34.557c-2.972-4.342-4.897-7.328-4.897-9.516
	c0-3.427,2.204-5.191,4.668-6.579c0.897-1.06,2.384-1.648,3.429-2.088c2.366-1.567,4.342-3.56,4.342-7.591
	c0-7.444-8.7-23.358-19.376-40.106c-1.519-1.371-2.628-2.465-3.395-3.183l-1.226-0.425c-1.043-0.425-3.476-1.582-7.214-3.183
	c-14.527-6.301-45.198-19.734-68.703-27.814c-11.216-3.853-20.814-6.382-26.266-6.382c-3.002,0-12.437,0.783-12.437,11.278
	c0.097,1.175,5.075,12.505,8.323,16.472l0.244,0.375c0.131,0.456,0.181,0.734,0.408,1.06c9.796,3.95,19.784,8.897,29.188,14.463
	c18.641,11.002,34.686,25.023,41.231,40.84c0.897-1.501,1.763-2.905,2.351-4.081c2.726-4.635,4.473-7.605,6.725-10.708l0.849-1.143
	l1.045,0.915c9.957,8.373,13.598,23.555,13.598,31.667c0,0.164,0,17.727-5.567,25.154c-13.009,17.059-80.275,49.835-83.214,49.835
	c-2.465,0-3.641-1.321-4.081-2.711c-2.123,2.188-4.407,4.328-6.807,6.53c-10.66,9.876-22.805,21.089-22.805,33.724
	c0,1.437,1.52,8.178,2.972,14.137c1.601,6.251,2.596,10.658,3.005,13.14C1186.834,1054.511,1217.18,1043.9,1263.847,1043.9"/>
<path fill="#FFFFFF" d="M1418.134,1110.091c-0.489-3.919-0.735-8.063-1.078-12.145c-0.489-8.767-1.371-17.874-2.563-26.477h-1.109
	c-22.443,1.29-23.391,23.228-24.174,40.923c-0.359,5.01-0.557,9.727-1.207,13.629l-0.475,1.877c0.702,6.823,0.931,13.81,0.931,20.47
	c0,8.08-7.247,31.552-12.65,48.495c-0.507,1.648-0.801,2.743-1.093,3.183c0.113,0.866,0.798,1.389,2.088,2.335
	c1.209,0.947,2.922,2.285,2.922,4.456c0,19.85-36.254,60.853-59.807,71.282l0.244,0.23l-1.403,0.179
	c-3.232,1.272-5.926,1.992-8.425,1.992l-0.717-0.066c-6.007,1.454-10.35,2.563-12.242,2.563c-14.168,0-29.692-7.917-45.313-18.266
	h-0.131l68.034,50.454c3.297-4.358,6.465-10.788,9.745-17.679c6.202-12.731,12.634-25.938,20.976-25.938h26.933
	c41.151,0,41.591-121.346,41.591-122.521L1418.134,1110.091z"/>
<path fill="#FFFFFF" d="M868.174,1141.007c0.753-0.522,1.259-1.095,1.698-1.779c-0.653,0.604-1.29,1.19-1.909,1.615
	C868.043,1140.974,868.043,1141.007,868.174,1141.007"/>
<path fill="#FFFFFF" d="M1230.973,1140.843h0.098c-0.327-0.311-0.75-0.669-1.224-0.947
	C1230.223,1140.174,1230.548,1140.631,1230.973,1140.843"/>
<path fill="#FFFFFF" d="M902.878,1081.166c-3.444-5.338-5.42-8.635-10.446-14.74c-5.125,11.246-6.856,12.797-12.438,12.797
	c-12.993,0-9.37-8.275-13.271-22.51c-4.686-0.098-7.33-0.098-15.655-0.098v22.135c-0.195,12.128,18.054,18.135,26.999,18.135
	C888.61,1096.885,889.297,1095.236,902.878,1081.166"/>
<path fill="#FFFFFF" d="M1219.04,1079.206c-5.599,0-7.297-1.534-12.372-12.78c-4.996,6.12-7.003,9.386-10.546,14.74
	c13.761,14.087,14.382,15.735,24.827,15.735c8.979,0,27.294-6.023,27.194-18.151v-22.135c-8.52,0-11.1,0-15.816,0.114
	C1228.36,1070.947,1232.263,1079.206,1219.04,1079.206"/>
<path fill="#F1A21E" d="M1319.901,954.238c0.62-0.377,1.435-0.85,2.057-1.323c-1.028,0.473-2.531,1.062-3.46,2.09
	C1318.954,954.744,1319.279,954.466,1319.901,954.238"/>
<path fill="#F1A21E" d="M1226.401,421.843v320.373c-12.209-4.081-23.048-10.282-34.719-17.042
	c-28.778-16.551-64.64-37.167-141.701-37.167h-0.522c-77.207,0-113.085,20.617-141.815,37.167
	c-11.851,6.76-22.591,13.011-34.897,17.14V421.843H448.32v141.424h35.437c19.401,0,35.185,15.816,35.185,35.405l1.501,569.838
	c0,0-14.544,452.233,527.611,455.709h2.972c542.026-3.476,527.466-455.709,527.466-455.709l1.599-569.838
	c0-19.588,15.769-35.405,35.258-35.405h35.47V421.843H1226.401z M1274.784,685.56L1274.784,685.56c1.99,0,7.589,1.321,13.204,2.561
	c5.012,1.144,10.334,2.401,11.836,2.401c7.524,0,19.586-7.102,34.882-16.095c29.821-17.564,70.989-41.723,122.505-41.723
	c11.328,0,55.694,3.413,62.043,13.467c2.399,3.739,18.136,52.887,17.874,65.048v14.136l-2.252-2.449
	c-2.971-2.971-6.057-8.7-9.762-15.425c-8.145-14.511-18.999-34.327-33.299-34.327h-35.683c-3.492,0-8.128-4.571-15.686-11.997
	c-4.751-4.783-10.691-10.709-13.06-10.709c-26.541,0-51.858,21.956-73.993,41.364c-18.624,16.24-36.122,31.633-51.775,31.633
	c-18.43,0-35.029-2.743-37.119-36.4l-0.162-1.484H1274.784z M561.88,711.219c-0.081-12.161,15.547-61.309,17.882-65.048
	c6.407-10.054,50.732-13.467,62.044-13.467c51.688,0,92.634,24.158,122.505,41.723c15.41,8.993,27.399,16.095,35.087,16.095
	c1.321,0,6.782-1.257,11.719-2.302c5.779-1.339,11.214-2.66,13.115-2.66h10.57l-0.107,1.484c-2.269,33.657-18.934,36.4-37.183,36.4
	c-15.646,0-33.267-15.394-51.785-31.633c-22.379-19.408-47.492-41.364-74.099-41.364c-2.237,0-8.26,5.926-13.067,10.709
	c-7.476,7.426-12.217,11.997-15.564,11.997h-35.65c-14.496,0-25.276,19.816-33.364,34.327c-3.616,6.725-6.652,12.454-9.712,15.425
	l-2.391,2.449V711.219z M599.904,1209.955c-1.151,4.08-27.562,52.984-39.281,52.984c-5.901,0-7.533-15.033-7.533-15.213
	l7.533-62.419l-0.033-114.344c0-33.104,4.333-70.613,55.661-97.743c26.174-13.793,101.962-90.349,101.962-126.015
	c0-7.95-4.545-11.932-13.001-11.932c-12.592,0-35.372,12.585-48.879,26.803c-8.007,8.439-11.999,16.42-11.599,23.309l0.197,3.33
	l-2.368-2.219c-3.248-2.857-5.818-6.497-8.609-10.202c-3.461-4.783-7.191-9.664-11.867-13.354c-3.299-2.677-7.672-4.57-12.308-6.479
	c-7.436-3.297-15.172-6.644-20.273-13.581c-12.014-16.323-20.453-40.253-27.833-61.31c-1.705-4.57-3.191-8.929-4.692-13.059
	l-0.22-0.309l0.122-0.344l1.682-19.456l2.677-0.36c4.514,13.467,12.422,32.892,23.856,49.003
	c12.814,18.135,26.991,27.944,42.399,29.512h0.743l0.344,0.687c3.567,6.888,16.348,24.287,25.007,24.287
	c9.648,0,20.526-10.625,32.998-22.9c14.209-13.762,30.875-30.101,51.483-36.826c2.105-0.686,4.358-1.29,6.585-1.746
	c1.837-0.425,3.764-0.752,5.615-0.964c2.271-0.261,4.563-0.425,7.019-0.425c12.773,0,31.61,6.351,31.61,20.208
	c0,25.823-33.062,57.751-71.242,94.771c-52.619,50.798-112.255,108.533-112.255,171.736l0.286,4.049l0.049,2.089l0.236,3.085
	l4.423,66.19C610.4,1168.201,604.099,1196.341,599.904,1209.955 M940.846,1220.744l-0.36,0.521h-5.94l-0.294-0.881
	c-2.905-7.867-4.228-15.261-5.729-22.362c-1.028-5.811-2.154-11.264-3.869-16.846c-4.178-6.904-7.77-14.349-11.066-21.563
	c-0.229-0.163-0.229-0.244-0.342-0.539c-0.409-0.931-1.029-1.893-1.503-2.971c-0.146-0.359-0.423-0.799-0.57-1.288
	c-0.358-0.605-0.637-1.159-0.833-1.715c-10.691-9.059-23.489-15.816-36.596-18.526l-1.126-0.197v0.327l1.615,0.212l-1.845,1.927
	c-0.587,0.85-1.55,1.551-2.514,2.384c-0.439,0.685-0.945,1.24-1.698,1.779c0,0-0.13-0.05-0.195-0.164
	c-3.135,2.335-6.497,4.195-9.924,5.632c-6.563,2.955-13.631,4.57-19.36,5.273c-2.383,0.358-4.612,0.506-6.488,0.506h-1.901
	c-5.534-0.262-9.933-0.915-13.254-2.237c-0.033-0.033-0.033-0.033-0.156-0.114c-3.975-1.518-6.146-3.869-6.832-7.133
	c-0.105-0.604-0.105-1.29-0.105-1.927c0-1.796,0.572-3.819,1.159-5.745c0.579-1.568,0.987-3.102,1.151-4.326v-0.619
	c0-1.192-0.572-2.678-1.706-4.212c-1.249-2.057-3.362-4.294-5.966-6.692c-3.747-3.363-8.39-7.053-13.32-10.644
	c-3.395-2.497-6.806-4.995-10.08-7.183c-2.424-1.534-4.667-3.23-6.635-4.537c-4.097-2.66-7.321-4.848-9.263-6.252h-4.816
	c-4.309,5.566-7.867,9.811-10.78,13.206c-7.052,8.356-10.26,12.192-10.26,21.954c0,2.416,2.604,2.97,8.439,3.297
	c6.218,0.31,15.058,0.915,15.058,10.447c0,1.828-0.946,8.636-2.023,15.98c-0.817,6.529-1.854,13.973-1.854,15.508
	c0,26.573,55.81,45.981,74.229,46.39h1.74l-0.45,1.763c-2.938,9.287-11.914,26.23-21.66,40.072
	c-6.382,8.848-13.076,16.454-18.788,19.589c-0.718,0.325-1.273,0.653-1.91,0.962c-0.947,0.328-1.918,0.539-2.758,0.653
	c6.186,1.485,10.602,2.546,12.356,2.546c13.94,0,29.487-7.688,44.742-17.823l0.506-0.409l21.857-16.241l0.292,0.212l0.881,0.556
	c1.698,1.224,1.91,1.876,1.91,4.75c0,1.599-1.91,3.853-7.606,10.952c-16.372,20.273-54.894,67.53-63.333,133.735l-0.1,1.159h-5.101
	c-7.606,0-15.091-8.39-18.902-13.368c-5.401-7.085-9.36-15.279-9.36-19.36c0-2.691,1.869-5.663,3.656-8.929
	c1.926-3.085,3.811-6.413,3.811-9.254c0-5.306-4.628-14.43-11.695-22.805c-7.541-8.765-15.401-14.216-21-14.216
	c-1.437,0-10.83,2.04-18.363,3.705c-10.766,2.431-17.253,3.819-18.805,3.819c-3.983,0-21.081-5.339-22.721-10.137
	c-2.652-7.591-7.166-17.71-12.031-28.387c-10.83-23.733-24.386-53.212-24.386-73.503l5.011-51.662
	c-0.033-10.398-3.657-13.629-7.705-16.976c-4.064-3.722-8.358-7.542-8.358-19.294c0-11.377,3.38-29.398,9.909-48.153
	c0.22-0.556,0.351-1.062,0.554-1.634c0.449-1.207,0.939-2.285,1.403-3.541c9.362-24.909,24.306-50.177,44.049-62.777l3.223-2.107
	l-1.24,3.656c-1.982,5.403-3.909,10.529-5.599,15.165c-2.604,6.66-5.011,12.943-5.011,14.43c0,4.782,2.407,5.843,5.109,6.905
	c1.959,1.012,4.906,2.154,4.906,5.647c0,1.615-1.078,4.112-2.946,8.438c-1.306,3.185-2.791,7.118-3.763,10.627
	c-0.098,0.539-0.212,0.947-0.212,1.47c-0.089,0.262-0.089,0.554-0.35,0.832c0,0.146,0,0.228-0.091,0.408
	c-0.048,0.783-0.162,1.632-0.245,2.481l1.217,0.098c22.436,1.273,23.383,23.146,24.191,40.906c0.334,5.01,0.481,9.729,1.232,13.662
	l0.301,1.729c0.155-1.551,0.433-3.149,0.539-4.668c0.261-1.632,0.612-3.281,0.948-5.061c0.587-2.97,1.387-5.908,2.195-8.912
	c6.252-19.734,19.686-35.928,48.904-39.389v-2.839c-17.417-3.347-26.256-13.793-26.256-31.079c0-7.672,2.188-15.491,4.342-23.016
	c2.106-7.23,4.277-14.855,4.277-22.266c0-0.685,0-1.582,0.22-2.611c0.097-3.183,0.319-7.363-1.624-9.712
	c-1.47-1.371-3.625-2.057-6.603-2.057c-4.294,0-7.052,3.444-10.562,7.411c-3.892,4.701-8.243,9.924-16.078,10.202h-0.302
	l-4.61-1.974l-0.221-0.653c-0.064-0.605-0.179-1.095-0.351-1.535c-0.334-1.095-0.848-2.221-0.848-4.066
	c0-9.793,15.261-38.08,15.522-38.342c13.81-24.257,32.883-49.934,51.466-74.662c20.242-27.113,41.184-55.124,55.475-81.534
	l0.253-0.604h0.841c17.638-0.687,32.067-2.58,43.559-5.24c30.524-7.508,42.113-21.008,50.699-30.916
	c5.81-6.724,10.382-12.095,18.607-12.095c2.905,0,8.456,2.822,17.32,7.704c6.413,3.427,13.612,7.296,16.028,7.296
	c1.992,0,10.757-5.99,19.425-11.866c8.7-6.057,18.526-12.831,28.158-18.33l1.713,1.827c-3.967,6.104-7.23,9.925-9.482,12.748
	c-3.887,4.473-5.518,6.399-5.518,11.917c0,1.403,1.713,5.42,3.035,8.667c1.99,4.816,3.199,7.95,3.199,9.632
	c0,0.146-0.717,24.598-8.848,24.598c-1.599,0-5.974-0.979-13.189-2.563c-5.337-1.143-11.294-2.464-12.665-2.464
	c-10.61,0-61.017,14.332-63.09,15.164c-0.278,0.211-1.19,0.8-2.252,1.615c-5.943,4.228-11.998,8.358-14.741,8.358
	c-1.779,0-4.603-1.208-8.977-3.297c-2.874-1.306-6.612-3.052-7.869-3.052c-2.252,0-6.496,2.449-11.556,5.94
	c-15.23,10.399-38.58,31.308-41.323,34.458c-2.857,3.282-19.939,25.562-34.989,48.235c-0.449,0.751-0.864,1.354-1.281,2.074
	c-0.139,0.081-0.188,0.081-0.188,0.278c-1.052,1.501-2.104,3.083-3.036,4.57c1.486-1.535,2.841-2.743,3.722-3.478l1.354-0.522
	c1.053-0.441,3.591-1.599,7.143-3.199c14.469-6.301,45.076-19.604,68.598-27.684c11.328-3.983,21.023-6.513,26.491-6.513
	c2.874,0,12.227,0.783,12.227,11.164c0,1.306-4.93,12.619-8.194,16.601l-0.261,0.327c-0.131,0.392-0.197,0.669-0.197,1.109
	c0.458-0.261,0.98-0.587,1.633-0.784c0.407-0.162,0.913-0.326,1.404-0.522c0.292-0.098,0.439-0.13,0.717-0.276
	c17.106-6.498,32.907-10.188,42.914-10.188c2.66,0,5.826,0.981,9.81,3.086l0.751,0.311v5.729l-0.326,0.309
	c-2.351,2.335-8.178,8.603-8.178,11.46c0,2.972,1.273,4.309,4.798,4.309c2.334-0.097,17.907-11.394,25.709-19.605
	c-1.354-1.143-2.58-1.549-4.064-1.549s-3.33,0.358-6.154,1.012l-0.555,0.278l-0.521-0.344c-0.344-0.195-0.589-0.325-0.816-0.539
	c-1.551-0.767-2.547-1.501-2.547-4.356c0-7.33,20.387-26.705,29.186-34.638c11.477-10.349,30.23-25.84,34.768-25.84
	c6.955,0,6.955,5.028,6.955,7.655c0,5.615-5.796,13.156-10.807,19.735c-3.036,4.081-6.528,8.634-6.528,10.396
	c0,2.58,2.252,3.183,7.05,3.836c4.572,0.425,10.285,1.029,10.285,6.872c0,4.881-3.266,9.223-6.335,13.924
	c-1.468,2.106-3.068,4.311-4.373,6.693c-20.764,37.282-49.265,40.498-74.466,40.498c-12.636,0-13.647-1.437-14.496-12.487
	c-0.228-2.057-0.556-4.603-0.898-7.64c-7.297,0.85-19.146,9.191-26.263,14.315c-2.546,1.78-4.441,3.118-5.615,3.804
	c-3.299,1.893-8.261,2.611-13.256,3.313c-3.983,0.587-8.292,1.126-10.349,2.497c-0.882,0.539-2.235,1.927-3.77,3.886
	c-5.86,7.23-15.166,22.149-15.166,25.529c0,10.413,18.185,40.628,29.122,58.729c0.587,1.062,1.207,2.024,1.665,3.069
	c2.219,3.526,4.112,6.546,5.141,8.717c0.344,0.425,0.572,0.897,0.751,1.306c0.115,0.195,0.115,0.343,0.344,0.506l0.064,0.376
	l-0.064,0.408v0.261c2.219,2.139,4.521,4.374,6.822,6.692c10.854,9.876,23.082,21.187,23.082,33.739
	c0,1.438-1.714,8.162-3.119,14.137c-1.681,6.822-2.791,11.328-3.216,13.597c0.344,0.864,0.556,1.731,0.751,2.612
	c0.539,2.447,0.947,4.962,1.47,7.59c0.278,2.04,0.653,4.163,0.815,6.351l1.028,0.048l2.057,0.229
	c0.736-2.464,1.551-5.207,2.988-9.451l0.555-1.696l1.468,1.012c14.234,9.695,21.415,39.289,21.415,52.951
	C956.449,1179.251,951.537,1206.445,940.846,1220.744 M1093.091,1434.691c-1.745,1.029-3.493,2.122-4.897,2.955
	c-14.869,9.663-27.405,30.769-35.502,45.769l-0.457,0.687h-6.057l-0.342-0.832c-4.049-10.072-18.641-30.346-29.529-40.728
	c-4.896-4.781-11.279-8.96-18.135-13.254c-15.132-9.876-30.785-20.028-30.785-38.163c0-10.545,4.293-15.082,13.843-15.082
	c7.867,0,18.983,6.071,30.931,12.617c2.041,1.143,4.146,2.302,6.352,3.494c3.786,2.04,7.688,4.08,11.36,5.826
	c2.188,1.012,4.423,1.91,6.677,2.727c4.65,1.796,9.254,2.872,13.433,2.872c3.95,0,8.488-1.24,13.386-3.247
	c2.529-0.98,4.962-2.09,7.508-3.313c4.865-2.433,9.892-5.176,14.658-7.934c12.292-6.71,23.897-13.042,32.059-13.042
	c13.581,0,13.581,7.639,13.581,15.082C1131.173,1411.153,1108.255,1425.258,1093.091,1434.691 M1455.579,1138.819
	c-3.936,3.347-7.574,6.577-7.574,17.106l5.011,51.5c-0.13,20.322-13.564,49.801-24.402,73.534
	c-4.8,10.677-9.403,20.796-12.047,28.387c-1.535,4.798-18.738,10.137-22.688,10.137c-1.486,0-8.097-1.389-18.805-3.819
	c-7.607-1.665-17.042-3.705-18.282-3.705c-5.648,0-13.548,5.451-21.123,14.216c-6.952,8.375-11.67,17.499-11.67,22.805
	c0,2.841,1.941,6.169,3.754,9.254c1.976,3.266,3.672,6.237,3.672,8.929c0,7.803-15.277,32.729-28.123,32.729h-5.176l-0.228-1.159
	c-8.325-66.205-46.799-113.462-63.105-133.735c-5.909-7.1-7.77-9.354-7.77-10.952c0-2.874,0.326-3.526,2.058-4.75l0.848-0.556
	l0.179-0.212l20.683,15.377l1.174,0.864h0.1c15.604,10.35,31.127,18.232,45.313,18.232c1.86,0,6.235-1.061,12.242-2.546
	c-0.701-0.064-1.763-0.325-2.693-0.653c-0.539-0.309-1.159-0.506-1.877-0.962c-5.779-3.135-12.471-10.741-18.969-19.719
	c-9.695-13.891-18.641-30.818-21.545-39.942l-0.523-1.763h1.829c18.413-0.408,74.106-19.816,74.106-46.39
	c0-1.535-0.995-8.979-1.812-15.508c-1.095-7.345-1.942-14.152-1.942-15.98c0-9.532,8.65-10.138,15.163-10.447
	c5.682-0.327,8.489-0.881,8.489-3.297c0-9.762-3.249-13.598-10.529-21.954c-2.791-3.396-6.383-7.64-10.658-13.206h-4.848
	c-1.977,1.404-5.192,3.592-9.305,6.252c-1.6,1.24-3.591,2.465-5.745,3.983c-3.168,2.188-6.563,4.554-9.843,7.019
	c-4.62,3.199-8.897,6.546-12.586,9.729c-3.95,3.461-7.133,6.691-8.554,9.435c-0.75,1.159-0.947,2.122-0.947,3.103
	c0,0.309,0.066,0.733,0.066,1.207c0.131,1.094,0.653,2.481,1.093,3.738c0.506,1.665,0.964,3.297,1.159,4.929
	c0.05,0.196,0.05,0.604,0.05,0.816c0,3.934-1.959,6.708-5.86,8.651c-0.244,0.163-0.62,0.358-0.964,0.489
	c-3.443,1.355-7.851,2.009-13.335,2.221c-0.719,0.05-1.372,0.05-2.188,0.05c-1.959,0-4.375-0.262-6.854-0.506
	c-6.073-0.851-13.125-2.58-19.785-5.567c-3.215-1.404-6.366-3.232-9.141-5.338h-0.098c-0.425-0.212-0.75-0.669-1.143-0.931
	c-1.028-0.979-2.221-1.926-3.249-3.068l-1.714-1.927l1.78-0.212l-0.066-0.327l-1.093,0.197c-13.059,2.71-25.823,9.239-36.353,18.347
	c-0.179,0.539-0.439,1.191-0.815,1.73c-0.213,0.408-0.475,0.865-0.621,1.273c-0.131,0.425-0.342,0.734-0.406,1.062
	c-0.589,0.767-0.867,1.565-1.242,2.383c-3.592,7.36-7.116,14.902-11.639,21.807c-0.212,1.617-0.554,3.249-0.815,5.076
	c-2.138,10.84-4.261,22.07-8.569,34.132l-0.489,0.881h-5.845l-0.359-0.521c-10.642-14.299-15.637-41.493-15.637-55.417
	c0-13.662,7.149-43.256,21.285-52.951l1.42-1.012l0.62,1.696c1.485,4.244,2.399,6.987,3.149,9.451l2.156-0.229l0.751-0.048
	c0.325-2.987,0.849-5.763,1.273-8.587c0.473-1.648,0.718-3.297,0.979-4.946c0.278-1.174,0.489-2.316,0.833-3.492
	c-0.408-2.499-1.42-6.889-3.021-13.124c-1.437-5.975-2.972-12.699-2.972-14.137c0-12.65,12.178-23.863,22.788-33.739
	c2.416-2.22,4.7-4.343,6.823-6.546c0-0.146-0.099-0.245-0.099-0.407l-0.131-0.408l0.229-0.376c0.049-0.065,0.162-0.163,0.262-0.311
	c0.031-0.342,0.195-0.62,0.522-1.076c0.946-1.846,2.514-4.456,4.537-7.655c0.687-1.486,1.632-2.938,2.644-4.556
	c10.774-18.102,29.007-48.316,29.007-58.729c0-3.38-9.174-18.299-15.131-25.563c-1.648-1.926-2.954-3.313-3.853-3.853
	c-2.123-1.371-6.268-1.91-10.432-2.497c-4.781-0.703-9.68-1.42-13.009-3.313c-1.321-0.686-3.134-2.024-5.632-3.804
	c-7.23-5.124-18.902-13.466-26.344-14.315c-0.376,3.037-0.572,5.583-0.784,7.64c-0.995,11.05-1.878,12.487-14.61,12.487
	c-25.203,0-53.687-3.216-74.367-40.498c-1.404-2.382-2.955-4.586-4.521-6.693c-3.298-4.701-6.251-9.043-6.251-13.924
	c0-5.843,5.696-6.447,10.218-6.872c4.799-0.653,7.197-1.256,7.197-3.836c0-1.762-3.541-6.316-6.61-10.396
	c-5.108-6.579-10.805-14.12-10.805-19.735c0-2.627,0-7.655,6.952-7.655c8.423,0,63.855,49.345,63.855,60.478
	c0,2.855-0.995,3.59-2.415,4.356c-0.229,0.214-0.57,0.344-0.864,0.539l-0.572,0.344l-0.588-0.278
	c-2.84-0.653-4.569-1.012-6.006-1.012c-1.535,0-2.841,0.406-4.146,1.549c7.964,8.211,23.438,19.508,25.757,19.605
	c3.494,0,4.897-1.337,4.897-4.309c0-2.857-6.04-9.125-8.325-11.46l-0.358-0.309v-5.729l0.734-0.311
	c4.194-2.105,7.1-3.086,9.907-3.086c10.023,0,25.921,3.689,43.094,10.333l0.228,0.033c0.687,0.245,1.273,0.458,1.993,0.767
	c0.537,0.197,1.157,0.425,1.695,0.637c-0.228-0.375-0.292-0.637-0.423-1.109l-0.229-0.327c-3.23-3.981-8.242-15.295-8.309-16.502
	c0-10.479,9.42-11.263,12.406-11.263c5.436,0,15.065,2.529,26.296,6.398c23.505,8.064,54.161,21.497,68.672,27.798
	c3.738,1.601,6.202,2.758,7.23,3.199l1.209,0.392c0.783,0.701,1.909,1.829,3.411,3.216c-0.963-1.387-1.877-2.857-2.855-4.245
	c0-0.13,0-0.211-0.181-0.211c-0.375-0.75-0.784-1.42-1.354-2.074c-14.951-22.673-31.93-44.953-34.768-48.235
	c-2.874-3.15-26.216-24.059-41.364-34.458c-5.24-3.492-9.418-5.94-11.753-5.94c-1.288,0-4.766,1.746-7.67,3.052
	c-4.473,2.088-7.313,3.297-9.076,3.297c-2.727,0-8.767-4.13-14.757-8.358c-1.012-0.815-1.796-1.404-2.383-1.696
	c-1.828-0.751-52.333-15.083-62.812-15.083c-1.305,0-7.428,1.321-12.635,2.464c-7.328,1.584-11.769,2.563-13.32,2.563
	c-8.095,0-8.879-24.451-8.879-24.598c0-1.682,1.273-4.815,3.297-9.632c1.273-3.247,2.988-7.264,2.988-8.667
	c0-5.518-1.617-7.444-5.501-11.917c-2.285-2.822-5.582-6.644-9.534-12.748l1.829-1.827c9.534,5.499,19.441,12.273,28.142,18.33
	c8.553,5.876,17.287,11.866,19.163,11.866c2.514,0,9.745-3.869,16.242-7.296c8.798-4.881,14.396-7.704,17.302-7.704
	c8.357,0,12.847,5.371,18.707,12.095c8.455,9.908,20.094,23.408,50.649,30.916c11.493,2.661,25.792,4.554,43.599,5.24h0.768
	l0.311,0.604c14.233,26.41,35.095,54.421,55.483,81.534c18.444,24.729,37.641,50.405,51.367,74.613
	c0.116,0.311,15.524,28.517,15.524,38.391c0,1.845-0.523,2.971-0.817,4.066c-0.098,0.44-0.244,0.929-0.375,1.535l-0.245,0.653
	l-4.488,1.974h-0.44c-7.819-0.278-12.372-5.501-16.161-10.202c-3.329-3.966-6.201-7.411-10.43-7.411
	c-2.987,0-5.158,0.686-6.465,2.057c-2.269,2.35-1.924,6.529-1.615,9.712c0.098,1.029,0.098,1.926,0.098,2.611
	c0,7.411,2.14,15.035,4.277,22.266c2.138,7.524,4.325,15.344,4.325,23.016c0,17.286-8.798,27.732-26.346,31.079l0.181,2.839
	c28.859,3.461,42.44,19.344,48.528,38.866c1.109,3.282,1.959,6.677,2.693,10.17c0.195,1.696,0.556,3.33,0.816,5.026
	c0.195,1.307,0.359,2.71,0.538,4.098l0.441-1.86c0.684-3.934,0.881-8.652,1.207-13.662c0.816-17.662,1.764-39.633,24.207-40.906
	h1.094c-0.131-0.947-0.195-1.731-0.393-2.579c0-0.181,0-0.181-0.145-0.262c0-0.342,0-0.425-0.083-0.831
	c-0.131-0.458-0.326-0.98-0.326-1.519c-0.947-3.56-2.646-7.362-3.869-10.726c-1.714-4.325-2.823-6.822-2.823-8.438
	c0-3.493,2.676-4.636,4.863-5.647c2.775-1.063,5.109-2.123,5.109-6.905c0-1.486-2.334-7.77-4.912-14.43
	c-1.828-4.636-3.788-9.762-5.648-15.165l-1.322-3.656l3.216,2.107c19.719,12.52,34.671,37.704,44.007,62.565
	c0.392,0.962,0.735,1.927,1.144,2.905c0.162,0.783,0.456,1.584,0.782,2.432c6.66,18.805,10.121,36.826,10.121,48.203
	C1464.197,1131.277,1459.888,1135.098,1455.579,1138.819 M1538.37,1262.939c-11.558,0-37.92-48.904-39.208-52.984
	c-4.261-13.614-10.35-41.754-10.35-59.058l4.31-66.288l0.228-2.954l0.098-2.04l0.262-4.229c0-63.203-59.578-120.938-112.254-171.736
	c-38.212-37.02-71.365-68.948-71.365-94.771c0-13.858,18.969-20.208,31.717-20.208c2.529,0,4.961,0.164,7.346,0.522
	c1.827,0.213,3.786,0.522,5.615,0.898c2.269,0.588,4.604,1.111,6.691,1.812c20.355,6.889,36.988,23.081,50.993,36.728
	c12.7,12.275,23.506,22.9,32.892,22.9c8.863,0,21.627-17.399,25.188-24.287l0.325-0.687h0.784
	c15.311-1.567,29.643-11.377,42.341-29.512c11.477-16.111,19.394-35.536,23.931-49.003l2.644,0.36l1.715,19.8v0.309
	c-1.682,4.13-3.247,8.489-4.62,13.059c-7.605,21.057-15.997,44.986-27.944,61.31c-5.19,6.938-12.896,10.284-20.339,13.581
	c-4.734,1.91-9.076,3.803-12.307,6.479c-4.864,3.689-8.392,8.57-11.883,13.354c-2.81,3.705-5.518,7.345-8.587,10.202l-2.384,2.219
	l0.146-3.33c0.475-6.889-3.672-14.87-11.475-23.309c-13.564-14.218-36.467-26.803-49.001-26.803
	c-8.505,0-12.896,3.982-12.896,11.932c0,35.666,75.673,112.222,101.904,126.015c51.369,27.13,55.646,64.64,55.646,97.743v114.44
	l7.477,62.175C1546.009,1247.906,1544.277,1262.939,1538.37,1262.939"/>
<path fill="#F1A21E" d="M779.287,954.238c0.22,0.146,0.433,0.228,0.669,0.342c-0.767-0.604-1.518-1.062-2.571-1.47
	C778.014,953.519,778.65,953.894,779.287,954.238"/>
<polygon fill="#F1A21E" points="526.238,379.729 553.938,379.729 553.938,136.595 614.008,136.595 614.008,110.282 466.08,110.282 
	466.08,136.595 526.238,136.595 "/>
<rect x="649.177" y="110.299" fill="#F1A21E" width="27.144" height="269.43"/>
<path fill="#F1A21E" d="M762.54,335.542c29.17,33.903,68.884,50.929,118.988,50.929c41.265,0,74.188-12.258,98.819-36.744
	c24.681-24.403,37.12-57.523,37.348-99.097H900.871v26.263h86.381c-3.623,24.878-15,45.036-34.311,60.608
	c-19.261,15.605-42.946,23.505-70.777,23.505c-22.966,0-44.023-5.256-63.497-15.686c-19.155-10.448-34.296-24.861-45.182-43.144
	c-10.946-18.313-16.479-37.429-16.479-57.815c0-19.719,5.435-38.588,15.964-56.283c10.577-17.84,25.585-31.944,44.726-42.243
	c19.17-10.479,39.444-15.605,60.795-15.605c17.106,0,34.669,3.819,52.69,11.41c17.956,7.656,34.604,18.821,49.737,33.577
	l20.976-19.833c-19.229-18.085-39.127-31.275-59.319-39.453c-20.37-8.292-42.048-12.422-64.965-12.422
	c-28.386,0-53.793,6.251-76.311,18.626c-22.543,12.42-40.245,29.626-53.223,51.597c-12.764,21.954-19.236,45.623-19.236,71.169
	C728.841,279.277,740.087,309.457,762.54,335.542"/>
<path fill="#F1A21E" d="M1229.438,220.562c7.052-11.181,10.544-24.011,10.544-38.636c0-17.646-4.995-32.386-15.131-44.464
	c-10.137-11.982-23.162-19.866-39.29-23.555c-10.758-2.334-30.883-3.625-61.099-3.625h-53.946v269.446h26.981V254.466h15.654
	l97.352,125.263h33.298l-97.448-125.263c22.771-0.229,40.447-3.069,53.328-8.814
	C1212.658,240.036,1222.582,231.597,1229.438,220.562 M1184.369,223.369c-8.635,3.396-22.052,5.109-40.039,5.109l-46.832-0.326
	v-91.541h48.007c18.478,0,31.667,1.584,39.828,4.784c8.015,3.116,14.349,8.389,19.392,15.783c4.931,7.363,7.363,15.622,7.363,24.633
	c0,9.205-2.433,17.71-7.347,25.138C1200.121,214.604,1193.103,219.975,1184.369,223.369"/>
<polygon fill="#F1A21E" points="1455.252,136.595 1455.252,110.299 1300.428,110.299 1300.428,379.729 1454.061,379.729 
	1454.061,353.546 1327.475,353.546 1327.475,247.333 1454.061,247.333 1454.061,220.986 1327.475,220.986 1327.475,136.595 "/>
<path fill="#F1A21E" d="M1579.227,353.954c-8.015,4.147-16.553,6.204-25.579,6.204c-21.269,0-39.991-14.838-56.217-44.595
	l-22.918,13.727c11.362,20.52,23.636,35.291,37.022,44.089c13.367,8.7,28.303,13.092,44.756,13.092
	c21.318,0,39.47-7.166,54.308-21.694c15.034-14.299,22.396-31.292,22.396-50.863c0-13.532-4.392-27.047-12.976-40.465
	c-8.767-13.498-25.04-28.745-48.448-46.015c-19.719-14.544-31.504-23.423-35.127-26.917c-6.432-6.447-10.985-12.454-13.418-17.89
	c-2.481-5.501-3.754-11.247-3.754-17.057c0-9.665,3.655-17.729,10.545-24.403c6.97-6.529,15.898-9.745,26.934-9.745
	c8.422,0,16.322,2.007,23.505,6.333c7.264,4.311,16.028,13.222,26.165,26.526l22.151-16.65
	c-12.472-16.812-24.142-28.37-35.341-34.638c-11.148-6.301-23.063-9.467-35.927-9.467c-12.112,0-23.194,2.824-33.527,8.358
	c-10.17,5.518-18.315,13.173-23.8,22.819c-5.679,9.582-8.455,20.274-8.455,31.961c0,14.838,4.8,28.5,14.268,41.231
	c5.615,7.525,19.669,19.769,42.227,36.809c22.51,16.748,37.984,31.244,46.505,43.289c6.073,8.586,9.075,17.401,9.075,26.46
	c0,7.885-2.072,15.427-6.153,22.526C1593.23,344.078,1587.24,349.71,1579.227,353.954"/>
<path fill="#F1A21E" d="M1318.759,1278.528l1.403-0.195l-0.261-0.196C1319.41,1278.219,1319.052,1278.333,1318.759,1278.528"/>
<path fill="#F1A21E" d="M779.507,1278.219l-0.317,0.131l1.085,0.195C779.957,1278.35,779.72,1278.219,779.507,1278.219"/>
<path fill="#F1A21E" d="M797.014,1787.549c0,13.727-0.921,23.08-2.872,27.961c-1.82,4.864-5.37,8.831-10.251,11.997
	c-5.028,3.151-10.927,4.783-17.816,4.783c-6.668,0-12.121-1.387-16.78-4.294c-4.432-2.839-7.753-6.561-9.746-11.36
	c-2.007-4.733-2.905-12.798-2.905-24.256v-132.674h-39.283v122.374c0,24.435,2.27,41.836,7.208,51.973
	c4.595,10.43,12.553,19,23.48,25.823c11.1,6.758,24.069,10.202,38.882,10.202c11.5,0,21.229-1.796,29.913-5.435
	c8.431-3.511,15.947-9.045,22.672-16.52c6.465-7.347,10.913-15.002,13.287-23.065c2.237-8.048,3.494-22.378,3.494-42.979v-122.374
	h-39.282V1787.549z"/>
<path fill="#F1A21E" d="M944.11,1659.689l-79.069,205.263h40.547l16.731-42.31h83.72l16.178,42.31h40.529l-78.775-205.263H944.11z
	 M936.732,1784.561l27.536-70.466l27.374,70.466H936.732z"/>
<polygon fill="#F1A21E" points="1218.339,1794.698 1130.553,1659.689 1093.041,1659.689 1093.041,1864.936 1132.218,1864.936 
	1132.218,1730.222 1219.873,1864.936 1257.416,1864.936 1257.416,1659.689 1218.339,1659.689 "/>
<polygon fill="#F1A21E" points="1343.308,1659.689 1304.23,1659.689 1304.23,1864.952 1400.26,1864.952 1400.26,1827.604 
	1343.308,1827.604 "/>
<path fill="#00369C" d="M1204.758,206.933c4.897-7.395,7.313-15.916,7.313-25.138c0-9.011-2.415-17.253-7.346-24.616
	c-5.06-7.41-11.394-12.65-19.408-15.8c-8.111-3.167-21.334-4.784-39.795-4.784h-48.023v91.574l46.832,0.293
	c17.987,0,31.404-1.68,40.056-5.093C1193.103,219.975,1200.121,214.588,1204.758,206.933"/>
<polygon fill="#00369C" points="936.732,1784.561 991.643,1784.561 964.269,1714.095 "/>
<path fill="#00369C" d="M448.312,68.186v353.64h424.434v320.471c12.29-4.128,23.047-10.38,34.897-17.106
	c28.73-16.551,64.608-37.2,141.849-37.2h0.489c77.045,0,112.908,20.649,141.718,37.2c11.639,6.727,22.493,12.929,34.702,17.009
	V421.826h424.402V68.186H448.312z M614.008,136.612h-60.069v243.133h-27.7V136.612H466.08v-26.33h147.928V136.612z M676.321,379.745
	h-27.144V110.299h27.144V379.745z M980.347,349.727c-24.648,24.486-57.555,36.744-98.853,36.744
	c-50.079,0-89.793-17.025-118.955-50.929c-22.436-26.085-33.682-56.265-33.682-90.642c0-25.529,6.446-49.215,19.236-71.169
	c12.953-21.971,30.671-39.177,53.206-51.614c22.51-12.358,47.925-18.609,76.311-18.609c22.917,0,44.595,4.13,64.949,12.406
	c20.224,8.194,40.138,21.4,59.351,39.469l-20.991,19.833c-15.147-14.755-31.781-25.938-49.737-33.577
	c-18.021-7.591-35.583-11.41-52.69-11.41c-21.368,0-41.625,5.143-60.795,15.605c-19.14,10.299-34.132,24.403-44.733,42.243
	c-10.546,17.679-15.941,36.564-15.941,56.283c0,20.387,5.518,39.502,16.463,57.832c10.878,18.266,26.026,32.664,45.198,43.11
	c19.473,10.43,40.514,15.703,63.48,15.703c27.831,0,51.516-7.869,70.76-23.505c19.328-15.556,30.688-35.73,34.328-60.608h-86.381
	v-26.263h116.823C1017.467,292.204,1005.027,325.323,980.347,349.727 M1210.504,379.745l-97.352-125.279h-15.654v125.279h-26.981
	V110.282h53.946c30.216,0,50.341,1.29,61.099,3.608c16.128,3.705,29.153,11.589,39.29,23.571
	c10.136,12.078,15.131,26.818,15.131,44.447c0,14.642-3.492,27.472-10.544,38.652c-6.856,11.035-16.78,19.475-29.773,25.073
	c-12.831,5.745-30.524,8.586-53.312,8.831l97.448,125.279H1210.504z M1455.268,136.612h-127.793v84.375h126.586v26.363h-126.586
	v106.18h126.586v26.215h-153.617V110.282h154.824V136.612z M1610.615,364.776c-14.854,14.512-33.006,21.694-54.324,21.694
	c-16.453,0-31.389-4.392-44.756-13.075c-13.354-8.831-25.66-23.586-37.022-44.105l22.918-13.712
	c16.226,29.726,34.933,44.611,56.2,44.611c9.043,0,17.581-2.072,25.596-6.202c8.014-4.261,13.988-9.893,18.216-17.009
	c4.081-7.1,6.153-14.626,6.153-22.543c0-9.076-2.971-17.874-9.092-26.443c-8.504-12.045-23.979-26.541-46.472-43.289
	c-22.591-17.041-36.628-29.284-42.243-36.826c-9.468-12.698-14.268-26.394-14.268-41.215c0-11.703,2.776-22.363,8.455-31.961
	c5.469-9.646,13.615-17.302,23.8-22.836c10.333-5.534,21.433-8.358,33.527-8.358c12.863,0,24.778,3.2,35.911,9.5
	c11.215,6.252,22.885,17.826,35.34,34.638l-22.117,16.633c-10.121-13.287-18.902-22.215-26.183-26.509
	c-7.199-4.359-15.066-6.366-23.505-6.366c-11.035,0-19.964,3.232-26.934,9.745c-6.873,6.691-10.563,14.755-10.563,24.403
	c0,5.859,1.29,11.572,3.771,17.09c2.416,5.435,6.986,11.41,13.418,17.874c3.623,3.494,15.408,12.356,35.145,26.901
	c23.422,17.285,39.647,32.548,48.462,46.014c8.553,13.417,12.944,26.949,12.944,40.481
	C1632.994,333.468,1625.633,350.494,1610.615,364.776"/>
<path fill="#00369C" d="M1580.091,598.671l-1.599,569.807c0,0,14.561,452.279-527.482,455.757h-2.986
	c-542.116-3.478-527.58-455.757-527.58-455.757l-1.518-569.807c0-19.588-15.76-35.421-35.185-35.421h-35.42v1343.914h1202.498
	V563.25h-35.47C1595.892,563.25,1580.091,579.083,1580.091,598.671 M836.279,1782.08c0,20.601-1.24,34.914-3.502,42.979
	c-2.357,8.063-6.781,15.719-13.271,23.065c-6.7,7.475-14.241,13.009-22.664,16.52c-8.692,3.639-18.421,5.451-29.92,5.451
	c-14.805,0-27.783-3.461-38.882-10.235c-10.928-6.807-18.886-15.377-23.48-25.807c-4.929-10.153-7.208-27.553-7.208-51.973v-122.374
	h39.282v132.674c0,11.443,0.923,19.522,2.914,24.256c1.984,4.8,5.329,8.521,9.746,11.36c4.659,2.891,10.129,4.262,16.78,4.262
	c6.889,0,12.781-1.584,17.833-4.768c4.881-3.133,8.422-7.116,10.227-11.98c1.959-4.897,2.88-14.234,2.88-27.961v-127.843h39.266
	V1782.08z M1022.2,1864.936l-16.161-42.276h-83.72l-16.731,42.276h-40.547l79.069-205.229h39.861l78.76,205.229H1022.2z
	 M1257.416,1864.936h-37.543l-87.655-134.73v134.73h-39.177v-205.229h37.512l87.786,134.992v-134.992h39.077V1864.936z
	 M1400.276,1864.936h-96.046v-205.229h39.077v167.915h56.969V1864.936z"/>
<path fill="#00369C" d="M1455.579,1138.836c4.309-3.755,8.634-7.541,8.634-19.279c0-11.408-3.46-29.413-10.137-48.234
	c-0.326-0.848-0.587-1.664-0.782-2.448c-0.425-0.946-0.752-1.927-1.144-2.889c-9.353-24.861-24.288-50.063-43.974-62.583
	l-3.249-2.105l1.322,3.672c1.894,5.387,3.82,10.529,5.648,15.148c2.578,6.691,4.912,12.96,4.912,14.463
	c0,4.766-2.334,5.811-5.109,6.889c-2.154,0.995-4.863,2.17-4.863,5.662c0,1.584,1.109,4.081,2.807,8.439
	c1.24,3.347,2.938,7.149,3.869,10.709c0,0.521,0.212,1.076,0.343,1.519c0.065,0.392,0.065,0.489,0.065,0.831
	c0.162,0.098,0.162,0.098,0.162,0.245c0.181,0.85,0.262,1.665,0.393,2.596c1.208,8.603,2.09,17.693,2.579,26.477
	c0.327,4.081,0.572,8.209,1.078,12.145l1.076,38.978c0,1.192-0.456,122.507-41.591,122.507h-26.916
	c-8.358,0-14.807,13.221-20.976,25.952c-3.297,6.891-6.465,13.32-9.762,17.646l-68.018-50.421l-1.159-0.865l-20.697-15.36
	l-0.164,0.195l-0.864,0.539c-1.715,1.272-2.041,1.942-2.041,4.816c0,1.549,1.86,3.836,7.77,10.936
	c16.323,20.29,54.764,67.514,63.105,133.719l0.228,1.159h5.176c12.829,0,28.108-24.926,28.108-32.729
	c0-2.677-1.682-5.696-3.641-8.912c-1.796-3.116-3.786-6.415-3.786-9.271c0-5.306,4.733-14.43,11.686-22.788
	c7.575-8.765,15.475-14.249,21.123-14.249c1.24,0,10.691,2.04,18.299,3.722c10.691,2.447,17.302,3.834,18.788,3.834
	c3.95,0,21.138-5.368,22.688-10.151c2.644-7.591,7.264-17.71,12.047-28.37c10.838-23.75,24.256-53.262,24.402-73.551l-5.011-51.517
	C1448.005,1145.413,1451.644,1142.166,1455.579,1138.836"/>
<path fill="#00369C" d="M560.624,1262.939c11.695,0,38.105-48.904,39.297-52.984c4.194-13.614,10.496-41.754,10.496-59.155
	l-4.464-66.19l-0.22-3.085l-0.05-2.089l-0.277-4.049c0-63.203,59.636-120.938,112.255-171.736
	c38.18-37.02,71.217-68.948,71.217-94.771c0-13.858-18.805-20.208-31.585-20.208c-2.456,0-4.749,0.164-7.002,0.425
	c-1.876,0.212-3.778,0.539-5.656,0.964c-2.203,0.457-4.439,1.06-6.569,1.746c-20.608,6.725-37.273,23.064-51.491,36.826
	c-12.455,12.275-23.333,22.9-32.981,22.9c-8.659,0-21.449-17.399-25.007-24.287l-0.35-0.687h-0.736
	c-15.392-1.567-29.585-11.377-42.391-29.512c-11.45-16.111-19.335-35.536-23.864-49.003l-2.677,0.36l-1.689,19.456l-0.114,0.344
	l0.228,0.309c1.493,4.13,2.996,8.489,4.684,13.059c7.354,21.057,15.811,44.986,27.833,61.31
	c5.092,6.938,12.854,10.284,20.256,13.581c4.645,1.91,9.026,3.803,12.316,6.479c4.701,3.689,8.414,8.57,11.875,13.354
	c2.791,3.705,5.378,7.345,8.586,10.202l2.391,2.219l-0.205-3.33c-0.383-6.889,3.6-14.87,11.622-23.309
	c13.492-14.218,36.271-26.803,48.856-26.803c8.456,0,12.984,3.982,12.984,11.932c0,35.666-75.748,112.222-101.938,126.015
	c-51.335,27.13-55.661,64.64-55.661,97.743l0.033,114.344l-7.542,62.419C553.082,1247.906,554.722,1262.939,560.624,1262.939"/>
<path fill="#00369C" d="M767.609,1367.162c0,4.065,3.958,12.259,9.36,19.344c3.828,4.995,11.296,13.385,18.902,13.385h5.101
	l0.083-1.143c8.456-66.207,46.978-113.463,63.35-133.735c5.68-7.116,7.606-9.387,7.606-10.969c0-2.857-0.245-3.526-1.926-4.767
	l-0.865-0.539l-0.292-0.229l-21.857,16.258l-0.506,0.409l-67.585,50.029c-3.216-4.358-6.359-10.788-9.681-17.679
	c-6.015-12.731-12.601-25.952-20.876-25.952h-26.966c-41.134,0-41.616-121.331-41.616-122.474l1.118-38.913
	c0.448-4.017,0.67-8.161,1.102-12.226c0.555-8.783,1.322-17.891,2.66-26.574c0.066-0.866,0.197-1.73,0.253-2.515
	c0.066-0.147,0.066-0.229,0.066-0.392c0.286-0.293,0.286-0.555,0.383-0.832c0-0.506,0.081-0.947,0.195-1.486
	c0.956-3.509,2.465-7.426,3.747-10.61c1.893-4.309,2.963-6.839,2.963-8.423c0-3.492-2.963-4.667-4.897-5.646
	c-2.71-1.094-5.117-2.123-5.117-6.904c0-1.486,2.407-7.771,5.028-14.463c1.673-4.619,3.583-9.762,5.582-15.148l1.225-3.672
	l-3.224,2.105c-19.744,12.602-34.688,37.886-44.033,62.795c-0.464,1.24-0.954,2.351-1.418,3.541c-0.18,0.556-0.319,1.095-0.531,1.65
	c-6.538,18.755-9.917,36.76-9.917,48.153c0,11.753,4.319,15.539,8.358,19.277c4.047,3.347,7.655,6.577,7.705,16.976l-5.011,51.646
	c0,20.29,13.557,49.785,24.386,73.535c4.865,10.66,9.378,20.779,12.039,28.37c1.632,4.783,18.713,10.137,22.713,10.137
	c1.551,0,8.039-1.389,18.805-3.819c7.533-1.682,16.91-3.722,18.372-3.722c5.598,0,13.451,5.468,20.992,14.249
	c7.05,8.358,11.695,17.498,11.695,22.788c0,2.841-1.885,6.154-3.811,9.271C769.478,1361.482,767.609,1364.471,767.609,1367.162"/>
<path fill="#00369C" d="M1457.211,632.688c-51.533,0-92.684,24.175-122.505,41.723c-15.296,9.01-27.357,16.111-34.882,16.111
	c-1.502,0-6.824-1.257-11.836-2.401c-5.615-1.24-11.23-2.561-13.204-2.561h-10.446l0.162,1.501
	c2.09,33.641,18.707,36.384,37.119,36.384c15.653,0,33.151-15.377,51.775-31.633c22.102-19.393,47.452-41.364,73.993-41.364
	c2.368,0,8.309,5.926,13.06,10.709c7.558,7.426,12.193,11.997,15.686,11.997h35.683c14.315,0,25.154,19.832,33.299,34.327
	c3.705,6.725,6.791,12.454,9.762,15.408l2.252,2.466v-14.136c0.262-12.161-15.475-61.309-17.874-65.048
	C1512.905,636.117,1468.522,632.688,1457.211,632.688"/>
<path fill="#00369C" d="M1456.591,886.48c3.069-2.857,5.777-6.48,8.587-10.185c3.491-4.767,7.019-9.648,11.883-13.337
	c3.247-2.677,7.557-4.586,12.29-6.513c7.46-3.264,15.165-6.61,20.355-13.548c11.916-16.356,20.339-40.269,27.944-61.309
	c1.373-4.587,2.938-8.945,4.62-13.076v-0.309l-1.715-19.783l-2.644-0.36c-4.537,13.45-12.454,32.892-23.931,48.986
	c-12.715,18.135-27.03,27.944-42.341,29.495h-0.784l-0.325,0.687c-3.561,6.888-16.324,24.289-25.188,24.289
	c-9.386,0-20.175-10.61-32.892-22.902c-14.005-13.615-30.654-29.823-50.993-36.695c-2.088-0.701-4.423-1.224-6.691-1.829
	c-1.829-0.375-3.788-0.685-5.615-0.881c-2.416-0.392-4.816-0.539-7.379-0.539c-12.715,0-31.698,6.351-31.698,20.208
	c0,25.823,33.2,57.768,71.38,94.771c52.676,50.798,112.254,108.55,112.254,171.736l-0.245,4.244l-0.114,2.041l-0.228,2.954
	l-4.31,66.271c0,17.304,6.105,45.429,10.35,59.058c1.305,4.098,27.667,52.984,39.208,52.984c5.924,0,7.639-15.05,7.639-15.344
	l-7.477-62.174v-114.475c0-33.087-4.276-70.597-55.646-97.71c-26.231-13.81-101.873-90.365-101.873-126.031
	c0-7.934,4.359-11.915,12.864-11.915c12.551,0,35.437,12.568,49.001,26.77c7.803,8.456,11.949,16.437,11.475,23.358l-0.146,3.313
	L1456.591,886.48z"/>
<path fill="#00369C" d="M811.117,688.22c-4.929,1.045-10.398,2.318-11.719,2.318c-7.705,0-19.669-7.118-35.08-16.128
	c-29.871-17.548-70.841-41.706-122.505-41.706c-11.336,0-55.661,3.413-62.043,13.451c-2.343,3.755-17.988,52.887-17.907,65.064
	v14.152l2.408-2.482c3.061-2.954,6.088-8.667,9.696-15.441c8.105-14.462,18.885-34.277,33.364-34.277h35.667
	c3.347,0,8.097-4.588,15.564-12.014c4.831-4.767,10.813-10.709,13.05-10.709c26.647,0,51.72,21.971,74.116,41.364
	c18.502,16.256,36.139,31.617,51.785,31.617c18.232,0,34.914-2.741,37.191-36.351l0.099-1.518h-10.562
	C822.331,685.56,816.904,686.88,811.117,688.22"/>
<path fill="#00369C" d="M1175.734,754.246c-5.876-6.724-10.349-12.095-18.689-12.095c-2.905,0-8.504,2.808-17.318,7.687
	c-6.48,3.444-13.712,7.33-16.226,7.33c-1.861,0-10.594-5.99-19.163-11.883c-8.717-6.04-18.593-12.846-28.158-18.363l-1.813,1.876
	c3.936,6.088,7.249,9.893,9.534,12.716c3.884,4.504,5.501,6.414,5.501,11.932c0,1.387-1.715,5.403-2.988,8.667
	c-2.007,4.832-3.297,7.934-3.297,9.665c0,0.13,0.784,24.582,8.912,24.582c1.502,0,5.943-1.012,13.271-2.61
	c5.24-1.111,11.329-2.416,12.651-2.416c10.479,0,60.983,14.315,62.812,15.05c0.571,0.309,1.371,0.914,2.383,1.729
	c5.99,4.228,12.03,8.375,14.772,8.375c1.747,0,4.588-1.242,9.044-3.313c2.905-1.339,6.398-3.069,7.687-3.069
	c2.335,0,6.513,2.432,11.753,5.908c15.148,10.415,38.474,31.325,41.347,34.507c2.873,3.266,19.834,25.545,34.785,48.203
	c0.57,0.686,0.979,1.339,1.338,2.09c0.197,0,0.197,0.081,0.197,0.195c0.979,1.388,1.893,2.874,2.839,4.245
	c10.709,16.748,19.407,32.662,19.407,40.089c0,4.048-1.974,6.04-4.356,7.591c-0.637,0.456-1.453,0.897-2.057,1.321
	c-0.605,0.213-0.947,0.475-1.389,0.767c-2.464,1.404-4.651,3.168-4.651,6.595c0,2.188,1.943,5.174,4.897,9.516
	c5.582,7.934,13.776,20.159,13.776,34.557c0,18.461-15.115,42.049-32.223,42.049c-1.403,0-10.349-0.98-18.135-1.942
	c-8.667-0.948-16.861-1.894-18.331-1.894c-46.684,0-77.013,10.61-88.683,61.31c-0.344,1.159-0.539,2.335-0.833,3.492
	c-0.261,1.682-0.506,3.282-0.979,4.964c-0.425,2.791-0.948,5.582-1.273,8.584l-0.751,0.033l-2.156,0.213
	c-0.75-2.432-1.664-5.175-3.166-9.419l-0.62-1.746l-1.42,1.062c-14.103,9.695-21.302,39.272-21.302,52.951
	c0,13.924,5.028,41.117,15.67,55.385l0.327,0.537h5.86l0.506-0.864c4.325-12.078,6.446-23.342,8.553-34.148
	c0.295-1.844,0.637-3.459,0.817-5.093c4.537-6.888,8.062-14.412,11.67-21.807c0.342-0.801,0.604-1.584,1.226-2.352
	c0.064-0.358,0.275-0.651,0.406-1.093c0.18-0.375,0.408-0.864,0.605-1.29c0.392-0.489,0.637-1.143,0.831-1.697
	c6.791-13.875,13.468-26.705,23.719-34.783c4.749-3.691,12.993-5.421,21.154-6.874c7.443-1.484,15.311-2.953,20.762-6.283
	c12.08-7.198,22.135-22.69,31.08-36.483c1.192-1.795,2.351-3.705,3.657-5.5c6.397,0.833,13.221,1.942,19.211,2.971l1.877,0.311
	v2.986c-1.68,0.393-2.938,1.159-3.688,2.123c-2.235,2.645-4.374,5.369-6.464,8.145c-19.474,24.648-41.623,52.398-72.898,55.059
	l-0.914,0.13l-1.796,0.179l1.729,1.977c1.045,1.109,2.237,2.073,3.266,3.019c0.49,0.278,0.913,0.637,1.24,0.947
	c2.774,2.105,5.926,3.917,9.141,5.321c6.644,2.987,13.712,4.733,19.785,5.551c2.479,0.277,4.879,0.539,6.854,0.539
	c0.815,0,1.469,0,2.188-0.05c5.501-0.212,9.892-0.849,13.335-2.204c0.344-0.147,0.703-0.359,0.964-0.506
	c3.884-1.958,5.86-4.734,5.86-8.651c0-0.212,0-0.604-0.05-0.848c-0.229-1.584-0.668-3.216-1.159-4.914
	c-0.473-1.24-0.945-2.628-1.093-3.722c0-0.49-0.066-0.865-0.066-1.224c0-0.948,0.214-1.943,0.947-3.069
	c1.421-2.727,4.604-6.007,8.554-9.467c3.688-3.152,7.966-6.497,12.586-9.729c3.28-2.433,6.691-4.848,9.843-7.035
	c2.154-1.485,4.146-2.727,5.713-3.95c4.145-2.627,7.36-4.848,9.32-6.252h4.864c4.26,5.566,7.867,9.811,10.658,13.206
	c7.28,8.356,10.513,12.192,10.513,21.954c0,2.399-2.774,2.955-8.487,3.297c-6.481,0.295-15.148,0.932-15.148,10.464
	c0,1.796,0.848,8.619,1.926,15.98c0.848,6.529,1.828,13.973,1.828,15.491c0,26.573-55.71,45.981-74.073,46.39h-1.862l0.523,1.779
	c2.873,9.107,11.818,26.052,21.545,39.926c6.514,8.962,13.189,16.553,18.969,19.735c0.718,0.424,1.338,0.637,1.86,0.945
	c0.98,0.328,2.009,0.604,2.71,0.653l0.717,0.081c2.482,0,5.226-0.734,8.425-1.99c0.293-0.212,0.651-0.312,1.143-0.408
	c23.569-10.447,59.823-51.45,59.823-71.316c0-2.171-1.713-3.492-2.922-4.439c-1.273-0.946-1.958-1.485-2.088-2.35
	c0.292-0.441,0.586-1.52,1.093-3.168c5.403-16.943,12.65-40.415,12.65-48.495c0-6.66-0.229-13.646-0.948-20.47
	c-0.13-1.388-0.358-2.791-0.521-4.081c-0.261-1.698-0.621-3.347-0.816-5.026c-0.751-3.494-1.601-6.904-2.693-10.203
	c-6.088-19.522-19.669-35.389-48.562-38.864l-0.131-2.824c17.531-3.347,26.329-13.793,26.329-31.046
	c0-7.705-2.188-15.508-4.325-23.033c-2.123-7.279-4.261-14.871-4.261-22.265c0-0.685,0-1.599-0.114-2.627
	c-0.309-3.183-0.653-7.363,1.601-9.712c1.321-1.371,3.492-2.057,6.479-2.057c4.262,0,7.101,3.461,10.43,7.427
	c3.789,4.667,8.342,9.907,16.128,10.152h0.456l4.506-1.941l0.245-0.669c0.131-0.572,0.277-1.078,0.375-1.518
	c0.294-1.078,0.817-2.237,0.817-4.066c0-9.874-15.441-38.065-15.508-38.391c-13.743-24.175-32.956-49.868-51.384-74.629
	c-20.389-27.113-41.233-55.107-55.483-81.518l-0.311-0.637h-0.75c-17.824-0.637-32.123-2.546-43.616-5.19
	C1195.862,777.654,1184.19,764.17,1175.734,754.246 M1248.16,1078.75c0.083,12.145-18.232,18.135-27.178,18.135
	c-10.479,0-11.115-1.632-24.86-15.703c3.543-5.37,5.567-8.65,10.562-14.74c5.06,11.247,6.758,12.781,12.34,12.781
	c13.223,0,9.304-8.275,13.304-22.493c4.7-0.081,7.264-0.081,15.833-0.081V1078.75z"/>
<path fill="#00369C" d="M1024.697,728.798l-1.682-1.86c-9.663,5.501-19.489,12.307-28.174,18.347
	c-8.684,5.893-17.448,11.866-19.457,11.866c-2.383,0-9.613-3.853-16.012-7.313c-8.864-4.879-14.415-7.672-17.32-7.672
	c-8.259,0-12.781,5.371-18.607,12.08c-8.603,9.908-20.175,23.425-50.699,30.933c-11.508,2.644-25.921,4.537-43.566,5.207h-0.817
	l-0.253,0.604c-14.291,26.412-35.25,54.421-55.475,81.534c-18.591,24.762-37.673,50.421-51.483,74.679
	c-0.27,0.276-15.547,28.549-15.547,38.342c0,1.829,0.556,2.988,0.873,4.066c0.164,0.457,0.286,0.929,0.367,1.535l0.197,0.653
	l4.618,1.958h0.277c7.86-0.245,12.203-5.484,16.103-10.185c3.51-3.95,6.285-7.394,10.562-7.394c2.995,0,5.132,0.685,6.603,2.057
	c1.942,2.333,1.737,6.513,1.624,9.712c-0.204,1.012-0.204,1.91-0.204,2.594c0,7.411-2.171,15.018-4.294,22.266
	c-2.138,7.524-4.35,15.344-4.35,23.016c0,17.286,8.848,27.732,26.265,31.079v2.839c-29.203,3.461-42.677,19.654-48.928,39.405
	c-0.768,2.971-1.584,5.926-2.171,8.912c-0.336,1.763-0.687,3.412-0.956,5.061c-0.081,1.485-0.383,3.101-0.53,4.651
	c-0.685,6.808-1.052,13.826-1.052,20.601c0,8.097,7.247,31.552,12.601,48.512c0.531,1.617,0.931,2.743,1.102,3.166
	c-0.17,0.85-0.751,1.372-2.056,2.352c-1.25,0.931-3.012,2.269-3.012,4.439c0,19.816,36.614,60.983,60.264,71.396
	c0.213,0,0.466,0.116,0.768,0.312c3.208,1.272,6.015,1.99,8.505,1.99c0.22,0,0.432-0.064,0.432-0.064
	c1.086-0.114,2.057-0.342,3.013-0.653c0.637-0.325,1.184-0.669,1.91-0.979c5.729-3.151,12.414-10.757,18.78-19.589
	c9.745-13.842,18.707-30.785,21.668-40.056l0.467-1.779h-1.756c-18.419-0.392-74.213-19.8-74.213-46.374
	c0-1.551,1.021-8.978,1.837-15.523c1.053-7.33,2.04-14.168,2.04-15.98c0-9.516-8.864-10.138-15.058-10.447
	c-5.852-0.342-8.448-0.881-8.448-3.279c0-9.763,3.183-13.615,10.251-21.972c2.889-3.396,6.463-7.64,10.797-13.206h4.8
	c1.935,1.404,5.182,3.592,9.254,6.252c1.976,1.29,4.211,3.003,6.635,4.554c3.282,2.188,6.693,4.669,10.079,7.149
	c4.931,3.607,9.582,7.297,13.345,10.66c2.571,2.415,4.676,4.619,5.949,6.676c1.134,1.535,1.706,3.036,1.706,4.212v0.653
	c-0.155,1.223-0.572,2.758-1.159,4.292c-0.579,1.959-1.135,3.983-1.135,5.762c0,0.637,0,1.323,0.081,1.91
	c0.687,3.297,2.857,5.615,6.84,7.149c0.114,0.081,0.114,0.081,0.164,0.114c3.313,1.322,7.729,1.976,13.238,2.252h1.926
	c1.852,0,4.056-0.162,6.472-0.538c5.729-0.702,12.781-2.285,19.36-5.256c3.427-1.437,6.789-3.282,9.924-5.632
	c0.62-0.392,1.24-1.028,1.893-1.632c0.979-0.8,1.91-1.503,2.514-2.352l1.845-1.926l-1.615-0.229l-1.028-0.13
	c-31.308-2.644-53.353-30.41-72.778-55.058c-2.293-2.76-4.448-5.502-6.585-8.129c-0.734-0.964-2.041-1.65-3.697-2.14v-2.97
	l1.771-0.277c6.137-1.078,12.854-2.171,19.327-3.021c1.387,1.813,2.44,3.739,3.68,5.502c8.823,13.809,18.919,29.283,30.875,36.514
	c5.648,3.315,13.45,4.801,20.926,6.285c8.016,1.437,16.324,3.151,21.139,6.871c10.268,8.146,17.27,20.912,24.078,34.933
	c0.211,0.587,0.489,1.126,0.848,1.731c0.164,0.473,0.425,0.945,0.556,1.288c0.489,1.095,1.093,2.04,1.518,2.971
	c0.114,0.278,0.114,0.359,0.309,0.539c3.33,7.23,6.921,14.658,11.116,21.563c1.682,5.582,2.808,11.019,3.836,16.846
	c1.518,7.118,2.808,14.495,5.746,22.362l0.294,0.898h5.94l0.36-0.555c10.691-14.283,15.589-41.478,15.589-55.401
	c0-13.646-7.166-43.256-21.4-52.951l-1.453-1.028l-0.57,1.713c-1.454,4.244-2.252,6.987-2.988,9.436l-2.04-0.196l-1.045-0.05
	c-0.162-2.202-0.554-4.325-0.815-6.365c-0.522-2.611-0.914-5.157-1.453-7.573c-0.195-0.897-0.408-1.78-0.768-2.612
	c-11.589-51.188-41.852-61.799-88.536-61.799c-1.607,0-9.875,0.93-18.469,1.91c-7.794,0.945-16.683,1.926-18.087,1.926
	c-17.082,0-32.197-23.571-32.197-42.049c0-14.413,8.277-26.606,13.663-34.557c3.004-4.358,5.011-7.328,5.011-9.516
	c0-3.657-2.71-5.453-5.313-7.035c-0.253-0.114-0.466-0.228-0.686-0.327c-0.637-0.359-1.273-0.751-1.91-1.159
	c-2.489-1.534-4.628-3.606-4.628-7.753c0-7.313,8.675-23.064,19.188-39.664c0.923-1.503,1.992-3.069,3.027-4.604
	c0-0.164,0.05-0.164,0.18-0.245c0.409-0.719,0.84-1.323,1.29-2.074c15.042-22.69,32.14-44.97,35.005-48.252
	c2.719-3.166,26.077-24.059,41.307-34.474c5.076-3.492,9.304-5.924,11.539-5.924c1.29,0,5.012,1.729,7.885,3.069
	c4.374,2.088,7.181,3.313,8.977,3.313c2.743,0,8.798-4.147,14.757-8.391c1.029-0.815,1.958-1.404,2.236-1.615
	c2.057-0.849,52.479-15.164,63.09-15.164c1.371,0,7.345,1.321,12.665,2.449c7.216,1.599,11.574,2.594,13.189,2.594
	c8.113,0,8.864-24.468,8.864-24.614c0-1.698-1.226-4.815-3.216-9.632c-1.339-3.23-3.035-7.28-3.035-8.684
	c0-5.501,1.631-7.427,5.5-11.915C1017.467,738.691,1020.699,734.886,1024.697,728.798 M851.067,1056.615
	c8.325,0,10.969,0,15.655,0.114c3.9,14.218,0.309,22.493,13.287,22.493c5.565,0,7.296-1.534,12.422-12.781
	c5.026,6.09,7.019,9.354,10.463,14.74c-13.598,14.088-14.284,15.703-24.845,15.703c-8.928,0-27.194-5.99-26.982-18.151V1056.615z"/>
<path fill="#00369C" d="M1038.278,828.974c0-2.627,0-7.655-6.938-7.655c-4.537,0-23.309,15.507-34.752,25.84
	c-8.798,7.917-29.201,27.341-29.201,34.638c0,2.855,0.979,3.606,2.547,4.356c0.228,0.214,0.456,0.328,0.816,0.556l0.506,0.328
	l0.57-0.278c2.808-0.653,4.653-1.012,6.171-1.012c1.468,0,2.677,0.406,4.048,1.549c-7.803,8.194-23.408,19.491-25.693,19.605
	c-3.525,0-4.832-1.323-4.832-4.292c0-2.874,5.827-9.142,8.178-11.46l0.343-0.325v-5.746l-0.751-0.294
	c-3.998-2.122-7.149-3.069-9.793-3.069c-10.023,0-25.824,3.689-42.963,10.186c-0.262,0.116-0.409,0.147-0.685,0.261
	c-0.475,0.197-0.98,0.344-1.421,0.522c-0.62,0.197-1.159,0.522-1.617,0.784c-10.202,3.95-20.109,8.717-29.626,14.463
	c-18.591,10.985-34.49,25.022-41.182,40.808c-0.923-1.486-1.69-2.89-2.499-4.066c-2.571-4.618-4.392-7.605-6.716-10.724
	l-0.751-1.142l-1.069,0.947c-9.843,8.373-13.573,23.538-13.573,31.617c0,0.196,0.114,17.759,5.518,25.056
	c13.067,17.206,80.301,49.966,83.158,49.966c2.627,0,3.902-1.469,4.244-2.855v-0.278l0.081-0.408l-0.081-0.376
	c-0.212-0.163-0.212-0.311-0.342-0.506c-0.18-0.408-0.409-0.881-0.719-1.289c-1.045-2.188-2.922-5.207-5.157-8.733
	c-0.458-1.028-1.078-2.008-1.665-3.053c-10.921-18.118-29.105-48.316-29.105-58.763c0-3.378,9.289-18.282,15.166-25.529
	c1.501-1.959,2.872-3.33,3.77-3.869c2.023-1.371,6.349-1.926,10.349-2.48c4.979-0.703,9.94-1.437,13.239-3.33
	c1.174-0.703,3.068-2.041,5.615-3.819c7.133-5.125,18.966-13.451,26.247-14.315c0.343,3.052,0.687,5.598,0.898,7.655
	c0.865,11.066,1.876,12.487,14.512,12.487c25.201,0,53.686-3.216,74.466-40.498c1.305-2.382,2.905-4.586,4.373-6.709
	c3.069-4.685,6.318-9.026,6.318-13.891c0-5.827-5.696-6.463-10.269-6.889c-4.798-0.653-7.066-1.256-7.066-3.819
	c0-1.779,3.492-6.333,6.545-10.398C1032.482,842.13,1038.278,834.605,1038.278,828.974"/>
<path fill="#00369C" d="M1071.039,862.941c-4.521,0.409-10.218,1.045-10.218,6.889c0,4.864,2.953,9.206,6.235,13.891
	c1.582,2.123,3.116,4.327,4.52,6.726c20.698,37.266,49.182,40.465,74.385,40.465c12.7,0,13.615-1.42,14.61-12.487
	c0.212-2.057,0.408-4.586,0.784-7.655c7.441,0.881,19.113,9.223,26.344,14.347c2.498,1.764,4.311,3.102,5.632,3.788
	c3.329,1.926,8.243,2.644,12.994,3.347c4.179,0.587,8.323,1.109,10.446,2.48c0.898,0.539,2.204,1.91,3.853,3.836
	c5.957,7.28,15.131,22.216,15.131,25.596c0,10.413-18.249,40.595-29.007,58.697c-1.012,1.633-1.957,3.085-2.644,4.603
	c-2.023,3.151-3.591,5.778-4.537,7.641c-0.327,0.423-0.491,0.751-0.539,1.043c-0.083,0.164-0.196,0.245-0.245,0.345l-0.229,0.342
	l0.131,0.441c0,0.146,0.099,0.244,0.099,0.391c0.457,1.405,1.6,2.727,4.048,2.727c2.988,0,70.222-32.76,83.231-49.835
	c5.583-7.444,5.583-24.974,5.583-25.17c0-8.095-3.657-23.277-13.598-31.65l-1.06-0.898l-0.834,1.109
	c-2.252,3.135-4.016,6.106-6.725,10.741c-0.588,1.159-1.47,2.563-2.334,4.064c-6.579-15.817-22.607-29.821-41.248-40.84
	c-9.418-5.582-19.377-10.496-29.188-14.463c-0.538-0.195-1.158-0.407-1.695-0.62c-0.72-0.294-1.307-0.506-1.993-0.784l-0.261-0.031
	c-17.14-6.596-33.037-10.318-43.061-10.318c-2.808,0-5.713,0.997-9.907,3.103l-0.734,0.277v5.746l0.358,0.325
	c2.285,2.302,8.325,8.57,8.325,11.46c0,2.986-1.403,4.292-4.897,4.292c-2.318-0.114-17.793-11.411-25.726-19.605
	c1.273-1.126,2.563-1.565,4.114-1.565c1.437,0,3.166,0.392,6.006,1.045l0.588,0.245l0.588-0.328c0.278-0.211,0.62-0.342,0.849-0.522
	c1.42-0.75,2.415-1.501,2.415-4.373c0-11.133-55.433-60.461-63.855-60.461c-6.952,0-6.952,5.026-6.952,7.655
	c0,5.615,5.696,13.14,10.805,19.719c3.069,4.096,6.61,8.618,6.61,10.413C1078.236,861.702,1075.838,862.289,1071.039,862.941"/>
<path fill="#00369C" d="M1036.532,1400.707c-2.254-0.816-4.489-1.731-6.644-2.727c-3.705-1.763-7.591-3.803-11.377-5.843
	c-2.188-1.176-4.311-2.318-6.335-3.494c-11.98-6.513-23.08-12.617-30.964-12.617c-9.55,0-13.826,4.554-13.826,15.115
	c0,18.136,15.67,28.271,30.785,38.146c6.839,4.325,13.222,8.473,18.152,13.254c10.854,10.382,25.447,30.655,29.528,40.711
	l0.31,0.849h6.072l0.457-0.687c8.097-14.983,20.633-36.105,35.519-45.769c1.371-0.833,3.136-1.894,4.864-2.955
	c15.181-9.418,38.099-23.538,38.099-43.55c0-7.477,0-15.115-13.581-15.115c-8.178,0-19.75,6.333-32.059,13.075
	c-4.767,2.758-9.793,5.484-14.658,7.917c-2.529,1.224-4.994,2.333-7.508,3.313c-4.897,2.023-9.436,3.247-13.369,3.247
	C1045.803,1403.579,1041.217,1402.486,1036.532,1400.707"/>
</svg>
