<?xml version="1.0" encoding="utf-8"?>
<!-- Generator: Adobe Illustrator 16.0.0, SVG Export Plug-In . SVG Version: 6.00 Build 0)  -->
<!DOCTYPE svg PUBLIC "-//W3C//DTD SVG 1.1//EN" "http://www.w3.org/Graphics/SVG/1.1/DTD/svg11.dtd">
<svg version="1.1" id="Capa_1" xmlns="http://www.w3.org/2000/svg" xmlns:xlink="http://www.w3.org/1999/xlink" x="0px" y="0px"
	 width="2000px" height="2000px" viewBox="0 0 2000 2000" enable-background="new 0 0 2000 2000" xml:space="preserve">
<polygon fill="#000000" points="1015.318,340.191 887.812,431.856 936.561,283.246 809.352,191.162 966.763,191.257 1015.669,42.757
	1064.236,191.368 1221.614,191.649 1094.227,283.417 1142.602,432.096 "/>
<path fill="#000000" d="M1015.386,1939.835c-421.778,0-764.913-341.011-764.913-760.168c0-419.159,343.134-760.183,764.913-760.183
	c421.786,0,764.928,341.024,764.928,760.183C1780.313,1598.824,1437.172,1939.835,1015.386,1939.835 M1015.386,464.235
	c-396.917,0-719.832,320.949-719.832,715.432c0,394.481,322.914,715.417,719.832,715.417c396.933,0,719.847-320.936,719.847-715.417
	C1735.232,785.184,1412.318,464.235,1015.386,464.235"/>
<path fill-rule="evenodd" clip-rule="evenodd" fill="#FFFFFF" d="M1015.386,441.867c409.938,0,742.394,330.403,742.394,737.8
	c0,407.389-332.456,737.801-742.394,737.801c-409.923,0-742.373-330.412-742.373-737.801
	C273.013,772.27,605.463,441.867,1015.386,441.867"/>
<path fill="#000000" d="M1586.518,781.971l-32.075,9.757l-56.451,17.157l-35.085,10.669l16.217,23.879l18.868-6.289l12.357-4.106l19.788,29.18
	l-20.968,25.493l16.834,24.779l28.439-35.194l52.59-65.095L1586.518,781.971z M1562.652,826.352l-8.21,9.853l-9.229,11.067
	l-15.268-22.512l24.497-8.102l1.358-0.433c7.045-2.307,15.834-6,22.932-8.575l0.191,0.309
	C1573.887,813.541,1567.514,820.461,1562.652,826.352"/>
<path fill="#000000" d="M789.467,582.107l-0.136-0.336c11.005-9.915,13.105-21.785,8.979-31.919c-3.92-9.618-11.961-15.021-20.934-16.505
	c-0.62-0.117-1.264-0.199-1.916-0.274c-5.864-0.879-11.727-0.501-18.599,1.167c-5.22,1.27-11.027,3.268-17.858,5.994
	c-12.427,5.005-25.28,11.26-31.804,15.365l-0.72,0.453l0.72,1.799l44.753,110.1c1.434-0.336,3.083-0.762,4.909-1.277
	c5.298-1.497,12.233-3.741,20.515-6.961c1.099-0.412,2.21-0.858,3.33-1.312c22.795-9.152,35.229-18.49,40.879-28.432
	c4.792-8.616,6.269-18.64,2.066-28.953C817.693,586.309,804.01,580.405,789.467,582.107 M749.871,589.352l-10.785-26.537
	c2.065-1.223,5.177-2.856,10.785-5.102c2.494-1.001,4.828-1.702,6.991-2.094c8.115-1.511,13.977,1.092,16.73,7.896
	c3.448,8.452-1.599,16.958-15.212,22.431l-1.518,0.604L749.871,589.352z M780.595,636.197c-1.167,0.466-2.223,0.893-3.218,1.284
	c-2.782,1.098-4.978,1.915-6.949,2.417l-13.057-32.111l8.843-3.543c3.838-1.565,7.633-2.603,11.164-3.028
	c8.383-0.954,15.386,1.648,18.66,9.715C800.845,622.76,792.324,631.486,780.595,636.197"/>
<path fill="#000000" d="M694.938,641.991l-38.764-57.123l-23.117,15.489l39.807,58.634c12.187,18.002,11.233,30.951-0.913,39.107
	c-11.87,7.944-24.594,3.515-36.506-14.02l-34.871-51.377l-4.938-7.257l-23.253,15.592l28.19,41.539l10.361,15.297
	c22.066,32.481,46.92,36.519,72.784,19.196c13.059-8.761,21.118-19.362,23.48-31.583c0.942-4.95,0.969-10.181,0-15.646
	C705.655,661.161,701.633,651.864,694.938,641.991"/>
<polygon fill="#000000" points="600.574,752.187 577.726,775.696 520.23,720.522 505.675,706.557 486.183,726.619 520.23,759.3 575.122,811.975
	600.574,785.775 628.752,756.767 611.862,740.557 "/>
<path fill="#000000" d="M524.605,842.507c-1.382,2.177-2.843,4.188-4.375,6.015c-13.216,15.681-32.029,17.803-50.847,6.117
	c-23.325-14.479-25.534-36.066-13.794-54.782c5.259-8.335,11.308-13.835,16.34-17.364l-15.817-16.478
	c-4.78,2.822-13.107,10.546-20.798,22.761c-19.827,31.542-15.86,69.256,19.924,91.466c21.333,13.25,44.971,14.769,64.992,1.435
	c8.013-5.329,15.456-13.045,21.922-23.337c7.973-12.674,11.571-23.976,12.119-29.66l-20.74-7.944
	C532.493,826.53,529.074,835.387,524.605,842.507"/>
<polygon fill="#000000" points="961.957,486.728 867.874,499.882 871.135,522.979 904.009,518.386 917.947,616.938 945.747,613.059 931.81,514.5
	965.218,509.852 "/>
<path fill="#000000" d="M1533.076,711.734l-18.758-17.412l-16.342,17.377l-8.182,8.747c-12.759,13.601-23.757,26.11-33.535,39.218l-0.411-0.364
	c5.479-13.862,10.628-30.038,14.144-44.477l12.111-50.34l-23.865-22.114l-80.784,86.083l-3.528,3.763l3.528,3.268l15.243,14.144
	l25.389-27.072c13.759-14.666,25.377-27.573,35.978-39.931l0.522,0.226c-5.452,14.638-10.436,31.707-14.063,46.289l-13.209,52.559
	l21.449,19.883l49.213-52.462L1533.076,711.734z"/>
<path fill="#000000" d="M1267.932,571.534l12.016-34.693l-12.016-4.106l-14.35-4.923l-23.151,66.88c-7.112,20.515-18.086,27.56-31.966,22.801
	c-13.514-4.634-17.633-17.404-10.713-37.398l23.179-66.879l-26.529-9.077l-22.464,64.807c-12.841,37.062-1.126,59.224,28.369,69.317
	c30.513,10.436,54.65-0.418,67.077-36.258L1267.932,571.534z"/>
<rect fill="#000000" x="1001.194" y="486.295" width="28.068" height="122.864"/>
<path fill="#000000" d="M1380.984,588.308l-3.53-1.958l-28.562-15.715l-12.88,12.358l-68.081,65.356l-12.016,11.535l12.016,6.619l13.332,7.339
	l23.07-23.323l30.965,17.041l-7.029,32.187l7.743,4.257l18.565,10.237l22.876-109.098L1380.984,588.308z M1347.891,620.927
	l-5.959,26.509l-5.919-3.248l-18.001-9.914l18.001-18.112l1.126-1.154c5.232-5.245,11.384-12.482,16.547-17.981l0.314,0.186
	C1352.038,604.462,1349.539,613.491,1347.891,620.927"/>
<path fill="#000000" d="M1091.769,567.236c-2.664,18.949-10.684,23.172-22.3,21.552c-5.467-0.763-10.244-2.362-13.869-4.148l-6.262,21.765
	c5.218,2.602,13.429,4.854,19.773,5.74c26.887,3.756,45.314-6.035,50.216-40.693l10.862-76.897l-27.6-3.859L1091.769,567.236z"/>
<polygon fill="#000000" points="576.737,1676.998 637.424,1661.481 646.988,1659.01 654.539,1650.358 637.424,1635.569 606.191,1608.601
	595.351,1620.973 624.139,1645.827 623.803,1646.239 574.389,1658.653 552.341,1664.201 545.299,1672.274 574.389,1697.403
	597.094,1717.025 607.935,1704.653 576.4,1677.383 "/>
<path fill="#000000" d="M782.038,1725.512l-11.149-5.877l-6.426-3.405l-23.894,44.601c-7.311,13.689-15.847,17.425-25.08,12.537
	c-9.029-4.752-10.491-14.24-3.365-27.573l23.88-44.601l-17.708-9.365l-18.449,34.466l-4.683,8.775
	c-11.343,21.216-8.698,36.691,4.683,47.195c2.225,1.758,4.744,3.378,7.54,4.848c20.364,10.751,38.599,5.78,51.391-18.14
	l12.111-22.63L782.038,1725.512z"/>
<path fill="#000000" d="M892.936,1760.844l-16.505-5.013l-7.499,24.401c-3.908,12.701-7.018,24.168-9.167,35.62l-0.397-0.11
	c-0.831-10.614-2.643-22.603-4.938-32.955l-8.066-36.088l-22.301-6.783l-19.236,62.534l-6.577,21.395l6.577,2.005l10.952,3.322
	l7.778-25.267c4.223-13.704,7.606-25.609,10.505-36.841l0.419-0.015c1.111,11.095,3.295,23.605,5.54,34.097l8.088,37.856
	l20.049,6.083l24.779-80.535l1.034-3.378L892.936,1760.844z"/>
<path fill="#000000" d="M699.079,1704.708l0.775-0.646l11.824-9.735c-1.519-3.021-5.487-8.046-11.824-13.21c-1.084-0.878-2.237-1.771-3.445-2.664
	c-18.73-13.512-41.662-14.609-58.992,1.044c-2.671,2.444-5.225,5.26-7.606,8.514c-13.988,19.142-13.424,42.17,7.606,59.72
	c1.201,1.002,2.451,1.963,3.768,2.924c8.693,6.289,16.609,9.393,20.662,10.065l6.734-14.295c-4.106-1.029-10.279-3.886-15.159-7.415
	c-14.412-10.395-16.342-25.485-5.947-39.711c11.541-15.792,27.12-16.286,39.959-7.031
	C693.159,1696.401,696.786,1700.96,699.079,1704.708"/>
<polygon fill="#000000" points="811.403,1735.014 804.819,1732.363 792.818,1727.559 770.882,1781.522 759.744,1808.932 770.882,1813.408
	778.331,1816.388 804.819,1751.203 "/>
<polygon fill="#000000" points="453.832,1444.797 478.02,1434.1 469.864,1415.905 453.832,1422.99 401.274,1446.252 389.19,1451.594
	401.274,1478.576 411.635,1501.673 426.944,1494.903 412.657,1463.005 "/>
<polygon fill="#000000" points="574.766,1601.667 591.203,1619.188 603.478,1607.818 574.389,1576.812 557.189,1558.494 544.927,1569.864
	561.095,1587.097 515.102,1629.733 508.792,1635.584 515.102,1642.313 522.443,1650.14 574.389,1602.023 "/>
<path fill="#000000" d="M401.274,1323.423l37.007,14.13l-3.571-22.383l-17.081-4.833c-5.39-1.388-9.55-2.444-15.441-3.626l-0.042-0.261
	c4.601-2.828,8.548-5.424,13.457-8.829l14.708-10.106l-3.584-22.506l-25.452,20.089l-13.794,10.875l-48.115-18.139l3.557,22.383
	l16.943,4.737c6.509,1.716,11.392,3.198,16.72,4.201l0.041,0.262c-4.656,3.227-8.857,6-14.427,10.175l-14.54,10.34l3.597,22.644
	l40.557-32.765L401.274,1323.423z"/>
<path fill="#000000" d="M424.212,1423.348c14.088-4.559,25.074-13.813,29.612-26.132c2.925-7.895,3.208-17.013,0-26.981l-0.068-0.248
	c-7.552-23.068-29.104-33.23-52.475-27.737c-1.593,0.384-3.194,0.823-4.787,1.317c-23.912,7.745-38.029,28.315-29.934,53.073
	c5.61,17.123,18.18,27.751,34.721,29.481C408.298,1426.863,416.014,1425.984,424.212,1423.348 M381.987,1392.754
	c-3.955-12.084,4.189-23.056,19.294-28.617c0.688-0.274,1.393-0.521,2.094-0.741c16.34-5.272,30.965-1.785,35.14,10.972
	c4.242,13.004-6.359,24.373-21.43,29.234c-5.582,1.799-10.986,2.609-15.805,2.348
	C391.983,1405.47,384.726,1401.157,381.987,1392.754"/>
<polygon fill="#000000" points="553.373,1552.809 541.028,1537.1 515.096,1557.23 496.427,1571.731 471.45,1591.148 483.78,1606.844
	496.427,1597.025 515.096,1582.525 "/>
<path fill="#000000" d="M496.435,1555.446c0.789-0.439,1.591-0.934,2.397-1.429c6.788-4.229,12.357-9.557,16.265-15.626
	c7.833-12.139,9.015-27.244,0-42.253c-0.2-0.329-0.392-0.672-0.605-0.988c-4.792-7.635-11.041-13.073-18.057-16.326
	c-12.833-5.974-28.302-4.711-42.603,3.68c-0.433,0.246-0.884,0.521-1.339,0.796c-21.312,13.237-30.002,36.581-16.115,58.676
	c4.719,7.483,10.676,13.059,17.454,16.519C466.123,1564.742,481.138,1564.097,496.435,1555.446 M453.832,1538.583
	c-1.278-1.126-2.431-2.499-3.433-4.091c-5.102-8.103-3.398-17.262,3.433-25.157c2.657-3.063,6.09-5.919,10.182-8.472
	c12.063-7.484,24.449-8.858,32.421-2.65c1.648,1.263,3.109,2.884,4.332,4.86c5.342,8.486,2.746,18.044-4.332,25.843
	c-2.583,2.829-5.748,5.438-9.332,7.662C474.574,1544.364,461.733,1545.613,453.832,1538.583"/>
<polygon fill="#000000" points="1603.244,1351.216 1610.686,1328.435 1594.73,1323.285 1577.153,1377.059 1573.775,1387.426 1577.153,1388.524
	1589.719,1392.589 1597.064,1370.165 1632.738,1381.686 1665.064,1392.121 1671.271,1373.2 1632.738,1360.745 "/>
<polygon fill="#000000" points="1499.076,1523.685 1487.567,1540.012 1518.973,1561.845 1559.92,1590.352 1571.412,1574.024 1518.973,1537.539 "/>
<path fill="#000000" d="M1451.521,1624.681l-22.532-12.276l-5.697-3.131l-3.889,3.735l-14.965,14.35l14.965,29.18l9.586,18.675l17.37,33.917
	l5.162-4.957l9.738-9.337l-9.738-17.838l-1.468-2.719l1.468-1.428l16.713-16.012l7.579,4.202l13.046,7.306l15.475-14.858
	l-28.521-15.558L1451.521,1624.681z M1451.521,1652.227l-9.788,9.392l-9.255-16.999c-1.017-1.896-2.227-3.955-3.489-6.056
	c-1.84-3.049-3.804-6.166-5.411-8.926l0.193-0.179l5.218,3.228c3.296,2.045,6.743,4.146,9.819,5.862l12.713,7.195l4.257,2.418
	L1451.521,1652.227z"/>
<polygon fill="#000000" points="1580.12,1530.729 1577.153,1528.889 1562.337,1519.688 1577.153,1496.125 1579.543,1492.308 1577.153,1490.824
	1565.785,1483.739 1548.563,1511.12 1532.993,1501.467 1551.256,1472.424 1537.359,1463.801 1518.973,1493.076 1508.483,1509.747
	1518.973,1516.256 1577.153,1552.369 1583.374,1556.242 1613.227,1508.758 1599.344,1500.135 "/>
<polygon fill="#000000" points="1518.973,1613.448 1514.963,1618.199 1475.813,1585.572 1460.161,1572.528 1451.521,1582.73 1447.279,1587.77
	1451.521,1591.313 1475.813,1611.566 1514.908,1644.179 1518.973,1639.373 1550.377,1602.202 1537.524,1591.478 "/>
<polygon fill="#000000" points="1674.058,1278.466 1668.387,1314.072 1647.679,1310.831 1652.759,1278.918 1636.709,1276.42 1632.738,1301.37
	1631.641,1308.304 1613.516,1305.448 1618.912,1271.627 1602.722,1269.086 1594.208,1322.571 1632.738,1328.627 1681.432,1336.316
	1690.219,1281.006 "/>
<path fill="#000000" d="M1577.153,1395.226l-6.344-2.815l-7.456,16.656l13.8,6.111l9.669,4.27c12.205,5.411,23.261,9.874,34.438,13.403
	l-0.164,0.356c-10.713-0.467-22.878-0.164-33.506,0.837l-10.437,1.017l-26.599,2.554l-9.474,21.188l36.072,15.956l44.601,19.732
	l7.443-16.656l-24.291-10.766c-10.066-4.449-19.169-8.294-27.753-11.754c-2.622-1.071-5.218-2.088-7.745-3.09l0.057-0.398
	c2.471,0.055,5.066,0.055,7.688,0.027c9.104-0.082,18.677-0.604,27.023-1.359l28.562-2.458l10.218-0.906l8.541-19.019l-18.759-8.293
	L1577.153,1395.226z"/>
<polygon fill="#000000" points="987.072,1769.797 967.037,1769.082 963.954,1856.786 1019.074,1858.709 1019.664,1842.052 984.565,1840.844 "/>
<polygon fill="#000000" points="1052.949,1841.695 1051.124,1820.934 1083.489,1818.131 1082.075,1802.052 1049.723,1804.867 1048.102,1786.7
	1082.458,1783.72 1081.017,1767.504 1026.707,1772.213 1034.396,1859.656 1090.531,1854.767 1089.104,1838.564 "/>
<path fill="#000000" d="M1422.783,1701.825c-0.852,1.317-2.005,2.828-3.38,4.394c-2.334,2.637-5.327,5.411-8.388,7.635
	c-14.405,10.409-29.455,7.58-39.836-6.632c-11.548-15.805-7.223-30.69,5.602-39.945c5.74-4.134,11.206-6.18,15.504-7.168
	l-6.027-15.118c-3.941,0.59-11.535,3.515-19.913,9.543c-21.612,15.627-29.138,41.647-11.451,65.884
	c14.802,20.214,38.779,26.447,63.495,8.597c0.329-0.247,0.658-0.494,1.015-0.77c3.915-2.91,7.114-5.85,9.586-8.485
	c2.638-2.856,4.448-5.37,5.397-7.154l-5.397-5.013L1422.783,1701.825z"/>
<polygon fill="#000000" points="893.977,1761.173 893.977,1761.173 892.942,1768.561 891.897,1775.948 892.942,1776.113 915.365,1779.216
	905.409,1849.633 925.265,1852.406 935.207,1781.99 959.08,1785.327 961.414,1768.821 894.219,1759.442 "/>
<path fill="#000000" d="M1132.51,1795.172c-11.986-2.252-17.287-3.83-18.305-9.364c-0.768-4.477,2.666-9.049,11.178-10.546
	c8.541-1.47,15.132-0.138,18.924,0.934l1.618-16.424c-5.602-1.537-13.183-2.306-22.985-0.59
	c-20.515,3.584-30.897,17.041-28.287,31.789c2.223,12.578,13.045,18.867,28.396,21.338c11.122,1.896,15.764,4.244,16.754,9.628
	c0.974,5.643-3.133,10.202-12.168,11.769c-8.376,1.481-17,0.218-22.754-1.566l-1.124,16.86c5.368,1.841,15.667,2.843,25.581,1.1
	c23.895-4.189,32.902-18.593,30.32-33.093C1157.516,1804.813,1148.878,1798.139,1132.51,1795.172"/>
<polygon fill="#000000" points="1304.554,1776.662 1294.693,1758.262 1323.393,1743.088 1315.76,1728.849 1287.086,1744.008 1278.477,1727.9
	1308.893,1711.821 1301.202,1697.458 1260.352,1719.044 1253.088,1722.89 1260.352,1736.47 1294.529,1800.377 1344.294,1774.095
	1336.59,1759.718 "/>
<path fill="#000000" d="M1260.352,1755.131c-5.232-9.172-12.509-14.775-20.94-17.439c-4.794-1.552-9.831-2.197-15.502-1.895
	c-6.319,0.343-13.39,1.882-21.754,4.751c-9.541,3.255-18.357,6.977-24.937,10.437l28.248,81.51
	c4.34-0.864,10.394-2.306,18.442-4.942c1.109-0.356,2.237-0.743,3.419-1.14c14.912-5.096,26.365-12.235,33.023-21.243
	c0.631-0.879,1.236-1.771,1.785-2.664c5.713-9.543,7.759-22.479,2.238-38.366
	C1263.222,1760.815,1261.875,1757.822,1260.352,1755.131 M1226.338,1810.347c-0.797,0.288-1.619,0.563-2.429,0.795
	c-1.593,0.536-3.118,0.962-4.271,1.071l-18.785-54.28c1.47-0.92,4.063-2.226,8.267-3.667c5.299-1.813,10.271-2.43,14.79-1.854
	c9.337,1.208,16.655,7.565,20.609,19.225C1251.384,1791.438,1243.475,1804.606,1226.338,1810.347"/>
<path fill="#000000" d="M1015.386,1730.332c-305.521,0-554.077-247.032-554.077-550.665c0-303.641,248.556-550.666,554.077-550.666
	c305.536,0,554.092,247.025,554.092,550.666C1569.478,1483.3,1320.922,1730.332,1015.386,1730.332 M1015.386,655.86
	c-290.603,0-527.041,234.976-527.041,523.807c0,288.816,236.438,523.792,527.041,523.792c290.623,0,527.042-234.976,527.042-523.792
	C1542.428,890.836,1306.009,655.86,1015.386,655.86"/>
<path fill-rule="evenodd" clip-rule="evenodd" fill="#BE0411" d="M1015.386,642.437c298.505,0,540.567,240.571,540.567,537.23
	c0,296.657-242.063,537.221-540.567,537.221c-298.49,0-540.553-240.563-540.553-537.221
	C474.833,883.008,716.896,642.437,1015.386,642.437"/>
<path fill-rule="evenodd" clip-rule="evenodd" fill="#BE0411" d="M386.644,1063.167c14.541,0,26.323,11.728,26.323,26.173
	s-11.782,26.173-26.323,26.173s-26.338-11.728-26.338-26.173S372.103,1063.167,386.644,1063.167"/>
<path fill="#000000" fill-rule="evenodd" clip-rule="evenodd" d="M877.686,1700.973c-5.26-12.028-9.057-21.42-9.928-29.055
	c-1.167-11.728-2.911-34.906-2.911-46.936c0-43.433-1.182-92.441-1.182-136.451c0-27.284-10.209-62.189-10.209-86.55
	c0-7.923-5.259-30.512-7.298-45.493c-4.388-16.711-16.038-40.783-16.038-57.494c0-18.785,3.192-39.039,3.192-57.811
	c0-9.982-2.913-20.844-4.964-30.236l-0.859-28.452c-4.386-4.394-16.057-12.907-16.648-16.437c0,0-7.3-12.895-7.3-14.666
	c0-3.803-1.447-20.844-5.245-23.178c-4.683-8.816-16.072-12.909-24.525-17.92c-24.234-32.27-49.337-28.15-75.029-50.45
	c-6.427-8.816-10.8-17.604-16.059-26.695c-2.334-2.361-12.241-47.833-12.241-52.234c0-7.044-2.334-17.604-2.632-25.815l3.208-27.299
	c-4.966-14.384-9.928-29.049-13.15-44.009c0,0-4.077-38.147-4.077-40.213c-2.038-21.71-1.461-44.883-1.461-66.592
	c0.576-16.147,2.349-31.108,5.538-46.955c1.772-5.287,3.516-10.573,4.98-15.847c2.037-14.665,5.259-30.229,8.17-44.895
	c3.199-9.674,10.497-20.837,15.18-20.837c13.71,0,17.507,1.18,30.065,13.793c7.594,13.793,25.973,37.556,28.307,41.97
	c4.966,8.506,22.183,35.798,34.165,50.168c10.209,14.679,28.027,36.678,40.866,46.956c18.091,18.181,55.454,48.396,70.924,65.72
	c0,0,12.851,15.846,18.689,27.291c0.293,3.811,2.051,7.917,3.795,11.74c2.911,3.812,10.203,8.508,10.203,10.265
	c0,1.167,2.349,9.098,2.349,14.089l12.839,5.863l3.783-7.93c0.886-1.758,11.39-9.379,16.059-9.379c7.017,0,7.311,2.644,7.311,10.265
	c3.503-0.577,7.877-2.924,11.095-2.924c4.375,0,7.3,3.515,11.378,1.462c2.925-0.294,7.874-3.528,9.632-3.528
	c6.998,0,10.814,5.582,16.628,9.111c4.979,0.281,9.928,1.153,14.59,2.925c4.396-4.401,9.941-7.93,15.187-7.93
	c8.475,0,17.235,7.058,26.282,9.982c5.55,0.886,14.887,2.643,16.645,2.643c9.626,0,21.888-8.802,32.983-9.687
	c5.245,2.348,10.792,4.696,16.354,7.044l9.049,2.053c2.031-3.22,1.152-5.568,1.152-9.673c0-1.182,2.637-2.939,3.792-4.992
	c-1.155-6.172-3.489-12.922-3.489-19.657c0.879-5.582,0-9.096-0.591-13.792c1.47-14.089,0.894-31.989,5.26-45.486
	c1.455-4.401,4.366-8.508,5.548-13.203c2.033-6.75,2.033-13.203,2.033-20.543c2.334-4.977,5.546-11.726,7.88-16.718
	c9.063-12.317,18.675-24.951,27.739-36.1c2.03-1.167,4.064-2.643,6.123-4.105c4.092-13.78,9.928-28.459,17.797-40.481
	c5.561-7.059,11.7-13.793,17.233-21.133c7.594-11.74,17.521-24.648,24.236-36.979c4.366-7.917,9.036-15.846,13.705-23.763
	c5.271-3.824,9.047-7.044,15.474-5.581c4.383,1.757,12.854,6.762,17.521,11.74c0.867,4.992,9.338,16.142,11.672,21.709
	c5.562,4.992,10.809,13.794,11.385,19.671c0.301,5.863,3.227,15.55,3.227,22.89c0,10.855,0.576,23.467,6.988,32.27
	c0,2.349,5.85,15.27,5.85,24.354c0,12.612,0.576,29.055,0.867,29.941c0.59,16.128,0.864,33.45,0.864,49.578l-7.581,77.459
	c0,5.582,4.092,11.741,4.67,17.618c2.047,21.71,6.715,44.017,5.821,65.713c-9.021,28.761-17.769,44.896-26.529,61.332
	c-4.669,9.09-15.476,18.194-27.737,30.236c-10.52,11.123-18.399,19.65-28.617,30.513v5.85v6.756l1.457,3.831l0.576,4.106
	l1.482,6.756l0.563,7.909l0.894,4.105c1.154,19.073,2.031,36.677-2.938,56.341l-3.488,10.56l-3.213,6.166
	c-1.744,6.453-0.879,13.195-1.744,20.24l0.865,10.56l10.519,61.915c2.91,13.499,36.774,129.984,36.774,129.984l5.56,9.104
	c7.003,8.211,40.55,56.917,44.366,60.144c4.944,11.466,23.921,43.735,30.348,53.128c-18.977,17-44.957,38.723-57.207,47.512
	c-8.458,6.165-31.225,23.783-54.018,34.933c-16.919,8.514-38.807,19.073-48.749,24.36c-5.245,2.925-50.202,18.482-68.3,22.602
	c-15.463,3.804-58.086,11.728-74.151,13.773c-19.829,2.65-44.959,2.046-69.179,1.47c-18.669-0.577-37.358-1.182-53.122-3.516
	C941.326,1718.303,904.825,1709.199,877.686,1700.973"/>
<path fill-rule="evenodd" clip-rule="evenodd" fill="#FFFFFF" d="M1125.123,1692.419l2.045-1.47L1125.123,1692.419z"/>
<path fill-rule="evenodd" clip-rule="evenodd" fill="#FFFFFF" d="M1129.311,1692.322c2.637-4.998,8.185-16.422,8.185-16.422
	c9.625-14.09,39.381-56.355,45.535-65.748c3.501-2.622,7.88-9.364,10.214-12.907c-27.436,9.392-52.235,28.466-78.543,39.904
	c0.301-0.577-6.401-31.981-6.401-58.086c0-17.026-0.301-32.872-0.301-41.964c0-9.392,2.402-17.686,5.63-22.959
	c21.011-55.901,31.583-64.153,49.27-78.077c16.587,9.529,33.257,6.398,48.608-4.766c7.608-8.39,5.385-18.002,6.263-26.213
	c-2.045-6.18-2.911-3.255,0-10.299c1.758-5.575,2.91-14.391,2.91-20.845c-1.756-8.789,5.549-14.954,5.549-24.058
	c-1.743-4.696-5.835-9.091-8.459-13.196c0.865-2.335,3.791-4.683,3.791-7.031c0-2.06-2.637-5.589-3.791-8.211
	c-1.182-2.65,0.576-5.286,2.033-7.937c0-4.408,0.877-7.347,2.925-10.862c0-5.877,8.17-14.665,11.672-19.65l13.429-23.192
	l3.227,5.575l1.442,7.938c0.288,2.636,1.455,7.03,2.032,9.68c5.259,22.013,11.383,48.707,16.656,73.341
	c7.003,32.874,16.341,67.794,17.493,97.729l2.061,6.165c15.489,13.196,33.285,34.604,46.412,55.16
	c15.175,23.467,24.829,44.284,34.743,66.311c-22.768,20.542-58.662,49.296-86.127,61.613c-43.775,17.027-86.7,35.496-120.838,40.797
	C1161.416,1684.702,1141.285,1689.687,1129.311,1692.322"/>
<path fill-rule="evenodd" clip-rule="evenodd" fill="#FFFFFF" d="M1061.861,1546.355v-0.591c-4.093,0-4.669-2.046-4.093-4.407
	c0.879-4.092,6.151-9.667,10.216-3.516C1069.455,1540.204,1066.832,1545.174,1061.861,1546.355"/>
<path fill-rule="evenodd" clip-rule="evenodd" fill="#FFFFFF" d="M1073.726,1530.948l-3.806-0.576c0-2.65,0.896-6.756,0.896-9.393
	l1.756-1.181c2.912-3.817,7.581-11.728,13.431-17.303c2.607-5.589,10.49-17.314,16.902-19.086c-0.562,1.771-0.864,3.528-1.167,4.998
	c-4.063,5.575-6.976,9.666-9.913,16.725C1085.698,1514.814,1082.486,1523.313,1073.726,1530.948"/>
<path fill-rule="evenodd" clip-rule="evenodd" fill="#FFFFFF" d="M1061.861,1514.059v-4.092l4.092-3.831l-4.092-4.105l4.092-4.684
	l0.591-0.892c2.622-5.576,7.579-12.922,12.248-19.088c5.85-7.606,13.142-14.665,21.89-19.36l4.092,7.058l8.444-4.998l-2.913,3.817
	l-8.732,6.756l2.034-3.529l-7.005,4.984c-3.487,4.696-7.003,9.681-10.216,14.089c-4.078,5.286-8.171,11.163-11.975,17.906
	L1061.861,1514.059z"/>
<path fill-rule="evenodd" clip-rule="evenodd" fill="#FFFFFF" d="M929.412,1465.367l-0.886-2.047
	c2.925-2.046,3.516,0.893,3.516,2.938L929.412,1465.367z"/>
<path fill-rule="evenodd" clip-rule="evenodd" fill="#FFFFFF" d="M926.439,1460.904l8.467-21.71l9.055-12.634l2.04-5.574
	l4.669-1.182l4.962-7.909l7.011-5.575h4.656c-3.206,4.408-7.284,8.514-11.667,12.62l-4.078,4.984h-2.925v2.06l4.093-6.18
	c4.368-0.576,4.368,5.301,4.944,8.239h-6.112l-3.516,6.454c-1.153,4.092-1.744,8.211-4.078,11.727c-4.093,0-2.925-2.061-2.925-3.516
	c-3.487,4.984-6.706,10.861-9.631,16.135L926.439,1460.904z"/>
<polygon fill-rule="evenodd" clip-rule="evenodd" fill="#FFFFFF" points="936.328,1455.933 935.16,1451.236 938.365,1453.311
	937.197,1455.342 "/>
<path fill-rule="evenodd" clip-rule="evenodd" fill="#FFFFFF" d="M1190.237,1431.601h-3.803l4.97-2.637l-2.059-4.984
	c-4.092-0.288-12.854-5.425-15.476-6.289c-3.501-0.894-19.65-21.518-20.831-26.214c8.486,0,23.027,22.231,41.866,20.762l8.475-8.5
	c3.197,0,4.093-4.119,6.122-2.06c1.168,2.06,0.591,5.864,0.591,9.091c0,2.637-0.286,6.166-1.771,9.104
	c-3.213,0.576-5.547,2.06-8.458,3.227c0,2.938-0.881,3.804-2.911,5.863c-0.576,4.105-2.624,0-4.668,2.637H1190.237z"/>
<path fill-rule="evenodd" clip-rule="evenodd" fill="#FFFFFF" d="M987.75,1406.65c-4.681-3.227-12.556-14.09-12.556-19.362
	c14.597,12.619,28.026,24.938,43.79,30.512c11.979,4.395,26.563,4.092,42.327,2.938c21.257-1.592,20.021-4.559,38.956-13.594
	l-0.699,7.909c-12.346,15.984-19.348,7.745-37.969,13.581c-12.441,4.312-34.138,3.075-42.024,0
	C999.719,1410.77,995.344,1418.981,987.75,1406.65"/>
<polygon fill-rule="evenodd" clip-rule="evenodd" fill="#FFFFFF" points="1208.075,1392.136 1207.196,1385.394 1203.971,1385.394
	1208.075,1379.517 1210.136,1379.517 1212.744,1394.182 "/>
<path fill-rule="evenodd" clip-rule="evenodd" fill="#FFFFFF" d="M1162.926,1369.19c1.455,1.469,3.789,3.241,4.395,4.998
	c4.668,2.637,9.337,7.333,14.006,9.667c4.668,2.06,10.49,5.301,15.764,7.937c0.866,4.105-1.182,2.06-3.227,2.637
	c-4.668-2.334-17.206-8.788-23.057-10.848C1166.427,1378.006,1162.926,1376.537,1162.926,1369.19"/>
<path fill-rule="evenodd" clip-rule="evenodd" fill="#FFFFFF" d="M1046.042,1408.243l-4.957-1.47l-11.384-2.046l-10.512-1.181
	l-14.596-5.878l-5.831-2.636l-6.129-7.031l-6.709-4.119l-4.962-4.998l-0.873-4.683l5.835,4.683
	c6.133,4.12,9.634,9.982,17.797,14.089l5.54,0.59l7.89,4.999c7.579,2.348,17.507,2.046,25.101,2.046h4.971L1046.042,1408.243z"/>
<path fill-rule="evenodd" clip-rule="evenodd" fill="#FFFFFF" d="M1025.781,1387.865l-4.092-0.879l-16.636-11.727h4.949
	l11.096,3.515c5.555,0,12.571,3.516,17.831,1.47l13.127,2.046l3.514,1.469l-5.546,3.228L1025.781,1387.865z"/>
<path fill-rule="evenodd" clip-rule="evenodd" fill="#FFFFFF" d="M961.036,1385.888l-11.671-11.74
	c0-5.864-32.99-54.872-37.651-64.553l-6.147-10.573c2.055,0,7.017-3.227,3.222-3.227l5.85,1.181
	c2.613,9.969,11.664,14.953,15.447,22.012c4.964,8.789,9.647,21.119,14.597,32.558l7.889,9.982l4.964,7.635l5.54-4.998
	l-2.039,12.029l9.928-7.91l-5.835,12.03L961.036,1385.888z"/>
<path fill-rule="evenodd" clip-rule="evenodd" fill="#FFFFFF" d="M1198.45,1373.722c-2.911-1.456-6.427-1.758-9.628-2.938
	c-4.969,1.181-18.989-8.514-19.565-8.816c-0.866-2.046-2.334-5.561-2.925-7.606c7.88,3.515,14.597,7.606,22.49,11.727h9.628
	c2.044-0.879,3.226-2.925,4.955-4.984c5.85,4.696,5.563,2.924,5.563,11.452c-2.925,0-7.594-1.483-4.959-3.529
	c-0.301,0.288-0.604,0.591-0.604,0.591C1201.676,1371.071,1199.918,1372.555,1198.45,1373.722"/>
<path fill-rule="evenodd" clip-rule="evenodd" fill="#FFFFFF" d="M1067.793,1379.915c-1.457-2.938,6.124-2.046,3.212,0.59
	L1067.793,1379.915z"/>
<polygon fill-rule="evenodd" clip-rule="evenodd" fill="#FFFFFF" points="974.384,1368.998 972.345,1365.469 977.309,1365.469 "/>
<path fill-rule="evenodd" clip-rule="evenodd" fill="#FFFFFF" d="M1049.969,1367.405c-3.804-1.456-11.974-2.046-16.34-2.046v-2.925
	c-6.152-0.879-5.85-5.287-12.564-4.12c0-0.893-0.295-1.757-0.591-2.938l-12.558-10.861l8.479,2.046
	c2.32,2.362,14.872,7.648,18.387,8.541c5.823,1.456,26.57,4.395,29.194,8.212l2.045,5.561
	C1060.461,1368.283,1055.517,1368.01,1049.969,1367.405"/>
<path fill-rule="evenodd" clip-rule="evenodd" fill="#FFFFFF" d="M1213.595,1367.501v-6.165l-12.549-9.983l-2.063-7.62l9.065,4.105
	l-2.926-8.226l-7.579-7.03v-4.119l13.14-12.03l1.443,8.514l-3.487,4.106c1.743,1.469,4.955,2.65,4.955,4.119l-0.878,7.621
	c1.758,4.999,7.606,9.983,5.851,14.665L1213.595,1367.501z"/>
<path fill-rule="evenodd" clip-rule="evenodd" fill="#FFFFFF" d="M1152.092,1317.34l1.47-21.725l3.516-5.574v4.119l1.152,14.666
	c-0.576,2.06-0.576,6.756-0.576,6.756c0.274,3.516,9.034,9.076,11.96,9.076c5.26,0,14.322,0.591,20.721-2.622
	c2.319,0,9.337-8.816,9.337-9.104c2.637-4.105,5.259-21.71,6.729-23.179c-1.18,3.227,1.44,14.679-0.894,20.24
	c-4.669,10.285-7.594,16.739-18.084,22.3C1168.172,1334.641,1163.187,1336.398,1152.092,1317.34"/>
<polygon fill-rule="evenodd" clip-rule="evenodd" fill="#FFFFFF" points="1058.895,1334.71 1056.863,1334.71 1057.74,1329.149
	1063.866,1334.71 "/>
<path fill-rule="evenodd" clip-rule="evenodd" fill="#FFFFFF" d="M1069.483,1288.091l6.136-16.712
	c4.381-4.406,14.887-10.559,16.055-16.436l8.182,0.878l0.865-4.105l11.672,3.228c2.925,4.105,4.395,5.574,5.836,0h4.67l9.049,4.984
	l10.519-4.984l13.718,3.803c1.756,0,5.258-5.863,7.896-7.923l36.758,27.299l2.048,6.166c-5.823-2.349-9.915-6.166-15.751-8.802
	l-11.383-2.938l-1.182,2.06l-9.914,0.879l-6.427-7.045l-10.807-2.047l-3.804-1.469l-11.672,6.453
	c-9.914-3.227-12.853-1.469-23.619-6.453c-15.764,1.469-15.475,4.984-26.282,9.97c-5.821,9.104-11.095,23.165-6.124,33.45
	c21.889,20.83,52.538,19.361,51.081-17.604c2.335,1.47,4.654,2.925,6.99,4.105c1.18,10.271-2.046,20.845-7.867,27.299
	c-4.973,5.273-14.31,9.364-27.437,7.909c-9.064,0-18.111-4.696-23.07-10.848C1068.905,1311.572,1065.102,1298.362,1069.483,1288.091
	"/>
<polygon fill-rule="evenodd" clip-rule="evenodd" fill="#FFFFFF" points="1045.054,1329.753 1045.054,1323.876 1052.083,1326.814
	1047.991,1327.995 "/>
<polygon fill-rule="evenodd" clip-rule="evenodd" fill="#FFFFFF" points="1040.111,1326.266 1037.486,1325.098 1036.319,1321.568
	1031.651,1321.568 1029.619,1319.51 1029.619,1315.403 1035.729,1319.51 1043.049,1323.615 "/>
<path fill-rule="evenodd" clip-rule="evenodd" fill="#FFFFFF" d="M996.629,1323.285c-2.053-3.516,5.835-2.046,2.911,0.591
	L996.629,1323.285z"/>
<polygon fill-rule="evenodd" clip-rule="evenodd" fill="#FFFFFF" points="997.61,1316.324 1001.702,1304.597 1007.257,1305.173
	1006.666,1313.385 1001.702,1317.203 "/>
<polygon fill-rule="evenodd" clip-rule="evenodd" fill="#FFFFFF" points="1023.316,1309.375 1023.316,1308.785 1019.801,1308.785
	1018.353,1301.754 1024.779,1310.254 "/>
<polygon fill-rule="evenodd" clip-rule="evenodd" fill="#FFFFFF" points="1007.003,1302.908 1007.003,1297.923 1009.928,1292.348
	1014.893,1294.407 1014.006,1300.861 "/>
<path fill-rule="evenodd" clip-rule="evenodd" fill="#FFFFFF" d="M1015.901,1294.971c0-0.59,2.052-4.105,2.052-0.59
	L1015.901,1294.971z"/>
<path fill-rule="evenodd" clip-rule="evenodd" fill="#FFFFFF" d="M1025.781,1292.485v-2.637c3.811-2.06,4.964,4.683,2.053,2.637
	H1025.781z"/>
<path fill-rule="evenodd" clip-rule="evenodd" fill="#FFFFFF" d="M1214.584,1291.99v-4.997
	c-6.729-9.668-20.434-22.892-26.556-26.997c-5.247-3.515-18.099-13.209-28.921-19.951c-18.372-0.893-37.926-1.182-56.326-1.182
	c-8.17,0.59-14.309,2.65-21.6,7.635l-4.656,6.166v-7.635l-9.062-1.181v-5.851l-17.507,0.865l-8.475,4.985l-1.18-0.866l2.938,11.741
	c-2.334-0.302-4.393,0.879-7.003,0.274c-5.56,3.831-12.86,11.149-13.73,13.21l-7.003-2.925l-2.912-9.681l-6.131,7.03l-8.479-4.092
	l-1.167-7.059l-6.998,2.061l-8.465-3.529l12.558-25.815h-4.683l0.591-7.621h2.039c2.053-5.575,3.516-12.029,3.516-17.905
	c0-5.576,0.281-12.62,0.577-18.483l-4.092,1.167c0-0.577,0.295-15.558-2.63-9.393l-9.042,24.95l-2.911,13.787l-2.629,0.879
	c-5.555,7.346-20.447,20.254-21.909,20.254c-0.577,0-18.394,10.258-26.845,13.196l-4.092,5.575h2.039l-6.998,24.647l-7.593,2.65
	l-2.911,9.091l-1.182-14.68l13.72-33.45c6.72,10.285,5.259,1.47,0.892-5.562c11.664-5.272,21.003-10.861,28.597-17.604
	c7.594-6.756,13.134-14.968,21.318-23.77c0-4.696,0.577-10.285-2.925-13.801l-11.686,4.12l4.092-11.452l-15.764-2.925l2.039-2.952
	l18.688-7.622c-9.337,0-18.098-2.046-32.413-7.346c-6.412-3.214-7.58-4.971-9.914-12.304l9.042,2.938l0.589-2.938l9.044,3.804h0.884
	l4.671-2.938c2.923,2.938,7.003,2.073,11.095,2.073c0-2.073,5.258-4.119,7.003-11.15l9.633-1.482v4.998l7.594-9.104l13.43-9.077
	c6.702,4.972,15.165,17,16.63,18.758c0,0,14.582,6.756,26.557,4.119c-6.715-2.073-11.09-4.407-17.502-5.877l-9.929-10.849
	l2.054-4.696c10.209,6.756,25.679,8.486,38.228,4.381l-5.546-2.924c-9.928,2.36-20.139-4.381-22.767-4.381
	c-2.349,0-15.47-10.588-15.47-13.526c0-1.153-4.092-10.545-6.131-14.953l4.08,3.529c2.925,6.151,10.222,11.727,12.854,11.727
	c4.077,0,13.415,2.938,21.599,2.06l-26.846-11.727l-8.183-9.694l-2.61-8.514l7.572-4.985l1.167-30.524l-8.739-6.454l1.146-4.972
	l16.061,9.681l9.047-4.709l-23.644-21.71l-29.764-2.046l-14.598,7.606l9.634-10.545l-4.092-4.113l-14.597,7.051l-8.479,9.681
	l-6.991-2.65l2.041,6.756l-25.391,12.633l-0.884,4.972l19.553-9.694l8.479-4.972l8.156-2.06l-13.992,9.682l0.857,2.072
	c29.036-7.47,79.773,10.052,39.445,26.57l-3.234,12.73c-7.594-2.638-16.354-2.939-24.524-4.093l-26.263,1.153v-6.151l4.958-2.06
	v-1.47l1.167-4.105l2.911,4.696c1.167-4.105,2.349-7.044,5.541-10.56l-6.414,0.865c0-4.395,4.668-4.669,6.414-9.667l-6.414-2.938
	l-3.205,8.514c-7.594,4.092-22.774,9.392-23.35,9.392c-7.891,0-41.566-23.838-45.941-10.628
	c-69.501,94.665,43.365,165.466,35.14,168.487c-14.02-14.089-25.396-19.966-35.324-38.449c-9.352-4.696-16.059-18.757-23.055-24.058
	c-2.63-5.272-4.669-12.619-4.669-17.604c0-13.485,3.502-36.087,3.502-44.601c0-12.029,14.87-49.873,25.67-60.446
	c10.519-17.014,20.433-31.102,34.75-47.821c20.726-16.718,15.764-32.283,26.852-43.419c2.037,0,5.245,3.81,6.426,3.81
	c0.577,0,4.654,1.758,8.17,1.758c6.426,0-9.928,15.255-14.596,19.362c-3.495,5.272-9.051,12.907-13.144,17.898
	c0,5.568-14.287,20.248-18.083,25.232c3.797-2.061,20.139-19.945,22.767-24.938c3.799-5.877,6.703-9.982,11.665-14.974
	c6.724-8.211,14.02-14.961,18.676-24.634c3.22-2.945,7.593-9.99,8.48-10.58c0.576-0.577,9.337-7.903,10.504-4.683
	c3.502,9.694-2.63,15.558-10.211,23.179c-4.09,6.158-12.556,14.37-12.556,17.899c-0.295,4.695-6.133,10.278-11.671,17.013
	l-19.57,24.943c-1.152,2.046-13.991,15.255-13.708,15.558l8.17-7.059c4.977-4.091,12.853-13.195,17.815-18.173
	c5.829-7.93,19.258-21.429,21.889-26.997c2.32-5.582,7.594-9.111,14.583-16.437c7.003-6.159,13.444-9.674,20.742-15.262
	c6.131-3.213,10.799-5.864,17.212-9.098c4.092,0,8.184,0.597,11.088,2.053c-2.328,1.181-6.42,2.938-6.996,2.938
	c-3.797,0-5.245,4.703-9.337,7.621c-1.758,3.516-4.375,7.051-6.426,10.567c-5.26,3.824-9.337,8.802-14.597,12.332
	c-3.208,3.81-7.594,7.635-10.8,11.445c4.668,0,11.671-5.287,14.892-8.506c5.541-6.468,7.888-5.287,13.711-11.151
	c4.092-4.119,7.606-9.392,11.095-14.686c5.843-1.455,9.057-0.569,12.834-0.569c7.311,0,7.594-3.536,15.764-2.945l-0.577,5.588
	c-7.876,7.031-12.262,9.969-22.178,9.969c-0.288,0-11.679,14.37-11.959,14.666c-5.555,3.234-10.238,4.696-15.187,8.52
	c4.949-1.476,18.393-4.415,18.674-4.695c1.181-0.591,6.714-8.226,9.942-12.626c7.572-1.167,16.953,0.404,20.246,1.641
	c8.013,3.015,12.148,0.721,23.873,18.647c23.344,24.037,1.388-3.92-4.436-13.54c-1.07-1.744-12.275-11.15-14.307-13.499
	c4.969-0.294,5.26-1.757,11.095,0.591c5.546,2.054,7.304-3.529,11.687-3.529c5.836,0,12.262,2.067,16.626,6.468
	c0.305,2.925,0.305,9.084,0.305,9.084c0,2.938,6.7,2.643,11.671,2.643c2.032,4.401,4.684,10.278,7.58,14.089
	c5.547,1.461,9.049,2.643,14.61,2.643c26.2,81.154,18.428,2.039,4.957-4.106c-2.651-1.208-12.564-8.226-18.991-11.74
	c-3.789-4.696-7.564-8.226-10.189-13.498c16.904,2.203,26.585,2.993,42.927,3.652c26.365-9.503,6.11-5.891-12.276-7.195
	c-9.036-0.303-17.233-1.73-26.585-2.04c-11.095-11.136,9.352-3.515,9.352-3.515l10.807-6.159c11.096-1.758,23.043-1.758,30.058,0
	c10.507,2.643,22.19,18.194,32.983,26.406c7.003,7.917,16.63,16.732,25.968,22.596c13.153,11.144,35.922,36.093,48.76,51.35
	c15.462,17.905,14.309,33.725,18.086,53.992c0.301,7.621,1.758,15.256,2.635,23.18l2.061,4.97l-2.061,4.724
	c3.792,7.91,6.126,19.06,6.126,27.861c0,16.438,2.044,36.376,0,53.403c-8.157,24.359-21.284,50.175-42.321,65.143L1214.584,1291.99z
	"/>
<polygon fill-rule="evenodd" clip-rule="evenodd" fill="#FFFFFF" points="1205.686,1290.494 1203.627,1284.04 1206.853,1284.934 "/>
<path fill-rule="evenodd" clip-rule="evenodd" fill="#FFFFFF" d="M1046.042,1273.096l-0.865-2.938l-2.046-2.046h-2.046l-4.669,2.046
	l1.744-4.971l4.092-2.06c5.836,0,2.925,2.938,6.427,4.984L1046.042,1273.096z"/>
<path fill="#000000" fill-rule="evenodd" clip-rule="evenodd" d="M1029.675,1238.3l8.458,0.879v-8.485l-7.305-11.15
	c12.853,5.273-4.071-7.635,4.971-7.635l-6.124-11.727c2.334-2.073,4.97-7.347,6.713-7.937l6.717-5.575l-2.048-4.998l7.594-3.228
	v6.166l-2.03,13.209c3.197-3.227,8.456-8.225,10.202-12.33h3.804v6.756l6.124,0.879l-2.032,3.227v1.758l2.032,3.227h9.625
	l9.627,2.925l0.878,7.648l-14.597,9.09l-14.568,3.516l-5.563,11.15l-11.095-2.06l-0.863,10.573c-5.273-5.878-3.516,1.469-6.427,0
	L1029.675,1238.3z"/>
<path fill="#000000" fill-rule="evenodd" clip-rule="evenodd" d="M1231.762,1179.886c-7.319-0.068,9.352-15.241,13.142-24.647
	c-4.971,4.408-11.986,8.802-14.899,8.802c-2.334,0-11.383,2.362-17.81,2.938c12.854-5.85,27.161-8.211,33.862-22.891
	c-14.006,6.165-25.102,5.012-32.983,5.012c-5.835,0-25.389-9.118-25.389-17.631h2.925c10.49,5.877,19.251,11.452,31.225,12.042
	c4.093-1.758,14.006-7.347,15.49-8.527c1.152-0.864,7.867-11.727,8.732-16.711l-6.701,0.591
	c-4.971,9.378-14.032,18.194-19.553,18.194c-13.732,0-21.326-1.771-32.118-10.285c-6.427,4.696-8.761,7.058-13.72,13.8
	l-7.579,17.014c0.866-4.395,1.442-8.788,2.033-13.498l16.038-20.254l4.985-4.971l2.031-8.816
	c-7.867,4.422-15.777,11.741-22.478,17.906c-7.58,2.06-16.04,5.575-23.648,7.03c3.216-1.758,6.141-3.515,9.051-5.561
	c10.52,0,19.266-9.393,25.115-17.315c2.636-2.638,9.338-9.97,13.127-9.97c11.728-32.352,18.675-2.856,35.62-10.573
	c10.505,3.515,11.974,7.923,19.554,15.558c-0.576-6.166-5.851-21.119-9.914-25.238c-4.944-6.028-21.091-17.714-17.233-24.347
	c7.291,7.333,16.657,14.954,21.297,24.347c4.093,8.802,9.642,21.133,11.988,30.224c1.155,7.057,2.046,14.088,2.046,21.421
	c-0.604,16.148-14.61,31.404-14.61,43.722C1211.59,1226.423,1245.509,1179.996,1231.762,1179.886"/>
<path fill-rule="evenodd" clip-rule="evenodd" fill="#211915" d="M1005.025,1148.413c-1.461-2.65,6.133-2.06,3.501,0.865
	L1005.025,1148.413z"/>
<polygon fill="#000000" fill-rule="evenodd" clip-rule="evenodd" points="999.594,1145.914 990.539,1141.809 984.127,1136.824 982.945,1134.777
	987.91,1131.248 992,1136.824 1003.686,1141.809 "/>
<polygon fill-rule="evenodd" clip-rule="evenodd" fill="#FFFFFF" points="1227.436,1143.441 1229.483,1143.441 1233.285,1142.563
	1236.501,1140.518 1237.954,1140.518 1241.443,1137.564 1244.957,1131.413 1252.538,1134.352 1247.869,1137.564 1237.352,1144.032
	1235.319,1145.502 "/>
<polygon fill-rule="evenodd" clip-rule="evenodd" fill="#FFFFFF" points="936.829,1133.5 931.863,1133.5 931.863,1128.805
	934.773,1127.925 948.513,1127.925 952.593,1134.366 938.866,1133.5 "/>
<path fill-rule="evenodd" clip-rule="evenodd" fill="#FFFFFF" d="M1200.165,1114.29c4.092,3.804,7.884,7.347,13.43,8.802
	c3.806,0,8.185,0.591,11.671-1.167c-0.862,1.758-3.197,5.863-4.668,7.044c-3.487,4.092-10.518,4.683-15.764,1.758
	C1198.407,1127.197,1188.192,1115.745,1200.165,1114.29"/>
<polygon fill-rule="evenodd" clip-rule="evenodd" fill="#FFFFFF" points="1249.684,1129.024 1246.744,1124.932 1252.304,1124.04 "/>
<path fill-rule="evenodd" clip-rule="evenodd" fill="#FFFFFF" d="M1249.684,1119.082l2.62-4.105L1249.684,1119.082z"/>
<path fill-rule="evenodd" clip-rule="evenodd" fill="#FFFFFF" d="M938.304,1114.139l-6.131-1.181l-0.591-5.877l11.686,2.938
	l-2.039-4.12l-2.053,1.182h-2.911l-6.722-4.696c-1.167-4.394-2.925-10.271-2.925-15.27c0-5.272,2.053-9.379,8.465-10.546
	c2.349,2.348,1.181,7.031,3.501,9.379c0,3.529,2.053,7.938,5.555,10.285c7.017,3.515,9.928,3.213,17.227,2.046
	c1.181-0.591,2.334-1.167,3.501-2.046c1.463-3.817,3.502-1.758,7.594-0.893l-2.911,9.104h2.911l-1.187,4.696h-2.905l-7.003-1.167
	l-1.463-0.893l-1.167,7.058l-12.543-3.24l5.541,1.181L938.304,1114.139z"/>
<path fill-rule="evenodd" clip-rule="evenodd" fill="#FFFFFF" d="M1264.513,1111.64l-0.88-1.167c0-14.954,3.79-27.285,2.032-45.493
	c-3.198-10.559-10.216-21.421-19.251-29.33c1.729-12.634-6.426-10.876,12.248-19.664c4.971-6.165,4.971-2.06,5.851-8.212
	l10.792-7.936c5.548,21.132,3.502,7.043,14.597,7.043c0,5.287-2.334,17.028,0.894,20.255c-0.605,5.575-0.303,5.575-4.984,9.09
	c-5.837,4.998-5.246,11.452-12.537,12.606c7.291,1.482,12.248,0,19.553,0c1.746,4.695,2.913,5.877,2.913,11.149
	c6.136,3.543,4.364-7.332,6.713-11.149c8.746-5.273,5.836-2.033,8.473-12.606c9.915-3.817,5.247-7.044,11.96-7.044l-2.926-9.681
	c-5.836-1.455-8.761-1.758-14.596-0.879c-5.534-5.575-7.004-10.849-9.048-17.322l1.468-11.136l-11.109-2.053l-4.942-4.992
	c8.458-4.696,11.673-6.749,20.721-3.515c7.293,0.577,18.675,3.515,20.722,9.969c3.487,4.991,9.048,16.142,9.338,16.417l2.044,0.892
	l-1.743-35.798l-0.301-23.762c2.939-14.666-11.096-14.089-11.096-28.164c0-8.507,3.212-19.952,6.137-27.581
	c0.29-10.869,1.472-9.392,1.472-23.776c1.756-16.732,4.364-35.208,3.197-52.517c0.896-16.437-0.286-34.336-1.757-50.773
	c-0.287-2.938-2.045-12.021-3.501-14.665l0.589-20.825c2.625,5.568,5.26,11.15,7.898,16.718c1.152,10.855,3.197,19.952,3.197,31.397
	c0,13.779,0.578,29.331,0.866,43.124c2.046,27.292-0.866,54.583-4.959,81.861l-4.955,17.625h4.955l4.959,13.779
	c-4.669,12.317-1.456,26.997,0.576,39.904c-0.288,9.687,1.47,19.952-1.729,29.934c-8.475,24.347-17.521,48.405-35.333,67.203
	C1297.495,1077.311,1272.092,1104.02,1264.513,1111.64"/>
<path fill-rule="evenodd" clip-rule="evenodd" fill="#FFFFFF" d="M1205.109,1104.143l5.547-3.529h4.093l7.882,7.044
	c-3.213,0.303-6.427,1.167-9.063,0.604C1211.536,1107.96,1207.719,1105.31,1205.109,1104.143"/>
<polygon fill-rule="evenodd" clip-rule="evenodd" fill="#FFFFFF" points="929.412,1106.67 928.526,1105.516 923.577,1104.032
	922.397,1099.927 931.451,1104.623 "/>
<polygon fill-rule="evenodd" clip-rule="evenodd" fill="#FFFFFF" points="960.542,1085.811 951.486,1085.221 953.525,1080.223
	956.45,1080.223 965.224,1085.221 "/>
<path fill-rule="evenodd" clip-rule="evenodd" fill="#FFFFFF" d="M747.152,1071.2c0,0-6.708-5.286-11.686-5.562
	c-2.911,0.865-2.911,2.939-0.87,4.093l7.003,5.574c-12.545-4.105-21.306-9.09-37.063-18.771
	c-14.596-17.906-23.357-40.494-23.357-58.696c0-6.749-6.427-25.238-7.286-29.935c10.504,3.824,9.62,3.824,16.047,10.559
	c0.295,1.477,7.298,8.816,8.478,8.816c1.45,5.864,1.746,7.339,2.898,12.612c-2.039,2.938-5.541,8.514-7.579,11.15
	c-0.296,4.12-1.448,8.514-2.039,12.634c0,5.561-0.886,6.742,2.911,10.545c1.167-7.635,2.925-15.846,3.809-23.179
	c7.286-3.817,8.453-4.394,17.502-4.998c3.206-0.864,5.836-4.689,7.298-6.433c5.836-7.045,3.797-8.816,0.577-8.816
	c-2.039,0-6.129,3.529-8.761,3.529c3.22-3.234,1.743-7.635,0.886-11.74c0-7.93-4.092-18.476-8.473-23.776
	c-2.334-3.81-7.579-3.22-9.029-3.516c-2.938-0.294-15.188-18.194-15.188-18.194c0-5.273-5.257-17.591-10.812-25.239
	c0-3.516-4.668-7.326-5.835-10.546c-0.283-3.824-0.577-7.93,0-11.741c3.501,3.516,3.797,8.508,6.131,9.969
	c0,0,3.797,3.529,5.555,4.696c3.206,0.295,5.836,1.182,8.466,2.925c3.206,2.053,4.078,6.763,0,6.172
	c-3.504-2.348-4.388-4.119-8.466-4.119c0.591,5.582,0.591,5.877,5.541,7.648l2.925-2.938c2.923,2.053,5.555,4.106,8.17,5.864
	c0.872,2.643,5.555,11.445,5.555,14.679c4.373,2.039,7.278,3.22,9.906,6.735c-1.461,5.005,0.598,5.582,2.63,12.626
	c6.708,7.621,11.376,16.436,18.1,24.353c4.962,7.635,12.839,17.604,18.098,22.89c7.887,7.91,15.187,25.816,22.19,25.514
	c6.427,6.454,9.631,16.148,17.522,20.254c3.775,2.06,8.753-3.515,13.126-5.561c4.654-5.877,12.558-4.12,14.597-9.104l-2.039,6.166
	l-1.181,8.499l8.761-0.864c0.872,4.105-0.872,2.06-4.092,5.862l-5.54,2.047l-4.08,8.816l-6.425-2.061l-1.462,5.863l-7.594-0.865
	l2.039,5.562l-9.626,3.516v-9.969h-4.078v6.453c-3.208,1.758-6.709,7.044-9.928,7.044
	C762.916,1078.244,752.988,1074.125,747.152,1071.2"/>
<polygon fill-rule="evenodd" clip-rule="evenodd" fill="#FFFFFF" points="920.507,1053.02 928.677,1048.035 925.473,1053.02 "/>
<polygon fill-rule="evenodd" clip-rule="evenodd" fill="#FFFFFF" points="1001.566,1042.076 999.512,1042.076 999.512,1035.649
	996.601,1035.649 996.601,1028.894 1005.068,1034.468 1007.119,1041.499 "/>
<polygon fill-rule="evenodd" clip-rule="evenodd" fill="#FFFFFF" points="946.707,1032.148 948.747,1028.632 950.799,1027.163
	956.635,1027.163 954.583,1032.148 948.747,1032.148 "/>
<polygon fill-rule="evenodd" clip-rule="evenodd" fill="#FFFFFF" points="1020.839,1029.168 1010.924,1026.531 1009.744,1023.593
	1004.792,1021.547 1004.792,1016.548 1008.87,1019.487 1017.926,1022.411 "/>
<polygon fill-rule="evenodd" clip-rule="evenodd" fill="#FFFFFF" points="1237.818,1029.168 1235.182,1028.578 1232.271,1024.485
	1237.242,1020.682 1239.273,1025.652 "/>
<polygon fill-rule="evenodd" clip-rule="evenodd" fill="#FFFFFF" points="994.646,1021.726 987.922,1020.833 985.885,1016.137
	998.736,1014.09 1000.494,1018.787 "/>
<path fill-rule="evenodd" clip-rule="evenodd" fill="#FFFFFF" d="M794.98,1020.723c-7.889-6.453-16.06-20.24-20.729-28.465
	c-3.795-2.925-9.055-6.454-13.43-9.098v3.529c-2.037-3.825-1.756-4.696-5.836-6.159c0,3.516,0.297,2.629,3.194,2.629
	c0,2.938,1.758,6.75,4.683,8.212c0.872,3.234,2.911,4.414,0,5.877c-3.502-3.516-9.337-7.34-11.686-12.036
	c-2.334-2.349-7.876-6.75-10.8-9.674c-3.496-2.349-3.775-5.287-4.957-9.688l16.641,4.106l4.67-1.463v4.992l18.674,9.097l2.039,4.696
	l5.85,4.978l12.558,16.725l2.039,4.999l0.886-1.47l1.152-4.71l6.722,4.71c0,4.394-1.462,4.696-4.092,8.211
	C800.226,1021.313,797.61,1021.011,794.98,1020.723"/>
<path fill-rule="evenodd" clip-rule="evenodd" fill="#FFFFFF" d="M1229.416,1020.723l-4.671-8.802l6.715-4.998
	c1.47-2.335,2.334-6.735,4.958-7.031c2.045,0,1.758,4.106,2.911,6.152L1229.416,1020.723z"/>
<path fill-rule="evenodd" clip-rule="evenodd" fill="#FFFFFF" d="M1200.247,988.426c-8.458-8.5-25.978-17.309-30.346-28.164
	c1.758-4.415,4.64-7.34,6.975-11.741c2.651-5.273-2.03-31.397-3.774-39.018c-1.442-4.992-2.912-35.222,0-39.328l6.426,14.748
	c11-23.467,27.669-31.851,5.837,0.508c-0.591,17.027-1.167,19.375,7.304,34.631c3.201,4.401,6.715,14.961,9.627,17.899
	c-5.259,5.287-2.048,12.613-10.809,12.613c4.092,5.582,16.054,11.15,14.611,18.785
	C1206.977,972.58,1206.674,990.781,1200.247,988.426"/>
<path fill-rule="evenodd" clip-rule="evenodd" fill="#FFFFFF" d="M1254.625,970.548c6.427-10.855,15.161-21.71,19.554-32.86
	c2.034-5.87,4.368-10.566,4.972-16.738c7.291,0-6.427-2.925-7.03-2.925c-5.535-0.59-10.491-3.529-15.463-6.172
	c-1.455-0.872-31.227-15.242-31.227-15.242c9.051-0.591,20.723,0,30.65,0c12.263,15.833,2.61,14.075,25.691,11.727
	c7.293,7.339,2.925,4.696,2.925,13.203c0,3.824,1.744,7.916,1.168,9.983c-2.926,9.681-9.05,16.725-14.597,24.36
	C1264.842,962.926,1263.963,967.033,1254.625,970.548"/>
<path fill-rule="evenodd" clip-rule="evenodd" fill="#FFFFFF" d="M724.303,960.118l1.744-7.635l6.722-9.674
	c0.578,4.401,1.167,7.916,1.167,12.612c-3.797,0.872-3.797,0.872-4.681,4.696H724.303z"/>
<path fill-rule="evenodd" clip-rule="evenodd" fill="#FFFFFF" d="M1152.269,947.699l3.571-17.48l12.908-1.395
	c0.301,3.234,1.633,13.601,2.209,16.822l-6.136,9.969L1152.269,947.699z"/>
<path fill-rule="evenodd" clip-rule="evenodd" fill="#FFFFFF" d="M1027.917,951.495c0-7.929,2.925-9.687,7.882-14.685
	c1.756-1.457,4.395-0.866,7.306-0.866c1.743,3.516,4.077,7.044,5.546,10.56C1041.07,951.495,1037.555,955.01,1027.917,951.495"/>
<path fill-rule="evenodd" clip-rule="evenodd" fill="#211915" d="M1174.541,951.172v-4.978V951.172z"/>
<path fill-rule="evenodd" clip-rule="evenodd" fill="#FFFFFF" d="M1056.34,946.242l-4.668-3.515l3.516-4.105l15.764,6.756h4.957
	c0,2.925-2.047,4.977-4.091,4.977L1056.34,946.242z"/>
<polygon fill-rule="evenodd" clip-rule="evenodd" fill="#FFFFFF" points="907.174,935.766 905.122,929.6 900.239,919.83
	908.143,912.703 917.678,924.629 919.143,926.675 919.143,929.6 913.01,936.651 "/>
<path fill-rule="evenodd" clip-rule="evenodd" fill="#FFFFFF" d="M1154.288,931.797v-3.516c4.38-2.643,8.17-4.991,13.142-4.991
	l2.334,7.635C1165.383,932.092,1159.246,931.797,1154.288,931.797"/>
<polygon fill-rule="evenodd" clip-rule="evenodd" fill="#FFFFFF" points="893.325,928.316 893.325,926.854 891.274,924.8
	891.274,921.272 898.29,913.651 893.759,906.098 901.551,901.011 902.396,907.479 909.089,910.122 909.976,912.188 907.922,917.18
	901.215,922.157 899.457,922.157 "/>
<path fill-rule="evenodd" clip-rule="evenodd" fill="#FFFFFF" d="M1154.632,935.931c0.288-3.812-3.283-27.855-2.705-31.666
	c7.003-3.529,9.16-11.589,16.163-7.483l-0.316,29.036L1154.632,935.931z"/>
<polygon fill-rule="evenodd" clip-rule="evenodd" fill="#FFFFFF" points="892.345,905.466 893.216,905.466 894.384,903.709
	887.957,892.573 900.246,889.703 902.258,902.542 895.255,907.52 "/>
<path fill-rule="evenodd" clip-rule="evenodd" fill="#FFFFFF" d="M1152.312,905.466l4.093-52.537
	c3.501-7.031,5.533-13.484,6.137-22.876c3.488-25.83,22.754-43.138,37.927-63.385l14.308-25.52
	c-0.576,1.462-0.576,14.96-6.714,25.815c-5.836,9.687-15.765,23.172-17.233,24.057c-4.064,8.507-25.953,27.883-16.917,33.156
	c-2.334,3.529-4.971,25.534-5.548,33.47c-1.154,1.758-2.334,3.516-3.488,4.971c-4.394,0-5.561,4.422-7.606,7.635
	c-0.288,2.65-2.046,6.165,1.18,7.031c4.382-0.57,6.702-2.046,8.46,2.945l-2.033,7.635h-7.606l-2.913,6.159l7.885-3.221
	c2.031,0.591,4.365,0.873,6.7,1.167v5.583c-2.911,1.758-6.11,3.22-9.626,4.106L1152.312,905.466z"/>
<path fill-rule="evenodd" clip-rule="evenodd" fill="#FFFFFF" d="M1222.493,897.015c-2.061-2.925,5.548-2.053,2.637,0.59
	L1222.493,897.015z"/>
<path fill-rule="evenodd" clip-rule="evenodd" fill="#FFFFFF" d="M888.389,894.536c-4.977-2.938-7.594-7.916-11.672-10.559
	c0-3.234-0.308-6.159-0.884-9.098c-2.631-3.241-7.3-6.756-10.21-9.694c-16.354-17.899-40.872-33.155-56.341-49.297
	c-7.889-7.916-46.125-57.803-51.954-69.234l-50.943-74.811l6.563-0.309l10.504,12.613c2.055,2.938,17.818,24.95,32.689,48.122
	c14.892,22.596,35.324,49.873,44.38,60.447c20.137,23.172,45.822,46.063,45.822,46.063c17.228,14.37,35.031,27.882,49.922,43.721
	c0.591,3.234,3.219,5.878,4.093,9.098L888.389,894.536z"/>
<polygon fill-rule="evenodd" clip-rule="evenodd" fill="#FFFFFF" points="1173.059,862.947 1171.906,861.484 1171.906,846.222
	1173.938,846.813 1178.03,850.918 1175.998,861.484 "/>
<path fill-rule="evenodd" clip-rule="evenodd" fill="#FFFFFF" d="M1214.734,735.963c4.381-7.621,8.762-15.538,13.43-23.467
	c3.228-5.293,8.473-9.097,11.686-13.505c3.214-2.053,12.841-21.133,14.597-23.776c3.804-4.978,17.509-21.414,17.509-27.868
	c5.547-5.582,11.672-9.098,18.675-9.098c5.851,0,8.471,7.34,13.73,14.384c1.457,5.569,6.427,11.727,12.552,14.961
	c4.093,7.339,7.304,18.49,8.459,26.701c0.303,3.81,3.514,34.92,3.818,39.334c-0.605,1.167-5.851-4.992-6.731-10.869
	c-1.167-6.749-3.788-19.952-5.546-25.822c4.379-8.802-6.125-26.406-11.671-33.45c-4.669-4.401-21.327-4.401-23.662-2.938
	c0,0,2.335,5.287,3.516,7.916c-7.894,0-9.352,6.468-11.96,13.793c-3.804,2.953-1.756,5.877-8.76,5.877
	c-4.396-1.757-5.272-2.643-9.929-2.643c0,2.643-11.671,20.542-13.141,21.119c-8.458,6.475-7.882,11.748-13.43,19.678
	C1226.118,729.215,1202.198,772.057,1214.734,735.963"/>
<path fill-rule="evenodd" clip-rule="evenodd" fill="#FFFFFF" d="M707.261,673.862c-2.051-4.105-9.04-8.506-14.299-8.506
	c-3.501,0-7.3,2.924-10.211,3.81c-2.925,13.203-4.386,26.702-6.44,41.366c-5.245,22.596-6.989,44.024-8.747,66.914
	c0,16.423-0.59,31.679-0.59,48.123c0,11.149,0.886,23.763,0.886,34.912c0,11.151,0.872,23.763,0.578,34.913
	c0-2.925-4.08-14.383-5.542-25.815c-1.461-12.922-0.872-30.525-1.461-42.843c-0.866-22.293-1.167-47.827-1.167-55.758
	c0-14.679,3.204-29.92,4.09-40.185l5.541-31.116l5.555-31.397c5.837-9.083,6.414-14.651,16.342-14.651
	c10.519,0,13.71,7.031,21.316,13.779l1.45,4.992L707.261,673.862z"/>
<path fill-rule="evenodd" clip-rule="evenodd" fill="#BE0411" d="M1651.703,1063.167c14.543,0,26.323,11.728,26.323,26.173
	s-11.78,26.173-26.323,26.173s-26.336-11.728-26.336-26.173S1637.16,1063.167,1651.703,1063.167"/>
<path fill="#000000" d="M1714.496,1823.859l-0.63-0.029h-0.29c-28.656,0-51.492,22.74-51.492,51.055c0,28.932,22.836,51.344,51.492,51.344
	c0.29,0,0.591,0,0.92,0c28.48-0.469,50.23-22.713,50.23-51.344C1764.727,1846.775,1742.826,1824.174,1714.496,1823.859
	 M1714.496,1915.654h-0.63c-22.534,0-38.971-18.057-38.971-40.77c0-22.409,16.437-40.769,38.366-40.769h0.314c0.29,0,0.591,0,0.92,0
	c21.725,0.494,37.434,18.675,37.434,40.769C1751.93,1897.39,1736.083,1915.627,1714.496,1915.654"/>
<path fill="#000000" d="M1725.126,1876.437v-0.618c6.097-1.868,10.354-6.221,10.354-12.141c0-4.654-2.144-8.718-4.862-10.887
	c-3.516-2.391-7.538-3.899-16.122-4.024l-1.234-0.015c-8.238,0-14.639,0.908-19.197,1.854v50.739h11.589v-20.229h5.493
	c1.223,0,2.348,0.083,3.35,0.262c4.121,0.811,6.25,3.31,7.003,7.828c1.511,5.903,2.417,10.27,3.956,12.139h12.469
	c-1.209-1.564-2.129-4.697-3.654-12.47C1732.734,1882.037,1730,1878.003,1725.126,1876.437 M1714.496,1872.509
	c-0.974,0.138-2.005,0.191-3.075,0.191h-5.464v-14.636c1.207-0.305,3.35-0.605,6.384-0.605c0.741,0,1.47,0.027,2.155,0.097
	c5.823,0.563,8.514,3.502,8.514,7.677C1723.01,1869.625,1719.399,1871.905,1714.496,1872.509"/>
<polygon fill="#FFFFFF" points="1015.352,317.156 923.55,383.143 958.64,276.14 867.036,209.851 980.384,209.926 1015.606,102.991
	1050.572,209.995 1163.887,210.187 1072.174,276.277 1107.012,383.343 "/>
<polygon fill="#BE0411" points="1040.344,223.932 1120.702,224.069 1055.641,270.935 1080.344,346.837 1015.372,299.916
	950.278,346.7 975.151,270.839 910.21,223.829 990.581,223.871 1015.536,148.051 "/>
</svg>
