<?xml version="1.0" encoding="utf-8"?>
<!-- Generator: Adobe Illustrator 16.0.0, SVG Export Plug-In . SVG Version: 6.00 Build 0)  -->
<!DOCTYPE svg PUBLIC "-//W3C//DTD SVG 1.1//EN" "http://www.w3.org/Graphics/SVG/1.1/DTD/svg11.dtd">
<svg version="1.1" id="Capa_1" xmlns="http://www.w3.org/2000/svg" xmlns:xlink="http://www.w3.org/1999/xlink" x="0px" y="0px"
	 width="2000px" height="2000px" viewBox="0 0 2000 2000" enable-background="new 0 0 2000 2000" xml:space="preserve">
<path fill="#FFFFFF" d="M1921.756,989.582c0,504.699-409.092,913.807-913.763,913.807c-504.686,0-913.777-409.107-913.777-913.807
	c0-504.656,409.091-913.748,913.777-913.748C1512.664,75.834,1921.756,484.926,1921.756,989.582"/>
<path fill="#2D6244" d="M331.585,993.436c0-9.058,1.038-17.894,1.394-26.878H122.37c-0.268,8.984-1.32,17.82-1.32,26.878
	c0,313.305,162.856,588.123,408.157,745.881l121.347-172.435C459.262,1447.345,331.585,1235.58,331.585,993.436"/>
<path fill="#B1132F" d="M1894.922,993.436c0-9.058-1.097-17.894-1.423-26.878h-210.564c0.355,8.984,1.392,17.82,1.392,26.878
	c0,238.927-124.251,448.542-311.391,568.895l95.875,187.897C1724.029,1594.412,1894.922,1314.242,1894.922,993.436"/>
<path fill="#FFFFFF" d="M1007.948,1669.785c-131.382,0-253.617-38.071-357.395-102.889l-121.347,172.42
	c138.174,88.908,302.246,141.063,478.741,141.063c169.055,0,326.47-48.152,460.847-130.167l-95.859-187.896
	C1267.586,1630.068,1142.533,1669.785,1007.948,1669.785"/>
<path fill="#1C224E" d="M1007.948,317.059c364.481,0,660.798,288.517,674.986,649.499h210.564
	c-14.292-477.259-404.749-860.094-885.551-860.094c-480.757,0-871.212,382.835-885.578,860.094h210.609
	C347.182,605.575,643.497,317.059,1007.948,317.059"/>
<path fill="#FFFFFF" d="M223.3,827.852c-17.997-3.469-26.315-2.861-28.152,6.805c-2.253,11.563,8.614,14.677,40.948,20.904
	c36.618,7.042,46.343,7.635,48.686-4.492c2.061-10.704-10.007-14.247-29.132-18.058l5.352-28.02l4.3,0.785
	c26.626,5.13,45.084,16.368,38.22,52.289c-7.116,37.183-35.521,34.781-72.688,27.679c-31.593-6.048-62.904-13.831-55.018-54.972
	c4.877-25.559,18.635-37.435,47.648-31.919l5.204,0.993L223.3,827.852z"/>
<polygon fill="#FFFFFF" points="217.979,690.494 229.616,663.305 323.149,703.348 339.917,664.016 361.919,673.46 333.498,739.922 
	"/>
<path fill="#FFFFFF" d="M412.146,518.03c20.015,14.307,31.696,31.268,11.757,59.213c-19.941,27.901-39.761,22.387-59.806,8.08
	l-68.463-48.864l17.182-24.077l75.46,53.905c8.007,5.708,14.96,5.931,19.601-0.489c4.58-6.463,2.119-12.957-5.886-18.709
	l-75.476-53.876l17.183-24.061L412.146,518.03z"/>
<path fill="#FFFFFF" d="M417.469,387.227l34.395-30.407c16.115-14.217,33.445-16.13,47.278-0.444
	c9.71,10.926,11.489,24.625,4.019,34.291l0.222,0.252c7.902-5.129,21.037-11.341,38.012,7.917
	c9.815,11.074,18.207,30.436-8.021,53.609l-32.689,28.924L417.469,387.227z M472.842,405.254l6.034-5.381
	c7.679-6.746,6.983-13.906,1.022-20.608c-4.313-4.877-11.578-7.872-19.614-0.741l-6.226,5.485L472.842,405.254z M508.393,445.445
	l6.716-5.944c8.954-7.947,6.967-16.278,1.155-22.846c-8.198-9.266-16.396-9.029-23.26-2.965l-7.132,6.301L508.393,445.445z"/>
<path fill="#FFFFFF" d="M692.197,208.077l41.423-14.336c27.59-9.548,44.341,0.667,58.588,41.896
	c14.93,43.068,16.397,65.099-20.354,77.818l-38.576,13.298L692.197,208.077z M754.094,296.465l7.472-2.549
	c12.986-4.508,15.655-11.209,3.365-46.789c-10.037-28.91-15.063-35.908-29.844-30.808l-7.828,2.669L754.094,296.465z"/>
<polygon fill="#FFFFFF" points="879.294,157.241 951.494,149.234 954.147,173.015 911.316,177.773 914.089,202.755 954.311,198.262 
	956.949,222.101 916.713,226.578 919.901,255.043 964.658,250.063 967.299,273.872 893.156,282.099 "/>
<path fill="#FFFFFF" d="M1059.659,148.805l45.484,4.893c30.971,3.307,34.515,26.374,32.823,41.896
	c-2.371,22.447-14.779,37.034-44.18,33.862l-12.898-1.378l-5.277,48.789l-29.383-3.127L1059.659,148.805z M1083.202,206.328
	l8.05,0.933c11.742,1.23,15.314-5.797,16.221-14.202c1.007-9.621-1.336-17.317-13.24-18.59l-7.502-0.801L1083.202,206.328z"/>
<path fill="#FFFFFF" d="M1244.814,316.347c-36.692-12.855-33.328-38.517-20.089-76.218c13.209-37.656,26.552-59.865,63.246-47.026
	c39.568,13.832,31.622,43.35,20.103,76.216C1296.54,302.219,1284.354,330.194,1244.814,316.347 M1251.175,297.682
	c11.267,3.942,16.589-5.931,28.02-38.473c11.415-32.571,13.386-43.572,2.105-47.574c-10.956-3.826-16.278,6.063-27.664,38.604
	C1242.219,282.826,1240.189,293.871,1251.175,297.682"/>
<path fill="#FFFFFF" d="M1426.87,258.157l41.852,26.61c21.2,13.552,20.147,31.224,10.882,45.767
	c-9.844,15.418-20.903,18.991-34.262,14.455l-0.178,0.281c14.44,12.35,8.97,22.86,0.193,37.286
	c-12.869,21.171-13.446,23.766-10.838,27.502l-0.891,1.333l-26.803-17.108c0.355-4.788,3.381-11.192,11.044-23.231
	c11.712-18.354,11.653-23.824,3.78-28.835l-9.473-6.063l-27.901,43.72l-24.921-15.849L1426.87,258.157z M1423.342,318.645
	l7.708,4.891c10.081,6.464,17.554,0.579,21.527-5.663c5.13-7.96,5.589-15.225-4.388-21.541l-7.533-4.818L1423.342,318.645z"/>
<polygon fill="#FFFFFF" points="1576.338,400.495 1557.659,381.904 1574.501,364.93 1632.913,422.956 1616.041,439.931 
	1597.288,421.34 1525.652,493.436 1504.688,472.605 "/>
<polygon fill="#FFFFFF" points="1696.157,502.464 1712.926,526.808 1609.504,598.029 1592.735,573.729 "/>
<polygon fill="#FFFFFF" points="1764.918,613.921 1777.506,642.994 1694.365,695.431 1694.497,695.787 1789.632,670.97 
	1802.264,699.968 1675.639,723.896 1660.636,689.383 "/>
<path fill="#FFFFFF" d="M1712.688,859.859c-7.22-38.175,16.753-48.078,55.935-55.461c39.259-7.369,65.129-6.878,72.349,31.34
	c7.738,41.126-21.733,49.043-55.98,55.463C1750.761,897.62,1720.441,901.015,1712.688,859.859 M1731.99,856.064
	c2.239,11.741,13.447,11.46,47.339,5.026c33.875-6.375,44.415-10.112,42.235-21.853c-2.163-11.445-13.356-11.104-47.247-4.744
	C1740.411,840.883,1729.855,844.648,1731.99,856.064"/>
<polygon fill="#FFFFFF" points="276.554,1129.162 271.216,1103.322 294.625,1098.475 311.349,1179.125 287.925,1183.972 
	282.558,1158.116 182.975,1178.783 176.957,1149.829 "/>
<path fill="#FFFFFF" d="M335.38,1510.16c-23.69-30.852-6.804-50.45,24.834-74.795c31.651-24.343,54.986-35.596,78.633-4.773
	c25.53,33.21,2.788,53.564-24.848,74.795C386.409,1526.602,360.852,1543.324,335.38,1510.16 M350.918,1497.988
	c7.278,9.474,17.123,4.122,44.446-16.871c27.338-21.037,35.077-29.162,27.738-38.635c-7.043-9.251-16.93-3.884-44.238,17.168
	C351.511,1480.629,343.801,1488.767,350.918,1497.988"/>
<path fill="#FFFFFF" d="M1597.288,1478.626c-13.923-11.919-21.424-15.552-27.843-8.035c-7.665,8.955,0.208,17.079,25.264,38.473
	c28.389,24.194,36.499,29.547,44.52,20.206c7.102-8.316-1.615-17.346-16.367-30.154l18.518-21.704l3.365,2.831
	c20.607,17.628,31.073,36.53,7.293,64.357c-24.581,28.776-48.049,12.661-76.854-11.935c-24.479-20.903-47.782-43.201-20.607-75.016
	c16.93-19.808,34.779-23.307,57.241-4.122l4.002,3.425L1597.288,1478.626z"/>
<path fill="#FFFFFF" d="M1701.688,1186.033l8.999-35.863l129.455,0.134l-7.441,29.71l-24.315-1.408l-7.307,29.206l22.133,10.066
	l-7.457,29.725L1701.688,1186.033z M1728.27,1174.143l-0.104,0.356l51.756,23.676l5.218-20.859L1728.27,1174.143z"/>
<polygon fill="#010003" points="803.565,1684.091 832.252,1691.207 807.747,1789.886 849.258,1800.175 843.477,1823.405 
	773.337,1806.03 "/>
<path fill="#010003" d="M1214.645,1771.412c5.085,24.107,2.209,44.522-31.401,51.608c-33.563,7.086-44.431-10.393-49.516-34.499
	l-17.404-82.326l28.953-6.077l19.153,90.687c2.002,9.652,7.014,14.574,14.753,12.928c7.753-1.631,10.377-8.11,8.316-17.76
	l-19.141-90.747l28.896-6.063L1214.645,1771.412z"/>
<path fill="#B1132F" d="M1482.643,1180.355c-74.883,192.27-261.741,328.618-480.446,328.618
	c-284.854,0-515.73-230.905-515.73-515.745c0-284.765,230.876-515.552,515.73-515.552c220.587,0,408.854,138.721,482.464,333.615
	h101.627c-77.418-248.902-309.746-429.758-584.091-429.758c-337.885,0-611.799,273.944-611.799,611.695
	c0,337.959,273.914,611.829,611.799,611.829c272.506,0,503.338-178.38,582.37-424.702H1482.643z"/>
<path fill="#B1132F" d="M1017.363,557.511V659.88c20.726,0.593,40.947,3.113,60.605,7.384v652.005v103.317
	c42.89-7.516,83.734-21.333,121.316-40.413v-116.335V720.665c31.964,22.653,60.058,50.806,82.297,82.962h113.295
	C1326.353,662.163,1183.749,563.263,1017.363,557.511"/>
<path fill="#B1132F" d="M759.475,759.373c29.859-31.711,65.826-57.479,106.194-75.609v608.863
	c-40.368-18.027-76.335-43.853-106.194-75.505V759.373z M981.322,606.271c-0.192-23.542-19.302-42.652-42.949-42.652
	c-1.66,0-3.276,0.104-4.937,0.444c-0.948,0.163-1.897,0.267-2.832,0.445c-1.334,0.193-2.757,0.534-4.092,0.742
	C793.1,588.569,680.724,672.733,618.856,788.045c-1.51,4.344-2.312,8.91-2.312,13.743c0,23.113,17.331,42.046,38.723,42.046
	c3.173,0,6.108-0.476,9.073-1.32v265.612v11.519v26.019c-2.964-0.801-5.9-1.394-9.073-1.394c-21.393,0-38.723,18.873-38.723,42.045
	c0,3.691,0.651,7.323,1.468,10.689c61.658,116.067,174.51,200.81,308.323,224.337c1.497,0.297,2.935,0.534,4.329,0.815
	c0.875,0.074,1.779,0.208,2.609,0.43c1.646,0.179,3.32,0.342,5.025,0.342c23.722,0,42.965-19.243,42.965-43.008
	c0-0.55,0.059-771.781,0.059-771.781v-1.215c0-0.089,0.134-0.164,0.134-0.208C981.456,606.494,981.322,606.42,981.322,606.271"/>
</svg>
